<svg width="788" height="552" viewBox="0 0 788 552" fill="none" xmlns="http://www.w3.org/2000/svg">
<path d="M631.544 508.802C631.606 509.027 631.728 509.292 631.846 509.598C632.705 511.732 634.642 515.707 638.544 516.546C642.77 517.448 646.424 514.054 647.384 513.061L647.608 512.821C650.472 509.606 650.598 505.786 650.819 498.211C650.932 493.575 650.591 488.939 649.8 484.37C649.221 480.912 648.407 477.497 647.363 474.15C645.933 474.959 644.568 475.878 643.279 476.897C633.601 484.576 631.516 495.622 631.087 498.437C630.581 501.676 630.079 504.987 631.544 508.802Z" fill="#60A5FA"/>
<path d="M639.594 462.181C638.546 449.485 634.01 442.091 631.429 438.618C627.118 432.848 624.147 432.567 623.087 432.618C621.863 432.674 620.67 433.025 619.612 433.642C618.553 434.259 617.66 435.123 617.01 436.16C615.024 439.334 616.323 442.993 617.05 445.027C617.498 446.291 618.913 449.781 624.467 454.269C628.945 457.866 634.084 460.553 639.594 462.181Z" fill="#60A5FA"/>
<path d="M605.079 475.182C605.456 475.454 605.855 475.695 606.273 475.9C606.849 476.185 607.453 476.41 608.075 476.571C615.234 478.548 624.87 475.949 624.87 475.949C630.496 474.359 635.8 471.796 640.54 468.375C635.662 465.678 630.47 463.594 625.08 462.17C620.032 460.842 614.489 459.385 609.911 459.92C607.774 460.097 605.747 460.942 604.118 462.334C603.645 462.755 600.904 465.307 601.075 468.827C601.245 472.347 604.352 474.657 605.079 475.182Z" fill="#60A5FA"/>
<path d="M650.968 471.133C648.482 471.823 645.907 470.368 645.217 467.885C644.527 465.402 645.983 462.831 648.469 462.141C650.955 461.452 653.529 462.906 654.219 465.389C654.91 467.872 653.454 470.444 650.968 471.133Z" fill="#FEF08A"/>
<path d="M645.719 458.061C643.581 455.281 639.771 449.566 638.887 442.2C638.535 438.827 638.97 435.419 640.159 432.243C640.61 430.979 641.431 429.88 642.514 429.088C643.621 428.35 644.936 427.985 646.265 428.048C647.783 428.157 649.216 428.786 650.323 429.828C651.791 431.213 652.753 433.048 653.057 435.042C653.859 438.855 652.623 442.2 651.264 446.032C650.799 447.266 650.301 448.381 649.304 450.61C647.886 453.764 646.615 456.312 645.719 458.061Z" fill="#60A5FA"/>
<path d="M655.012 459.52C654.404 453.771 655.295 447.963 657.598 442.661C659.105 439.362 661.549 433.825 666.226 433.004C667.999 432.703 669.822 433.059 671.352 434.004C674.098 435.801 674.457 439.043 674.518 439.583C674.834 442.433 673.488 444.598 672.106 446.805C669.714 450.584 666.794 452.693 664.139 454.567C661.301 456.568 658.237 458.23 655.012 459.52Z" fill="#60A5FA"/>
<path d="M655.628 473.861C656.404 474.703 657.678 476.06 659.256 477.697C669.032 487.899 671.256 488.896 674.214 493.725C675.805 496.367 679.906 503.156 677.213 507.421C676.251 508.823 674.791 509.805 673.129 510.168C667.255 511.272 661.551 502.701 659.836 500.134C657.296 496.309 655.605 491.985 654.879 487.453C654.154 482.921 654.409 478.286 655.628 473.861Z" fill="#60A5FA"/>
<path d="M662.888 464.599C665.304 460.251 668.319 456.264 671.844 452.753C675.393 449.242 677.635 448.064 680.018 447.742C681.038 447.604 683.913 447.219 685.973 449.077C686.836 449.877 687.434 450.923 687.686 452.072C688 453.844 687.643 455.669 686.685 457.192C683.679 462.513 675.283 463.583 670.056 464.225C667.678 464.523 665.283 464.647 662.888 464.599Z" fill="#60A5FA"/>
<path d="M662.987 470.626C665.924 469.303 675.432 465.456 684.829 469.411C687.159 470.379 691.559 472.226 693.33 476.739C693.438 477.129 695.435 482.305 692.62 485.814C689.621 489.559 683.466 488.489 681.384 488.122C674.504 486.915 670.315 481.902 668.283 479.649C665.95 477.068 662.987 470.626 662.987 470.626Z" fill="#60A5FA"/>
<path d="M637.286 474.929C633.535 475.969 614.929 481.209 610.084 489.735C609.215 491.26 607.403 494.45 608.698 496.899C609.727 498.857 612.221 499.344 612.638 499.446C615.435 500.091 618.478 498.715 621.577 496.233C626.204 492.529 632.247 485.203 634.623 482.123C636.416 479.647 638.026 477.043 639.438 474.332L637.286 474.929Z" fill="#60A5FA"/>
<path d="M632.893 549.992C630.822 550.566 628.676 549.354 628.101 547.285C627.526 545.216 628.739 543.073 630.811 542.499C632.882 541.924 635.028 543.136 635.603 545.205C636.178 547.274 634.965 549.417 632.893 549.992Z" fill="#92BEFC"/>
<path d="M663.026 531.951C659.505 532.928 655.857 530.868 654.879 527.35C653.902 523.832 655.964 520.189 659.486 519.212C663.007 518.236 666.655 520.296 667.633 523.813C668.61 527.331 666.548 530.975 663.026 531.951Z" fill="#92BEFC"/>
<path d="M649.229 546.269C646.536 547.016 643.747 545.44 642.999 542.75C642.251 540.06 643.828 537.274 646.521 536.527C649.214 535.781 652.004 537.356 652.751 540.046C653.499 542.736 651.922 545.522 649.229 546.269Z" fill="#92BEFC"/>
<path d="M606.818 369.369C612.819 369.618 618.798 370.268 624.712 371.314C626.742 371.676 628.849 372.117 631.019 372.581C636.546 373.856 641.995 375.447 647.339 377.347C662.587 383.017 696.527 407.884 702.949 450.011C708.63 487.296 689.314 515.383 684.141 522.304L683.678 522.915C687.766 518.889 716.032 490.102 712.31 446.957C710.028 420.503 695.732 389.083 669.921 376.708C648.473 366.397 618.574 369.395 606.818 369.369Z" fill="#60A5FA"/>
<path d="M604.623 369.311C605.261 369.346 605.993 369.366 606.819 369.371L605.402 369.316L604.623 369.311Z" fill="#60A5FA"/>
<path d="M667.626 379.028C654.429 372.726 638.134 371.398 624.767 371.316C626.797 371.678 628.904 372.119 631.073 372.583C636.601 373.858 642.05 375.449 647.394 377.349C662.642 383.018 696.582 407.886 703.004 450.013C708.685 487.298 689.368 515.385 684.195 522.306C692.472 513.235 713.22 486.641 710.015 449.278C707.733 422.823 693.436 391.404 667.626 379.028Z" fill="#93C5FD"/>
<path d="M697.942 513.75C701.943 512.921 705.877 511.796 709.711 510.385C725.597 504.523 739.249 493.844 748.755 479.844C761.901 460.086 754.116 451.056 766.961 430.962C774.9 418.529 783.788 412.751 786.636 409.083C787.484 407.976 787.793 407.06 787.354 406.21C785.047 401.662 764.78 405.597 749.155 414.53C743.506 417.754 731.763 424.642 723.706 438.404C715.051 453.236 718.891 461.907 712.141 483.516C708.781 494.182 704.005 504.35 697.942 513.75Z" fill="#93C5FD"/>
<path d="M709.712 510.386C725.598 504.524 739.251 493.845 748.756 479.845C761.902 460.087 754.118 451.057 766.962 430.963C774.902 418.53 783.789 412.752 786.638 409.083C778.787 409.619 766.479 413.338 756.135 419.232C750.486 422.456 738.742 429.344 730.686 443.106C722.031 457.937 725.87 466.609 719.121 488.217C716.707 495.893 713.557 503.316 709.712 510.386Z" fill="#60A5FA"/>
<path d="M600.027 357.454C600.791 359.861 603.956 361.724 607.926 363.109C614.77 365.484 624.119 364.546 627.232 364.674C627.498 364.718 627.771 364.676 628.012 364.554C628.966 363.907 624.141 360.875 624.141 360.875L618.768 357.249C615.574 355.064 611.993 353.506 608.216 352.659C604.165 351.763 601.516 352.089 600.341 354.508C599.858 355.412 599.745 356.468 600.027 357.454Z" fill="#60A5FA"/>
<path d="M600.025 357.453C600.789 359.861 603.954 361.723 607.924 363.109C614.768 365.483 624.117 364.545 627.23 364.673C627.496 364.717 627.769 364.675 628.01 364.554C628.847 363.781 623.629 361.54 623.629 361.54L617.744 358.829C614.239 357.187 610.454 356.225 606.589 355.992C603.468 355.825 601.263 356.193 600.025 357.453Z" fill="#93C5FD"/>
<path d="M614.2 346.676C614.813 353.415 623.36 357.402 629.206 360.129C635.228 362.911 641.721 364.534 648.345 364.912C648.384 364.912 648.4 364.874 648.346 364.85C648.004 364.646 646.965 363.994 645.5 362.974C641.399 360.15 637.644 356.857 634.31 353.161C628.124 346.124 625.836 338.333 619.603 339.073C618.35 339.174 617.132 339.532 616.023 340.124C614.716 342.051 614.076 344.352 614.2 346.676Z" fill="#93C5FD"/>
<path d="M615.767 345.13C616.797 351.071 622.476 354.403 626.89 357.004C632.597 360.325 638.962 362.363 645.539 362.974C641.425 360.153 637.656 356.859 634.31 353.161C628.124 346.124 625.836 338.333 619.603 339.072C618.35 339.174 617.132 339.532 616.023 340.124C615.582 341.755 615.494 343.462 615.767 345.13Z" fill="#60A5FA"/>
<path d="M631.261 342.253C631.817 349.404 638.194 354.326 643.758 358.661C647.361 361.369 651.209 363.736 655.252 365.73C659.526 368.002 663.934 370.013 668.451 371.752C668.488 371.769 668.531 371.772 668.57 371.76C668.61 371.748 668.644 371.722 668.666 371.688C668.688 371.653 668.696 371.611 668.69 371.57C668.684 371.53 668.663 371.492 668.632 371.466C667.084 369.901 665.677 368.337 664.409 366.836C661.257 363.118 658.474 359.103 656.098 354.848C650.114 344.157 649.135 336.18 642.213 333.766C640.662 333.242 639.025 333.016 637.39 333.099C636.027 333.163 634.718 333.65 633.644 334.491C630.835 336.807 631.182 341.203 631.261 342.253Z" fill="#FFD500"/>
<path d="M646.188 402.413C646.155 403.081 646.276 403.747 646.542 404.36C646.747 404.864 647.067 405.314 647.476 405.672C650.829 408.609 656.439 402.904 664.566 403.078C667.991 403.146 672.47 404.192 677.701 408.066C677.711 408.077 677.724 408.087 677.738 408.093C677.752 408.1 677.767 408.103 677.783 408.103C677.798 408.103 677.813 408.1 677.828 408.094C677.842 408.088 677.854 408.078 677.865 408.067C677.879 408.049 677.886 408.027 677.886 408.005C677.887 407.982 677.879 407.96 677.865 407.942C676.411 405.653 674.621 403.594 672.554 401.836C670.904 400.442 665.962 396.352 658.888 395.92C656.642 395.733 654.382 396.046 652.272 396.836C651.281 397.195 646.388 399.117 646.188 402.413Z" fill="#60A5FA"/>
<path d="M646.541 404.359C646.746 404.864 647.066 405.313 647.475 405.672C650.829 408.608 656.438 402.903 664.565 403.078C667.99 403.145 672.469 404.191 677.7 408.065C677.71 408.077 677.723 408.086 677.737 408.093C677.751 408.099 677.766 408.103 677.782 408.103C677.797 408.103 677.813 408.1 677.827 408.093C677.841 408.087 677.853 408.078 677.864 408.066C676.19 406.068 674.237 404.323 672.064 402.882C670.257 401.697 664.867 398.242 657.788 398.642C655.537 398.726 653.332 399.305 651.331 400.337C650.62 400.698 647.792 402.236 646.541 404.359Z" fill="#93C5FD"/>
<path d="M701.011 394.008C702.325 404.347 706.437 414.132 712.905 422.31C712.905 422.31 712.433 418.061 711.97 412.265C711.25 402.718 710.494 388.988 711.993 383.196C714.385 373.878 715.938 374.665 715.938 374.665C715.938 374.665 717.037 376.966 718.357 380.077C720.239 374.124 721.387 374.699 721.387 374.699C721.387 374.699 725.569 383.403 727.52 390.29C728.282 393.024 731.168 403.641 728.19 415.653C727.256 419.112 726.118 422.512 724.78 425.836C734.282 417.627 736.714 412.113 736.714 412.113C739.809 405.107 740.809 397.356 739.591 389.796C738.435 382.79 736.551 377.646 731.96 372.158C726.225 365.28 719.803 358.817 716.154 355.793C714.683 354.563 713.659 353.903 713.324 354.002C711.241 354.62 709.844 356.415 708.031 360.129C704.625 367.092 699.122 378.342 701.011 394.008Z" fill="#93C5FD"/>
<path d="M706.462 394.041C707.237 400.387 709.101 406.551 711.972 412.265C711.251 402.718 710.495 388.988 711.994 383.196C714.387 373.878 715.939 374.665 715.939 374.665C715.939 374.665 717.038 376.966 718.358 380.077C720.24 374.124 721.388 374.699 721.388 374.699C721.388 374.699 725.57 383.403 727.521 390.29C728.283 393.024 731.169 403.641 728.191 415.653C727.257 419.112 726.119 422.512 724.781 425.836C734.283 417.627 736.715 412.113 736.715 412.113C739.811 405.107 740.81 397.356 739.592 389.796C738.436 382.79 736.552 377.646 731.961 372.158C726.226 365.28 719.804 358.817 716.156 355.793C715.077 357.126 714.178 358.595 713.482 360.162C710.076 367.125 704.573 378.375 706.462 394.041Z" fill="#60A5FA"/>
<path d="M665.981 351.464C666.412 356.211 667.104 363.875 673.083 371.502C677.067 376.515 682.343 380.349 688.345 382.591C688.245 382.458 687.241 381.146 685.828 379.216C682.407 374.529 676.564 366.266 675.413 362.332C673.719 356.675 674.763 356.596 674.763 356.596C674.763 356.596 675.321 356.965 676.166 357.554C678.546 359.162 680.813 360.93 682.954 362.844C686.83 366.433 689.73 370.946 691.383 375.961C692.765 380.402 693.076 385.521 693.777 385.494C693.871 385.495 693.965 385.379 694.059 385.154C694.352 384.44 694.621 383.757 694.851 383.098C698.183 374.152 697.595 369.676 697.595 369.676C696.993 365.008 695.048 360.615 691.997 357.028C689.153 353.706 686.526 351.613 682.37 350.18C676.279 348.082 669.873 346.589 667.6 346.466C667.141 346.463 666.822 346.461 666.774 346.562C665.92 347.552 665.755 348.936 665.981 351.464Z" fill="#93C5FD"/>
<path d="M667.55 349.92C667.98 354.666 668.673 362.33 674.652 369.957C677.682 373.797 681.492 376.953 685.83 379.217C682.41 374.53 676.567 366.267 675.415 362.333C673.721 356.676 674.765 356.597 674.765 356.597C674.765 356.597 675.324 356.966 676.169 357.555C675.74 355.094 676.332 355.051 676.332 355.051C679.206 356.948 681.943 359.043 684.523 361.323C688.399 364.912 691.299 369.425 692.952 374.439C693.982 377.766 694.419 381.486 694.876 383.122C698.209 374.176 697.621 369.701 697.621 369.701C697.018 365.033 695.074 360.64 692.023 357.053C689.178 353.73 686.552 351.638 682.395 350.205C676.304 348.107 669.898 346.613 667.626 346.49C667.414 347.622 667.388 348.78 667.55 349.92Z" fill="#60A5FA"/>
<path d="M637.83 343.851C638.386 351.001 644.763 355.924 650.327 360.259C653.93 362.967 657.778 365.334 661.822 367.328C663.669 368.312 665.439 369.186 667.108 369.966C663.945 366.249 661.151 362.234 658.765 357.978C652.781 347.287 651.802 339.309 644.88 336.895C643.329 336.371 641.692 336.145 640.057 336.228C637.419 338.568 637.751 342.824 637.83 343.851Z" fill="#FEF08A"/>
<path d="M233.148 75.7636C227.509 73.2182 221.706 71.0534 215.779 69.2836C213.743 68.6793 211.6 68.1114 209.388 67.5366C203.712 66.1564 197.961 65.1043 192.164 64.3857C175.508 62.5635 132.769 69.8016 107.375 105.677C84.9015 137.43 89.6889 172.259 91.2491 181.032L91.3924 181.81C89.4917 176.207 76.7909 136.595 100.171 98.5331C114.507 75.1952 142.197 52.8335 171.676 53.3559C196.185 53.7645 222.316 70.3518 233.148 75.7636Z" fill="#60A5FA"/>
<path d="M172.716 56.5562C187.776 56.8464 203.387 63.155 215.728 69.2596C213.692 68.6553 211.549 68.0874 209.338 67.5126C203.661 66.1324 197.91 65.0803 192.113 64.3617C175.457 62.5395 132.718 69.7776 107.324 105.653C84.8508 137.406 89.6381 172.235 91.1983 181.008C87.776 168.817 80.9805 134.704 101.211 101.733C115.547 78.3956 143.237 56.0339 172.716 56.5562Z" fill="#93C5FD"/>
<path d="M82.503 166.763C79.2039 164.149 76.1036 161.293 73.2278 158.219C61.3182 145.469 53.6923 129.31 51.4185 112.006C48.4575 87.7101 59.7985 82.9831 57.2706 58.5164C55.7137 43.3816 50.2065 33.9448 49.2816 29.245C49.0134 27.8325 49.1523 26.8452 49.9492 26.2638C54.1767 23.1373 71.0089 36.1357 81.2585 51.5969C84.9662 57.1811 92.5888 68.9621 93.6388 85.3765C94.7446 103.054 87.2003 109.274 83.4184 132.32C81.5777 143.708 81.2698 155.292 82.503 166.763Z" fill="#93C5FD"/>
<path d="M73.2265 158.22C61.3169 145.47 53.691 129.311 51.4171 112.007C48.4562 87.7112 59.7972 82.9842 57.2693 58.5175C55.7124 43.3827 50.2052 33.9459 49.2803 29.2461C56.2585 33.3694 65.8661 42.4897 72.6606 52.7064C76.3683 58.2906 83.9909 70.0715 85.0408 86.486C86.1467 104.163 78.6024 110.384 74.8205 133.429C73.4917 141.622 72.9579 149.924 73.2265 158.22Z" fill="#60A5FA"/>
<path d="M236.85 51.4266C233.169 57.3564 223.459 57.0812 216.817 56.8925C209.989 56.674 203.262 55.1684 196.991 52.4546C196.955 52.4368 196.959 52.3937 197.019 52.397C197.428 52.3665 198.686 52.2459 200.506 51.9829C205.586 51.275 210.566 49.9747 215.343 48.1086C224.29 44.4799 229.999 38.3543 235.394 41.9178C236.5 42.5906 237.456 43.4839 238.202 44.5422C238.514 46.9232 238.039 49.3409 236.85 51.4266Z" fill="#93C5FD"/>
<path d="M236.125 49.2767C232.43 54.2773 225.663 54.7242 220.397 55.0818C213.608 55.5057 206.809 54.4419 200.473 51.9647C205.564 51.2653 210.556 49.971 215.346 48.1081C224.293 44.4795 230.002 38.3539 235.396 41.9174C236.502 42.5901 237.458 43.4835 238.205 44.5418C237.856 46.2503 237.147 47.8646 236.125 49.2767Z" fill="#60A5FA"/>
<path d="M223.195 39.4632C219.377 45.7993 211.23 47.39 204.105 48.8147C199.536 49.6463 194.9 50.0494 190.256 50.0188C185.272 50.1378 180.286 49.9544 175.324 49.4697C175.281 49.4678 175.241 49.4507 175.21 49.4214C175.179 49.3922 175.16 49.3527 175.156 49.3104C175.152 49.2681 175.163 49.2257 175.188 49.191C175.212 49.1564 175.249 49.1318 175.29 49.1217C177.438 48.3943 179.456 47.6029 181.317 46.8051C185.938 44.8334 190.357 42.4184 194.512 39.5938C204.963 32.5027 209.554 25.5998 217.041 26.574C218.711 26.808 220.322 27.3558 221.788 28.1885C223.013 28.8776 223.993 29.9318 224.592 31.2041C226.106 34.6383 223.754 38.5313 223.195 39.4632Z" fill="#FFD500"/>
<path d="M220.311 36.2461C216.493 42.5822 208.346 44.1729 201.221 45.5976C196.652 46.4292 192.016 46.8323 187.372 46.8017C185.218 46.8546 183.185 46.8423 181.288 46.7899C185.917 44.8244 190.346 42.4141 194.511 39.5929C204.962 32.5018 209.553 25.5989 217.04 26.5731C218.71 26.8071 220.321 27.3549 221.788 28.1876C223.133 31.5651 220.859 35.3358 220.311 36.2461Z" fill="#FEF08A"/>
<path d="M157.851 99.3218C153.721 107.446 138.744 100.869 123.467 107.372C117.355 110.038 111.966 114.121 107.744 119.285C105.74 121.664 103.92 124.192 102.3 126.848C102.269 126.892 102.224 126.924 102.173 126.939C102.121 126.955 102.066 126.953 102.016 126.933C101.966 126.913 101.924 126.878 101.897 126.831C101.87 126.785 101.859 126.731 101.866 126.678C102.896 121.217 104.745 115.943 107.348 111.034C109.41 107.131 115.697 95.6351 128.763 89.4076C132.884 87.3475 137.409 86.2242 142.015 86.1179C144.187 86.1008 154.922 86.0053 157.818 92.1457C158.198 92.9756 158.446 93.8593 158.554 94.7653C158.78 96.3204 158.535 97.9075 157.851 99.3218Z" fill="#FFD500"/>
<path d="M155.678 94.6684C151.549 102.793 136.571 96.2158 121.294 102.719C115.182 105.385 109.793 109.468 105.572 114.631C106.171 113.272 106.761 112.078 107.348 111.035C109.41 107.133 115.697 95.6364 128.763 89.4089C132.884 87.3488 137.409 86.2255 142.014 86.1192C143.918 86.1033 152.354 86.0254 156.382 90.1119C156.607 91.667 156.362 93.2541 155.678 94.6684Z" fill="#FEF08A"/>
<path d="M181.629 88.0296C181.351 88.6601 180.931 89.2182 180.403 89.6605C179.982 90.0309 179.479 90.2974 178.936 90.4386C174.492 91.5963 171.968 83.7427 164.408 80.146C161.224 78.6248 156.619 77.5191 150.013 78.6722C149.998 78.6782 149.982 78.6811 149.966 78.6805C149.95 78.68 149.935 78.676 149.92 78.6689C149.906 78.6619 149.893 78.6519 149.883 78.6395C149.873 78.6272 149.866 78.6129 149.862 78.5975C149.857 78.5748 149.86 78.5511 149.87 78.5302C149.881 78.5094 149.898 78.4925 149.918 78.4825C152.316 77.0434 154.915 75.9732 157.631 75.3079C159.794 74.785 166.234 73.2989 172.945 76.1711C175.098 77.0376 177.032 78.3706 178.61 80.0743C179.355 80.8638 182.97 84.8983 181.629 88.0296Z" fill="#60A5FA"/>
<path d="M180.402 89.6613C179.981 90.0316 179.479 90.2982 178.936 90.4394C174.491 91.597 171.967 83.7435 164.407 80.1468C161.223 78.6256 156.618 77.5198 150.012 78.6729C149.997 78.679 149.981 78.6818 149.965 78.6812C149.949 78.6807 149.934 78.6767 149.92 78.6697C149.905 78.6626 149.893 78.6526 149.883 78.6403C149.872 78.628 149.865 78.6136 149.861 78.5983C152.325 77.5299 154.93 76.8231 157.596 76.5C159.807 76.2424 166.365 75.5487 172.696 79.1905C174.728 80.3088 176.49 81.8615 177.855 83.7382C178.342 84.3998 180.233 87.1253 180.402 89.6613Z" fill="#93C5FD"/>
<path d="M135.063 54.9338C129.072 63.8598 120.762 70.9813 111.026 75.5315C111.026 75.5315 113.426 71.832 116.533 66.7012C121.611 58.2316 128.658 45.9209 129.957 39.8869C132.064 30.1894 130.272 30.1976 130.272 30.1976C130.272 30.1976 128.196 31.8109 125.542 34.0692C126.564 27.7099 125.241 27.7088 125.241 27.7088C125.241 27.7088 117.366 33.8014 112.385 39.2494C110.419 41.4184 102.853 49.8742 100.038 62.327C99.2976 65.9477 98.773 69.6093 98.4669 73.2923C93.5182 61.3305 93.8306 55.1216 93.8306 55.1216C94.2214 47.2307 96.8866 39.6217 101.504 33.2135C105.809 27.2878 109.922 23.4154 116.685 20.4783C125.144 16.787 134.044 13.797 138.801 12.6953C140.724 12.2416 141.971 12.1068 142.234 12.3532C143.865 13.885 144.321 16.1866 144.272 20.4495C144.186 28.4442 144.048 41.3621 135.063 54.9338Z" fill="#93C5FD"/>
<path d="M130.031 52.4451C126.383 57.9378 121.817 62.7604 116.532 66.7013C121.61 58.2317 128.657 45.921 129.956 39.887C132.064 30.1895 130.271 30.1977 130.271 30.1977C130.271 30.1977 128.195 31.811 125.541 34.0693C126.563 27.71 125.24 27.7089 125.24 27.7089C125.24 27.7089 117.365 33.8015 112.384 39.2494C110.419 41.4185 102.852 49.8743 100.037 62.3271C99.2968 65.9478 98.7723 69.6094 98.4661 73.2924C93.5175 61.3306 93.8299 55.1217 93.8299 55.1217C94.2207 47.2308 96.8859 39.6217 101.504 33.2135C105.808 27.2879 109.921 23.4155 116.684 20.4783C125.144 16.7871 134.044 13.7971 138.8 12.6954C139.176 14.4238 139.324 16.194 139.24 17.9608C139.154 25.9555 139.016 38.8734 130.031 52.4451Z" fill="#60A5FA"/>
<path d="M186.978 31.9018C184.386 36.0794 180.204 42.8262 171.174 47.0942C165.189 49.8754 158.559 50.9712 151.998 50.2637C152.152 50.1876 153.683 49.4415 155.876 48.3156C161.192 45.5752 170.391 40.657 173.271 37.5617C177.446 33.1293 176.522 32.5738 176.522 32.5738C176.522 32.5738 175.837 32.6558 174.787 32.8077C171.854 33.1912 168.949 33.7726 166.093 34.5481C160.866 36.0651 156.109 38.8857 152.269 42.7453C148.943 46.2015 146.289 50.7776 145.656 50.4289C145.57 50.3862 145.537 50.2357 145.554 49.9845C145.615 49.1912 145.683 48.4374 145.777 47.7229C146.847 37.9332 149.458 34.0784 149.458 34.0784C152.172 30.0528 155.993 26.9008 160.46 25.0042C164.615 23.2558 168 22.5407 172.488 23.141C179.065 24.0225 185.651 25.6071 187.8 26.5446C188.224 26.7544 188.518 26.9001 188.515 27.0149C188.844 28.3231 188.355 29.6745 186.978 31.9018Z" fill="#93C5FD"/>
<path d="M186.25 29.752C183.659 33.9296 179.476 40.6765 170.446 44.9444C165.881 47.0844 160.915 48.2332 155.875 48.3154C161.191 45.575 170.39 40.6568 173.27 37.5615C177.445 33.1291 176.521 32.5736 176.521 32.5736C176.521 32.5736 175.836 32.6556 174.786 32.8075C176.319 30.7374 175.794 30.424 175.794 30.424C172.272 30.8439 168.783 31.5108 165.355 32.4199C160.127 33.9369 155.371 36.7575 151.53 40.6171C149.043 43.2083 146.921 46.4365 145.743 47.7336C146.814 37.9439 149.425 34.0892 149.425 34.0892C152.138 30.0636 155.96 26.9116 160.427 25.0149C164.582 23.2665 167.967 22.5514 172.455 23.1517C179.031 24.0332 185.618 25.6178 187.766 26.5553C187.438 27.6963 186.926 28.776 186.25 29.752Z" fill="#60A5FA"/>
<path d="M122.664 143.621C118.54 148.829 119.415 156.396 124.619 160.524C129.823 164.651 137.385 163.775 141.509 158.567C145.633 153.359 144.758 145.792 139.554 141.665C134.35 137.538 126.788 138.414 122.664 143.621Z" fill="#60A5FA"/>
<path d="M143.806 160.391C141.694 163.059 142.142 166.935 144.807 169.049C147.473 171.163 151.346 170.714 153.458 168.047C155.571 165.379 155.122 161.503 152.457 159.389C149.791 157.275 145.918 157.724 143.806 160.391Z" fill="#60A5FA"/>
<path d="M122.649 144.205C120.536 146.872 120.985 150.748 123.65 152.862C126.316 154.976 130.189 154.527 132.301 151.86C134.414 149.193 133.965 145.317 131.3 143.203C128.634 141.089 124.761 141.537 122.649 144.205Z" fill="#93C5FD"/>
<path d="M156.858 170.367C155.45 172.146 155.749 174.73 157.526 176.139C159.303 177.548 161.885 177.249 163.293 175.471C164.701 173.693 164.402 171.109 162.625 169.699C160.848 168.29 158.266 168.589 156.858 170.367Z" fill="#60A5FA"/>
<path d="M157.028 170.722C156.122 171.865 156.315 173.526 157.457 174.432C158.599 175.338 160.259 175.146 161.165 174.002C162.07 172.859 161.878 171.198 160.735 170.292C159.593 169.386 157.933 169.579 157.028 170.722Z" fill="#93C5FD"/>
<path d="M143.977 160.744C142.569 162.523 142.868 165.107 144.645 166.516C146.422 167.925 149.004 167.626 150.412 165.848C151.82 164.069 151.521 161.485 149.744 160.076C147.967 158.667 145.385 158.966 143.977 160.744Z" fill="#93C5FD"/>
<path d="M162.659 114.9C163.583 116.215 164.081 117.784 164.084 119.393C164.058 119.636 164.019 119.877 163.968 120.116C163.743 121.289 163.203 122.378 162.408 123.268C161.513 124.214 160.366 124.885 159.103 125.2C154.805 126.442 150.599 125.128 144.795 124.719C140.342 124.407 137.266 124.2 133.624 125.595C130.261 126.875 127.997 128.921 126.189 130.542C124.665 131.918 123.272 133.434 122.029 135.068C121.3 135.988 120.733 136.865 120.247 137.64C120.227 137.669 120.198 137.691 120.164 137.702C120.13 137.712 120.093 137.711 120.06 137.699C120.027 137.686 119.999 137.663 119.98 137.632C119.962 137.602 119.954 137.566 119.959 137.531C120.653 132.671 122.566 128.067 125.52 124.148C127.94 121.056 130.936 118.462 134.344 116.513C143.632 111.096 158.196 108.769 162.659 114.9Z" fill="#60A5FA"/>
<path d="M163.136 118.596C163.48 119.063 163.76 119.575 163.968 120.116C163.743 121.289 163.203 122.378 162.408 123.268C161.513 124.214 160.367 124.885 159.103 125.2C154.805 126.442 150.599 125.128 144.795 124.719C140.342 124.407 137.266 124.2 133.624 125.595C130.261 126.875 127.997 128.921 126.189 130.542C124.665 131.918 123.272 133.434 122.029 135.068C122.999 132.492 124.337 130.07 126.002 127.878C128.417 124.781 131.412 122.186 134.821 120.238C144.11 114.83 158.663 112.48 163.136 118.596Z" fill="#93C5FD"/>
<path d="M164.129 135.431C164.423 135.665 164.559 135.833 164.697 135.98C166.169 137.447 169.351 141.168 169.472 146.289C169.501 147.773 169.57 151.399 166.965 153.489C165.826 154.358 164.437 154.833 163.005 154.842C161.8 154.868 160.598 154.697 159.448 154.335C157.204 153.634 155.844 152.271 153.23 149.591C151.895 148.156 150.633 146.656 149.449 145.095C146.821 141.932 143.353 137.759 137.843 135.89C135.017 134.973 132.021 134.697 129.075 135.084C125.881 135.397 122.782 136.35 119.964 137.886C119.953 137.888 119.941 137.888 119.93 137.885C119.918 137.882 119.908 137.877 119.899 137.87C119.889 137.862 119.882 137.853 119.877 137.843C119.871 137.833 119.868 137.821 119.868 137.81C119.87 137.8 119.875 137.791 119.881 137.783C119.887 137.775 119.895 137.768 119.904 137.764C125.736 129.748 134.82 127.367 134.82 127.367C144.103 124.934 152.622 127.339 156.354 129.468C159.157 131.164 161.764 133.164 164.129 135.431Z" fill="#FEF08A"/>
<path d="M159.288 140.84C161.661 144.258 162.982 148.297 163.086 152.457C163.102 153.257 163.07 154.057 162.992 154.854C161.787 154.88 160.585 154.709 159.435 154.347C157.191 153.646 155.831 152.283 153.217 149.602C151.882 148.168 150.62 146.668 149.436 145.106C146.808 141.943 143.34 137.77 137.83 135.902C135.004 134.984 132.008 134.709 129.062 135.096C125.868 135.408 122.769 136.361 119.951 137.898C119.94 137.9 119.928 137.9 119.917 137.897C119.905 137.894 119.895 137.889 119.886 137.881C119.876 137.874 119.869 137.865 119.864 137.855C119.858 137.844 119.855 137.833 119.855 137.821C120.411 137.431 121.001 137.045 121.63 136.676C123.612 135.514 125.728 134.597 127.931 133.945C130.231 133.303 132.594 132.917 134.978 132.794C137.746 132.485 140.537 132.442 143.313 132.664C145.647 132.92 154.204 133.851 159.288 140.84Z" fill="#FFD500"/>
<path d="M176.596 137.63C178.323 139.636 179.656 141.951 180.525 144.452C181.275 146.68 182.889 151.464 180.529 154.445C180.122 154.986 179.61 155.439 179.025 155.777C178.439 156.116 177.791 156.332 177.12 156.415C176.697 156.439 176.273 156.394 175.865 156.28C175.236 156.104 174.645 155.811 174.124 155.417C170.601 152.825 173.093 146.182 170.879 140.322C169.984 137.957 167.969 134.794 162.834 131.913C162.408 131.67 161.955 131.43 161.474 131.193C161.44 131.175 161.413 131.148 161.396 131.114C161.379 131.08 161.373 131.041 161.378 131.004C161.384 130.966 161.402 130.932 161.428 130.905C161.455 130.877 161.489 130.859 161.526 130.853C164.798 130.508 168.099 131.14 171.013 132.67C173.188 133.93 175.088 135.617 176.596 137.63Z" fill="#60A5FA"/>
<path d="M172.935 138.471C174.662 140.478 175.995 142.793 176.864 145.294C177.614 147.521 179.228 152.306 176.868 155.287C176.572 155.655 176.235 155.989 175.864 156.28C175.235 156.104 174.644 155.811 174.123 155.417C170.6 152.825 173.092 146.182 170.878 140.322C169.983 137.957 167.968 134.794 162.833 131.913C164.414 132.207 165.938 132.747 167.352 133.512C169.528 134.772 171.427 136.459 172.935 138.471Z" fill="#93C5FD"/>
<path d="M189.486 136.461C190.901 138.332 193.886 142.414 192.557 145.973C192.335 146.613 191.987 147.202 191.533 147.703C191.079 148.205 190.528 148.611 189.914 148.895L189.77 148.945C188.784 149.25 187.726 149.221 186.759 148.863C182.616 147.48 182.948 140.389 179.042 135.494C177.5 133.567 174.714 131.246 169.211 130.049C168.584 129.896 167.955 129.802 167.264 129.673C167.226 129.666 167.192 129.648 167.165 129.621C167.139 129.594 167.121 129.559 167.115 129.521C167.11 129.484 167.116 129.445 167.133 129.411C167.15 129.377 167.178 129.35 167.212 129.332C170.219 127.999 173.554 127.59 176.794 128.155C179.253 128.68 181.579 129.702 183.629 131.157C185.897 132.541 187.885 134.34 189.486 136.461Z" fill="#FEF08A"/>
<path d="M187.206 138.397C188.621 140.268 191.606 144.351 190.277 147.91C190.141 148.27 189.971 148.617 189.771 148.946C188.785 149.251 187.727 149.222 186.76 148.864C182.617 147.481 182.949 140.39 179.043 135.495C177.501 133.568 174.715 131.247 169.212 130.05C170.977 129.763 172.779 129.783 174.537 130.11C176.996 130.635 179.322 131.656 181.372 133.112C183.631 134.492 185.61 136.285 187.206 138.397Z" fill="#FFD500"/>
<path d="M195.93 125.963C196.117 126.613 196.171 127.294 196.09 127.965C196.008 128.637 195.792 129.284 195.455 129.87C195.013 130.522 194.399 131.039 193.682 131.362C193.416 131.485 193.142 131.588 192.862 131.67C188.674 132.933 184.859 126.949 178.847 125.206C176.868 124.633 173.997 124.355 170.098 125.547C168.654 125.996 167.251 126.566 165.904 127.252C165.869 127.273 165.829 127.281 165.789 127.276C165.75 127.271 165.713 127.252 165.686 127.223C165.658 127.195 165.641 127.157 165.637 127.117C165.634 127.077 165.644 127.037 165.666 127.004C167.354 124.181 169.84 121.92 172.809 120.508C175.122 119.521 177.611 119.014 180.126 119.017C182.765 118.838 185.415 119.16 187.934 119.967C190.17 120.707 194.966 122.286 195.93 125.963Z" fill="#60A5FA"/>
<path d="M193.571 130.833C193.607 130.967 193.644 131.147 193.682 131.364C193.417 131.486 193.142 131.589 192.862 131.672C188.675 132.934 184.86 126.95 178.847 125.207C176.868 124.634 173.998 124.357 170.098 125.548L170.45 125.378C172.763 124.391 175.253 123.884 177.767 123.887C180.407 123.708 183.056 124.03 185.575 124.837C187.811 125.577 192.607 127.156 193.571 130.833Z" fill="#93C5FD"/>
<path d="M102.73 189.628C104.221 190.229 105.861 190.355 107.427 189.991C107.657 189.909 107.883 189.816 108.104 189.712C109.194 189.225 110.13 188.45 110.813 187.472C111.53 186.384 111.921 185.114 111.939 183.811C112.165 179.34 109.926 175.542 108.202 169.981C106.885 165.709 105.977 162.764 106.502 158.897C106.978 155.329 108.456 152.651 109.616 150.524C110.607 148.724 111.763 147.021 113.069 145.436C113.798 144.516 114.521 143.764 115.163 143.113C115.187 143.087 115.202 143.053 115.205 143.018C115.207 142.982 115.198 142.947 115.178 142.917C115.158 142.888 115.129 142.866 115.095 142.855C115.062 142.844 115.025 142.845 114.992 142.857C110.422 144.642 106.379 147.558 103.243 151.333C100.787 154.397 98.949 157.909 97.8306 161.673C94.6975 171.942 95.7615 186.663 102.73 189.628Z" fill="#60A5FA"/>
<path d="M106.45 189.23C106.984 189.458 107.545 189.614 108.119 189.693C109.209 189.206 110.145 188.431 110.829 187.453C111.545 186.365 111.936 185.095 111.954 183.792C112.18 179.321 109.941 175.523 108.217 169.962C106.9 165.69 105.992 162.746 106.517 158.879C106.994 155.31 108.471 152.632 109.632 150.505C110.622 148.705 111.778 147.002 113.084 145.417C110.799 146.951 108.749 148.808 106.996 150.931C104.536 153.991 102.696 157.502 101.579 161.268C98.4398 171.554 99.4818 186.265 106.45 189.23Z" fill="#93C5FD"/>
<path d="M123.056 186.349C123.368 186.559 123.544 186.677 123.719 186.778C125.482 187.877 129.83 190.127 134.839 189.074C136.307 188.741 139.833 188.003 141.271 184.987C141.856 183.679 142.001 182.217 141.682 180.82C141.433 179.64 140.991 178.508 140.376 177.47C139.182 175.445 137.545 174.431 134.34 172.496C132.64 171.523 130.892 170.637 129.103 169.84C125.425 168.002 120.573 165.577 117.497 160.636C115.958 158.091 115.006 155.236 114.71 152.277C114.284 149.094 114.503 145.857 115.354 142.761C115.353 142.749 115.35 142.738 115.345 142.727C115.34 142.717 115.332 142.708 115.323 142.701C115.314 142.693 115.303 142.688 115.292 142.685C115.281 142.682 115.269 142.682 115.257 142.684C115.249 142.689 115.241 142.695 115.235 142.703C115.228 142.711 115.224 142.72 115.221 142.73C108.755 150.243 108.514 159.637 108.514 159.637C108.268 169.237 112.554 176.988 115.478 180.137C117.768 182.48 120.309 184.563 123.056 186.349Z" fill="#FEF08A"/>
<path d="M127.212 180.399C131.079 181.93 135.31 182.294 139.381 181.445C140.163 181.277 140.934 181.064 141.691 180.806C141.441 179.626 141 178.494 140.385 177.456C139.19 175.431 137.554 174.417 134.349 172.482C132.649 171.509 130.901 170.623 129.111 169.826C125.434 167.988 120.582 165.563 117.505 160.622C115.967 158.077 115.015 155.222 114.718 152.263C114.292 149.08 114.511 145.843 115.363 142.747C115.362 142.735 115.359 142.724 115.353 142.713C115.348 142.703 115.341 142.694 115.332 142.687C115.322 142.679 115.312 142.674 115.301 142.671C115.289 142.668 115.277 142.668 115.266 142.67C115.013 143.301 114.773 143.964 114.557 144.661C113.881 146.858 113.472 149.129 113.34 151.424C113.242 153.811 113.407 156.202 113.83 158.553C114.162 161.32 114.757 164.049 115.608 166.703C116.39 168.918 119.254 177.038 127.212 180.399Z" fill="#FFD500"/>
<path d="M128.044 197.995C130.398 199.214 132.96 199.976 135.597 200.241C137.935 200.463 142.959 200.943 145.319 197.962C145.752 197.442 146.076 196.84 146.272 196.193C146.467 195.545 146.53 194.864 146.457 194.191C146.384 193.774 146.243 193.371 146.039 192.999C145.724 192.426 145.304 191.918 144.801 191.5C141.45 188.693 135.564 192.629 129.346 191.824C126.841 191.492 123.303 190.252 119.327 185.908C118.996 185.545 118.659 185.158 118.316 184.746C118.291 184.718 118.258 184.698 118.221 184.689C118.185 184.68 118.146 184.683 118.111 184.697C118.075 184.711 118.046 184.736 118.025 184.768C118.005 184.8 117.995 184.837 117.997 184.875C118.41 188.142 119.779 191.213 121.932 193.702C123.66 195.531 125.739 196.991 128.044 197.995Z" fill="#60A5FA"/>
<path d="M128.024 194.237C130.377 195.456 132.94 196.218 135.577 196.483C137.915 196.705 142.939 197.185 145.299 194.204C145.59 193.832 145.837 193.428 146.036 192.999C145.721 192.426 145.301 191.918 144.798 191.501C141.447 188.693 135.561 192.629 129.343 191.824C126.838 191.492 123.3 190.252 119.324 185.908C119.972 187.38 120.845 188.742 121.912 189.945C123.64 191.773 125.718 193.233 128.024 194.237Z" fill="#93C5FD"/>
<path d="M129.85 210.822C132.011 211.749 136.646 213.748 139.805 211.64C140.377 211.278 140.87 210.804 141.254 210.247C141.639 209.69 141.907 209.061 142.043 208.398L142.059 208.246C142.13 207.216 141.861 206.192 141.292 205.331C139 201.611 132.177 203.554 126.523 200.867C124.296 199.805 121.401 197.621 118.979 192.533C118.687 191.957 118.452 191.366 118.169 190.722C118.154 190.687 118.128 190.657 118.096 190.638C118.063 190.618 118.025 190.609 117.987 190.612C117.949 190.615 117.913 190.63 117.884 190.655C117.855 190.679 117.835 190.712 117.825 190.749C117.216 193.983 117.579 197.326 118.87 200.354C119.942 202.629 121.467 204.662 123.351 206.327C125.216 208.221 127.42 209.746 129.85 210.822Z" fill="#FEF08A"/>
<path d="M131.214 208.157C133.375 209.085 138.01 211.084 141.169 208.976C141.488 208.761 141.787 208.516 142.061 208.246C142.133 207.216 141.863 206.192 141.294 205.331C139.002 201.611 132.18 203.554 126.525 200.867C124.298 199.805 121.403 197.621 118.982 192.533C119.106 194.319 119.537 196.069 120.257 197.708C121.329 199.983 122.854 202.016 124.738 203.681C126.597 205.566 128.794 207.084 131.214 208.157Z" fill="#FFD500"/>
<path d="M121.112 219.495C121.787 219.529 122.461 219.427 123.096 219.194C123.73 218.961 124.311 218.603 124.804 218.14C125.337 217.561 125.699 216.845 125.851 216.072C125.909 215.785 125.947 215.495 125.963 215.203C126.234 210.835 119.542 208.485 116.472 203.025C115.463 201.229 114.537 198.495 114.805 194.424C114.912 192.915 115.147 191.417 115.506 189.948C115.518 189.91 115.517 189.869 115.503 189.831C115.489 189.794 115.462 189.762 115.428 189.742C115.394 189.722 115.353 189.714 115.314 189.719C115.274 189.725 115.238 189.744 115.21 189.773C112.849 192.063 111.218 195.001 110.522 198.216C110.09 200.696 110.166 203.237 110.743 205.686C111.172 208.298 112.091 210.805 113.451 213.076C114.682 215.085 117.314 219.396 121.112 219.495Z" fill="#60A5FA"/>
<path d="M125.308 216.085C125.446 216.09 125.629 216.085 125.849 216.072C125.908 215.786 125.945 215.495 125.962 215.203C126.233 210.835 119.54 208.485 116.471 203.025C115.461 201.229 114.535 198.495 114.803 194.424L114.718 194.806C114.287 197.285 114.362 199.826 114.939 202.275C115.368 204.888 116.287 207.395 117.648 209.665C118.878 211.674 121.51 215.986 125.308 216.085Z" fill="#93C5FD"/>
</svg>
