<svg width="678" height="556" viewBox="0 0 678 556" fill="none" xmlns="http://www.w3.org/2000/svg">
<path d="M168.452 57.0722C164.371 55.1548 160.172 53.524 155.882 52.1909V52.1909C154.409 51.7357 152.858 51.3078 151.258 50.8748C147.15 49.8351 142.988 49.0426 138.792 48.5013C126.739 47.1286 95.809 52.5811 77.4313 79.6055C61.1678 103.525 64.6324 129.762 65.7614 136.371L65.8652 136.957C64.4896 132.736 55.2982 102.896 72.2182 74.2244C82.5932 56.6441 102.632 39.7991 123.966 40.1926C141.702 40.5004 160.613 52.9956 168.452 57.0722Z" fill="#60A5FA"/>
<path d="M124.718 42.6043C135.617 42.8229 146.915 47.5751 155.846 52.1737C154.372 51.7185 152.821 51.2907 151.221 50.8577C147.113 49.818 142.951 49.0255 138.756 48.4841C126.702 47.1114 95.7724 52.5639 77.3947 79.5884C61.1312 103.508 64.5957 129.745 65.7248 136.354C63.2482 127.17 58.3303 101.472 72.9707 76.6361C83.3457 59.0558 103.384 42.2108 124.718 42.6043Z" fill="#93C5FD"/>
<path d="M59.432 125.622C57.0445 123.653 54.8009 121.502 52.7197 119.186C44.1008 109.581 38.582 97.4091 36.9365 84.374C34.7936 66.0719 43.001 62.5111 41.1716 44.0804C40.0449 32.6795 36.0594 25.5708 35.39 22.0304C35.196 20.9664 35.2965 20.2226 35.8732 19.7847C38.9326 17.4295 51.1139 27.2211 58.5314 38.868C61.2146 43.0745 66.7311 51.9491 67.4909 64.3141C68.2912 77.6302 62.8314 82.316 60.0945 99.6763C58.7624 108.255 58.5396 116.981 59.432 125.622Z" fill="#93C5FD"/>
<path d="M52.7203 119.187C44.1014 109.582 38.5826 97.4099 36.9371 84.3749C34.7942 66.0728 43.0016 62.5119 41.1722 44.0813C40.0455 32.6803 36.06 25.5716 35.3906 22.0312C40.4407 25.1373 47.3936 32.0076 52.3107 39.7038C54.9939 43.9103 60.5103 52.7849 61.2702 65.1499C62.0705 78.4661 56.6107 83.1518 53.8738 100.512C52.9122 106.684 52.5259 112.938 52.7203 119.187Z" fill="#60A5FA"/>
<path d="M171.132 38.7395C168.469 43.2066 161.441 42.9993 156.635 42.8572C151.693 42.6927 146.825 41.5585 142.287 39.5142C142.261 39.5008 142.263 39.4683 142.307 39.4708C142.603 39.4478 143.513 39.357 144.831 39.1588C148.507 38.6256 152.11 37.646 155.568 36.2401C162.043 33.5065 166.175 28.892 170.079 31.5764C170.879 32.0832 171.571 32.7561 172.111 33.5534V33.5534C172.337 35.347 171.993 37.1683 171.132 38.7395V38.7395Z" fill="#93C5FD"/>
<path d="M170.606 37.1201C167.932 40.8871 163.034 41.2238 159.224 41.4933C154.311 41.8127 149.39 41.0113 144.805 39.1452C148.489 38.6183 152.102 37.6432 155.568 36.2399C162.043 33.5063 166.175 28.8917 170.079 31.5762C170.879 32.083 171.571 32.7559 172.111 33.5532V33.5532C171.859 34.8402 171.346 36.0563 170.606 37.1201V37.1201Z" fill="#60A5FA"/>
<path d="M161.249 29.7273C158.485 34.5002 152.59 35.6985 147.434 36.7717C144.127 37.3981 140.772 37.7018 137.411 37.6787C133.804 37.7684 130.196 37.6303 126.605 37.2651C126.574 37.2637 126.545 37.2508 126.523 37.2288C126.5 37.2067 126.486 37.177 126.483 37.1451C126.48 37.1133 126.489 37.0813 126.506 37.0552C126.524 37.0291 126.55 37.0106 126.58 37.003C128.135 36.4551 129.596 35.8589 130.942 35.2579C134.286 33.7726 137.484 31.9534 140.491 29.8257C148.055 24.484 151.377 19.284 156.795 20.0179C158.004 20.1942 159.169 20.6068 160.231 21.2341C161.117 21.7532 161.826 22.5473 162.26 23.5058C163.356 26.0927 161.653 29.0253 161.249 29.7273Z" fill="#FFD500"/>
<path d="M159.163 27.3035C156.399 32.0764 150.504 33.2747 145.348 34.3479C142.041 34.9744 138.686 35.2781 135.325 35.255C133.766 35.2948 132.295 35.2856 130.922 35.2461C134.272 33.7655 137.477 31.9499 140.491 29.8247C148.055 24.483 151.377 19.283 156.796 20.0168C158.004 20.1931 159.17 20.6058 160.231 21.2331C161.205 23.7773 159.559 26.6178 159.163 27.3035Z" fill="#FEF08A"/>
<path d="M113.961 74.8189C110.972 80.9389 100.133 75.9845 89.0772 80.8833C84.6545 82.8913 80.7544 85.9673 77.6993 89.8569C76.2487 91.6488 74.9315 93.5535 73.7593 95.5544C73.7368 95.5873 73.7044 95.6115 73.6672 95.6231C73.6299 95.6347 73.5901 95.633 73.554 95.6182C73.5178 95.6035 73.4874 95.5766 73.4676 95.5417C73.4479 95.5069 73.4398 95.4662 73.4448 95.4261C74.1907 91.3124 75.5284 87.3394 77.4126 83.6415C78.9048 80.7018 83.4545 72.0416 92.9103 67.3505C95.8926 65.7987 99.1673 64.9525 102.5 64.8724C104.073 64.8595 111.841 64.7876 113.937 69.4131C114.212 70.0383 114.391 70.7039 114.47 71.3864C114.633 72.5579 114.456 73.7534 113.961 74.8189V74.8189Z" fill="#FFD500"/>
<path d="M112.389 71.3138C109.401 77.4338 98.5612 72.4794 87.5053 77.3782C83.0827 79.3862 79.1825 82.4622 76.1274 86.3518C76.5615 85.328 76.9883 84.4286 77.413 83.6427C78.9051 80.703 83.4549 72.0429 92.9106 67.3517C95.893 65.7999 99.1677 64.9537 102.501 64.8736C103.878 64.8617 109.984 64.803 112.898 67.8814C113.061 69.0528 112.884 70.2483 112.389 71.3138Z" fill="#FEF08A"/>
<path d="M131.169 66.3125C130.968 66.7875 130.664 67.2079 130.282 67.5411C129.977 67.8202 129.613 68.0209 129.22 68.1273C126.004 68.9994 124.177 63.0832 118.706 60.3738C116.402 59.2279 113.069 58.395 108.288 59.2637C108.278 59.2682 108.266 59.2704 108.255 59.2699C108.243 59.2695 108.232 59.2665 108.222 59.2612C108.211 59.2559 108.202 59.2484 108.195 59.2391C108.187 59.2298 108.182 59.219 108.179 59.2074C108.176 59.1903 108.178 59.1724 108.185 59.1567C108.193 59.141 108.205 59.1283 108.22 59.1207C109.955 58.0366 111.837 57.2305 113.802 56.7292C115.367 56.3353 120.028 55.2158 124.884 57.3794C126.442 58.0321 127.843 59.0363 128.984 60.3197C129.524 60.9145 132.14 63.9537 131.169 66.3125Z" fill="#60A5FA"/>
<path d="M130.281 67.5413C129.976 67.8203 129.613 68.0211 129.22 68.1275C126.004 68.9996 124.177 63.0834 118.706 60.374C116.402 59.2281 113.069 58.3952 108.288 59.2638C108.277 59.2684 108.266 59.2705 108.254 59.2701C108.243 59.2697 108.231 59.2667 108.221 59.2614C108.211 59.2561 108.201 59.2485 108.194 59.2392C108.187 59.23 108.182 59.2192 108.179 59.2076C109.962 58.4027 111.847 57.8703 113.776 57.6269C115.377 57.4328 120.123 56.9102 124.704 59.6536C126.175 60.496 127.45 61.6657 128.438 63.0794C128.79 63.5778 130.159 65.6309 130.281 67.5413Z" fill="#93C5FD"/>
<path d="M97.4675 41.3814C93.1319 48.1054 87.1177 53.47 80.0723 56.8976C80.0723 56.8976 81.809 54.1108 84.0574 50.2457C87.7323 43.8656 92.8321 34.592 93.7723 30.0467C95.2973 22.7416 93.9999 22.7477 93.9999 22.7477C93.9999 22.7477 92.4976 23.963 90.5771 25.6642C91.3164 20.8738 90.359 20.8729 90.359 20.8729C90.359 20.8729 84.6601 25.4625 81.0557 29.5664C79.6331 31.2003 74.1574 37.57 72.1199 46.9507C71.5843 49.6782 71.2047 52.4364 70.9831 55.2108C67.4018 46.2 67.6279 41.5229 67.6279 41.5229C67.9107 35.5787 69.8395 29.8468 73.1813 25.0196C76.2964 20.5558 79.2729 17.6388 84.1674 15.4262C90.2893 12.6456 96.7301 10.3932 100.172 9.56333C101.564 9.22157 102.467 9.11999 102.657 9.30559C103.838 10.4595 104.167 12.1933 104.132 15.4045C104.07 21.4269 103.97 31.1579 97.4675 41.3814Z" fill="#93C5FD"/>
<path d="M93.8272 39.5064C91.1871 43.644 87.8824 47.2769 84.058 50.2455C87.7329 43.8654 92.8327 34.5918 93.7729 30.0464C95.2979 22.7413 94.0005 22.7475 94.0005 22.7475C94.0005 22.7475 92.4982 23.9628 90.5777 25.6639C91.3171 20.8736 90.3596 20.8727 90.3596 20.8727C90.3596 20.8727 84.6607 25.4622 81.0563 29.5661C79.6337 31.2001 74.158 37.5698 72.1205 46.9505C71.5849 49.6779 71.2053 52.4362 70.9837 55.2105C67.4024 46.1998 67.6285 41.5227 67.6285 41.5227C67.9113 35.5784 69.8401 29.8466 73.1819 25.0193C76.297 20.5555 79.2735 17.6385 84.168 15.4259C90.2899 12.6454 96.7307 10.393 100.173 9.56309C100.445 10.865 100.552 12.1985 100.491 13.5295C100.429 19.5519 100.329 29.2829 93.8272 39.5064Z" fill="#60A5FA"/>
<path d="M135.039 24.0312C133.164 27.1782 130.137 32.2605 123.602 35.4755C119.271 37.5707 114.473 38.3961 109.725 37.8631C109.836 37.8058 110.944 37.2438 112.531 36.3956C116.378 34.3313 123.036 30.6265 125.12 28.2948C128.141 24.9559 127.472 24.5374 127.472 24.5374C127.472 24.5374 126.977 24.5992 126.217 24.7136C124.094 25.0025 121.992 25.4405 119.925 26.0246C116.142 27.1674 112.7 29.2921 109.921 32.1996C107.514 34.8031 105.593 38.2503 105.135 37.9876C105.073 37.9554 105.049 37.8421 105.061 37.6528C105.105 37.0552 105.155 36.4874 105.222 35.9492C105.997 28.5746 107.886 25.6708 107.886 25.6708C109.85 22.6384 112.616 20.264 115.849 18.8353C118.855 17.5182 121.305 16.9795 124.553 17.4317C129.312 18.0957 134.079 19.2894 135.634 19.9956C135.941 20.1536 136.154 20.2634 136.152 20.3499C136.39 21.3354 136.036 22.3533 135.039 24.0312Z" fill="#93C5FD"/>
<path d="M134.513 22.4125C132.637 25.5595 129.611 30.6418 123.076 33.8568C119.772 35.4689 116.178 36.3343 112.531 36.3962C116.378 34.3318 123.035 30.627 125.119 28.2953C128.141 24.9564 127.472 24.5379 127.472 24.5379C127.472 24.5379 126.977 24.5997 126.217 24.7142C127.326 23.1547 126.946 22.9187 126.946 22.9187C124.397 23.235 121.872 23.7374 119.391 24.4222C115.608 25.5649 112.166 27.6897 109.387 30.5971C107.587 32.5491 106.051 34.9808 105.199 35.9579C105.973 28.5834 107.863 25.6796 107.863 25.6796C109.827 22.6472 112.592 20.2728 115.825 18.844C118.832 17.527 121.281 16.9883 124.53 17.4405C129.289 18.1045 134.055 19.2982 135.61 20.0044C135.372 20.8639 135.002 21.6773 134.513 22.4125Z" fill="#60A5FA"/>
<path d="M88.4954 108.191C85.5108 112.114 86.1443 117.815 89.9104 120.924C93.6766 124.033 99.1492 123.373 102.134 119.45C105.119 115.527 104.485 109.826 100.719 106.717C96.9527 103.608 91.4801 104.268 88.4954 108.191Z" fill="#60A5FA"/>
<path d="M103.797 120.823C102.269 122.832 102.593 125.752 104.522 127.344C106.451 128.937 109.254 128.599 110.783 126.589C112.311 124.58 111.987 121.66 110.058 120.068C108.129 118.475 105.326 118.813 103.797 120.823Z" fill="#60A5FA"/>
<path d="M88.4867 108.629C86.958 110.639 87.2824 113.559 89.2114 115.151C91.1404 116.743 93.9435 116.405 95.4722 114.396C97.0009 112.387 96.6765 109.467 94.7475 107.874C92.8185 106.282 90.0154 106.62 88.4867 108.629Z" fill="#93C5FD"/>
<path d="M113.243 128.338C112.224 129.677 112.44 131.624 113.726 132.686C115.012 133.747 116.881 133.522 117.9 132.182C118.919 130.843 118.703 128.896 117.417 127.835C116.131 126.773 114.262 126.998 113.243 128.338Z" fill="#60A5FA"/>
<path d="M113.366 128.604C112.711 129.466 112.85 130.717 113.676 131.399C114.503 132.082 115.704 131.937 116.36 131.076C117.015 130.215 116.876 128.963 116.049 128.281C115.222 127.598 114.021 127.743 113.366 128.604Z" fill="#93C5FD"/>
<path d="M103.92 121.089C102.9 122.428 103.117 124.375 104.403 125.437C105.689 126.498 107.557 126.273 108.577 124.933C109.596 123.594 109.379 121.647 108.093 120.586C106.807 119.524 104.939 119.749 103.92 121.089Z" fill="#93C5FD"/>
<path d="M117.44 86.5544C118.109 87.5456 118.469 88.7273 118.472 89.9391V89.9391C118.452 90.1222 118.424 90.3042 118.387 90.4843C118.224 91.3675 117.834 92.188 117.258 92.8581C116.611 93.5711 115.781 94.0763 114.867 94.314C111.756 95.2493 108.713 94.2599 104.512 93.9513C101.289 93.7167 99.0635 93.5603 96.428 94.6114C93.9942 95.5752 92.3557 97.1166 91.0473 98.3381C89.9441 99.3747 88.9361 100.516 88.0363 101.748C87.5091 102.441 87.099 103.101 86.747 103.684C86.7325 103.707 86.7113 103.723 86.6868 103.731C86.6623 103.739 86.6358 103.738 86.6118 103.729C86.5877 103.72 86.5674 103.702 86.5541 103.679C86.5408 103.656 86.5353 103.629 86.5385 103.603C87.0406 99.9418 88.4254 96.4735 90.5634 93.5215C92.3144 91.1918 94.4829 89.2383 96.9487 87.7696C103.671 83.6891 114.211 81.9367 117.44 86.5544Z" fill="#60A5FA"/>
<path d="M117.785 89.3385C118.034 89.6907 118.236 90.0759 118.387 90.4839C118.224 91.3671 117.834 92.1877 117.258 92.8577C116.611 93.5707 115.781 94.0759 114.867 94.3136C111.756 95.2489 108.712 94.2595 104.512 93.9509C101.289 93.7163 99.0633 93.5599 96.4278 94.611C93.994 95.5748 92.3555 97.1162 91.0471 98.3377C89.9439 99.3743 88.9359 100.516 88.0361 101.747C88.7383 99.8064 89.7069 97.9818 90.9117 96.3304C92.659 93.9976 94.8269 92.0428 97.2936 90.5757C104.016 86.5015 114.548 84.7311 117.785 89.3385Z" fill="#93C5FD"/>
<path d="M118.503 102.021C118.715 102.197 118.814 102.323 118.914 102.434C119.979 103.539 122.282 106.343 122.369 110.2C122.391 111.318 122.441 114.05 120.555 115.624C119.731 116.279 118.725 116.636 117.689 116.643C116.817 116.663 115.947 116.534 115.115 116.261C113.491 115.733 112.507 114.706 110.615 112.687C109.649 111.607 108.736 110.477 107.879 109.301C105.977 106.918 103.467 103.774 99.4797 102.367C97.4341 101.676 95.2663 101.468 93.1341 101.76C90.8225 101.995 88.58 102.713 86.5405 103.87C86.5322 103.872 86.5237 103.872 86.5155 103.869C86.5074 103.867 86.4997 103.863 86.4931 103.858C86.4865 103.852 86.4811 103.846 86.4772 103.838C86.4733 103.83 86.4711 103.821 86.4707 103.813C86.4727 103.805 86.476 103.799 86.4805 103.793C86.4851 103.787 86.4907 103.782 86.497 103.778C90.7174 97.7395 97.2918 95.946 97.2918 95.946C104.01 94.1131 110.175 95.9251 112.876 97.5287C114.904 98.8064 116.791 100.313 118.503 102.021V102.021Z" fill="#FEF08A"/>
<path d="M115 106.096C116.718 108.671 117.673 111.713 117.749 114.847C117.76 115.45 117.737 116.053 117.681 116.653C116.808 116.672 115.939 116.543 115.107 116.271C113.483 115.743 112.499 114.716 110.607 112.697C109.641 111.616 108.727 110.486 107.871 109.31C105.968 106.927 103.459 103.784 99.4713 102.376C97.4257 101.685 95.2578 101.478 93.1256 101.769C90.814 102.004 88.5716 102.722 86.5321 103.88C86.5238 103.881 86.5153 103.881 86.5071 103.879C86.4989 103.877 86.4912 103.873 86.4846 103.867C86.478 103.862 86.4726 103.855 86.4688 103.847C86.4649 103.839 86.4626 103.831 86.4622 103.822C86.8646 103.528 87.2915 103.237 87.747 102.959C89.1817 102.084 90.7129 101.393 92.3071 100.902C93.9714 100.418 95.6818 100.127 97.4074 100.035C99.4104 99.8022 101.43 99.7694 103.439 99.937C105.128 100.13 111.321 100.831 115 106.096Z" fill="#FFD500"/>
<path d="M127.527 103.678C128.776 105.189 129.741 106.933 130.37 108.817C130.913 110.495 132.081 114.1 130.372 116.345C130.078 116.752 129.708 117.093 129.284 117.348C128.86 117.603 128.392 117.767 127.906 117.829C127.6 117.847 127.293 117.813 126.997 117.727C126.542 117.595 126.115 117.374 125.738 117.077C123.188 115.125 124.992 110.12 123.389 105.706C122.741 103.924 121.283 101.541 117.567 99.371C117.259 99.1879 116.931 99.0072 116.582 98.8289C116.558 98.8156 116.538 98.7948 116.526 98.7692C116.514 98.7437 116.509 98.7148 116.513 98.6866C116.518 98.6583 116.53 98.6321 116.549 98.6117C116.569 98.5912 116.593 98.5775 116.62 98.5725C118.988 98.313 121.377 98.7893 123.486 99.9414C125.06 100.891 126.435 102.162 127.527 103.678Z" fill="#60A5FA"/>
<path d="M124.878 104.311C126.128 105.823 127.093 107.566 127.721 109.451C128.264 111.129 129.432 114.733 127.724 116.978C127.51 117.256 127.266 117.507 126.997 117.727C126.542 117.594 126.115 117.373 125.738 117.076C123.188 115.124 124.992 110.12 123.389 105.705C122.741 103.924 121.283 101.541 117.567 99.3705C118.711 99.5923 119.814 99.9986 120.837 100.575C122.412 101.524 123.786 102.795 124.878 104.311V104.311Z" fill="#93C5FD"/>
<path d="M136.855 102.797C137.879 104.207 140.039 107.282 139.078 109.963C138.917 110.445 138.665 110.888 138.336 111.266C138.008 111.645 137.609 111.95 137.165 112.164L137.06 112.202C136.347 112.431 135.581 112.41 134.881 112.14C131.883 111.098 132.123 105.757 129.297 102.069C128.181 100.618 126.164 98.8686 122.182 97.9672C121.728 97.852 121.273 97.781 120.773 97.6839C120.746 97.6789 120.721 97.6652 120.701 97.6447C120.682 97.6242 120.67 97.598 120.666 97.5696C120.661 97.5413 120.666 97.5123 120.678 97.4868C120.691 97.4613 120.711 97.4404 120.735 97.4273C122.912 96.4232 125.325 96.1146 127.67 96.5407C129.449 96.936 131.133 97.7054 132.616 98.8018C134.258 99.8441 135.696 101.2 136.855 102.797V102.797Z" fill="#FEF08A"/>
<path d="M135.205 104.255C136.228 105.664 138.389 108.74 137.427 111.421C137.328 111.692 137.206 111.954 137.061 112.201C136.348 112.431 135.582 112.409 134.882 112.14C131.883 111.098 132.124 105.757 129.297 102.069C128.181 100.617 126.165 98.8684 122.182 97.967C123.46 97.7505 124.764 97.7657 126.036 98.0121C127.816 98.4074 129.499 99.1768 130.983 100.273C132.617 101.313 134.049 102.664 135.205 104.255V104.255Z" fill="#FFD500"/>
<path d="M141.518 94.8892C141.654 95.3786 141.693 95.8916 141.634 96.3972C141.575 96.9029 141.419 97.391 141.174 97.8323C140.855 98.3233 140.41 98.7124 139.891 98.9564C139.699 99.0486 139.501 99.1262 139.298 99.1884C136.267 100.139 133.506 95.6318 129.155 94.3186C127.723 93.887 125.646 93.678 122.824 94.5753C121.779 94.9137 120.763 95.3436 119.788 95.8603C119.763 95.8759 119.734 95.8822 119.705 95.8783C119.677 95.8743 119.65 95.8603 119.63 95.8385C119.61 95.8167 119.598 95.7885 119.595 95.7585C119.593 95.7285 119.6 95.6984 119.616 95.6733C120.838 93.5463 122.637 91.8434 124.786 90.7793C126.46 90.036 128.261 89.6539 130.081 89.6561C131.991 89.5215 133.908 89.7644 135.732 90.3721C137.35 90.9292 140.82 92.1188 141.518 94.8892Z" fill="#60A5FA"/>
<path d="M139.81 98.5573C139.836 98.658 139.863 98.7932 139.891 98.9567C139.699 99.049 139.5 99.1265 139.297 99.1888C136.267 100.14 133.506 95.6322 129.154 94.3189C127.723 93.8873 125.645 93.6784 122.823 94.5757L123.078 94.4474C124.752 93.7041 126.553 93.322 128.373 93.3242C130.283 93.1896 132.2 93.4325 134.024 94.0402C135.642 94.5973 139.112 95.787 139.81 98.5573Z" fill="#93C5FD"/>
<path d="M74.0713 142.847C75.1506 143.299 76.3373 143.395 77.4704 143.12V143.12C77.6371 143.059 77.8008 142.988 77.9607 142.91C78.749 142.543 79.4267 141.96 79.9213 141.222C80.4398 140.403 80.7225 139.446 80.7357 138.465C80.8992 135.097 79.2792 132.236 78.0311 128.047C77.0783 124.829 76.4209 122.611 76.8011 119.698C77.1459 117.009 78.2149 114.992 79.0549 113.39C79.7717 112.034 80.6083 110.751 81.5536 109.557C82.0809 108.864 82.604 108.298 83.0692 107.807C83.0866 107.787 83.0972 107.762 83.0991 107.735C83.1011 107.709 83.0943 107.682 83.08 107.66C83.0657 107.638 83.0446 107.621 83.0201 107.613C82.9956 107.605 82.9692 107.605 82.9451 107.614C79.6378 108.959 76.7123 111.156 74.4427 113.999C72.6654 116.307 71.3351 118.953 70.5257 121.789C68.2583 129.524 69.0283 140.613 74.0713 142.847Z" fill="#60A5FA"/>
<path d="M76.7628 142.547C77.1488 142.719 77.555 142.836 77.9708 142.896C78.7591 142.529 79.4368 141.946 79.9314 141.208C80.4499 140.389 80.7326 139.432 80.7458 138.451C80.9093 135.083 79.2893 132.222 78.0412 128.033C77.0884 124.815 76.431 122.596 76.8112 119.684C77.156 116.995 78.225 114.978 79.065 113.375C79.7818 112.02 80.6184 110.737 81.5637 109.543C79.9102 110.699 78.4262 112.098 77.1581 113.697C75.3773 116.002 74.0456 118.647 73.2377 121.483C70.9657 129.232 71.7198 140.313 76.7628 142.547Z" fill="#93C5FD"/>
<path d="M88.7786 140.378C89.0047 140.537 89.1323 140.625 89.2586 140.701C90.535 141.529 93.6811 143.224 97.3062 142.431C98.369 142.18 100.921 141.624 101.961 139.352C102.385 138.367 102.489 137.265 102.259 136.213C102.078 135.324 101.759 134.471 101.314 133.69C100.449 132.164 99.2647 131.4 96.9456 129.943C95.7151 129.21 94.45 128.542 93.1551 127.942C90.4935 126.557 86.9822 124.73 84.7558 121.008C83.6425 119.091 82.9535 116.94 82.7388 114.711C82.4306 112.313 82.5892 109.875 83.2051 107.542C83.2046 107.534 83.2024 107.525 83.1985 107.517C83.1947 107.51 83.1892 107.503 83.1826 107.497C83.176 107.492 83.1684 107.488 83.1602 107.486C83.152 107.484 83.1435 107.483 83.1352 107.485C83.1288 107.488 83.1232 107.493 83.1187 107.499C83.1142 107.505 83.1108 107.512 83.1088 107.519C78.4294 113.179 78.2551 120.256 78.2551 120.256C78.0768 127.488 81.1789 133.326 83.2946 135.699C84.9521 137.464 86.7912 139.033 88.7786 140.378V140.378Z" fill="#FEF08A"/>
<path d="M91.7885 135.895C94.5872 137.048 97.649 137.322 100.596 136.683C101.161 136.557 101.719 136.396 102.267 136.202C102.086 135.312 101.767 134.46 101.322 133.678C100.458 132.152 99.273 131.389 96.9539 129.931C95.7234 129.198 94.4583 128.53 93.1634 127.93C90.5018 126.545 86.9905 124.719 84.7641 120.996C83.6508 119.08 82.9617 116.929 82.7471 114.7C82.4389 112.302 82.5974 109.864 83.2133 107.531C83.2129 107.522 83.2107 107.514 83.2068 107.506C83.2029 107.498 83.1975 107.491 83.1909 107.486C83.1843 107.48 83.1767 107.476 83.1685 107.474C83.1603 107.472 83.1518 107.472 83.1435 107.473C82.9606 107.949 82.7865 108.448 82.6304 108.973C82.1412 110.629 81.8454 112.339 81.7494 114.068C81.6789 115.866 81.798 117.667 82.1044 119.438C82.3446 121.523 82.7754 123.578 83.3909 125.577C83.9571 127.246 86.0296 133.363 91.7885 135.895Z" fill="#FFD500"/>
<path d="M92.3886 149.15C94.092 150.068 95.9466 150.642 97.8548 150.842C99.5471 151.009 103.183 151.37 104.891 149.125C105.204 148.734 105.439 148.28 105.58 147.792C105.722 147.304 105.767 146.791 105.714 146.285C105.661 145.97 105.559 145.667 105.412 145.386C105.184 144.955 104.88 144.572 104.516 144.258C102.091 142.142 97.8308 145.108 93.3313 144.502C91.5179 144.251 88.9577 143.317 86.0804 140.045C85.8406 139.771 85.5967 139.48 85.3487 139.17C85.3308 139.148 85.3068 139.133 85.2801 139.126C85.2534 139.12 85.2254 139.122 85.1999 139.132C85.1745 139.143 85.1529 139.162 85.1381 139.186C85.1234 139.21 85.1163 139.238 85.1178 139.267C85.4162 141.728 86.4071 144.041 87.9656 145.917C89.2159 147.294 90.7203 148.394 92.3886 149.15V149.15Z" fill="#60A5FA"/>
<path d="M92.3765 146.32C94.0799 147.238 95.9346 147.812 97.8427 148.012C99.5351 148.179 103.171 148.54 104.879 146.295C105.089 146.014 105.268 145.71 105.412 145.387C105.184 144.956 104.88 144.573 104.516 144.258C102.091 142.143 97.8312 145.108 93.3317 144.502C91.5183 144.252 88.9581 143.317 86.0808 140.045C86.5493 141.154 87.1812 142.18 87.9535 143.086C89.2038 144.463 90.7082 145.563 92.3765 146.32V146.32Z" fill="#93C5FD"/>
<path d="M93.6969 158.812C95.261 159.511 98.6158 161.016 100.902 159.428C101.315 159.156 101.672 158.799 101.951 158.379C102.229 157.959 102.423 157.486 102.522 156.986L102.533 156.871C102.585 156.096 102.39 155.324 101.978 154.675C100.319 151.873 95.3817 153.337 91.2895 151.313C89.6778 150.513 87.5826 148.867 85.8303 145.035C85.6189 144.601 85.4486 144.155 85.2436 143.67C85.2327 143.644 85.2142 143.622 85.1907 143.607C85.1671 143.592 85.1397 143.585 85.1123 143.588C85.0849 143.59 85.0588 143.601 85.0378 143.62C85.0168 143.638 85.0018 143.663 84.9951 143.691C84.5539 146.127 84.817 148.645 85.7508 150.926C86.5268 152.64 87.6304 154.171 88.9942 155.426C90.3433 156.853 91.9388 158.001 93.6969 158.812V158.812Z" fill="#FEF08A"/>
<path d="M94.6828 156.806C96.2469 157.505 99.6017 159.011 101.888 157.423C102.119 157.26 102.335 157.076 102.533 156.873C102.585 156.097 102.39 155.325 101.978 154.677C100.319 151.874 95.3821 153.338 91.2899 151.314C89.6782 150.514 87.583 148.869 85.8307 145.036C85.9202 146.381 86.2323 147.7 86.7533 148.934C87.5293 150.648 88.6329 152.179 89.9967 153.434C91.342 154.854 92.9317 155.998 94.6828 156.806Z" fill="#FFD500"/>
<path d="M87.3718 165.347C87.8602 165.372 88.3486 165.295 88.8077 165.12C89.2668 164.944 89.6873 164.674 90.0439 164.326C90.4298 163.889 90.692 163.35 90.8014 162.768C90.8437 162.552 90.8708 162.333 90.8827 162.113C91.079 158.822 86.2355 157.052 84.014 152.939C83.2836 151.586 82.6136 149.527 82.8076 146.46C82.8852 145.323 83.0549 144.195 83.3151 143.088C83.324 143.059 83.3232 143.028 83.313 143C83.3027 142.972 83.2836 142.948 83.2586 142.933C83.2337 142.918 83.2045 142.912 83.1759 142.916C83.1473 142.92 83.1209 142.935 83.1011 142.957C81.3922 144.681 80.2116 146.894 79.708 149.317C79.3957 151.185 79.4501 153.099 79.868 154.944C80.1786 156.912 80.8436 158.8 81.8281 160.511C82.7184 162.024 84.6232 165.272 87.3718 165.347Z" fill="#60A5FA"/>
<path d="M90.4102 162.777C90.5103 162.781 90.6429 162.778 90.8019 162.768C90.8442 162.552 90.8714 162.333 90.8832 162.113C91.0795 158.823 86.2361 157.053 84.0146 152.94C83.2841 151.586 82.6142 149.527 82.8082 146.46L82.7465 146.748C82.4342 148.615 82.4886 150.53 82.9065 152.375C83.217 154.342 83.8821 156.231 84.8666 157.942C85.7568 159.455 87.6617 162.703 90.4102 162.777Z" fill="#93C5FD"/>
<path d="M567.267 524.6C567.312 524.767 567.4 524.963 567.485 525.19C568.108 526.773 569.506 529.718 572.29 530.325C575.304 530.978 577.891 528.441 578.57 527.699L578.729 527.52C580.754 525.119 580.825 522.28 580.947 516.65C581.006 513.204 580.741 509.761 580.156 506.369C579.727 503.802 579.131 501.268 578.372 498.785C577.357 499.392 576.389 500.08 575.476 500.843C568.618 506.59 567.185 514.807 566.892 516.9C566.547 519.309 566.205 521.772 567.267 524.6Z" fill="#60A5FA"/>
<path d="M572.788 489.928C571.981 480.498 568.716 475.023 566.861 472.453C563.763 468.184 561.645 467.987 560.89 468.03C560.018 468.076 559.171 468.342 558.42 468.804C557.668 469.267 557.036 469.913 556.578 470.687C555.178 473.053 556.121 475.767 556.649 477.275C556.974 478.212 557.998 480.8 561.975 484.112C565.182 486.766 568.855 488.741 572.788 489.928Z" fill="#60A5FA"/>
<path d="M548.256 499.735C548.526 499.936 548.811 500.113 549.11 500.264C549.521 500.473 549.953 500.638 550.397 500.755C555.507 502.195 562.36 500.223 562.36 500.223C566.361 499.018 570.128 497.09 573.488 494.528C570.001 492.544 566.291 491.017 562.444 489.981C558.842 489.015 554.885 487.955 551.626 488.372C550.105 488.513 548.665 489.149 547.51 490.19C547.176 490.505 545.235 492.413 545.373 495.029C545.511 497.644 547.735 499.348 548.256 499.735Z" fill="#60A5FA"/>
<path d="M580.933 496.527C579.165 497.05 577.324 495.98 576.821 494.138C576.318 492.295 577.342 490.378 579.11 489.856C580.878 489.333 582.719 490.403 583.222 492.245C583.726 494.087 582.701 496.005 580.933 496.527Z" fill="#FEF08A"/>
<path d="M577.136 486.838C575.599 484.781 572.858 480.55 572.194 475.081C571.927 472.576 572.221 470.042 573.053 467.676C573.369 466.736 573.948 465.916 574.716 465.322C575.501 464.769 576.436 464.493 577.383 464.534C578.464 464.609 579.488 465.07 580.282 465.84C581.334 466.863 582.028 468.222 582.254 469.703C582.843 472.533 581.978 475.024 581.028 477.876C580.703 478.796 580.353 479.626 579.654 481.287C578.659 483.636 577.765 485.534 577.136 486.838Z" fill="#60A5FA"/>
<path d="M583.763 487.88C583.303 483.61 583.91 479.291 585.526 475.34C586.584 472.882 588.299 468.758 591.627 468.128C592.889 467.897 594.189 468.154 595.283 468.85C597.248 470.174 597.519 472.581 597.565 472.982C597.804 475.099 596.855 476.714 595.881 478.36C594.195 481.178 592.124 482.757 590.242 484.161C588.229 485.66 586.055 486.908 583.763 487.88V487.88Z" fill="#60A5FA"/>
<path d="M584.264 498.53C584.82 499.153 585.734 500.156 586.866 501.366C593.878 508.905 595.467 509.637 597.597 513.213C598.742 515.17 601.695 520.197 599.797 523.377C599.119 524.423 598.083 525.159 596.901 525.435C592.722 526.281 588.619 519.935 587.385 518.035C585.558 515.204 584.333 511.998 583.795 508.633C583.256 505.269 583.416 501.823 584.264 498.53V498.53Z" fill="#60A5FA"/>
<path d="M589.397 491.618C591.098 488.377 593.227 485.401 595.722 482.776C598.235 480.153 599.826 479.267 601.522 479.018C602.249 478.912 604.295 478.613 605.771 479.985C606.39 480.577 606.821 481.351 607.006 482.205C607.238 483.52 606.992 484.878 606.317 486.014C604.201 489.981 598.223 490.811 594.502 491.311C592.81 491.542 591.104 491.645 589.397 491.618Z" fill="#60A5FA"/>
<path d="M589.492 496.093C591.578 495.098 598.333 492.199 605.047 495.099C606.711 495.809 609.854 497.163 611.137 500.509C611.216 500.798 612.663 504.637 610.675 507.256C608.556 510.052 604.166 509.283 602.681 509.019C597.773 508.15 594.765 504.443 593.307 502.777C591.633 500.868 589.492 496.093 589.492 496.093Z" fill="#60A5FA"/>
<path d="M571.198 499.406C568.53 500.195 555.299 504.167 551.887 510.524C551.275 511.661 549.999 514.039 550.933 515.855C551.676 517.306 553.455 517.657 553.753 517.731C555.748 518.199 557.91 517.163 560.107 515.306C563.385 512.533 567.657 507.064 569.335 504.764C570.601 502.916 571.735 500.974 572.729 498.953L571.198 499.406Z" fill="#60A5FA"/>
<path d="M568.413 555.2C566.94 555.635 565.406 554.744 564.986 553.209C564.567 551.673 565.421 550.076 566.894 549.64C568.367 549.205 569.901 550.096 570.32 551.631C570.74 553.167 569.886 554.764 568.413 555.2Z" fill="#92BEFC"/>
<path d="M589.8 541.664C587.296 542.404 584.688 540.889 583.975 538.279C583.261 535.668 584.713 532.952 587.218 532.212C589.722 531.471 592.33 532.987 593.043 535.597C593.757 538.207 592.305 540.923 589.8 541.664Z" fill="#92BEFC"/>
<path d="M580.033 552.363C578.118 552.93 576.124 551.771 575.578 549.775C575.033 547.779 576.143 545.702 578.058 545.136C579.973 544.569 581.968 545.728 582.513 547.724C583.058 549.72 581.948 551.797 580.033 552.363Z" fill="#92BEFC"/>
<path d="M548.988 421.105C553.267 421.265 557.531 421.723 561.752 422.475V422.475C563.2 422.736 564.704 423.055 566.253 423.391C570.198 424.314 574.089 425.474 577.907 426.863C588.802 431.011 613.11 449.343 617.886 480.612C622.111 508.287 608.476 529.234 604.822 534.397L604.495 534.853C607.39 531.845 627.401 510.341 624.544 478.305C622.792 458.661 612.455 435.379 593.999 426.294C578.664 418.723 557.367 421.075 548.988 421.105Z" fill="#60A5FA"/>
<path d="M547.449 421.071C547.904 421.094 548.426 421.106 549.014 421.106L548.004 421.071L547.449 421.071Z" fill="#60A5FA"/>
<path d="M592.372 428.024C582.935 423.397 571.314 422.478 561.786 422.473C563.234 422.734 564.739 423.052 566.287 423.388C570.233 424.312 574.124 425.471 577.943 426.861C588.838 431.009 613.148 449.342 617.925 480.611C622.15 508.287 608.514 529.235 604.859 534.398C610.716 527.624 625.379 507.781 622.919 480.036C621.167 460.392 610.828 437.11 592.372 428.024Z" fill="#93C5FD"/>
<path d="M614.597 527.969C617.444 527.337 620.243 526.485 622.969 525.42C634.263 520.999 643.943 513.008 650.652 502.568C659.928 487.836 654.337 481.161 663.397 466.179C668.997 456.91 675.303 452.581 677.316 449.843C677.915 449.018 678.131 448.336 677.815 447.706C676.148 444.337 661.723 447.345 650.629 454.047C646.618 456.465 638.281 461.632 632.603 471.889C626.505 482.943 629.283 489.368 624.574 505.449C622.229 513.387 618.874 520.961 614.597 527.969Z" fill="#93C5FD"/>
<path d="M622.967 525.42C634.262 520.999 643.942 513.009 650.651 502.569C659.928 487.836 654.337 481.16 663.396 466.179C668.996 456.91 675.304 452.58 677.317 449.843C671.723 450.273 662.969 453.088 655.624 457.509C651.613 459.928 643.275 465.094 637.598 475.351C631.5 486.406 634.277 492.831 629.568 508.913C627.885 514.624 625.674 520.153 622.967 525.42Z" fill="#60A5FA"/>
<path d="M544.118 412.279C544.674 414.064 546.938 415.433 549.774 416.445C554.662 418.181 561.319 417.445 563.538 417.527C563.728 417.558 563.922 417.526 564.093 417.435C564.77 416.95 561.318 414.719 561.318 414.719L557.472 412.049C555.186 410.439 552.627 409.297 549.931 408.684C547.04 408.035 545.154 408.289 544.328 410.09C543.988 410.763 543.913 411.548 544.118 412.279Z" fill="#60A5FA"/>
<path d="M544.118 412.28C544.674 414.064 546.938 415.434 549.773 416.445C554.662 418.18 561.319 417.444 563.538 417.526C563.727 417.558 563.922 417.526 564.092 417.434C564.686 416.857 560.957 415.216 560.957 415.216L556.751 413.227C554.245 412.023 551.544 411.324 548.789 411.168C546.564 411.057 544.994 411.339 544.118 412.28Z" fill="#93C5FD"/>
<path d="M554.167 404.209C554.635 409.211 560.745 412.137 564.924 414.138C569.228 416.18 573.863 417.358 578.586 417.611C578.613 417.611 578.624 417.582 578.586 417.565C578.341 417.415 577.598 416.935 576.549 416.183C573.613 414.103 570.921 411.672 568.528 408.941C564.087 403.74 562.42 397.963 557.981 398.538C557.089 398.619 556.222 398.89 555.435 399.334V399.334C554.513 400.771 554.067 402.483 554.167 404.209V404.209Z" fill="#93C5FD"/>
<path d="M555.276 403.053C556.038 407.461 560.101 409.912 563.259 411.826C567.342 414.27 571.887 415.756 576.577 416.183C573.632 414.104 570.93 411.674 568.528 408.941C564.087 403.739 562.42 397.962 557.981 398.537C557.089 398.618 556.222 398.889 555.435 399.333V399.333C555.128 400.547 555.074 401.815 555.276 403.053V403.053Z" fill="#60A5FA"/>
<path d="M566.302 400.85C566.731 406.159 571.3 409.789 575.285 412.986C577.866 414.982 580.619 416.724 583.51 418.189C586.567 419.859 589.717 421.334 592.945 422.607C592.972 422.62 593.002 422.622 593.03 422.612C593.058 422.603 593.082 422.584 593.098 422.558C593.113 422.532 593.119 422.501 593.115 422.471C593.11 422.441 593.095 422.413 593.072 422.394C591.962 421.238 590.952 420.082 590.041 418.972C587.778 416.223 585.775 413.252 584.061 410.102C579.746 402.185 579.011 396.264 574.067 394.499C572.959 394.116 571.791 393.955 570.626 394.024C569.655 394.077 568.724 394.444 567.963 395.074C565.972 396.806 566.24 400.07 566.302 400.85Z" fill="#FFD500"/>
<path d="M577.216 445.481C577.196 445.977 577.285 446.471 577.478 446.925C577.626 447.299 577.856 447.631 578.149 447.896C580.553 450.062 584.523 445.803 590.315 445.898C592.756 445.934 595.952 446.692 599.698 449.547C599.705 449.555 599.714 449.562 599.724 449.567C599.734 449.572 599.745 449.574 599.756 449.574C599.767 449.574 599.778 449.572 599.788 449.567C599.798 449.562 599.807 449.555 599.814 449.547C599.824 449.534 599.83 449.517 599.83 449.501C599.83 449.484 599.824 449.468 599.814 449.454C598.767 447.76 597.482 446.239 596.001 444.942C594.819 443.914 591.278 440.898 586.235 440.606C584.633 440.477 583.025 440.719 581.525 441.314C580.82 441.585 577.343 443.033 577.216 445.481Z" fill="#60A5FA"/>
<path d="M577.477 446.928C577.625 447.301 577.855 447.633 578.148 447.898C580.552 450.064 584.522 445.805 590.314 445.901C592.755 445.937 595.95 446.695 599.697 449.549C599.704 449.557 599.713 449.564 599.723 449.569C599.733 449.574 599.744 449.576 599.755 449.576C599.766 449.576 599.777 449.574 599.787 449.569C599.797 449.564 599.806 449.557 599.813 449.549C598.611 448.073 597.211 446.784 595.656 445.724C594.363 444.852 590.506 442.31 585.463 442.636C583.86 442.708 582.292 443.147 580.87 443.921C580.366 444.192 578.358 445.346 577.477 446.928Z" fill="#93C5FD"/>
<path d="M616.233 438.997C617.218 446.672 620.196 453.925 624.845 459.973C624.845 459.973 624.488 456.819 624.131 452.514C623.573 445.425 622.969 435.228 624.01 430.918C625.671 423.986 626.782 424.564 626.782 424.564C626.782 424.564 627.576 426.269 628.532 428.575C629.845 424.144 630.666 424.566 630.666 424.566C630.666 424.566 633.688 431.016 635.111 436.124C635.667 438.152 637.774 446.027 635.709 454.964C635.059 457.537 634.264 460.068 633.326 462.543C640.06 456.405 641.768 452.298 641.768 452.298C643.941 447.081 644.617 441.318 643.713 435.706C642.856 430.506 641.489 426.692 638.191 422.635C634.07 417.549 629.462 412.774 626.847 410.542C625.792 409.635 625.059 409.149 624.821 409.224C623.339 409.691 622.352 411.031 621.077 413.798C618.682 418.985 614.812 427.366 616.233 438.997Z" fill="#93C5FD"/>
<path d="M620.117 438.998C620.699 443.709 622.057 448.281 624.13 452.513C623.572 445.424 622.968 435.226 624.009 430.917C625.671 423.985 626.781 424.563 626.781 424.563C626.781 424.563 627.575 426.268 628.531 428.573C629.844 424.143 630.666 424.565 630.666 424.565C630.666 424.565 633.688 431.014 635.111 436.122C635.667 438.151 637.774 446.026 635.708 454.963C635.059 457.537 634.264 460.067 633.326 462.542C640.06 456.404 641.768 452.297 641.768 452.297C643.942 447.08 644.617 441.317 643.713 435.705C642.856 430.505 641.489 426.691 638.191 422.633C634.07 417.547 629.461 412.772 626.846 410.541C626.084 411.536 625.45 412.631 624.961 413.798C622.566 418.985 618.696 427.367 620.117 438.998Z" fill="#60A5FA"/>
<path d="M591.081 407.542C591.41 411.066 591.939 416.757 596.237 422.397C599.1 426.105 602.878 428.931 607.166 430.572C607.094 430.473 606.372 429.502 605.356 428.075C602.897 424.607 598.693 418.493 597.854 415.575C596.62 411.381 597.364 411.317 597.364 411.317C597.364 411.317 597.763 411.589 598.368 412.023C600.072 413.208 601.696 414.512 603.231 415.925C606.01 418.575 608.099 421.915 609.3 425.633C610.306 428.927 610.552 432.728 611.052 432.705C611.118 432.705 611.185 432.619 611.251 432.451C611.456 431.92 611.645 431.412 611.805 430.921C614.138 424.261 613.698 420.939 613.698 420.939C613.247 417.474 611.84 414.218 609.649 411.566C607.606 409.11 605.724 407.567 602.755 406.519C598.404 404.986 593.831 403.904 592.211 403.822C591.883 403.822 591.656 403.822 591.623 403.897C591.018 404.636 590.908 405.664 591.081 407.542Z" fill="#93C5FD"/>
<path d="M592.191 406.387C592.52 409.911 593.05 415.602 597.347 421.243C599.525 424.083 602.255 426.411 605.357 428.075C602.898 424.608 598.694 418.493 597.855 415.576C596.621 411.381 597.365 411.318 597.365 411.318C597.365 411.318 597.764 411.589 598.369 412.023C598.052 410.197 598.474 410.163 598.474 410.163C600.531 411.56 602.492 413.105 604.341 414.787C607.121 417.437 609.209 420.778 610.411 424.496C611.161 426.963 611.489 429.725 611.823 430.938C614.156 424.278 613.716 420.956 613.716 420.956C613.264 417.491 611.858 414.236 609.666 411.584C607.623 409.128 605.741 407.584 602.772 406.537C598.421 405.004 593.849 403.921 592.228 403.839C592.083 404.681 592.07 405.541 592.191 406.387Z" fill="#60A5FA"/>
<path d="M570.988 402.007C571.418 407.316 575.987 410.947 579.972 414.144C582.553 416.141 585.307 417.883 588.198 419.347C589.519 420.07 590.785 420.712 591.978 421.285C589.706 418.536 587.696 415.565 585.975 412.414C581.66 404.497 580.925 398.575 575.98 396.81C574.872 396.427 573.705 396.266 572.539 396.335C570.67 398.084 570.927 401.244 570.988 402.007Z" fill="#FEF08A"/>
</svg>
