<svg width="480" height="748" viewBox="0 0 480 748" fill="none" xmlns="http://www.w3.org/2000/svg">
<path d="M36.1144 400.373C44.2227 406.678 51.4821 413.963 57.7192 422.054C62.485 428.182 66.741 434.674 70.4463 441.468H70.623C69.2413 419.269 62.5472 397.7 51.0806 378.499C41.9477 363.006 35.6234 358.758 33.404 357.355C28.3712 353.786 22.2511 351.99 16.0417 352.262C13.3877 352.425 10.7889 353.078 8.38179 354.184C6.70705 354.951 5.19975 356.028 3.94297 357.355C1.64185 360.08 0.268433 363.44 0.0148239 366.966C-0.633316 378.96 19.6555 387.667 36.1144 400.373Z" fill="#8FC3FC"/>
<path d="M35.9508 399.779C44.0221 406.098 51.2484 413.399 57.457 421.508C56.2529 415.859 54.6989 410.288 52.8039 404.826C49.6967 396.135 45.7693 387.75 41.0732 379.782C31.9819 364.255 25.6864 359.998 23.4772 358.592C19.0389 355.476 13.7876 353.677 8.34461 353.41C6.67087 354.201 5.16996 355.307 3.92604 356.665C1.63541 359.396 0.268261 362.764 0.0158157 366.297C-0.629372 378.318 19.5669 387.045 35.9508 399.779Z" fill="#60A5FA"/>
<path d="M47.3756 360.783C54.8125 371.695 60.8991 383.439 65.5069 395.766C69.6462 406.754 72.7884 418.08 74.8967 429.611C74.8967 429.642 74.9091 429.671 74.9312 429.693C74.9533 429.715 74.9831 429.727 75.0144 429.727C75.0457 429.727 75.0757 429.715 75.0979 429.693C75.12 429.671 75.1324 429.642 75.1324 429.611C82.9457 399.624 83.4571 368.251 76.6253 338.033C71.2822 313.701 64.8391 305.404 62.4622 302.625C59.0638 298.573 52.6402 291.048 41.7575 288.616C38.7913 287.941 30.8748 286.166 23.5673 290.334C21.3334 291.689 19.3423 293.397 17.6742 295.389C16.1603 297.201 14.9532 299.24 14.0991 301.429C8.24523 317.039 31.248 337.068 47.3756 360.783Z" fill="#8FC3FC"/>
<path d="M46.6809 360.487C53.9815 371.464 59.9565 383.278 64.4798 395.678C64.6533 391.272 64.6727 387.234 64.5956 383.624C64.2438 370.754 62.6943 357.946 59.9674 345.367C54.7223 320.891 48.3973 312.545 46.0639 309.749C42.7278 305.673 36.422 298.103 25.7388 295.658C23.085 294.988 20.3561 294.668 17.6204 294.707C16.1342 296.529 14.9491 298.58 14.1106 300.782C8.26764 316.485 30.8489 336.632 46.6809 360.487Z" fill="#60A5FA"/>
<path d="M212.795 232.425C214.102 239.145 216.671 245.563 220.367 251.346L221.544 253.095L223.231 255.601C223.898 256.611 224.291 257.174 224.291 257.174C229.117 256.96 232.138 256.96 233.786 257.019C234.548 257.009 235.309 257.061 236.062 257.174C237.238 257.426 238.382 257.803 239.475 258.301L240.535 258.845C242.517 259.953 244.317 261.355 245.871 263.002C266.372 258.184 267.039 258.165 269.413 257.174C281.184 252.22 288.776 242.507 292.955 235.436C294.396 233.06 295.706 230.609 296.879 228.093C300.517 220.146 302.518 211.561 302.764 202.839C302.982 198.198 302.752 193.547 302.078 188.949C300.819 180.542 296.542 172.866 290.032 167.327C286.12 163.939 281.389 161.61 276.299 160.567L275.534 160.392C274.517 160.167 273.489 159.999 272.454 159.887C261.221 158.802 249.993 162.005 241.065 168.843C235.444 172.944 230.454 177.832 226.253 183.354C226.056 183.607 225.841 183.898 225.605 184.248C221.211 190.212 208.341 209.133 212.795 232.425Z" fill="#FFD500"/>
<path d="M216.387 226.568C217.7 233.285 220.278 239.7 223.989 245.481L225.17 247.228L226.864 249.733C227.534 250.743 227.927 251.306 227.927 251.306C232.772 251.093 235.805 251.093 237.459 251.151C238.224 251.141 238.988 251.193 239.744 251.306C240.924 251.558 242.073 251.935 243.17 252.432L244.234 252.976C246.224 254.084 248.031 255.485 249.591 257.131C270.171 252.316 270.84 252.296 273.223 251.306C281.099 247.815 287.894 242.328 292.917 235.403C294.363 233.028 295.678 230.578 296.856 228.063C300.509 220.12 302.517 211.538 302.764 202.82C302.983 198.181 302.752 193.532 302.075 188.936C300.811 180.533 296.518 172.86 289.983 167.324C286.055 163.937 281.306 161.609 276.197 160.567L275.429 160.392C274.409 160.167 273.376 159.998 272.337 159.887C261.06 158.802 249.789 162.004 240.827 168.839C235.184 172.938 230.176 177.824 225.958 183.344C225.761 183.596 225.545 183.887 225.308 184.237C219.932 193.053 212.921 208.47 216.387 226.568Z" fill="#FEF08A"/>
<path d="M145.297 196.961C149.613 209.125 156.279 220.342 164.923 229.987C173.504 239.287 183.877 246.795 195.434 252.068C198.605 253.528 201.855 254.814 205.169 255.922C205.285 255.967 205.414 255.97 205.533 255.929C205.651 255.889 205.751 255.808 205.814 255.701C205.878 255.594 205.901 255.468 205.879 255.346C205.857 255.224 205.791 255.114 205.695 255.036C198.124 248.174 191.557 240.301 186.185 231.644C181.98 224.862 176.664 216.23 174.503 204.669C172.167 192.048 174.698 182.26 178.397 168.059C183.226 149.523 190.079 136.729 188.561 122.105C188.354 117.581 186.689 113.241 183.809 109.721C180.929 106.202 176.985 103.688 172.556 102.548C171.777 102.432 171.037 102.355 170.317 102.297C165.753 101.8 161.14 102.553 156.98 104.475C134.316 115.342 133.206 163.743 145.297 196.961Z" fill="#8FC3FC"/>
<path d="M145.316 197.169C149.644 209.36 156.328 220.602 164.996 230.269C173.599 239.59 184.001 247.115 195.589 252.399C195.706 252.445 195.835 252.447 195.954 252.407C196.072 252.366 196.173 252.285 196.236 252.178C196.3 252.071 196.322 251.945 196.3 251.823C196.278 251.7 196.213 251.59 196.116 251.511C188.524 244.635 181.94 236.744 176.554 228.067C172.336 221.27 167.007 212.618 164.839 201.031C162.497 188.382 165.035 178.572 168.744 164.34C173.586 145.762 180.458 132.94 178.935 118.282C178.659 113.997 177.156 109.878 174.601 106.406C173.394 104.835 171.96 103.449 170.345 102.292C165.789 101.805 161.184 102.56 157.03 104.475C134.305 115.366 133.192 163.876 145.316 197.169Z" fill="#60A5FA"/>
<path d="M178.952 202.772C180.29 210.272 182.956 217.483 186.83 224.077C190.95 231.967 196.203 239.234 202.429 245.652C204.663 248.009 207.03 250.24 209.519 252.334C209.561 252.388 209.622 252.424 209.691 252.433C209.759 252.442 209.828 252.424 209.883 252.383C209.938 252.342 209.974 252.281 209.983 252.214C209.993 252.146 209.974 252.078 209.932 252.024C205.345 242.441 202.766 232.047 202.35 221.462C201.652 211.669 203.172 201.846 206.801 192.701C214.206 174.96 228.899 164.347 240.007 156.29C245.461 152.687 250.72 148.808 255.764 144.669C265.218 136.632 270.102 132.371 272.899 125.108C273.627 123.171 278.689 110.059 271.52 100.123C270.334 98.4903 268.899 97.0466 267.266 95.8431C260.648 90.9431 251.923 90.5945 247.886 90.4395C228.663 89.6842 214.541 102.196 210.464 105.934C202.586 113.235 197.288 126.967 186.83 154.353C182.843 164.301 180.195 174.719 178.952 185.341C178.156 191.125 178.156 196.988 178.952 202.772Z" fill="#8FC3FC"/>
<path d="M179.12 203.022C180.638 210.485 183.264 217.682 186.911 224.374C190.985 232.282 196.181 239.564 202.338 245.997C203.429 247.045 204.48 247.938 205.454 248.812C205.495 248.866 205.557 248.901 205.624 248.91C205.692 248.919 205.76 248.901 205.814 248.86C205.869 248.819 205.904 248.758 205.914 248.691C205.923 248.623 205.904 248.555 205.863 248.501C201.326 238.896 198.776 228.479 198.364 217.871C197.674 208.056 199.177 198.212 202.766 189.046C210.09 171.266 224.621 160.629 235.606 152.554C240.999 148.943 246.2 145.056 251.189 140.907C260.538 132.852 265.368 128.582 268.134 121.303C268.855 119.362 273.861 106.221 266.771 96.2628L266.459 95.8552C259.915 90.9443 251.286 90.5949 247.293 90.4396C228.282 89.6826 214.317 102.222 210.285 105.968C199.864 115.674 195.54 128.582 186.911 154.495C176.627 185.358 177.99 197.199 179.12 203.022Z" fill="#60A5FA"/>
<path d="M187.645 84.8684C188.25 88.2208 189.147 91.5158 190.326 94.7171C190.37 94.84 190.455 94.9447 190.567 95.0144C190.68 95.084 190.812 95.1146 190.944 95.1012C191.076 95.0877 191.199 95.0311 191.295 94.9404C191.39 94.8496 191.451 94.73 191.469 94.6008C196.279 72.4024 205.742 62.1853 213.272 56.9702C230.463 45.0276 254.158 47.5286 259.639 34.132C261.095 30.8407 261.346 27.1544 260.348 23.7016C260.026 22.6871 259.561 21.7214 258.969 20.8323C257.016 17.9975 254.28 15.771 251.083 14.4152C239.413 9.3357 225.199 18.4477 218.575 22.6935C211.169 27.5354 204.761 33.7124 199.69 40.8981C194.399 47.3789 190.508 54.8533 188.256 62.8639C186.46 70.0721 186.252 77.5745 187.645 84.8684Z" fill="#8FC3FC"/>
<path d="M187.637 85.555C187.872 86.3248 188.107 87.0294 188.343 87.6688C188.387 87.7928 188.471 87.8985 188.583 87.9688C188.694 88.0391 188.826 88.07 188.957 88.0564C189.089 88.0429 189.211 87.9857 189.306 87.8941C189.401 87.8025 189.462 87.6818 189.48 87.5513C194.262 65.1411 203.671 54.8265 211.158 49.5616C228.25 37.5051 251.81 40.0299 257.259 26.5055C257.994 24.7229 258.431 22.8319 258.553 20.9079C256.611 18.046 253.891 15.7982 250.712 14.4295C239.109 9.30154 224.977 18.5005 218.391 22.7868C211.026 27.6749 204.655 33.9108 199.613 41.1651C194.352 47.7078 190.484 55.2534 188.245 63.3405C186.459 70.6175 186.252 78.1915 187.637 85.555Z" fill="#60A5FA"/>
<path d="M161.658 75.0481C163.661 80.1088 166.501 84.8155 170.064 88.9816C173.54 93.0732 177.569 96.6858 182.041 99.7203C182.152 99.7828 182.281 99.8096 182.409 99.797C182.536 99.7843 182.657 99.7328 182.753 99.6499C182.849 99.5669 182.915 99.4566 182.944 99.3345C182.972 99.2125 182.96 99.0849 182.91 98.9698C173.813 78.262 175.549 64.6557 178.628 56.1879C185.672 36.8273 206.529 25.5112 203.116 11.5392C202.378 8.05424 200.426 4.92598 197.59 2.68645C196.585 1.95432 195.475 1.3707 194.295 0.9544C191.163 -0.0775787 187.805 -0.276872 184.567 0.377041C172.037 2.82117 165.782 18.2173 162.861 25.3957C159.653 33.4961 158.046 42.1158 158.125 50.7993C157.597 59.0325 158.799 67.2843 161.658 75.0481Z" fill="#FFD500"/>
<path d="M161.727 74.6238C163.769 79.6559 166.662 84.336 170.292 88.4784C171.78 89.6649 173.187 90.66 174.454 91.502C174.567 91.5641 174.698 91.5907 174.828 91.5781C174.958 91.5656 175.081 91.5144 175.179 91.4319C175.276 91.3494 175.345 91.2397 175.373 91.1183C175.402 90.997 175.39 90.8701 175.339 90.7556C166.07 70.165 167.839 56.6356 170.976 48.2157C178.153 28.9645 199.405 17.7124 195.927 3.81945C195.684 2.84251 195.368 1.88328 194.982 0.949004C191.79 -0.07714 188.369 -0.275306 185.07 0.374909C172.303 2.80522 165.929 18.1143 162.954 25.2521C159.684 33.3067 158.047 41.8776 158.128 50.512C157.589 58.6987 158.814 66.9038 161.727 74.6238Z" fill="#FEF08A"/>
<path d="M210.353 75.5081C207.243 80.0438 204.894 85.0581 203.397 90.3531C201.907 95.5357 201.134 100.899 201.098 106.292C201.109 106.418 201.159 106.537 201.241 106.633C201.323 106.729 201.433 106.797 201.555 106.827C201.678 106.857 201.807 106.848 201.924 106.801C202.041 106.754 202.14 106.672 202.208 106.565C214.445 87.2668 226.778 80.8992 235.566 78.5748C255.673 73.2423 276.756 83.8095 286.537 73.0079C289.041 70.4086 290.57 67.0194 290.862 63.4172C290.914 62.1806 290.782 60.9431 290.473 59.7451C289.592 56.5945 287.891 53.7359 285.543 51.4631C276.502 42.6148 260.213 46.326 252.536 48.0449C243.974 50.0684 235.87 53.6933 228.648 58.7294C221.475 63.0161 215.249 68.7255 210.353 75.5081Z" fill="#FFD500"/>
<path d="M209.62 74.9865C206.469 79.4427 204.088 84.369 202.571 89.571C202.374 91.49 202.314 93.0827 202.295 94.5604C202.306 94.6841 202.357 94.8014 202.44 94.8957C202.523 94.99 202.634 95.0567 202.758 95.0863C202.882 95.1159 203.013 95.1071 203.132 95.0609C203.25 95.0148 203.351 94.9337 203.42 94.829C215.82 75.8693 228.339 69.6133 237.244 67.3297C257.622 62.0908 278.986 72.4726 288.898 61.8605C289.612 61.1193 290.272 60.3306 290.873 59.5001C289.981 56.4049 288.257 53.5964 285.878 51.3636C276.716 42.6705 260.208 46.3166 252.429 48.0053C243.752 49.9934 235.539 53.5546 228.221 58.5023C220.929 62.7075 214.599 68.3171 209.62 74.9865Z" fill="#FEF08A"/>
<path d="M340.625 288.972C328.088 292.857 314.908 294.279 301.823 293.159C289.059 291.898 276.678 288.111 265.415 282.02C262.313 280.355 259.305 278.521 256.406 276.528C256.3 276.461 256.221 276.359 256.184 276.239C256.147 276.12 256.153 275.991 256.203 275.877C256.253 275.762 256.342 275.668 256.455 275.613C256.567 275.557 256.696 275.543 256.819 275.574C266.998 277.525 277.403 278.056 287.731 277.151C295.797 276.43 305.984 275.535 316.798 270.237C328.574 264.492 334.992 256.605 344.276 245.018C356.503 229.964 362.862 216.78 375.679 209.126C379.487 206.581 384.015 205.306 388.603 205.488C393.191 205.67 397.602 207.3 401.193 210.139C401.743 210.684 402.253 211.229 402.744 211.775C405.875 215.13 408.02 219.272 408.946 223.752C413.912 248.523 375.031 278.631 340.625 288.972Z" fill="#8FC3FC"/>
<path d="M340.844 288.995C328.365 292.86 315.246 294.275 302.221 293.161C289.516 291.906 277.193 288.138 265.981 282.078C265.876 282.012 265.797 281.91 265.76 281.791C265.723 281.672 265.73 281.545 265.779 281.43C265.828 281.316 265.917 281.223 266.029 281.168C266.142 281.112 266.27 281.099 266.392 281.129C276.524 283.07 286.881 283.599 297.161 282.698C305.191 281.981 315.33 281.071 326.094 275.82C337.816 270.105 344.204 262.258 353.445 250.73C365.616 235.734 371.946 222.637 384.703 215.022C388.342 212.663 392.586 211.386 396.933 211.341C398.921 211.375 400.894 211.688 402.794 212.271C405.911 215.609 408.046 219.73 408.967 224.187C413.793 248.754 375.091 278.707 340.844 288.995Z" fill="#60A5FA"/>
<path d="M316.378 265.8C309.449 269.213 301.97 271.415 294.272 272.308C285.362 273.765 276.284 273.961 267.316 272.889C264.054 272.531 260.815 271.994 257.614 271.281C257.546 271.281 257.481 271.255 257.433 271.207C257.385 271.16 257.358 271.096 257.358 271.029C257.358 270.963 257.385 270.899 257.433 270.851C257.481 270.804 257.546 270.778 257.614 270.778C268.216 268.685 278.277 264.508 287.193 258.498C295.607 253.202 302.72 246.137 308.017 237.814C318.093 221.39 317.876 203.456 317.876 189.879C317.532 183.427 317.532 176.963 317.876 170.511C318.783 158.251 319.355 151.86 323.615 145.333C324.739 143.609 332.429 131.776 344.833 131.505C346.873 131.466 348.908 131.733 350.866 132.299C358.754 134.604 364.335 141.266 366.878 144.365C378.986 159.084 377.211 177.677 376.6 183.1C375.397 193.752 367.312 206.051 351.182 230.648C345.442 239.734 338.521 248.048 330.595 255.38C326.345 259.455 321.565 262.959 316.378 265.8Z" fill="#8FC3FC"/>
<path d="M316.624 265.821C309.654 269.048 302.234 271.236 294.609 272.311C285.734 273.765 276.693 273.96 267.762 272.891C266.25 272.64 264.875 272.369 263.598 272.079C263.531 272.079 263.466 272.053 263.418 272.006C263.37 271.959 263.343 271.895 263.343 271.828C263.343 271.762 263.37 271.698 263.418 271.651C263.466 271.604 263.531 271.577 263.598 271.577C274.157 269.49 284.177 265.325 293.057 259.331C301.437 254.049 308.521 247.003 313.796 238.701C323.832 222.321 323.616 204.435 323.616 190.894C323.284 184.459 323.284 178.012 323.616 171.578C324.519 159.351 325.088 152.977 329.33 146.467C330.45 144.748 338.109 132.946 350.462 132.675H350.973C358.828 134.974 364.386 141.619 366.92 144.709C378.978 159.389 377.211 177.933 376.602 183.341C375.05 197.365 367.116 208.452 351.287 230.762C332.335 257.303 322.064 263.213 316.624 265.821Z" fill="#60A5FA"/>
<path d="M406.703 188.754C403.581 190.287 400.329 191.55 396.982 192.528C396.855 192.567 396.718 192.563 396.593 192.516C396.468 192.47 396.362 192.383 396.293 192.271C396.225 192.159 396.197 192.028 396.213 191.898C396.23 191.768 396.291 191.647 396.386 191.556C411.751 174.457 414.455 160.841 414.276 151.757C413.739 131.002 397.42 113.748 405.132 101.377C406.968 98.258 409.846 95.8538 413.282 94.5684C414.313 94.214 415.391 94.0044 416.482 93.9459C419.958 93.7967 423.406 94.6199 426.421 96.3191C437.632 102.505 438.705 119.214 439.202 127.014C439.674 135.776 438.453 144.546 435.604 152.866C433.449 160.935 429.642 168.493 424.413 175.08C419.572 180.82 413.534 185.482 406.703 188.754Z" fill="#8FC3FC"/>
<path d="M407.441 188.309C406.677 188.58 405.978 188.812 405.344 189.006C405.219 189.045 405.085 189.041 404.963 188.994C404.841 188.948 404.738 188.862 404.671 188.75C404.603 188.639 404.576 188.508 404.592 188.378C404.609 188.249 404.668 188.129 404.761 188.038C419.769 171.001 422.41 157.468 422.235 148.407C421.73 127.749 405.771 110.577 413.324 98.2632C414.304 96.6297 415.551 95.1706 417.012 93.9459C420.408 93.7973 423.775 94.6166 426.72 96.3078C437.67 102.464 438.719 119.095 439.204 126.859C439.665 135.579 438.473 144.308 435.69 152.589C433.585 160.621 429.866 168.142 424.759 174.698C420.025 180.414 414.12 185.054 407.441 188.309Z" fill="#60A5FA"/>
<path d="M431.166 202.465C425.856 203.922 420.343 204.516 414.841 204.224C409.456 203.944 404.135 202.942 399.023 201.247C398.901 201.208 398.795 201.132 398.719 201.029C398.644 200.927 398.604 200.803 398.604 200.676C398.604 200.55 398.644 200.426 398.719 200.324C398.795 200.221 398.901 200.145 399.023 200.106C421.265 194.847 431.303 185.315 436.38 177.812C447.98 160.662 444.855 137.479 458.251 131.775C461.523 130.266 465.221 129.924 468.718 130.809C469.907 131.162 471.038 131.683 472.077 132.355C474.765 134.203 476.909 136.725 478.287 139.664C483.716 150.975 474.87 165.129 470.769 171.722C466.066 179.104 459.997 185.54 452.881 190.69C446.528 196.038 439.139 200.045 431.166 202.465Z" fill="#FFD500"/>
<path d="M431.053 202.473C425.731 203.924 420.205 204.515 414.69 204.225C412.87 203.782 411.226 203.301 409.797 202.839C409.675 202.8 409.568 202.724 409.493 202.622C409.417 202.52 409.377 202.397 409.377 202.271C409.377 202.145 409.417 202.022 409.493 201.92C409.568 201.818 409.675 201.742 409.797 201.703C432.071 196.467 442.151 186.977 447.24 179.509C458.847 162.435 455.735 139.355 469.162 133.676C470.105 133.282 471.072 132.947 472.059 132.675C474.753 134.514 476.902 137.026 478.283 139.951C483.724 151.212 474.858 165.303 470.747 171.867C466.034 179.216 459.951 185.623 452.818 190.75C446.451 196.075 439.044 200.064 431.053 202.473Z" fill="#FEF08A"/>
<path d="M401.816 164.596C400.017 169.742 397.379 174.564 394.007 178.871C390.743 183.116 386.907 186.9 382.605 190.118C382.497 190.184 382.37 190.214 382.243 190.205C382.115 190.196 381.995 190.147 381.897 190.066C381.8 189.984 381.731 189.875 381.7 189.753C381.669 189.63 381.679 189.502 381.726 189.385C389.868 168.3 387.584 154.661 384.206 146.365C376.396 127.267 355.35 116.753 358.161 102.613C358.736 99.0953 360.539 95.8876 363.257 93.5458C364.209 92.7417 365.283 92.0907 366.439 91.6167C369.497 90.4547 372.813 90.1217 376.045 90.6521C388.521 92.5813 395.334 107.783 398.517 114.843C402.032 122.831 403.974 131.408 404.237 140.115C405.133 148.353 404.309 156.685 401.816 164.596Z" fill="#FFD500"/>
<path d="M401.8 164.42C399.986 169.558 397.328 174.373 393.93 178.673C392.533 179.925 391.195 180.984 389.995 181.889C389.887 181.959 389.759 181.993 389.63 181.987C389.501 181.981 389.377 181.935 389.277 181.856C389.176 181.777 389.104 181.668 389.07 181.546C389.036 181.424 389.043 181.295 389.09 181.177C397.294 160.106 394.992 146.508 391.588 138.226C383.718 119.138 362.529 108.641 365.342 94.5424C365.542 93.5495 365.811 92.5713 366.149 91.6148C369.23 90.4546 372.572 90.1222 375.829 90.6518C388.401 92.5778 395.267 107.755 398.474 114.805C402.017 122.78 403.974 131.343 404.239 140.036C405.133 148.242 404.303 156.54 401.8 164.42Z" fill="#FEF08A"/>
<path d="M226.235 302.922C214.336 302.922 204.689 293.46 204.689 281.788C204.689 270.116 214.336 260.654 226.235 260.654C238.135 260.654 247.781 270.116 247.781 281.788C247.781 293.46 238.135 302.922 226.235 302.922Z" fill="#60A5FA"/>
<path d="M207.084 324.056C201.135 324.056 196.311 319.325 196.311 313.489C196.311 307.653 201.135 302.922 207.084 302.922C213.034 302.922 217.857 307.653 217.857 313.489C217.857 319.325 213.034 324.056 207.084 324.056Z" fill="#60A5FA"/>
<path d="M276.509 145.539C276.495 148.223 277.581 150.812 279.546 152.78C281.512 154.748 284.209 155.946 287.091 156.133C289.974 156.319 292.824 155.479 295.064 153.783C297.303 152.087 298.764 149.663 299.15 147.002C299.536 144.342 298.817 141.644 297.141 139.458C295.464 137.272 292.955 135.761 290.122 135.231C287.29 134.702 284.347 135.194 281.891 136.608C279.435 138.022 277.651 140.252 276.9 142.844C276.633 143.721 276.502 144.628 276.509 145.539Z" fill="#8FC3FC"/>
<path d="M276.509 145.392C276.511 147.628 277.237 149.808 278.583 151.63C279.93 153.452 281.832 154.825 284.026 155.56C286.219 156.294 288.595 156.353 290.825 155.728C293.055 155.104 295.028 153.827 296.471 152.074C296.734 151.175 296.864 150.245 296.857 149.311C296.854 147.075 296.129 144.894 294.782 143.072C293.435 141.251 291.533 139.877 289.34 139.143C287.147 138.409 284.77 138.35 282.541 138.974C280.311 139.599 278.338 140.876 276.895 142.628C276.631 143.527 276.501 144.457 276.509 145.392Z" fill="#60A5FA"/>
<path d="M288.48 117.359C288.466 120.044 289.495 122.633 291.357 124.6C293.219 126.568 295.775 127.767 298.505 127.953C301.235 128.139 303.936 127.299 306.057 125.603C308.179 123.907 309.563 121.483 309.929 118.822C310.294 116.162 309.614 113.465 308.025 111.278C306.437 109.092 304.059 107.581 301.376 107.052C298.693 106.522 295.905 107.015 293.578 108.429C291.252 109.843 289.561 112.072 288.85 114.665C288.597 115.541 288.473 116.448 288.48 117.359Z" fill="#8FC3FC"/>
<path d="M288.479 117.213C288.482 119.45 289.207 121.63 290.554 123.452C291.901 125.274 293.803 126.647 295.996 127.381C298.19 128.116 300.566 128.175 302.796 127.55C305.026 126.926 306.999 125.649 308.441 123.896C308.705 122.997 308.835 122.067 308.828 121.133C308.825 118.896 308.1 116.716 306.753 114.894C305.406 113.072 303.504 111.699 301.311 110.965C299.117 110.23 296.741 110.171 294.511 110.796C292.282 111.42 290.308 112.697 288.866 114.45C288.602 115.349 288.472 116.279 288.479 117.213Z" fill="#60A5FA"/>
<path d="M300.45 90.3546C300.437 93.0392 301.465 95.6283 303.327 97.5959C305.189 99.5635 307.745 100.762 310.476 100.948C313.206 101.135 315.906 100.295 318.028 98.5989C320.15 96.9031 321.534 94.4787 321.9 91.8181C322.265 89.1575 321.584 86.4602 319.996 84.2739C318.407 82.0877 316.03 80.5765 313.347 80.0473C310.664 79.518 307.876 80.0104 305.549 81.4244C303.222 82.8383 301.532 85.0679 300.82 87.6603C300.568 88.5368 300.443 89.4439 300.45 90.3546Z" fill="#8FC3FC"/>
<path d="M300.448 90.2084C300.451 92.4449 301.176 94.6252 302.523 96.447C303.87 98.2689 305.772 99.6422 307.965 100.377C310.159 101.111 312.535 101.17 314.765 100.545C316.994 99.9209 318.968 98.6439 320.41 96.8913C320.674 95.9924 320.804 95.062 320.797 94.128C320.794 91.8915 320.069 89.7112 318.722 87.8893C317.375 86.0675 315.473 84.6942 313.279 83.9599C311.086 83.2255 308.71 83.1665 306.48 83.791C304.25 84.4155 302.277 85.6925 300.835 87.4451C300.571 88.344 300.441 89.2744 300.448 90.2084Z" fill="#60A5FA"/>
<path d="M314.812 61.0021C314.798 63.6867 315.827 66.2757 317.689 68.2433C319.551 70.211 322.107 71.4096 324.837 71.5959C327.567 71.7822 330.268 70.9422 332.389 69.2463C334.511 67.5505 335.895 65.1261 336.261 62.4655C336.626 59.8049 335.946 57.1076 334.357 54.9214C332.769 52.7352 330.391 51.224 327.708 50.6947C325.025 50.1655 322.237 50.6578 319.91 52.0718C317.584 53.4858 315.893 55.7154 315.182 58.3078C314.929 59.1842 314.805 60.0913 314.812 61.0021Z" fill="#8FC3FC"/>
<path d="M314.813 60.8559C314.816 63.0924 315.498 65.2726 316.766 67.0945C318.033 68.9164 319.824 70.2896 321.888 71.024C323.952 71.7583 326.189 71.8173 328.287 71.1928C330.386 70.5684 332.243 69.2913 333.601 67.5387C333.849 66.6398 333.971 65.7095 333.965 64.7754C333.962 62.5389 333.279 60.3587 332.012 58.5368C330.744 56.7149 328.954 55.3416 326.89 54.6073C324.825 53.873 322.589 53.814 320.49 54.4385C318.392 55.0629 316.534 56.34 315.177 58.0926C314.929 58.9915 314.806 59.9218 314.813 60.8559Z" fill="#60A5FA"/>
<path d="M131.671 425.598C131.671 425.714 131.769 425.829 131.888 425.733L147.211 412.623C149.377 411.159 152.371 409.176 156.014 406.847L158.417 405.365C179.257 392.237 202.053 382.346 225.992 376.044C246.495 371.001 267.774 369.696 288.761 372.193C288.777 372.206 288.791 372.222 288.8 372.24C288.809 372.259 288.814 372.279 288.814 372.299C288.814 372.32 288.809 372.34 288.8 372.358C288.791 372.376 288.777 372.392 288.761 372.405C283.929 377.515 278.658 382.21 273.005 386.44C279.586 386.483 286.161 386.868 292.7 387.595C292.717 387.608 292.73 387.624 292.739 387.642C292.748 387.66 292.753 387.68 292.753 387.701C292.753 387.721 292.748 387.741 292.739 387.76C292.73 387.778 292.717 387.794 292.7 387.807C283.176 397.894 271.934 406.291 259.474 412.623C245.037 419.9 233.161 422.095 219.847 424.27C230.443 425.213 237.474 426.6 249.626 426.099C263.097 425.843 276.421 423.323 289.017 418.649C326.556 404.017 343.672 370.249 348.3 361.797C352.221 354.576 355.326 346.959 357.557 339.08C359.542 332.294 360.861 325.338 361.496 318.307C361.494 318.284 361.485 318.261 361.471 318.242C361.457 318.223 361.438 318.208 361.416 318.198C361.394 318.188 361.37 318.184 361.346 318.187C361.322 318.189 361.299 318.197 361.279 318.211L342.175 331.687C328.841 340.716 314.601 342.391 288.997 345.163C256.52 348.667 253.211 344.817 229.911 349.014C222.663 350.323 205.922 353.346 190.521 360.565C157.058 376.352 139.667 407.328 131.671 425.598Z" fill="#60A5FA"/>
<path d="M288.063 372.342C288.08 372.355 288.093 372.371 288.102 372.389C288.111 372.408 288.116 372.428 288.116 372.448C288.116 372.468 288.111 372.488 288.102 372.507C288.093 372.525 288.08 372.541 288.063 372.554C283.242 377.649 277.982 382.332 272.342 386.55C278.909 386.592 285.469 386.977 291.994 387.702C292.01 387.714 292.023 387.73 292.032 387.749C292.041 387.767 292.046 387.787 292.046 387.807C292.046 387.828 292.041 387.848 292.032 387.866C292.023 387.884 292.01 387.9 291.994 387.913C282.49 397.973 271.273 406.346 258.841 412.66C244.436 419.917 232.586 422.106 219.302 424.276C229.874 425.216 236.89 426.599 249.015 426.099C262.456 425.844 275.751 423.331 288.319 418.669C325.775 404.078 342.852 370.403 347.471 361.975C351.383 354.774 354.48 347.177 356.707 339.32L345.309 347.384C332.005 356.388 317.796 358.058 292.249 360.823C259.843 364.317 256.542 360.478 233.294 364.663C226.062 365.968 209.358 368.983 193.99 376.182C178.949 383.402 165.815 393.914 155.61 406.901L158.007 405.422C178.801 392.331 201.547 382.467 225.433 376.182C245.891 371.154 267.122 369.852 288.063 372.342Z" fill="#8FC3FC"/>
<path d="M89.5398 348.627C88.8508 350.684 88.1433 352.703 87.3798 354.665C87.7336 356.068 88.0874 357.51 88.4598 358.972C89.2605 362.164 89.8192 364.433 90.322 366.663C90.322 366.875 90.3219 367.086 90.4522 367.278C92.7427 377.373 93.8229 384.372 94.0464 385.891C94.903 391.66 95.3498 396.217 95.3498 396.852C98.265 382.287 99.966 367.491 100.434 352.626C100.724 343.196 100.456 333.757 99.633 324.361C98.847 316.768 97.691 309.221 96.1693 301.748C96.1693 305.728 96.0576 309.439 95.9086 312.824C95.6291 320.64 94.6629 328.415 93.0221 336.051C92.0751 340.303 90.9127 344.501 89.5398 348.627Z" fill="#60A5FA"/>
<path d="M48.8946 255.163C53.6076 268.97 56.4078 277.204 62.6985 287.945C68.3115 297.057 72.599 306.89 75.4374 317.159C75.4374 312.087 75.0431 306.823 74.5304 301.443C73.4852 290.471 70.5864 276.78 64.6705 249.378C60.7265 230.712 58.5967 221.147 54.8105 208.883C51.5962 198.45 48.4015 190.043 45.621 183.429C38.581 166.691 36.4513 162.969 37.0626 162.603C38.5614 161.696 56.7825 182.079 72.5584 209.885L71.1979 206.569C64.1579 189.831 62.0279 186.109 62.6393 185.743C65.0648 184.277 111.525 238.521 119.827 289.873C120.848 296.48 121.506 303.136 121.799 309.812C122.272 319.242 122.213 328.787 121.799 336.153C121.503 343.992 120.48 351.789 118.742 359.447C117.74 363.711 116.509 367.921 115.055 372.059C107.167 394.871 93.3628 412.669 94.191 413.286C94.7038 413.672 138.659 377.342 151.576 317.294C158.754 283.895 156.526 242.32 143.491 214.668C141.519 210.657 133.848 194.999 123.771 172.244C118.545 160.462 114.956 151.862 113.221 147.677C106.339 131.055 101.093 117.692 100.107 114.394C86.3031 67.4585 95.887 37.3765 88.2751 35.3324C84.055 34.1947 76.0094 42.0431 67.4313 55.8885C53.1935 78.8357 37.4373 118.251 35.0314 160.674C32.5073 205.971 45.6605 245.675 48.8946 255.163Z" fill="#8FC3FC"/>
<path d="M87.3798 354.842C87.7336 356.251 88.0873 357.698 88.4597 359.164C89.2603 362.367 89.8189 364.643 90.3216 366.881C90.3216 367.093 90.3215 367.306 90.4518 367.499C93.6916 363.196 97.0806 358.296 100.432 352.875C100.725 343.387 100.457 333.89 99.6313 324.437C98.8454 316.818 97.6896 309.246 96.1681 301.748C96.1681 305.742 96.0564 309.465 95.9074 312.861C95.628 320.704 94.662 328.505 93.0213 336.167C92.0744 340.433 90.9122 344.645 89.5395 348.784C88.8506 350.849 88.1432 352.875 87.3798 354.842Z" fill="#60A5FA"/>
<path d="M48.7459 254.883C53.4237 268.72 56.203 276.971 62.4466 287.735C68.0177 296.867 72.2731 306.721 75.0903 317.012C75.0903 311.93 74.6989 306.654 74.19 301.262C73.1527 290.267 70.2756 276.546 64.4039 249.086C60.4894 230.38 58.3756 220.795 54.6177 208.505C51.4274 198.05 48.2566 189.624 45.4969 182.996C38.5095 166.222 36.3958 162.493 37.0025 162.126C38.49 161.217 56.5749 181.643 72.2328 209.509L70.8824 206.186C63.8951 189.412 61.7811 185.682 62.3878 185.315C64.7952 183.846 110.908 238.206 119.148 289.668C120.161 296.289 120.814 302.959 121.105 309.649C122.71 304.625 124.119 299.388 125.274 293.958C132.398 260.488 130.187 218.824 117.249 191.112C115.292 187.093 107.678 171.401 97.6769 148.598C92.4902 136.791 88.9281 128.172 87.2057 123.979C80.375 107.321 75.1687 93.9293 74.19 90.6248C70.7887 79.042 68.4502 67.1804 67.2028 55.1836C53.0715 78.1798 37.4331 117.679 35.0453 160.193C32.4813 205.587 45.5361 245.376 48.7459 254.883Z" fill="#60A5FA"/>
<path d="M229.825 349.887C259.582 343.289 263.062 348.572 288.479 345.191L229.825 349.887Z" fill="#60A5FA"/>
<path d="M101.584 456.35C101.549 456.473 101.471 456.579 101.363 456.648C101.255 456.717 101.125 456.745 100.998 456.726C100.871 456.707 100.755 456.643 100.673 456.545C100.59 456.447 100.547 456.323 100.55 456.196C100.355 419.485 111.353 400.473 122 389.788C133.096 378.678 144.308 376.108 165.798 358.275C176.074 349.725 185.575 340.298 194.19 330.104C194.27 330.014 194.378 329.954 194.497 329.935C194.616 329.915 194.739 329.936 194.844 329.995C194.949 330.054 195.031 330.147 195.075 330.258C195.119 330.369 195.123 330.492 195.087 330.606C191.513 340.38 186.725 349.674 180.832 358.275C164.862 381.46 148.794 387.45 131.711 405.245C122.39 415.041 110.34 430.943 101.584 456.35Z" fill="#60A5FA"/>
<path d="M96.3697 709.882C98.4945 708.881 100.968 707.717 103.804 706.529C114.018 702.309 124.829 699.655 135.859 698.662C165.981 696.064 177.064 708.105 202.304 701.077C207.651 699.539 212.845 697.531 217.825 695.075C229.471 689.445 238.456 682.657 237.835 681.201C237.643 680.807 236.766 680.83 236.356 680.844C233.026 680.906 227.387 678.749 216.177 674.549C205.868 670.663 200.937 666.835 190.925 662.218C178.508 656.481 167.409 651.366 153.668 651.738C136.766 652.187 124.334 660.736 120.088 663.977C98.4605 680.445 96.6075 705.768 96.3697 709.882Z" fill="#60A5FA"/>
<path d="M103.83 706.517C114.043 702.296 124.854 699.643 135.885 698.649C166.007 696.051 177.09 708.092 202.33 701.064C207.676 699.527 212.871 697.518 217.851 695.063L217.551 694.952C207.241 691.065 202.31 687.237 192.299 682.621C179.881 676.884 168.782 671.768 155.042 672.14C138.14 672.59 125.708 681.138 121.462 684.379C113.837 690.232 107.784 697.833 103.83 706.517Z" fill="#8FC3FC"/>
<path d="M125.036 652.16C129.977 649.405 135.239 647.249 140.707 645.74C145.771 644.344 151.014 643.681 156.272 643.772C169.159 644.023 182.419 649.027 191.519 652.451C200.619 655.874 213.336 661.523 221.201 658.484C222.005 658.182 222.783 657.816 223.526 657.389C225.177 656.511 226.508 655.148 227.335 653.49C228.071 651.746 228.256 649.824 227.866 647.975C226.728 640.635 219.678 636.035 216.888 634.19C214.865 632.884 212.715 631.78 210.471 630.893C203.435 627.887 190.886 624.918 168.616 629.537C136.547 636.21 125.036 652.16 125.036 652.16Z" fill="#FEF08A"/>
<path d="M140.708 645.74C145.772 644.344 151.015 643.681 156.273 643.772C169.16 644.023 182.42 649.027 191.52 652.451C200.62 655.874 213.337 661.523 221.202 658.484C222.006 658.182 222.784 657.816 223.527 657.389C223.486 657.019 223.441 656.682 223.398 656.397C222.26 649.056 215.211 644.457 212.42 642.611C210.397 641.306 208.248 640.201 206.003 639.314C198.968 636.308 186.418 633.34 164.148 637.959C156.036 639.581 148.161 642.195 140.708 645.74Z" fill="#FFD500"/>
<path d="M167.223 609.734C184.763 607.626 186.716 607.328 186.716 607.328C200.738 605.18 207.739 604.106 215.949 599.883C217.831 598.913 219.675 597.95 221.443 596.876C225.557 594.532 229.023 591.23 231.536 587.259C237.303 577.963 236.256 567.22 235.855 563.113C235.415 559.525 234.758 555.967 233.887 552.456C233.4 550.264 232.452 547.299 230.537 541.398C230.499 541.321 230.462 541.244 230.424 541.167C229.786 539.214 229.691 538.953 229.332 538.764C225.77 536.85 213.889 551.026 206.916 560.9C203.08 566.328 203.792 566.119 200.706 570.141C195.482 576.844 189.428 582.879 182.683 588.103C175.221 593.954 171.561 595.319 171.893 596.047C172.522 597.341 185.19 594.21 197.735 587.04C199.519 586.021 201.3 584.93 203.04 583.753C212.064 577.662 215.35 572.619 216.216 571.232C218.933 566.868 220.165 562.644 220.685 562.81C221.204 562.976 220.52 567.668 218.704 572.167C217.848 574.235 216.757 576.2 215.451 578.026L216.098 577.595C225.123 571.504 228.408 566.461 229.275 565.074C231.991 560.71 233.224 556.486 233.743 556.652C234.263 556.818 233.578 561.51 231.762 566.009C230.086 570.178 227.699 572.797 226.51 574.799C223.189 580.364 218.023 583.428 212.917 586.464C212.455 586.681 210.751 587.557 208.284 588.866C206.419 589.849 197.175 594.169 195.222 595.015C192.572 596.168 190.386 596.713 187.379 597.791C185.863 598.326 184.137 599.002 182.012 599.96C176.638 602.393 171.538 605.376 166.798 608.86C166.68 608.915 166.59 609.015 166.546 609.136C166.503 609.257 166.51 609.39 166.566 609.506C166.623 609.622 166.723 609.711 166.846 609.754C166.97 609.797 167.105 609.789 167.223 609.734Z" fill="#8FC3FC"/>
<path d="M180.285 603.585C197.826 601.477 199.778 601.179 199.778 601.179C209.437 599.696 215.762 598.729 221.451 596.893C225.565 594.55 229.031 591.247 231.545 587.277C237.311 577.981 236.264 567.238 235.863 563.131C235.423 559.543 234.766 555.985 233.896 552.474C233.408 550.282 232.46 547.316 230.545 541.416C226.805 545.687 223.298 550.15 220.038 554.786C216.202 560.214 216.914 560.005 213.828 564.027C208.604 570.73 202.55 576.765 195.805 581.989C188.343 587.84 184.683 589.205 185.016 589.933C185.348 590.661 190.722 589.784 197.795 587.076C199.579 586.057 201.36 584.966 203.099 583.789C212.124 577.697 215.409 572.655 216.276 571.267C218.992 566.903 220.225 562.68 220.744 562.846C221.264 563.012 220.58 567.704 218.763 572.202C217.908 574.27 216.817 576.236 215.511 578.061L216.158 577.631C225.182 571.539 228.468 566.497 229.334 565.109C232.05 560.745 233.283 556.521 233.803 556.688C234.322 556.854 233.638 561.546 231.822 566.044C230.145 570.214 227.758 572.833 226.569 574.835C223.249 580.399 218.082 583.464 212.976 586.499C208.665 589.055 192.005 596.193 187.447 597.823C184.862 599.324 182.361 600.962 179.955 602.729C179.84 602.772 179.746 602.859 179.696 602.97C179.645 603.08 179.642 603.206 179.685 603.32C179.729 603.433 179.817 603.525 179.929 603.574C180.042 603.624 180.17 603.628 180.285 603.585Z" fill="#60A5FA"/>
<path d="M84.3595 703.205C84.2883 703.322 84.0907 703.268 84.1279 703.124C87.1895 691.707 91.684 680.709 97.5074 670.385C101.841 662.614 106.935 655.278 112.718 648.482C124.574 634.874 139.31 623.983 155.894 616.573C159.096 615.191 188.785 602.783 223.4 607.958C230.143 608.996 236.095 610.5 250.091 612.24C269.102 614.61 278.885 614.375 284.166 614.1C285.492 614.033 298.229 613.313 307.98 610.259C311.425 609.189 314.803 607.919 318.095 606.456C319.837 605.636 323.32 603.996 323.32 603.996C323.32 603.996 317.823 615.102 294.425 619.8C271.027 624.497 225.495 613.922 211.882 613.696C207.169 613.62 170.106 613.957 140.067 632.448C131.191 637.716 123.206 644.318 116.402 652.013C113.471 655.362 110.619 659.116 100.876 675.117C96.6505 682.055 90.953 691.603 84.3595 703.205Z" fill="#60A5FA"/>
<path d="M314.079 615.097C314.035 615.094 313.992 615.077 313.958 615.049C313.923 615.021 313.899 614.983 313.888 614.941C313.876 614.898 313.879 614.853 313.895 614.812C313.912 614.771 313.941 614.736 313.978 614.712C316.411 613.114 323.423 608.781 328.696 608.931C329.399 608.882 330.104 608.976 330.769 609.207C331.433 609.437 332.042 609.8 332.558 610.272C333.019 610.788 333.334 611.414 333.474 612.087C333.613 612.76 333.571 613.458 333.352 614.11C332.394 616.541 328.571 616.867 327.257 616.98C325.025 617.167 323.89 616.659 320.366 616.012C318.254 615.585 316.152 615.289 314.079 615.097Z" fill="#8FC3FC"/>
<path d="M174.445 623.719C187.232 621.143 196.519 621.604 203.347 623.391C207.152 624.355 210.75 625.981 213.973 628.192C218.322 631.22 220.655 634.523 229.305 639.928C229.305 639.928 245.269 649.924 252.929 646.707C253.461 646.483 253.969 646.208 254.447 645.887C255.309 645.339 256.055 644.63 256.643 643.8C257.367 642.48 257.709 640.99 257.631 639.492C257.47 636.408 254.165 629.54 243.866 623.627C230.342 615.832 216.207 616.252 207.294 616.626C196.018 617.128 184.909 619.51 174.442 623.668C174.335 623.624 174.367 623.735 174.445 623.719Z" fill="#60A5FA"/>
<path d="M203.347 623.39C207.151 624.355 210.749 625.98 213.972 628.191C218.322 631.219 220.654 634.522 229.304 639.927C229.304 639.927 245.268 649.923 252.929 646.706C253.46 646.482 253.968 646.208 254.446 645.887C254.088 642.706 250.658 636.087 240.701 630.35C227.176 622.554 213.042 622.974 204.129 623.348L203.347 623.39Z" fill="#8FC3FC"/>
<path d="M246.665 622.467C251.599 624.744 256.021 627.967 259.671 631.949C261.995 634.53 262.791 636.167 266.204 639.867C267.898 641.702 271.616 645.743 274.927 647.933C284.562 654.328 299.682 651.137 309.078 645.545C315.676 641.617 320.493 635.895 320.084 635.383C320.013 635.237 319.682 635.393 319.155 635.673C317.784 636.462 316.329 637.102 314.816 637.578C307.919 639.614 301.033 636.696 296.303 634.711C293.612 633.577 293.87 633.382 289.428 631.398C289.428 631.398 284.515 629.499 280.023 627.633C275.87 625.934 269.288 624.147 258.258 623.138C254.879 622.791 251.002 622.563 246.683 622.417L246.665 622.467Z" fill="#8FC3FC"/>
<path d="M258.261 623.105C259.884 624.372 261.39 625.777 262.762 627.304C265.086 629.885 265.881 631.522 269.295 635.222C270.989 637.057 274.707 641.098 278.018 643.288C287.652 649.682 302.773 646.491 312.169 640.899C314.678 639.39 317.02 637.627 319.158 635.64C317.787 636.43 316.332 637.069 314.819 637.545C307.922 639.581 301.037 636.663 296.306 634.678C293.615 633.544 293.873 633.349 289.432 631.365C289.432 631.365 284.518 629.466 280.027 627.6C275.873 625.902 269.26 624.161 258.261 623.105Z" fill="#60A5FA"/>
<path d="M284.101 624.271C284.067 624.24 284.043 624.2 284.032 624.156C284.021 624.112 284.024 624.065 284.04 624.023C284.056 623.98 284.085 623.943 284.122 623.917C284.16 623.89 284.205 623.875 284.251 623.874C291.27 624.008 298.285 623.416 305.179 622.109C312.839 620.608 319.133 618.477 322.027 621.548C322.598 622.176 323.007 622.932 323.218 623.749C323.428 624.566 323.435 625.422 323.238 626.243C321.754 631.711 309.253 632.3 308.017 632.355C297.66 632.84 289.164 627.995 284.101 624.271Z" fill="#60A5FA"/>
<path d="M49.7235 698.815C49.7235 696.496 49.7235 693.798 49.5883 690.767C49.0495 679.876 46.8168 669.131 42.9682 658.907C32.3527 631.037 16.5356 626.391 12.0868 600.944C11.189 595.533 10.7885 590.054 10.8902 584.572C11.0253 571.802 13.3703 560.893 14.9723 560.817C15.4162 560.817 15.7732 561.606 15.9373 561.977C17.3173 564.96 21.7276 569.037 30.413 577.18C38.4228 584.658 44.0587 587.385 52.6089 594.283C63.2244 602.835 72.7011 610.484 78.2887 622.846C85.1695 638.05 82.699 652.778 81.5602 657.947C75.7989 684.258 53.3906 696.829 49.7235 698.815Z" fill="#60A5FA"/>
<path d="M49.5885 690.738C49.0496 679.847 46.8169 669.102 42.9683 658.878C32.3529 631.009 16.5358 626.362 12.087 600.916C11.1892 595.505 10.7887 590.026 10.8903 584.544L11.1219 584.763C19.1318 592.241 24.7676 594.968 33.3179 601.866C43.9334 610.418 53.4101 618.067 58.9977 630.429C65.8784 645.632 63.408 660.36 62.2692 665.529C60.1946 674.825 55.8411 683.48 49.5885 690.738Z" fill="#8FC3FC"/>
<path d="M90.254 648.454C90.6468 642.878 90.3519 637.275 89.3759 631.769C88.4712 626.669 86.8165 621.727 84.4638 617.098C78.6735 605.762 68.3669 596.146 61.3028 589.542C54.2386 582.938 43.5749 574.082 42.9669 565.787C42.8967 564.943 42.8967 564.094 42.9669 563.25C43.06 561.405 43.7347 559.635 44.897 558.185C46.1779 556.779 47.8594 555.786 49.7222 555.335C56.9408 553.178 64.1979 557.454 67.093 559.135C69.1623 560.368 71.1019 561.801 72.8833 563.411C78.6735 568.362 86.8088 578.225 92.1841 599.994C99.9045 631.351 90.254 648.454 90.254 648.454Z" fill="#FEF08A"/>
<path d="M89.3761 631.769C88.4715 626.67 86.8167 621.728 84.464 617.098C78.6738 605.762 68.3671 596.146 61.303 589.542C54.2389 582.938 43.5752 574.083 42.9672 565.787C42.897 564.943 42.897 564.095 42.9672 563.25C43.3243 563.127 43.6524 563.022 43.9322 562.937C51.1508 560.78 58.4079 565.056 61.303 566.738C63.3723 567.97 65.3119 569.403 67.0933 571.013C72.8835 575.964 81.0188 585.827 86.3941 607.596C88.4079 615.5 89.4097 623.621 89.3761 631.769Z" fill="#FFD500"/>
<path d="M110.936 592.687C105.3 576.201 104.731 574.338 104.731 574.338C100.649 560.96 98.6126 554.28 98.9407 545.167C99.0179 543.077 99.1048 541.024 99.3267 538.991C99.6997 534.327 101.231 529.824 103.785 525.878C109.817 516.747 120.114 513.041 124.051 511.625C127.529 510.468 131.074 509.516 134.667 508.775C136.886 508.262 140.013 507.824 146.247 506.979C146.334 506.979 146.421 506.979 146.508 506.979C148.573 506.703 148.853 506.675 149.181 506.912C152.472 509.25 144.607 525.916 138.565 536.368C135.246 542.117 135.13 541.395 132.775 545.87C128.886 553.401 125.968 561.382 124.09 569.625C121.947 578.776 122.275 582.615 121.465 582.634C120.008 582.634 117.412 570.034 118.57 555.8C118.734 553.776 118.965 551.724 119.293 549.671C120.982 539.029 124.186 533.936 125.084 532.568C127.911 528.273 131.25 525.356 130.874 524.966C130.498 524.576 126.493 527.209 123.154 530.762C121.628 532.414 120.297 534.231 119.187 536.178L119.303 535.418C120.992 524.776 124.196 519.683 125.093 518.315C127.921 514.02 131.26 511.103 130.884 510.713C130.507 510.323 126.502 512.956 123.163 516.509C120.065 519.797 118.695 523.047 117.373 524.966C113.706 530.316 113.127 536.226 112.548 542.07C112.548 542.573 112.48 544.464 112.345 547.22C112.249 549.301 112.278 559.373 112.345 561.473C112.432 564.323 112.876 566.499 113.185 569.635C113.349 571.212 113.474 573.037 113.513 575.336C113.602 581.159 113.068 586.974 111.921 592.687C111.921 592.815 111.869 592.939 111.776 593.029C111.684 593.12 111.559 593.171 111.428 593.171C111.298 593.171 111.173 593.12 111.08 593.029C110.988 592.939 110.936 592.815 110.936 592.687Z" fill="#8FC3FC"/>
<path d="M110.937 578.435C105.301 561.949 104.732 560.086 104.732 560.086C101.923 550.869 100.08 544.835 99.3081 538.992C99.6811 534.327 101.212 529.824 103.767 525.879C109.798 516.748 120.095 513.042 124.033 511.626C127.51 510.469 131.055 509.517 134.648 508.775C136.868 508.262 139.994 507.825 146.229 506.979C143.928 512.143 141.35 517.183 138.508 522.078C135.188 527.827 135.073 527.105 132.718 531.58C128.829 539.111 125.911 547.091 124.033 555.335C121.89 564.486 122.218 568.324 121.408 568.343C120.597 568.362 119.082 563.212 118.513 555.763C118.677 553.739 118.908 551.686 119.236 549.634C120.925 538.992 124.129 533.899 125.027 532.53C127.854 528.235 131.193 525.318 130.817 524.929C130.44 524.539 126.436 527.171 123.096 530.725C121.571 532.377 120.24 534.194 119.13 536.141L119.246 535.381C120.935 524.739 124.139 519.646 125.036 518.277C127.864 513.982 131.203 511.065 130.826 510.676C130.45 510.286 126.445 512.918 123.106 516.472C120.008 519.76 118.638 523.009 117.316 524.929C113.649 530.278 113.07 536.189 112.491 542.032C112.008 546.964 112.655 564.837 113.128 569.588C112.867 572.532 112.445 575.46 111.863 578.359C111.874 578.479 111.835 578.599 111.755 578.692C111.675 578.785 111.562 578.843 111.439 578.853C111.316 578.863 111.194 578.824 111.1 578.746C111.006 578.667 110.947 578.555 110.937 578.435Z" fill="#60A5FA"/>
<path d="M61.0252 706.599C60.948 706.713 61.0831 706.865 61.1989 706.77C70.3414 699.125 78.4815 690.389 85.4311 680.763C90.6829 673.562 95.2079 665.873 98.9417 657.806C106.298 641.407 109.921 623.621 109.557 605.697C109.441 602.257 108.003 570.54 88.3262 542.034C84.466 536.494 80.519 531.857 72.8855 520.179C62.5113 504.32 58.5064 495.531 56.4798 490.723C55.9683 489.516 51.1334 477.895 49.7245 467.918C49.2186 464.397 48.9254 460.85 48.8463 457.295C48.8463 455.395 48.8463 451.594 48.8463 451.594C48.8463 451.594 41.0391 461.267 46.8294 484.072C52.6196 506.876 81.9569 542.746 88.0367 554.738C90.1405 558.89 105.822 591.948 101.837 626.602C100.838 636.756 98.2327 646.695 94.1165 656.058C92.3118 660.106 90.1019 664.258 79.6408 679.813C75.1051 686.559 68.8131 695.738 61.0252 706.599Z" fill="#60A5FA"/>
<path d="M42.6594 464.59C42.6813 464.628 42.7149 464.659 42.7554 464.677C42.7959 464.696 42.8413 464.701 42.8851 464.693C42.9289 464.684 42.9689 464.663 42.9994 464.631C43.0299 464.598 43.0494 464.558 43.0551 464.514C43.4701 461.663 44.4158 453.568 42.0032 448.95C41.745 448.305 41.3548 447.718 40.8567 447.228C40.3586 446.738 39.7634 446.353 39.108 446.099C38.4363 445.913 37.7267 445.902 37.0496 446.069C36.3725 446.236 35.7514 446.574 35.2479 447.049C33.4336 448.95 34.7846 452.485 35.2479 453.701C36.0392 455.763 36.9946 456.551 39.108 459.402C40.4108 461.093 41.5882 462.832 42.6594 464.59Z" fill="#8FC3FC"/>
<path d="M95.0038 592.306C91.8481 579.84 87.4186 571.792 82.8346 566.499C80.3094 563.537 77.2667 561.043 73.8501 559.135C69.1986 556.579 65.1647 555.933 56.4793 550.583C56.4793 550.583 40.4307 540.72 40.0736 532.529C40.0497 531.961 40.082 531.391 40.1701 530.828C40.3004 529.825 40.6282 528.857 41.1351 527.978C42.0325 526.765 43.251 525.819 44.6576 525.241C47.5527 524.054 55.273 524.025 65.1357 530.619C78.1156 539.266 83.8286 551.999 87.3317 560.076C91.7364 570.306 94.3469 581.198 95.0521 592.287C95.1389 592.363 95.0231 592.382 95.0038 592.306Z" fill="#60A5FA"/>
<path d="M82.834 566.5C80.3088 563.538 77.2661 561.044 73.8494 559.136C69.1979 556.58 65.1641 555.934 56.4787 550.584C56.4787 550.584 40.43 540.721 40.0729 532.53C40.049 531.962 40.0813 531.392 40.1694 530.829C43.2383 529.775 50.7849 529.965 60.3388 536.331C73.3187 544.978 79.0317 557.711 82.5348 565.787L82.834 566.5Z" fill="#8FC3FC"/>
<path d="M64.9907 527.637C60.7758 524.237 55.9132 521.701 50.6888 520.177C47.3208 519.227 45.4775 519.227 40.6137 517.792C38.2011 517.08 32.8934 515.521 29.4578 513.526C19.4407 507.73 15.8411 492.926 16.9123 482.169C17.665 474.615 20.8303 467.869 21.4769 468.011C21.641 468.011 21.641 468.373 21.612 468.962C21.4797 470.52 21.5218 472.088 21.7375 473.637C22.8473 480.64 28.4928 485.495 32.353 488.84C34.5533 490.74 34.6208 490.427 38.3555 493.515C38.3555 493.515 42.2157 497.059 45.8636 500.242C49.2123 503.197 53.6901 508.271 59.3742 517.631C61.1498 520.482 63.0317 523.826 65.0293 527.599L64.9907 527.637Z" fill="#8FC3FC"/>
<path d="M59.4043 517.613C57.5433 516.718 55.6057 515.987 53.614 515.427C50.246 514.477 48.4028 514.477 43.539 513.042C41.1264 512.329 35.8187 510.771 32.3831 508.776C22.366 502.98 18.7663 488.175 19.8375 477.419C20.1385 474.54 20.7433 471.699 21.6422 468.943C21.5099 470.502 21.5519 472.069 21.7676 473.618C22.8774 480.621 28.5229 485.477 32.3831 488.822C34.5834 490.722 34.6509 490.408 38.3856 493.497C38.3856 493.497 42.2458 497.041 45.8937 500.224C49.2424 503.179 53.6912 508.301 59.4043 517.613Z" fill="#60A5FA"/>
<path d="M47.1866 495.168C47.2294 495.186 47.2765 495.19 47.3217 495.181C47.367 495.171 47.4084 495.149 47.4406 495.116C47.4728 495.083 47.4943 495.042 47.5023 494.997C47.5104 494.952 47.5046 494.906 47.4857 494.864C44.3346 488.689 41.8504 482.205 40.0742 475.518C38.1441 468.069 37.3817 461.56 33.3189 460.315C32.4964 460.079 31.6281 460.042 30.788 460.208C29.9478 460.373 29.1607 460.736 28.4937 461.265C24.122 464.943 28.9762 476.298 29.4587 477.419C33.483 486.826 41.5893 492.28 47.1866 495.168Z" fill="#60A5FA"/>
<path d="M165.749 512.299C165.675 512.583 165.642 512.948 165.578 513.356C165.174 516.222 164.794 521.767 168.594 525.111C172.714 528.726 178.935 527.293 180.634 526.806L181.035 526.684C186.264 524.955 188.836 520.862 193.906 512.728C196.983 507.735 199.556 502.461 201.588 496.979C203.147 492.843 204.417 488.608 205.389 484.303C203.285 484.297 201.183 484.45 199.103 484.761C183.461 487.125 174.111 497.89 171.842 500.696C169.217 503.919 166.552 507.222 165.749 512.299Z" fill="#60A5FA"/>
<path d="M204.378 466.398C211.298 451.883 210.968 440.986 210.312 435.588C209.198 426.605 206.077 424.449 204.866 423.846C203.471 423.144 201.923 422.786 200.354 422.8C198.786 422.815 197.243 423.203 195.86 423.931C191.633 426.161 190.747 430.965 190.259 433.639C189.952 435.298 189.301 439.989 192.612 448.346C195.297 455.06 199.294 461.192 204.378 466.398Z" fill="#60A5FA"/>
<path d="M157.758 459.117C158.003 459.649 158.293 460.16 158.626 460.644C159.084 461.314 159.612 461.935 160.201 462.498C166.894 469.112 179.254 472.269 179.254 472.269C186.517 474.034 194.041 474.535 201.484 473.749C197.784 467.769 193.342 462.262 188.261 457.354C183.5 452.763 178.27 447.722 172.844 445.458C170.357 444.322 167.568 443.983 164.871 444.489C164.078 444.655 159.408 445.736 157.356 449.686C155.304 453.636 157.283 458.092 157.758 459.117Z" fill="#60A5FA"/>
<path d="M211.314 483.25C208.114 482.456 206.18 479.266 206.994 476.126C207.809 472.985 211.063 471.082 214.264 471.876C217.464 472.67 219.398 475.86 218.584 479.001C217.769 482.142 214.515 484.044 211.314 483.25Z" fill="#FEF08A"/>
<path d="M213.808 465.71C213.203 461.343 212.61 452.732 216.318 444.139C218.075 440.237 220.729 436.786 224.072 434.057C225.378 432.958 226.989 432.268 228.698 432.078C230.397 431.96 232.09 432.38 233.527 433.276C235.142 434.34 236.334 435.918 236.901 437.745C237.649 440.17 237.549 442.773 236.617 445.14C235.079 449.802 231.577 452.686 227.627 456.024C226.325 457.083 225.061 457.99 222.535 459.805C218.952 462.366 215.917 464.357 213.808 465.71Z" fill="#60A5FA"/>
<path d="M223.204 473.084C226.189 466.429 230.876 460.641 236.812 456.284C240.587 453.619 246.828 449.094 252.545 451.108C254.707 451.883 256.505 453.405 257.603 455.389C259.508 459.06 257.844 462.823 257.568 463.451C256.103 466.76 253.23 468.287 250.289 469.837C245.226 472.475 240.638 472.961 236.496 473.356C232.069 473.774 227.608 473.683 223.204 473.084Z" fill="#60A5FA"/>
<path d="M214.755 489.129C215.08 490.531 215.631 492.806 216.341 495.575C220.705 512.799 222.541 515.272 222.752 522.386C222.836 526.261 223.069 536.225 217.361 539.208C215.401 540.14 213.152 540.304 211.075 539.666C203.846 537.217 202.969 524.308 202.698 520.437C202.312 514.68 203.188 508.907 205.267 503.506C207.347 498.105 210.582 493.202 214.755 489.129Z" fill="#60A5FA"/>
<path d="M228.718 483.532C234.171 480.288 240.059 477.81 246.211 476.17C252.388 474.545 255.629 474.653 258.481 475.784C259.702 476.269 263.141 477.636 264.246 480.947C264.695 482.358 264.693 483.872 264.241 485.284C263.462 487.414 261.904 489.185 259.869 490.252C253.142 494.192 243.134 490.135 236.918 487.584C234.088 486.43 231.347 485.076 228.718 483.532Z" fill="#60A5FA"/>
<path d="M224.99 490.175C229.095 490.558 242.106 492.273 250.026 502.44C251.997 504.946 255.709 509.701 254.803 515.731C254.675 516.224 253.596 523.119 248.236 525.199C242.52 527.422 236.363 522.424 234.285 520.728C227.41 515.129 225.949 507.049 225.127 503.324C224.178 499.053 224.99 490.175 224.99 490.175Z" fill="#60A5FA"/>
<path d="M193.699 478.882C188.87 477.684 164.865 471.829 154.052 478.125C152.116 479.248 148.072 481.604 147.951 485.085C147.847 487.864 150.308 489.947 150.705 490.318C153.402 492.763 157.659 493.153 162.683 492.372C170.181 491.205 181.559 486.967 186.16 485.082C189.729 483.493 193.175 481.651 196.471 479.569L193.699 478.882Z" fill="#60A5FA"/>
<path d="M141.018 558.116C138.351 557.455 136.739 554.796 137.418 552.179C138.096 549.562 140.809 547.976 143.476 548.638C146.143 549.3 147.754 551.958 147.076 554.575C146.397 557.193 143.685 558.778 141.018 558.116Z" fill="#92BEFC"/>
<path d="M185.979 557.166C181.445 556.041 178.705 551.523 179.859 547.073C181.013 542.623 185.624 539.928 190.158 541.053C194.692 542.178 197.432 546.697 196.278 551.146C195.124 555.596 190.513 558.291 185.979 557.166Z" fill="#92BEFC"/>
<path d="M161.537 564.216C158.07 563.355 155.974 559.9 156.857 556.497C157.739 553.094 161.265 551.033 164.732 551.894C168.199 552.754 170.294 556.21 169.412 559.612C168.53 563.015 165.004 565.076 161.537 564.216Z" fill="#92BEFC"/>
</svg>
