<svg width="210" height="615" viewBox="0 0 210 615" fill="none" xmlns="http://www.w3.org/2000/svg">
<path d="M59.9501 152.178C59.7285 152.178 59.455 152.135 59.1447 152.106C56.9722 151.867 52.8416 151.12 51.0829 147.828C49.1839 144.261 51.3638 140.135 52.0288 139.026L52.1913 138.765C54.4081 135.393 57.8737 134.327 64.7532 132.239C68.969 130.982 73.3001 130.132 77.6846 129.702C80.9975 129.358 84.3304 129.237 87.6602 129.339C87.2824 130.824 86.7883 132.279 86.1823 133.689C81.6083 144.29 72.0243 148.916 69.5563 150.003C66.7188 151.265 63.8148 152.541 59.9501 152.178Z" fill="#8FC3FC"/>
<path d="M100.596 133.327C112.485 131.101 120.407 133.327 124.242 134.778C130.619 137.206 131.631 139.802 131.853 140.766C132.113 141.879 132.094 143.037 131.798 144.14C131.502 145.244 130.938 146.261 130.153 147.103C127.752 149.677 124.072 149.424 122.025 149.279C120.754 149.192 117.2 148.793 111.68 144.928C107.25 141.807 103.485 137.866 100.596 133.327Z" fill="#8FC3FC"/>
<path d="M97.4557 167.541C97.1106 167.271 96.7893 166.973 96.4951 166.65C96.0881 166.204 95.729 165.718 95.4236 165.199C91.7955 159.268 91.729 149.973 91.729 149.973C91.7557 144.527 92.7561 139.128 94.6847 134.022C98.3925 137.726 101.619 141.866 104.291 146.348C106.788 150.546 109.53 155.157 110.202 159.399C110.583 161.361 110.324 163.39 109.463 165.199C109.197 165.729 107.557 168.825 104.291 169.55C101.025 170.275 98.1207 168.063 97.4557 167.541Z" fill="#8FC3FC"/>
<path d="M89.5078 125.351C89.5078 127.753 91.4928 129.701 93.9414 129.701C96.39 129.701 98.375 127.753 98.375 125.351C98.375 122.948 96.39 121 93.9414 121C91.4928 121 89.5078 122.948 89.5078 125.351Z" fill="#FEF08A"/>
<path d="M132.184 69.8388C135.272 71.0641 141.472 73.0581 148.44 72.014C151.618 71.4889 154.628 70.2479 157.234 68.3887C158.276 67.6689 159.074 66.6585 159.524 65.4885C159.919 64.3111 159.919 63.0406 159.524 61.8632C159.038 60.529 158.099 59.3998 156.864 58.6657C155.223 57.6944 153.299 57.2887 151.396 57.5128C147.701 57.7449 144.952 59.688 141.79 61.8632C140.778 62.5882 139.883 63.3133 138.095 64.7634C135.568 66.8226 133.558 68.599 132.184 69.8388Z" fill="#8FC3FC"/>
<path d="M99.1173 118.825C104.535 117.937 109.626 115.689 113.896 112.299C116.534 110.124 120.982 106.55 120.546 102.149C120.372 100.482 119.584 98.9352 118.33 97.7982C115.987 95.7826 112.928 96.2684 112.418 96.3481C109.728 96.7759 108.088 98.5233 106.418 100.314C103.566 103.403 102.376 106.55 101.334 109.399C100.223 112.445 99.4791 115.609 99.1173 118.825Z" fill="#8FC3FC"/>
<path d="M85.8301 121.85C84.8621 121.364 83.2955 120.559 81.3965 119.551C69.5735 113.323 68.0957 111.575 62.9231 110.125C60.1004 109.357 52.8441 107.37 49.6223 110.85C48.5831 112.063 48.0545 113.619 48.1445 115.201C48.6248 120.747 57.9205 123.727 60.7063 124.627C64.853 125.952 69.2412 126.391 73.5751 125.912C77.909 125.433 82.0879 124.047 85.8301 121.85Z" fill="#8FC3FC"/>
<path d="M92.4645 113.025C95.8313 109.773 98.7166 106.073 101.036 102.033C103.349 97.9731 103.859 95.6675 103.549 93.4488C103.416 92.499 103.039 89.8235 100.814 88.4387C99.8622 87.8635 98.7535 87.5877 97.637 87.6484C95.9353 87.8083 94.3549 88.5837 93.2034 89.8235C89.095 93.8476 90.2477 101.649 90.9866 106.5C91.3176 108.707 91.8115 110.888 92.4645 113.025Z" fill="#8FC3FC"/>
<path d="M83.0134 25.7291C83.4789 22.7636 84.5873 13.2726 78.5798 5.82631C77.1019 3.97742 74.294 0.489895 69.7126 0.0258584C69.3284 0.0258584 64.0819 -0.474431 61.5843 2.92608C58.9168 6.55137 61.4587 11.808 62.3233 13.5844C65.1755 19.4573 70.8284 21.9661 73.4073 23.2277C76.363 24.6778 83.0134 25.7291 83.0134 25.7291Z" fill="#8FC3FC"/>
<path d="M89.5078 138.578C89.5078 142.204 89.4339 160.207 82.8574 166.682C81.6825 167.842 79.2218 170.263 76.6503 169.712C74.5961 169.277 73.5173 167.16 73.3178 166.812C72.0173 164.463 72.5049 161.389 73.9902 157.988C76.207 152.913 81.3795 145.662 83.5963 142.762C85.4086 140.535 87.3844 138.442 89.5078 136.498V138.578Z" fill="#8FC3FC"/>
<path d="M103.98 322.452C103.443 315.107 104.583 305.412 111.041 297.919C117.862 289.97 128.493 286.957 135.163 287.265C137.611 287.406 140.037 287.803 142.399 288.449C143.129 288.662 143.78 288.857 144.365 289.041C139.501 288.836 134.641 289.528 130.037 291.083C125.145 292.771 120.637 295.385 116.77 298.777C107.043 307.353 104.637 318.48 103.98 322.452Z" fill="#8FC3FC"/>
<path d="M103.296 323.28C100.281 316.538 98.0795 307.015 101.589 297.829C105.31 288.122 114.301 281.783 120.693 279.884C123.053 279.212 125.479 278.79 127.93 278.623C128.69 278.587 129.371 278.558 129.986 278.546C125.331 279.952 120.988 282.207 117.184 285.193C113.151 288.392 109.796 292.335 107.306 296.799C101.046 308.075 102.572 319.35 103.296 323.28Z" fill="#60A5FA"/>
<path d="M106.198 317.496C109.418 310.849 115.297 302.972 124.663 299.568C134.583 295.946 145.347 298.467 150.997 301.965C153.057 303.272 154.97 304.789 156.702 306.493C157.227 307.032 157.697 307.517 158.113 307.967C153.978 305.44 149.396 303.698 144.605 302.83C139.5 301.936 134.266 302.031 129.198 303.108C116.425 305.878 108.748 314.383 106.198 317.496Z" fill="#8FC3FC"/>
<path d="M61.6273 386.129V386.094C61.7057 385.964 73.3384 395.386 94.1915 401.483C105.565 404.809 113.344 407.082 122.836 405.922C143.876 403.353 167.461 384.656 167.461 362.715C167.461 362.04 167.232 347.551 156.938 338.051C155.493 336.527 153.874 335.17 152.113 334.009C145.902 329.937 135.476 326.593 127.389 330.458C122.565 332.754 119.658 337.087 117.987 339.336C118.683 337.455 119.613 335.666 120.755 334.009C121.027 333.618 124.687 328.451 130.778 325.888C142.043 321.153 156.106 327.628 164.138 334.861L164.657 335.341C169.198 339.662 172.627 344.981 174.661 350.86C180.565 368.172 172.852 387.491 161.075 399.074C149.943 410.029 136.555 412.687 133.335 413.279C97.3152 419.695 62.743 387.556 61.6273 386.129Z" fill="#60A5FA"/>
<path d="M61.6283 386.129V386.094C61.7067 385.964 73.3394 395.386 94.1925 401.483C105.566 404.809 113.345 407.082 122.837 405.922C143.877 403.353 167.462 384.656 167.462 362.715C167.462 362.04 167.233 347.551 156.939 338.051C155.494 336.527 153.875 335.17 152.114 334.009C145.903 329.937 135.477 326.593 127.39 330.458C122.566 332.754 119.659 337.087 117.988 339.336C118.684 337.455 119.614 335.666 120.756 334.009C121.028 333.618 124.688 328.451 130.779 325.888C142.044 321.153 156.107 327.628 164.139 334.861L164.658 335.341C168.607 339.442 171.609 344.332 173.456 349.676C179.36 366.988 171.647 386.307 159.87 397.89C148.737 408.846 135.35 411.503 132.13 412.095C99.4932 417.907 68.0386 392.042 61.6283 386.129Z" fill="#8FC3FC"/>
<path d="M138.177 399.69C137.815 399.24 144.062 396.038 148.344 389.125C149.073 387.963 149.706 386.746 150.238 385.485C151.269 383.035 152.143 379.513 153.856 372.464C154.779 368.664 155.84 363.816 159.283 361.218C159.947 360.715 161.382 359.661 162.901 360.034C163.191 360.104 163.467 360.222 163.716 360.384C164.35 360.81 164.862 361.389 165.205 362.064C166.755 364.852 165.44 368.332 164.108 371.872C163.531 373.372 162.841 374.828 162.045 376.228C161.394 377.382 160.673 378.497 159.886 379.566C155.502 385.515 153.162 388.693 149.635 391.996C144.292 397.027 138.527 400.128 138.177 399.69Z" fill="#8FC3FC"/>
<path d="M148.343 389.125C149.072 387.963 149.705 386.746 150.236 385.485C151.267 383.035 152.142 379.513 153.855 372.464C154.777 368.664 155.839 363.816 159.282 361.218C159.945 360.715 161.38 359.661 162.9 360.034C163.19 360.104 163.465 360.222 163.714 360.384C164.733 363.047 163.521 366.249 162.297 369.504C161.72 371.004 161.031 372.461 160.235 373.861C159.584 375.015 158.863 376.129 158.076 377.199C153.909 382.851 151.593 386 148.343 389.125Z" fill="#60A5FA"/>
<path d="M127.925 402.659C127.588 402.244 134.01 399.013 137.502 391.893C137.689 391.526 137.857 391.153 138.02 390.768C138.889 388.714 139.618 385.767 141.035 379.86C141.807 376.681 142.694 372.621 145.576 370.449C146.075 370.047 146.64 369.733 147.247 369.52C147.686 369.376 148.158 369.354 148.61 369.455C149.031 369.597 149.419 369.822 149.751 370.115C150.082 370.407 150.35 370.763 150.539 371.159C151.836 373.491 150.732 376.403 149.617 379.368C148.736 381.649 147.554 383.806 146.101 385.784C142.435 390.768 140.469 393.426 137.514 396.195C133.051 400.404 128.227 403.026 127.925 402.659Z" fill="#FFD500"/>
<path d="M137.501 391.891C137.688 391.524 137.857 391.151 138.02 390.766C138.888 388.712 139.618 385.765 141.035 379.858C141.807 376.679 142.693 372.619 145.576 370.447C146.074 370.045 146.639 369.731 147.246 369.518C147.348 369.664 147.441 369.816 147.524 369.973C148.82 372.305 147.717 375.217 146.601 378.183C145.72 380.463 144.538 382.62 143.085 384.599C140.77 387.765 139.135 389.985 137.501 391.891Z" fill="#FEF08A"/>
<path d="M117.78 402.45C117.557 402.113 122.906 400.029 125.837 394.572L126 394.264C127.05 391.882 127.968 389.446 128.75 386.966C129.522 384.729 130.438 381.876 132.651 380.503C132.972 380.291 133.321 380.123 133.689 380.006C134.08 379.876 134.504 379.876 134.895 380.006C135.188 380.136 135.451 380.323 135.67 380.555C135.888 380.786 136.057 381.059 136.167 381.355C136.939 383.131 135.95 385.132 134.961 387.185C134.526 388.056 134.029 388.894 133.472 389.695C133.013 390.351 132.518 390.981 131.988 391.583C129.015 394.915 127.423 396.703 125.119 398.49C121.592 401.171 117.973 402.734 117.78 402.45Z" fill="#8FC3FC"/>
<path d="M126.002 394.263C127.052 391.881 127.97 389.445 128.752 386.965C129.524 384.728 130.44 381.875 132.653 380.502C132.974 380.29 133.323 380.122 133.691 380.005L133.757 380.153C134.529 381.928 133.54 383.929 132.551 385.983C132.116 386.853 131.618 387.692 131.061 388.492C130.603 389.148 130.108 389.779 129.578 390.38C128.137 391.955 127.021 393.21 126.002 394.263Z" fill="#60A5FA"/>
<path d="M107.517 402.433C107.626 402.652 110.4 401.841 113.162 400.143C114.971 399.036 116.286 397.876 118.728 395.704C119.156 395.314 119.558 394.899 119.934 394.461C120.408 393.93 120.84 393.364 121.224 392.768C122.129 391.365 123.034 389.986 122.605 388.625C122.551 388.4 122.452 388.189 122.313 388.003C122.174 387.817 121.999 387.66 121.797 387.542C121.523 387.451 121.231 387.422 120.944 387.454C120.656 387.487 120.379 387.582 120.133 387.731C118.408 388.542 117.504 390.531 116.756 392.087C115.957 393.908 115.034 395.674 113.994 397.373C111.431 401.108 107.385 402.173 107.517 402.433Z" fill="#FEF08A"/>
<path d="M112.849 364.767C111.537 364.767 110.255 364.386 109.164 363.67C108.073 362.955 107.223 361.938 106.72 360.748C106.218 359.559 106.087 358.25 106.343 356.987C106.599 355.724 107.231 354.564 108.158 353.653C109.086 352.742 110.268 352.122 111.555 351.871C112.842 351.62 114.175 351.749 115.387 352.242C116.6 352.734 117.636 353.569 118.364 354.64C119.093 355.71 119.482 356.969 119.482 358.257C119.482 359.983 118.784 361.639 117.54 362.86C116.296 364.081 114.608 364.767 112.849 364.767Z" fill="#FFD500"/>
<path d="M110.737 363.291C109.426 363.291 108.143 362.909 107.052 362.194C105.961 361.478 105.111 360.461 104.609 359.272C104.107 358.082 103.976 356.773 104.231 355.51C104.487 354.247 105.119 353.087 106.047 352.176C106.975 351.266 108.157 350.646 109.443 350.395C110.73 350.143 112.064 350.272 113.276 350.765C114.488 351.258 115.524 352.092 116.253 353.163C116.982 354.234 117.371 355.492 117.371 356.78C117.377 357.637 117.21 358.486 116.879 359.279C116.548 360.072 116.06 360.792 115.442 361.398C114.825 362.004 114.091 362.483 113.284 362.808C112.476 363.133 111.61 363.297 110.737 363.291Z" fill="#FEF08A"/>
<path d="M60.3845 346.42C60.3845 344.975 60.3845 343.295 60.3 341.406C59.9633 334.623 58.5681 327.929 56.1632 321.561C49.5298 304.201 39.6459 301.307 36.8659 285.456C36.3049 282.086 36.0546 278.673 36.1181 275.258C36.2026 267.304 37.6679 260.509 38.669 260.461C38.9464 260.461 39.1695 260.953 39.272 261.184C40.1344 263.042 42.8903 265.581 48.3176 270.654C53.3229 275.312 56.8446 277.01 62.1876 281.307C68.821 286.634 74.7428 291.399 78.2344 299.099C82.5341 308.569 80.9903 317.743 80.2788 320.963C76.6786 337.352 62.676 345.183 60.3845 346.42Z" fill="#8FC3FC"/>
<path d="M60.3001 341.39C59.9634 334.606 58.5682 327.913 56.1633 321.545C49.5298 304.185 39.646 301.291 36.866 285.44C36.305 282.07 36.0547 278.657 36.1182 275.242L36.263 275.378C41.2682 280.036 44.7899 281.735 50.1329 286.032C56.7663 291.359 62.6882 296.124 66.1798 303.824C70.4794 313.294 68.9357 322.468 68.2241 325.688C66.9277 331.478 64.2073 336.869 60.3001 341.39Z" fill="#60A5FA"/>
<path d="M85.7143 315.053C85.9597 311.579 85.7754 308.089 85.1655 304.659C84.6002 301.483 83.5662 298.404 82.096 295.521C78.4778 288.46 72.0373 282.47 67.6231 278.356C63.2088 274.243 56.5452 268.727 56.1653 263.559C56.1215 263.034 56.1215 262.505 56.1653 261.979C56.2235 260.83 56.6451 259.727 57.3714 258.824C58.1718 257.949 59.2226 257.33 60.3866 257.049C64.8973 255.705 69.4322 258.369 71.2413 259.416C72.5344 260.184 73.7464 261.076 74.8596 262.08C78.4778 265.163 83.5614 271.307 86.9204 284.867C91.7447 304.399 85.7143 315.053 85.7143 315.053Z" fill="#FEF08A"/>
<path d="M85.1636 304.66C84.5982 301.483 83.5642 298.405 82.0941 295.521C78.4758 288.46 72.0354 282.47 67.6211 278.357C63.2068 274.243 56.5433 268.727 56.1633 263.56C56.1195 263.034 56.1195 262.505 56.1633 261.979C56.3865 261.903 56.5915 261.837 56.7664 261.784C61.2771 260.441 65.812 263.104 67.6211 264.152C68.9141 264.92 70.1262 265.812 71.2393 266.815C74.8576 269.899 79.9412 276.042 83.3001 289.602C84.5585 294.526 85.1845 299.584 85.1636 304.66Z" fill="#FFD500"/>
<path d="M98.636 280.315C95.1143 270.046 94.7585 268.886 94.7585 268.886C92.2076 260.552 90.9352 256.391 91.1402 250.715C91.1885 249.413 91.2428 248.135 91.3815 246.868C91.6145 243.963 92.5712 241.158 94.1675 238.7C97.9365 233.012 104.371 230.704 106.831 229.822C109.005 229.101 111.22 228.508 113.465 228.046C114.852 227.727 116.806 227.455 120.701 226.928C120.756 226.928 120.81 226.928 120.864 226.928C122.155 226.756 122.329 226.738 122.534 226.886C124.591 228.342 119.676 238.724 115.901 245.234C113.827 248.815 113.754 248.365 112.283 251.153C109.852 255.844 108.029 260.815 106.855 265.95C105.517 271.65 105.722 274.041 105.215 274.053C104.305 274.053 102.682 266.205 103.406 257.338C103.509 256.078 103.653 254.799 103.858 253.521C104.914 246.892 106.916 243.719 107.477 242.867C109.244 240.192 111.33 238.375 111.095 238.132C110.86 237.889 108.357 239.529 106.271 241.742C105.317 242.771 104.486 243.903 103.792 245.116L103.864 244.643C104.92 238.014 106.922 234.841 107.483 233.989C109.25 231.314 111.336 229.496 111.101 229.254C110.866 229.011 108.363 230.651 106.277 232.864C104.341 234.912 103.484 236.936 102.658 238.132C100.367 241.464 100.005 245.146 99.6431 248.786C99.6431 249.099 99.6009 250.277 99.5165 251.994C99.4562 253.29 99.4742 259.564 99.5165 260.872C99.5707 262.647 99.8481 264.003 100.041 265.956C100.144 266.939 100.222 268.075 100.246 269.507C100.302 273.134 99.9682 276.757 99.2511 280.315C99.2511 280.395 99.2187 280.472 99.161 280.528C99.1033 280.585 99.0251 280.617 98.9436 280.617C98.862 280.617 98.7837 280.585 98.7261 280.528C98.6684 280.472 98.636 280.395 98.636 280.315Z" fill="#60A5FA"/>
<path d="M98.6363 271.439C95.1145 261.17 94.7587 260.01 94.7587 260.01C93.0039 254.268 91.8521 250.51 91.3696 246.87C91.6027 243.965 92.5594 241.16 94.1557 238.702C97.9247 233.014 104.359 230.706 106.82 229.824C108.993 229.103 111.208 228.51 113.453 228.048C114.84 227.729 116.794 227.456 120.689 226.93C119.252 230.146 117.641 233.285 115.865 236.335C113.791 239.915 113.718 239.466 112.247 242.253C109.817 246.944 107.993 251.915 106.82 257.05C105.481 262.75 105.686 265.141 105.179 265.153C104.673 265.165 103.726 261.957 103.37 257.317C103.473 256.056 103.617 254.777 103.822 253.499C104.878 246.87 106.88 243.698 107.441 242.845C109.208 240.17 111.294 238.353 111.059 238.11C110.824 237.868 108.321 239.507 106.235 241.721C105.281 242.75 104.45 243.881 103.756 245.094L103.828 244.621C104.884 237.992 106.886 234.819 107.447 233.967C109.214 231.292 111.3 229.475 111.065 229.232C110.83 228.989 108.327 230.629 106.241 232.843C104.305 234.89 103.449 236.915 102.622 238.11C100.331 241.443 99.969 245.124 99.6072 248.764C99.3056 251.836 99.7097 262.969 100.005 265.928C99.8421 267.762 99.5784 269.586 99.2152 271.391C99.2216 271.467 99.1972 271.542 99.1475 271.599C99.0977 271.657 99.0266 271.693 98.9499 271.699C98.8731 271.706 98.7969 271.682 98.7381 271.633C98.6793 271.584 98.6427 271.514 98.6363 271.439Z" fill="#8FC3FC"/>
<path d="M67.4466 351.269C67.3984 351.34 67.4828 351.435 67.5552 351.376C73.2682 346.614 78.3548 341.172 82.6975 335.176C85.9793 330.691 88.8069 325.901 91.1401 320.876C95.7366 310.661 98.0007 299.583 97.7735 288.418C97.7011 286.275 96.8026 266.518 84.5066 248.762C82.0945 245.311 79.628 242.423 74.858 235.149C68.3753 225.27 65.8727 219.796 64.6063 216.801C64.2867 216.049 61.2655 208.81 60.385 202.596C60.0689 200.403 59.8857 198.193 59.8363 195.979C59.8363 194.795 59.8363 192.427 59.8363 192.427C59.8363 192.427 54.9577 198.453 58.5759 212.658C62.1941 226.863 80.5266 249.206 84.3257 256.675C85.6404 259.262 95.4397 279.853 92.9492 301.439C92.3248 307.764 90.6971 313.955 88.1249 319.787C86.9972 322.309 85.6162 324.895 79.0793 334.584C76.245 338.786 72.3132 344.504 67.4466 351.269Z" fill="#8FC3FC"/>
<path d="M55.9713 200.524C55.985 200.548 56.006 200.567 56.0313 200.579C56.0566 200.59 56.085 200.593 56.1123 200.588C56.1397 200.583 56.1647 200.569 56.1838 200.549C56.2029 200.529 56.215 200.504 56.2186 200.477C56.4779 198.701 57.0688 193.658 55.5612 190.782C55.3999 190.38 55.1561 190.015 54.8448 189.709C54.5336 189.404 54.1616 189.165 53.7521 189.006C53.3324 188.89 52.8889 188.884 52.4658 188.987C52.0427 189.091 51.6546 189.302 51.34 189.598C50.2062 190.782 51.0505 192.984 51.34 193.741C51.8345 195.026 52.4315 195.517 53.7521 197.293C54.5662 198.346 55.3019 199.429 55.9713 200.524Z" fill="#60A5FA"/>
<path d="M88.6804 280.079C86.7084 272.314 83.9405 267.301 81.076 264.004C79.4981 262.159 77.5967 260.605 75.4617 259.417C72.5551 257.825 70.0344 257.422 64.607 254.09C64.607 254.09 54.5785 247.946 54.3553 242.844C54.3404 242.49 54.3606 242.135 54.4156 241.785C54.4971 241.16 54.7019 240.557 55.0187 240.009C55.5795 239.254 56.3409 238.664 57.2198 238.305C59.0289 237.565 63.8532 237.547 70.0163 241.655C78.1272 247.041 81.6972 254.972 83.8862 260.003C86.6386 266.375 88.2699 273.16 88.7105 280.068C88.7648 280.115 88.6924 280.127 88.6804 280.079Z" fill="#8FC3FC"/>
<path d="M81.0762 264.004C79.4982 262.159 77.5969 260.605 75.4619 259.417C72.5552 257.824 70.0345 257.422 64.6071 254.09C64.6071 254.09 54.5786 247.946 54.3555 242.844C54.3405 242.49 54.3607 242.135 54.4158 241.785C56.3334 241.128 61.0492 241.246 67.0193 245.212C75.1302 250.598 78.7002 258.529 80.8892 263.56L81.0762 264.004Z" fill="#60A5FA"/>
<path d="M69.9271 239.794C67.2932 237.676 64.2547 236.097 60.99 235.148C58.8854 234.556 57.7336 234.556 54.6943 233.662C53.1867 233.218 49.8699 232.248 47.7231 231.005C41.4636 227.394 39.2142 218.173 39.8836 211.473C40.354 206.767 42.3319 202.565 42.736 202.654C42.8385 202.654 42.8385 202.879 42.8204 203.246C42.7377 204.216 42.764 205.193 42.8988 206.158C43.5923 210.52 47.1201 213.544 49.5322 215.628C50.9072 216.811 50.9494 216.616 53.2831 218.54C53.2831 218.54 55.6953 220.747 57.9748 222.73C60.0674 224.571 62.8655 227.732 66.4174 233.562C67.527 235.337 68.7029 237.421 69.9512 239.77L69.9271 239.794Z" fill="#60A5FA"/>
<path d="M66.4336 233.548C65.2707 232.991 64.0599 232.535 62.8154 232.187C60.7107 231.595 59.5589 231.595 56.5196 230.701C55.012 230.257 51.6953 229.286 49.5485 228.043C43.2889 224.433 41.0396 215.212 41.709 208.511C41.897 206.718 42.2749 204.949 42.8366 203.232C42.754 204.202 42.7802 205.179 42.915 206.144C43.6085 210.506 47.1363 213.531 49.5485 215.614C50.9234 216.798 50.9656 216.602 53.2994 218.526C53.2994 218.526 55.7115 220.734 57.991 222.717C60.0836 224.557 62.8636 227.747 66.4336 233.548Z" fill="#8FC3FC"/>
<path d="M58.7985 219.571C58.8253 219.582 58.8547 219.585 58.883 219.579C58.9113 219.573 58.9372 219.559 58.9573 219.539C58.9774 219.518 58.9908 219.492 58.9958 219.465C59.0009 219.437 58.9973 219.408 58.9855 219.382C57.0163 215.535 55.4641 211.496 54.3541 207.331C53.148 202.691 52.6716 198.637 50.1328 197.861C49.6189 197.714 49.0763 197.691 48.5513 197.794C48.0263 197.897 47.5345 198.123 47.1176 198.453C44.3859 200.744 47.4192 207.817 47.7207 208.515C50.2354 214.375 55.3009 217.772 58.7985 219.571Z" fill="#8FC3FC"/>
<path d="M58.0219 370.392C58.613 370.373 59.2017 370.31 59.7828 370.202C61.2599 369.847 62.603 369.085 63.6543 368.006C64.1307 367.563 64.5649 367.089 64.987 366.639C70.2757 360.922 71.0958 360.241 72.1451 359.56C75.293 357.495 76.9694 357.714 77.7111 357.897C77.9871 357.967 78.2556 358.062 78.5132 358.181C79.1015 358.464 79.6312 358.851 80.0751 359.324C80.5462 359.825 80.9092 360.415 81.1424 361.058C81.3756 361.701 81.474 362.383 81.4319 363.064C81.3372 363.887 81.0276 364.672 80.5334 365.343C78.5494 368.178 73.8276 369.19 72.0908 369.534C64.583 370.984 58.0279 370.498 58.0219 370.392Z" fill="#8FC3FC"/>
<path d="M63.6553 367.989C64.1317 367.545 64.5659 367.071 64.988 366.622C70.2766 360.922 71.0968 360.241 72.1461 359.56C75.2939 357.495 76.9704 357.714 77.7121 357.897C77.988 357.967 78.2566 358.062 78.5142 358.181C78.9188 358.957 79.0943 359.828 79.0207 360.697C78.926 361.52 78.6165 362.305 78.1222 362.976C76.1382 365.811 71.4164 366.823 69.6796 367.166C67.6885 367.549 65.6773 367.824 63.6553 367.989Z" fill="#60A5FA"/>
<path d="M65.7047 380.671C66.1745 381.025 66.6726 381.342 67.1942 381.618C68.5689 382.255 70.0999 382.495 71.6084 382.31C72.2597 382.257 72.905 382.162 73.5201 382.074C81.2812 380.925 82.3607 380.89 83.6089 381.02C87.3779 381.363 88.5418 382.577 88.9941 383.175C89.1639 383.399 89.3113 383.639 89.4343 383.891C89.7109 384.473 89.8745 385.102 89.9167 385.743C89.9577 386.425 89.8593 387.107 89.6273 387.751C89.3953 388.394 89.0344 388.985 88.5659 389.49C87.959 390.059 87.2137 390.467 86.401 390.674C83.0421 391.65 78.7243 389.49 77.1504 388.697C70.4024 385.187 65.6263 380.772 65.7047 380.671Z" fill="#8FC3FC"/>
<path d="M71.6077 382.315C72.259 382.262 72.9043 382.167 73.5194 382.078C81.2805 380.93 82.3599 380.894 83.6082 381.025C87.3772 381.368 88.5411 382.581 88.9934 383.179C89.1632 383.403 89.3106 383.643 89.4336 383.895C89.254 384.746 88.8364 385.531 88.2275 386.162C87.6261 386.742 86.8826 387.16 86.0687 387.376C82.7097 388.346 78.3919 386.192 76.818 385.399C75.0253 384.465 73.2859 383.435 71.6077 382.315Z" fill="#60A5FA"/>
<path d="M61.7761 374.636C61.7646 374.631 61.7548 374.623 61.7479 374.612C61.7411 374.602 61.7374 374.59 61.7374 374.577C61.7374 374.565 61.7411 374.553 61.7479 374.542C61.7548 374.532 61.7646 374.523 61.7761 374.518C62.3792 374.471 64.1883 374.323 65.8768 374.092C66.6306 373.979 67.3603 373.855 67.9392 373.713C70.0981 373.192 71.7263 372.825 72.0761 372.725C74.0505 372.163 75.9541 371.385 77.7507 370.405C79.0748 369.636 80.5397 369.129 82.0624 368.913C83.6243 368.658 85.8736 368.292 87.7913 369.209C88.2855 369.432 88.7396 369.731 89.1361 370.097C89.4051 370.354 89.6365 370.647 89.8235 370.967C90.3241 371.872 90.4597 372.928 90.2034 373.926C90.0677 374.35 89.8641 374.749 89.6004 375.11C87.3571 378.099 82.0624 378.957 82.0624 378.957C72.7454 380.49 63.4707 375.56 61.7761 374.636Z" fill="#8FC3FC"/>
<path d="M65.9087 374.092C66.6625 373.979 67.3922 373.855 67.9711 373.713C70.13 373.192 71.7582 372.825 72.108 372.725C74.0824 372.163 75.986 371.385 77.7826 370.405C79.1067 369.636 80.5716 369.129 82.0943 368.913C83.6562 368.658 85.9055 368.292 87.8232 369.209C88.3174 369.432 88.7716 369.731 89.168 370.097C89.1609 370.397 89.1143 370.696 89.0293 370.985C88.8935 371.408 88.69 371.808 88.4262 372.168C86.1829 375.157 80.8882 376.016 80.8882 376.016C75.3584 376.903 69.8405 375.548 65.9087 374.092Z" fill="#60A5FA"/>
<path d="M81.4623 419.7C79.8742 424.742 78.6232 429.885 77.7177 435.096C77.4097 436.884 77.1429 438.761 76.8772 440.696C76.2752 445.654 75.9575 450.642 75.9254 455.637C76.0375 469.961 86.3709 505.527 119.133 523.502C148.132 539.409 177.025 531.862 184.268 529.66L184.91 529.461C180.374 531.635 148.23 546.379 113.823 530.333C92.7262 520.493 71.1305 499.218 68.6531 474.135C66.5717 453.284 77.9713 429.438 81.4623 419.7Z" fill="#8FC3FC"/>
<path d="M82.0691 417.861C81.9073 418.4 81.7051 419.012 81.4625 419.697L81.8403 418.507L82.0691 417.861Z" fill="#8FC3FC"/>
<path d="M71.2504 472.931C70.0044 460.114 73.7784 446.228 77.7042 435.139C77.3962 436.928 77.1295 438.805 76.8637 440.74C76.2618 445.697 75.944 450.686 75.9119 455.68C76.024 470.005 86.3574 505.57 119.12 523.546C148.118 539.453 177.012 531.906 184.255 529.704C174.314 533.828 146.223 543.009 116.421 529.128C95.3236 519.289 73.7278 498.013 71.2504 472.931Z" fill="#60A5FA"/>
<path d="M173.101 538.51C171.224 541.573 169.123 544.491 166.815 547.24C157.244 558.627 144.374 566.717 130.009 570.378C109.816 575.321 104.707 566.164 84.3278 570.757C71.7206 573.592 64.3088 579.212 60.4376 580.467C59.2731 580.836 58.4268 580.817 57.8578 580.198C54.8031 576.921 64.0971 561.33 76.1191 551.081C80.4606 547.374 89.6395 539.724 103.376 537.192C118.172 534.485 124.163 540.269 143.969 541.176C153.754 541.601 163.552 540.704 173.101 538.51Z" fill="#60A5FA"/>
<path d="M166.817 547.242C157.246 558.63 144.376 566.72 130.01 570.381C109.818 575.324 104.709 566.167 84.3297 570.76C71.7225 573.595 64.3107 579.214 60.4395 580.47C63.2254 574.132 69.9645 565.063 77.9065 558.272C82.2479 554.566 91.4269 546.915 105.163 544.383C119.959 541.677 125.951 547.46 145.757 548.368C152.796 548.677 159.849 548.3 166.817 547.242Z" fill="#8FC3FC"/>
<path d="M73.6821 410.494C75.4361 411.849 76.0239 415.029 75.9783 418.731C75.8888 425.11 72.3238 432.565 71.4991 435.181C71.4557 435.414 71.3397 435.627 71.1678 435.79C70.3499 436.385 69.2954 431.481 69.2954 431.481L67.9156 425.944C67.0703 422.644 66.8575 419.211 67.2887 415.83C67.7613 412.208 68.821 410.114 71.1635 409.868C72.052 409.74 72.9551 409.964 73.6821 410.494Z" fill="#8FC3FC"/>
<path d="M73.6847 410.495C75.4387 411.851 76.0265 415.03 75.9809 418.732C75.8914 425.111 72.3264 432.567 71.5017 435.182C71.4583 435.415 71.3423 435.629 71.1704 435.791C70.2841 436.252 69.9984 431.26 69.9984 431.26L69.5244 425.574C69.22 422.18 69.5582 418.758 70.5212 415.489C71.3162 412.856 72.2776 411.141 73.6847 410.495Z" fill="#60A5FA"/>
<path d="M60.576 418.986C65.9403 421.518 66.6695 429.791 67.1679 435.449C67.6596 441.269 67.0559 447.131 65.3884 452.727C65.3769 452.759 65.3403 452.761 65.3371 452.708C65.2708 452.365 65.0447 451.308 64.6427 449.789C63.543 445.547 61.9537 441.449 59.9071 437.578C55.9617 430.344 50.2315 426.109 52.7022 421.173C53.16 420.166 53.8186 419.265 54.6371 418.525C56.614 418.023 58.6996 418.184 60.576 418.986Z" fill="#60A5FA"/>
<path d="M58.8373 419.819C63.4196 422.456 64.4663 428.158 65.2891 432.593C66.3186 438.315 66.0947 444.195 64.6331 449.822C63.5394 445.569 61.9538 441.46 59.9089 437.579C55.9635 430.345 50.2333 426.11 52.704 421.173C53.1618 420.167 53.8204 419.266 54.6389 418.526C56.114 418.651 57.5454 419.092 58.8373 419.819Z" fill="#8FC3FC"/>
<path d="M51.8382 431.778C57.5586 434.386 59.7062 441.144 61.6127 447.052C62.7661 450.848 63.5649 454.744 63.9987 458.69C64.5924 462.91 64.9314 467.163 65.0138 471.424C65.0164 471.461 65.006 471.497 64.9844 471.526C64.9627 471.555 64.9314 471.575 64.8961 471.583C64.8608 471.591 64.824 471.585 64.7923 471.568C64.7607 471.55 64.7363 471.522 64.7238 471.488C63.8978 469.737 63.0307 468.102 62.1738 466.602C60.054 462.876 57.5803 459.365 54.7875 456.12C47.7739 447.954 41.4991 444.747 41.5794 438.292C41.6114 436.85 41.9139 435.428 42.4708 434.099C42.9306 432.99 43.7224 432.053 44.7361 431.418C47.4817 429.788 50.9971 431.396 51.8382 431.778Z" fill="#FFD500"/>
<path d="M49.4142 434.549C55.1346 437.157 57.2823 443.915 59.1887 449.823C60.3422 453.619 61.141 457.515 61.5748 461.461C61.8327 463.285 62.0236 465.013 62.1672 466.629C60.0516 462.894 57.581 459.375 54.79 456.121C47.7764 447.955 41.5016 444.748 41.5819 438.293C41.6139 436.852 41.9164 435.429 42.4733 434.101C45.188 432.62 48.5925 434.174 49.4142 434.549Z" fill="#FEF08A"/>
<path d="M108.781 481.278C116.04 483.972 111.977 497.347 118.972 509.668C121.825 514.591 125.801 518.759 130.573 521.827C132.777 523.291 135.089 524.584 137.489 525.693C137.529 525.715 137.56 525.75 137.578 525.792C137.596 525.834 137.6 525.881 137.588 525.926C137.577 525.97 137.551 526.009 137.515 526.037C137.478 526.065 137.434 526.08 137.388 526.079C132.682 525.75 128.052 524.708 123.655 522.988C120.16 521.628 109.845 517.439 103.3 506.967C101.155 503.674 99.7604 499.944 99.2149 496.044C98.9855 494.201 97.8424 485.096 102.733 482.023C103.395 481.618 104.116 481.319 104.869 481.136C106.158 480.789 107.52 480.838 108.781 481.278Z" fill="#FFD500"/>
<path d="M105.071 483.587C112.33 486.281 108.267 499.656 115.263 511.978C118.115 516.9 122.092 521.068 126.863 524.136C125.658 523.763 124.593 523.382 123.655 522.988C120.16 521.627 109.845 517.438 103.3 506.967C101.156 503.674 99.7605 499.944 99.2151 496.044C99.0133 494.429 98.1125 487.273 101.16 483.445C102.448 483.098 103.811 483.148 105.071 483.587Z" fill="#FEF08A"/>
<path d="M96.9045 462.219C97.4638 462.392 97.9758 462.693 98.4011 463.097C98.7552 463.418 99.0296 463.818 99.2024 464.264C100.618 467.922 94.2462 470.851 91.9618 477.63C90.9943 480.485 90.5178 484.506 92.1441 490C92.1506 490.012 92.1546 490.025 92.1557 490.039C92.1568 490.052 92.155 490.066 92.1505 490.079C92.1459 490.092 92.1387 490.103 92.1294 490.113C92.12 490.123 92.1086 490.131 92.0961 490.136C92.0773 490.142 92.0571 490.142 92.0385 490.135C92.0199 490.128 92.004 490.116 91.9934 490.099C90.5427 488.207 89.383 486.107 88.5532 483.868C87.8981 482.083 86.0076 476.764 87.7651 470.779C88.2826 468.864 89.2151 467.088 90.4955 465.578C91.0874 464.866 94.1315 461.394 96.9045 462.219Z" fill="#8FC3FC"/>
<path d="M98.4019 463.095C98.7559 463.416 99.0304 463.815 99.2032 464.262C100.619 467.92 94.247 470.849 91.9626 477.628C90.9951 480.483 90.5186 484.504 92.1449 489.998C92.1514 490.01 92.1554 490.023 92.1565 490.037C92.1576 490.05 92.1558 490.064 92.1513 490.077C92.1467 490.089 92.1395 490.101 92.1301 490.111C92.1208 490.121 92.1094 490.128 92.0969 490.134C90.9521 488.148 90.0983 486.007 89.5619 483.775C89.1258 481.924 87.8917 476.425 90.3358 470.685C91.0775 468.847 92.2124 467.197 93.6598 465.85C94.1694 465.37 96.2803 463.492 98.4019 463.095Z" fill="#60A5FA"/>
<path d="M73.6083 505.066C81.7275 509.26 88.5548 515.605 93.355 523.416C93.355 523.416 89.9981 521.748 85.3644 519.623C77.7204 516.158 66.6428 511.405 61.4265 510.906C53.0411 510.086 53.2255 511.607 53.2255 511.607C53.2255 511.607 54.7913 513.209 56.9581 515.236C51.495 515.004 51.625 516.128 51.625 516.128C51.625 516.128 57.5416 522.205 62.6282 525.89C64.6516 527.342 72.5303 532.921 83.309 534.066C86.4351 534.333 89.5744 534.412 92.7101 534.304C83.114 539.702 77.8479 540.057 77.8479 540.057C71.1557 540.514 64.4762 539.012 58.6158 535.732C53.1934 532.669 49.5212 529.564 46.3752 524.115C42.4255 517.302 39.0234 510.044 37.6237 506.115C37.0508 504.527 36.8136 503.482 36.9954 503.234C38.1255 501.696 40.0211 501.079 43.6203 500.694C50.3698 499.968 61.2756 498.794 73.6083 505.066Z" fill="#60A5FA"/>
<path d="M72.0072 509.587C76.9996 512.135 81.5179 515.53 85.3638 519.624C77.7198 516.159 66.6422 511.406 61.4259 510.906C53.0405 510.086 53.2249 511.608 53.2249 511.608C53.2249 511.608 54.7907 513.209 56.9575 515.237C51.4944 515.005 51.6244 516.128 51.6244 516.128C51.6244 516.128 57.541 522.206 62.6276 525.89C64.651 527.342 72.5297 532.921 83.3083 534.067C86.4345 534.333 89.5738 534.413 92.7095 534.304C83.1134 539.702 77.8473 540.058 77.8473 540.058C71.1551 540.515 64.4756 539.013 58.6152 535.732C53.1928 532.67 49.5206 529.565 46.3746 524.116C42.4249 517.302 39.0228 510.044 37.6231 506.116C39.0432 505.624 40.5212 505.321 42.0192 505.216C48.7687 504.489 59.6745 503.315 72.0072 509.587Z" fill="#8FC3FC"/>
<path d="M49.0486 463.284C52.8276 465.067 58.9303 467.943 63.4228 475.184C66.3603 479.988 67.9405 485.508 67.9933 491.149C67.9139 491.026 67.1332 489.8 65.9669 488.051C63.13 483.812 58.0726 476.492 55.1776 474.357C51.0271 471.255 50.6501 472.095 50.6501 472.095C50.6501 472.095 50.7871 472.668 51.0191 473.544C51.6328 475.997 52.4106 478.405 53.3471 480.752C55.1436 485.039 57.9927 488.796 61.6272 491.671C64.8705 494.149 68.9918 495.945 68.7603 496.517C68.7329 496.595 68.6092 496.638 68.3957 496.649C67.7208 496.676 67.0785 496.694 66.4668 496.686C58.1063 496.756 54.5977 494.924 54.5977 494.924C50.9348 493.023 47.8988 490.093 45.8574 486.49C43.972 483.137 43.034 480.334 43.0959 476.463C43.1882 470.791 43.8724 465.04 44.4502 463.122C44.5851 462.741 44.6788 462.476 44.7759 462.467C45.8464 462.057 47.0342 462.337 49.0486 463.284Z" fill="#60A5FA"/>
<path d="M47.3093 464.118C51.0883 465.901 57.191 468.777 61.6835 476.018C63.9398 479.68 65.4 483.782 65.9681 488.053C63.1313 483.814 58.0738 476.494 55.1789 474.359C51.0284 471.257 50.6514 472.097 50.6514 472.097C50.6514 472.097 50.7883 472.67 51.0203 473.546C49.1231 472.452 48.9109 472.929 48.9109 472.929C49.6136 475.878 50.5212 478.773 51.627 481.593C53.4236 485.88 56.2727 489.637 59.9072 492.512C62.3382 494.365 65.2702 495.844 66.4804 496.714C58.12 496.784 54.6113 494.953 54.6113 494.953C50.9484 493.051 47.9125 490.121 45.8711 486.518C43.9856 483.165 43.0476 480.362 43.1095 476.491C43.2018 470.819 43.886 465.068 44.4638 463.15C45.4584 463.315 46.4195 463.642 47.3093 464.118Z" fill="#8FC3FC"/>
</svg>
