<svg width="260" height="214" viewBox="0 0 260 214" fill="none" xmlns="http://www.w3.org/2000/svg">
<path d="M50.3819 37.125C50.1142 37.1977 49.7993 37.3385 49.4347 37.4743C46.8955 38.468 42.1695 40.7004 41.1974 45.147C40.1522 49.9636 44.2269 54.0992 45.4179 55.1854L45.7054 55.4389C49.561 58.6759 54.118 58.7926 63.1544 58.9919C68.6842 59.088 74.2106 58.6671 79.6547 57.7354C83.7747 57.0525 87.8411 56.102 91.8257 54.8907C90.8502 53.2684 89.745 51.7204 88.5199 50.2607C79.2901 39.298 66.1009 37.002 62.7407 36.5326C58.8736 35.9797 54.9211 35.4316 50.3819 37.125Z" fill="#BFDBFE"/>
<path d="M106.044 45.9639C121.177 44.6825 129.963 39.4682 134.086 36.5059C140.936 31.5593 141.25 28.1757 141.181 26.9693C141.106 25.5762 140.678 24.2212 139.935 23.0206C139.191 21.82 138.154 20.8097 136.912 20.0763C133.113 17.8376 128.758 19.3426 126.338 20.1842C124.834 20.7032 120.682 22.3375 115.369 28.6908C111.113 33.8131 107.945 39.6808 106.044 45.9639Z" fill="#BFDBFE"/>
<path d="M90.2865 6.76718C89.9644 7.1982 89.6808 7.65427 89.4386 8.13062C89.1031 8.78833 88.8396 9.47738 88.6521 10.1868C86.3459 18.3493 89.5165 29.2992 89.5165 29.2992C91.4534 35.6929 94.5495 41.7123 98.6639 47.0835C101.845 41.5128 104.293 35.5874 105.951 29.4425C107.498 23.688 109.196 17.3677 108.524 12.1605C108.297 9.72954 107.275 7.42848 105.603 5.58334C105.097 5.04829 102.034 1.9463 97.8366 2.16479C93.6396 2.38327 90.9069 5.93537 90.2865 6.76718Z" fill="#BFDBFE"/>
<path d="M95.4535 58.9743C94.6133 56.1498 96.3285 53.2094 99.2846 52.4066C102.241 51.6038 105.318 53.2427 106.158 56.0671C106.999 58.8915 105.283 61.8319 102.327 62.6347C99.3712 63.4375 96.2937 61.7987 95.4535 58.9743Z" fill="#FEF08A"/>
<path d="M111.009 52.9136C114.31 50.4594 121.097 46.0808 129.875 45.0219C133.895 44.5967 137.962 45.0681 141.758 46.399C143.268 46.9032 144.585 47.8293 145.537 49.0573C146.425 50.3121 146.869 51.8058 146.804 53.3197C146.684 55.0477 145.945 56.6837 144.71 57.952C143.069 59.6324 140.887 60.7409 138.511 61.1017C133.97 62.0412 129.972 60.6585 125.394 59.1388C123.918 58.6185 122.585 58.0594 119.919 56.9412C116.149 55.3494 113.101 53.9203 111.009 52.9136Z" fill="#BFDBFE"/>
<path d="M109.333 63.4956C116.184 62.7634 123.117 63.737 129.458 66.3217C133.404 68.0141 140.025 70.758 141.038 76.0751C141.41 78.0917 141 80.1687 139.883 81.9166C137.76 85.0544 133.896 85.4863 133.253 85.5597C129.856 85.9387 127.264 84.4223 124.622 82.8643C120.098 80.1682 117.561 76.8587 115.306 73.8503C112.899 70.6331 110.895 67.1579 109.333 63.4956Z" fill="#BFDBFE"/>
<path d="M92.2331 64.2966C91.2342 65.1851 89.6243 66.645 87.684 68.4526C75.5876 79.6515 74.4144 82.1904 68.6765 85.5913C65.5372 87.4204 57.471 92.1353 52.364 89.1C50.6852 88.0152 49.5028 86.3593 49.0582 84.47C47.6982 77.7915 57.8794 71.24 60.9284 69.2696C65.4712 66.3511 70.6161 64.397 76.0162 63.5392C81.4163 62.6813 86.9462 62.9396 92.2331 64.2966Z" fill="#BFDBFE"/>
<path d="M103.333 72.4954C108.536 75.2157 113.313 78.6196 117.527 82.6077C121.739 86.6229 123.161 89.1664 123.562 91.8766C123.734 93.0369 124.215 96.306 122.014 98.6634C121.065 99.6518 119.823 100.34 118.454 100.634C116.343 101.004 114.164 100.611 112.34 99.5308C105.972 96.1469 104.636 86.5968 103.831 80.6518C103.459 77.9481 103.292 75.2221 103.333 72.4954Z" fill="#BFDBFE"/>
<path d="M96.1464 72.6519C97.7456 75.9857 102.403 86.7805 97.7542 97.5047C96.6165 100.163 94.446 105.184 89.0769 107.232C88.613 107.358 82.4536 109.666 78.2488 106.487C73.7602 103.1 74.9908 96.086 75.4133 93.7141C76.8031 85.8742 82.7507 81.0712 85.4231 78.7424C88.4846 76.0684 96.1464 72.6519 96.1464 72.6519Z" fill="#BFDBFE"/>
<path d="M90.825 43.4251C89.5571 39.163 83.1714 18.0214 72.9667 12.5656C71.1424 11.587 67.3246 9.54663 64.4125 11.0376C62.0845 12.2226 61.5224 15.0655 61.4033 15.54C60.6547 18.7283 62.3187 22.1828 65.3012 25.6936C69.7527 30.9338 78.5337 37.762 82.2245 40.4449C85.1913 42.4686 88.3091 44.2823 91.5527 45.8716L90.825 43.4251Z" fill="#BFDBFE"/>
<path d="M1.26852 38.949C0.568347 36.5953 1.99772 34.145 4.46111 33.476C6.9245 32.807 9.48908 34.1727 10.1893 36.5264C10.8894 38.8801 9.46006 41.3304 6.99667 41.9994C4.53327 42.6684 1.9687 41.3027 1.26852 38.949Z" fill="#92BEFC"/>
<path d="M23.004 73.1223C21.8136 69.1206 24.2437 64.9546 28.4319 63.8172C32.6201 62.6798 36.9803 65.0017 38.1707 69.0034C39.3612 73.005 36.931 77.1711 32.7428 78.3085C28.5546 79.4459 24.1944 77.1239 23.004 73.1223Z" fill="#92BEFC"/>
<path d="M5.82916 57.5169C4.91893 54.4571 6.77711 51.2717 9.97952 50.402C13.1819 49.5323 16.5159 51.3077 17.4261 54.3675C18.3363 57.4273 16.4782 60.6127 13.2757 61.4824C10.0733 62.3521 6.73938 60.5767 5.82916 57.5169Z" fill="#92BEFC"/>
<path d="M216.494 8.01251C216.241 14.8457 215.51 21.6551 214.305 28.3949C213.888 30.7079 213.377 33.1096 212.839 35.582C211.36 41.8823 209.502 48.0959 207.274 54.1921C200.624 71.588 171.213 110.394 121.017 117.998C76.5898 124.724 42.9494 102.933 34.6575 97.0925L33.9248 96.5697C38.757 101.196 73.2971 133.169 124.727 128.632C156.262 125.85 193.631 109.357 208.202 79.8916C220.343 55.4061 216.549 21.394 216.494 8.01251Z" fill="#BFDBFE"/>
<path d="M216.549 5.51434C216.512 6.24083 216.493 7.07358 216.493 8.0127L216.549 6.4003V5.51434Z" fill="#BFDBFE"/>
<path d="M205.419 77.2947C212.839 62.2294 214.305 43.6726 214.305 28.4567C213.887 30.7696 213.377 33.1712 212.839 35.6437C211.36 41.9439 209.502 48.1575 207.274 54.2537C200.624 71.6496 171.213 110.456 121.017 118.059C76.5895 124.786 42.9491 102.994 34.6573 97.1542C45.5368 106.512 77.4057 129.943 121.944 126.035C153.479 123.253 190.848 106.761 205.419 77.2947Z" fill="#BFDBFE"/>
<path d="M44.9619 112.743C45.9796 117.291 47.3498 121.761 49.0614 126.115C56.1689 144.157 69.0051 159.622 85.7719 170.345C109.432 185.171 120.145 176.247 144.204 190.727C159.091 199.678 166.047 209.754 170.443 212.971C171.77 213.928 172.864 214.274 173.875 213.768C179.282 211.11 174.441 188.069 163.673 170.345C159.786 163.938 151.485 150.618 135.013 141.544C117.26 131.796 106.947 136.227 81.1251 128.694C68.3792 124.944 56.2167 119.579 44.9619 112.743Z" fill="#BFDBFE"/>
<path d="M49.0614 126.116C56.1689 144.158 69.0051 159.623 85.7719 170.346C109.432 185.172 120.145 176.248 144.204 190.728C159.091 199.679 166.047 209.755 170.443 212.972C169.748 204.039 165.222 190.055 158.117 178.322C154.231 171.914 145.93 158.595 129.457 149.52C111.705 139.772 101.391 144.203 75.5694 136.671C66.3979 133.977 57.5206 130.443 49.0614 126.116Z" fill="#BFDBFE"/>
<path d="M230.658 0.197788C227.792 1.08398 225.594 4.69959 223.971 9.22803C221.188 17.0354 222.375 27.6697 222.246 31.2145C222.195 31.5175 222.247 31.8278 222.394 32.1007C223.173 33.1818 226.753 27.6697 226.753 27.6697L231.038 21.5284C233.622 17.8779 235.454 13.7906 236.436 9.48506C237.475 4.868 237.067 1.85497 234.173 0.534544C233.092 -0.00906754 231.831 -0.129818 230.658 0.197788Z" fill="#FFD500"/>
<path d="M230.656 0.196449C227.791 1.08264 225.592 4.69825 223.969 9.22669C221.187 17.034 222.374 27.6684 222.244 31.2132C222.194 31.5161 222.246 31.8265 222.392 32.0994C223.32 33.0476 225.954 27.0923 225.954 27.0923L229.145 20.3751C231.077 16.3737 232.197 12.0585 232.447 7.65822C232.623 4.1046 232.168 1.59663 230.656 0.196449Z" fill="#FEF08A"/>
<path d="M243.613 16.2565C235.581 17.0009 230.887 26.7579 227.678 33.4309C224.404 40.3045 222.516 47.7066 222.113 55.2489C222.113 55.2932 222.16 55.3109 222.188 55.2489C222.429 54.859 223.199 53.6715 224.404 51.9965C227.742 47.3095 231.642 43.0119 236.026 39.1911C244.373 32.1016 253.648 29.443 252.721 22.3535C252.591 20.9281 252.155 19.5435 251.441 18.2859C249.133 16.8117 246.384 16.099 243.613 16.2565Z" fill="#BFDBFE"/>
<path d="M245.468 18.0275C238.391 19.2416 234.458 25.7285 231.388 30.771C227.469 37.2906 225.085 44.549 224.404 52.0396C227.739 47.337 231.64 43.0243 236.026 39.1898C244.373 32.1002 253.648 29.4417 252.721 22.3521C252.591 20.9267 252.155 19.5422 251.441 18.2845C249.492 17.7934 247.455 17.7058 245.468 18.0275Z" fill="#BFDBFE"/>
<path d="M249.012 35.6447C240.488 36.3271 234.663 43.6205 229.534 49.9833C226.33 54.1035 223.536 58.5003 221.187 63.1166C218.508 67.997 216.142 73.028 214.101 78.1819C214.081 78.2249 214.078 78.2732 214.092 78.3181C214.107 78.363 214.138 78.4014 214.18 78.4262C214.221 78.451 214.271 78.4605 214.32 78.4531C214.368 78.4457 214.412 78.4217 214.444 78.3857C216.299 76.6133 218.154 75.0005 219.935 73.5471C224.347 69.9339 229.115 66.7375 234.172 64.0028C246.879 57.1171 256.385 55.9474 259.214 48.0514C259.828 46.2821 260.086 44.4179 259.975 42.557C259.889 41.0059 259.299 39.519 258.287 38.3033C255.504 35.1219 250.264 35.5472 249.012 35.6447Z" fill="#FFD500"/>
<path d="M177.373 53.0588C176.577 53.0259 175.783 53.1684 175.054 53.4753C174.454 53.7116 173.92 54.0788 173.496 54.5476C170.018 58.3848 176.863 64.73 176.714 73.9818C176.659 77.881 175.444 82.9855 170.862 88.9673C170.848 88.979 170.837 88.9933 170.829 89.0093C170.822 89.0253 170.818 89.0428 170.818 89.0604C170.818 89.078 170.822 89.0954 170.829 89.1114C170.837 89.1275 170.848 89.1418 170.862 89.1534C170.883 89.1692 170.909 89.1777 170.936 89.1777C170.963 89.1777 170.989 89.1692 171.01 89.1534C173.73 87.4824 176.172 85.4301 178.254 83.0653C179.905 81.1777 184.746 75.5238 185.21 67.4683C185.416 64.9107 185.026 62.3412 184.069 59.9446C183.633 58.8191 181.305 53.2627 177.373 53.0588Z" fill="#FFD500"/>
<path d="M175.052 53.4733C174.453 53.7096 173.919 54.0768 173.494 54.5455C170.016 58.3828 176.861 64.7279 176.713 73.9798C176.657 77.879 175.442 82.9835 170.86 88.9653C170.846 88.9769 170.835 88.9912 170.828 89.0073C170.82 89.0233 170.816 89.0407 170.816 89.0583C170.816 89.0759 170.82 89.0934 170.828 89.1094C170.835 89.1254 170.846 89.1397 170.86 89.1514C173.231 87.2328 175.299 84.9972 177 82.5138C178.401 80.449 182.482 74.2899 181.953 66.2345C181.836 63.6731 181.13 61.1678 179.885 58.8968C179.449 58.0903 177.594 54.8823 175.052 53.4733Z" fill="#FEF08A"/>
<path d="M187.796 115.402C175.474 116.969 163.834 121.718 154.128 129.138C154.128 129.138 159.192 128.57 166.102 128.003C177.482 127.117 193.852 126.16 200.772 127.826C211.902 130.485 210.974 132.257 210.974 132.257C210.974 132.257 208.238 133.524 204.537 135.049C211.651 137.149 210.974 138.46 210.974 138.46C210.974 138.46 200.623 143.281 192.424 145.55C189.168 146.436 176.527 149.795 162.178 146.489C158.047 145.45 153.983 144.178 150.009 142.679C159.869 153.437 166.463 156.167 166.463 156.167C174.841 159.642 184.093 160.725 193.101 159.286C201.449 157.921 207.57 155.741 214.081 150.477C222.243 143.902 229.904 136.546 233.484 132.372C234.941 130.689 235.72 129.519 235.599 129.138C234.848 126.772 232.696 125.194 228.253 123.156C219.924 119.328 206.466 113.142 187.796 115.402Z" fill="#FFD500"/>
<path d="M187.796 121.605C180.233 122.531 172.895 124.696 166.102 128.003C177.482 127.117 193.852 126.16 200.771 127.826C211.901 130.485 210.974 132.257 210.974 132.257C210.974 132.257 208.238 133.524 204.537 135.049C211.651 137.149 210.974 138.46 210.974 138.46C210.974 138.46 200.623 143.281 192.424 145.55C189.168 146.436 176.527 149.795 162.178 146.489C158.047 145.45 153.983 144.178 150.009 142.679C159.869 153.437 166.463 156.167 166.463 156.167C174.841 159.642 184.093 160.725 193.101 159.286C201.449 157.921 207.57 155.741 214.081 150.477C222.243 143.902 229.904 136.546 233.484 132.372C231.886 131.154 230.127 130.141 228.253 129.359C219.924 125.531 206.466 119.345 187.796 121.605Z" fill="#FEF08A"/>
<path d="M238.283 75.2306C232.625 75.7534 223.489 76.5952 214.437 83.4544C208.486 88.0235 203.952 94.0562 201.322 100.904C201.48 100.788 203.038 99.6363 205.329 98.0145C210.894 94.0887 220.707 87.3802 225.391 86.0421C232.124 84.0747 232.226 85.2622 232.226 85.2622C232.226 85.2622 231.79 85.9003 231.095 86.8663C229.193 89.5858 227.102 92.1794 224.834 94.6293C220.582 99.0665 215.221 102.399 209.252 104.315C203.965 105.919 197.862 106.309 197.899 107.107C197.899 107.213 198.039 107.32 198.308 107.426C199.161 107.754 199.977 108.055 200.765 108.312C211.459 112.043 216.793 111.343 216.793 111.343C222.356 110.624 227.581 108.38 231.837 104.883C235.779 101.621 238.255 98.6171 239.934 93.876C242.392 86.9282 244.126 79.626 244.256 77.0383C244.256 76.5155 244.256 76.1522 244.135 76.099C242.948 75.1331 241.297 74.9559 238.283 75.2306Z" fill="#BFDBFE"/>
<path d="M240.136 77.0038C234.479 77.5266 225.343 78.3684 216.29 85.2276C211.732 88.7032 207.996 93.0614 205.327 98.0154C210.892 94.0895 220.705 87.3811 225.389 86.0429C232.123 84.0756 232.225 85.263 232.225 85.263C232.225 85.263 231.789 85.9012 231.093 86.8671C234.024 86.362 234.08 87.0354 234.08 87.0354C231.839 90.3199 229.36 93.45 226.66 96.4025C222.408 100.84 217.046 104.172 211.078 106.089C207.117 107.285 202.684 107.808 200.736 108.34C211.43 112.07 216.763 111.37 216.763 111.37C222.326 110.652 227.552 108.408 231.807 104.91C235.749 101.649 238.226 98.6445 239.904 93.9034C242.362 86.9557 244.097 79.6535 244.227 77.0658C242.876 76.8327 241.494 76.8118 240.136 77.0038Z" fill="#BFDBFE"/>
<path d="M247.158 43.1342C238.634 43.8165 232.809 51.1099 227.68 57.4728C224.476 61.5929 221.682 65.9897 219.333 70.6061C218.173 72.7152 217.144 74.7358 216.226 76.6411C220.636 73.0155 225.404 69.8072 230.463 67.0613C243.17 60.1756 252.676 59.0058 255.505 51.1099C256.119 49.3406 256.377 47.4764 256.266 45.6155C253.456 42.6291 248.382 43.0367 247.158 43.1342Z" fill="#FEF08A"/>
</svg>
