<svg width="286" height="105" viewBox="0 0 286 105" fill="none" xmlns="http://www.w3.org/2000/svg">
<path d="M33.0711 3.74362C31.96 6.19651 31.015 8.72073 30.2425 11.2993C29.9787 12.1849 29.7308 13.1172 29.4799 14.0791C28.8774 16.5484 28.4182 19.0502 28.1045 21.5721C27.3091 28.8176 30.4686 47.4094 46.1283 58.4562C59.9888 68.2322 75.1922 66.1496 79.0217 65.4709L79.3613 65.4086C76.9155 66.2354 59.6243 71.7604 43.0101 61.5898C32.823 55.3533 23.0619 43.3081 23.2899 30.4844C23.4683 19.8228 30.7088 8.45537 33.0711 3.74362Z" fill="#60A5FA"/>
<path d="M24.6871 30.0325C24.8138 23.4811 27.5675 16.69 30.2322 11.3217C29.9684 12.2073 29.7205 13.1396 29.4696 14.1015C28.8672 16.5708 28.4079 19.0726 28.0943 21.5945C27.2988 28.84 30.4583 47.4317 46.118 58.4786C59.9785 68.2546 75.1819 66.172 79.0114 65.4934C73.6899 66.9821 58.799 69.9382 44.4073 61.1379C34.2201 54.9014 24.4591 42.8562 24.6871 30.0325Z" fill="#93C5FD"/>
<path d="M72.794 69.2763C71.653 70.7114 70.4064 72.0601 69.0645 73.3111C63.499 78.4919 56.4456 81.8092 48.8923 82.7984C38.2869 84.0864 36.2235 79.153 25.5436 80.2526C18.9372 80.9299 14.8179 83.3256 12.7664 83.7279C12.1499 83.8446 11.7189 83.7842 11.4651 83.4375C10.1004 81.5985 15.7743 74.2763 22.5232 69.8176C24.9607 68.2047 30.1032 64.8888 37.2683 64.4321C44.9845 63.9511 47.6997 67.2329 57.7594 68.8781C62.7306 69.6788 67.7871 69.8127 72.794 69.2763Z" fill="#93C5FD"/>
<path d="M69.0646 73.31C63.4992 78.4908 56.4458 81.8081 48.8925 82.7972C38.2871 84.0853 36.2237 79.1519 25.5438 80.2515C18.9373 80.9288 14.8181 83.3245 12.7666 83.7268C14.5664 80.6912 18.5475 76.5118 23.0072 73.5561C25.4447 71.9432 30.5872 68.6273 37.7523 68.1706C45.4685 67.6896 48.1837 70.9714 58.2434 72.6166C61.8196 73.1946 65.4436 73.4268 69.0646 73.31Z" fill="#60A5FA"/>
<path d="M22.4473 2.13285C25.0358 3.73389 24.9157 7.9582 24.8333 10.8472C24.738 13.8179 24.0808 16.7439 22.8962 19.472C22.8884 19.4876 22.8696 19.4861 22.871 19.4596C22.8577 19.2819 22.8051 18.7346 22.6903 17.9428C22.3813 15.733 21.8136 13.5669 20.999 11.4885C19.4149 7.59632 16.741 5.11286 18.2965 2.7662C18.5902 2.285 18.9801 1.86913 19.4421 1.54443C20.4815 1.40888 21.5368 1.61552 22.4473 2.13285Z" fill="#93C5FD"/>
<path d="M21.5105 2.44877C23.6933 4.05632 23.8885 7.00022 24.0446 9.29077C24.2296 12.2441 23.7653 15.202 22.684 17.9582C22.3787 15.7434 21.8136 13.5719 21.0004 11.4882C19.4164 7.59604 16.7425 5.11258 18.298 2.76592C18.5916 2.28472 18.9816 1.86885 19.4436 1.54414C20.1894 1.69568 20.894 2.00409 21.5105 2.44877Z" fill="#60A5FA"/>
<path d="M17.2255 8.07363C19.9913 9.73469 20.6857 13.2784 21.3075 16.3779C21.6705 18.3654 21.8465 20.3823 21.8331 22.4023C21.8851 24.5704 21.805 26.7397 21.5934 28.8982C21.5926 28.9166 21.5852 28.9342 21.5724 28.9476C21.5596 28.961 21.5424 28.9694 21.5239 28.9712C21.5055 28.973 21.487 28.9681 21.4718 28.9573C21.4567 28.9466 21.446 28.9308 21.4416 28.9129C21.1241 27.9785 20.7786 27.1004 20.4303 26.2909C19.5697 24.2809 18.5155 22.3587 17.2826 20.5513C14.1873 16.0046 11.1741 14.0078 11.5993 10.7507C11.7015 10.0242 11.9406 9.32354 12.3041 8.68553C12.6049 8.15266 13.065 7.72639 13.6204 7.46607C15.1194 6.80731 16.8188 7.83059 17.2255 8.07363Z" fill="#FFD500"/>
<path d="M15.8208 9.32822C18.5866 10.9893 19.2809 14.533 19.9028 17.6325C20.2658 19.62 20.4418 21.6369 20.4284 23.6569C20.4515 24.5942 20.4461 25.4786 20.4233 26.3038C19.5653 24.2898 18.5132 22.3634 17.2817 20.5517C14.1864 16.0051 11.1732 14.0082 11.5985 10.7511C11.7006 10.0247 11.9397 9.32398 12.3032 8.68596C13.7775 8.10062 15.4235 9.08982 15.8208 9.32822Z" fill="#FEF08A"/>
<path d="M43.3561 36.4983C46.9025 38.2946 44.0316 44.8102 46.8702 51.4558C48.0338 54.1143 49.8162 56.4587 52.0701 58.2951C53.1084 59.1671 54.2121 59.9588 55.3716 60.6634C55.3907 60.677 55.4047 60.6964 55.4114 60.7188C55.4181 60.7412 55.4171 60.7651 55.4086 60.7868C55.4 60.8086 55.3844 60.8268 55.3643 60.8387C55.3441 60.8506 55.3205 60.8555 55.2973 60.8525C52.9135 60.4041 50.6113 59.6 48.4685 58.4674C46.765 57.5705 41.7468 54.8356 39.0285 49.1518C38.1292 47.3591 37.6389 45.3906 37.5925 43.3873C37.585 42.4421 37.5433 37.7724 40.2237 36.5125C40.5859 36.3475 40.9717 36.2395 41.3671 36.1922C42.0459 36.094 42.7387 36.2006 43.3561 36.4983Z" fill="#FFD500"/>
<path d="M41.3237 37.4435C44.8701 39.2398 41.9991 45.7554 44.8378 52.401C46.0014 55.0595 47.7838 57.4039 50.0377 59.2403C49.4444 58.9794 48.9233 58.7229 48.4679 58.4676C46.7644 57.5706 41.7462 54.8358 39.0278 49.1519C38.1286 47.3592 37.6383 45.3908 37.5919 43.3874C37.585 42.5592 37.551 38.8893 39.3347 37.1374C40.0135 37.0392 40.7063 37.1458 41.3237 37.4435Z" fill="#FEF08A"/>
<path d="M38.4261 26.155C38.7013 26.2761 38.945 26.4585 39.138 26.6883C39.2997 26.8717 39.4161 27.0901 39.4777 27.3263C39.983 29.2596 36.5549 30.3576 34.9848 33.6464C34.3208 35.0314 33.8382 37.0347 34.3415 39.9086C34.3442 39.915 34.3454 39.9219 34.3452 39.9288C34.3449 39.9357 34.3432 39.9425 34.3401 39.9487C34.337 39.955 34.3327 39.9604 34.3273 39.9648C34.3219 39.9692 34.3157 39.9724 34.309 39.9742C34.299 39.9763 34.2887 39.9749 34.2796 39.9705C34.2705 39.966 34.2631 39.9586 34.2587 39.9495C33.6305 38.9067 33.1634 37.7757 32.8729 36.5946C32.6446 35.6535 31.9959 32.8521 33.2497 29.9328C33.6279 28.9961 34.2098 28.1545 34.9535 27.4685C35.2981 27.144 37.0592 25.5716 38.4261 26.155Z" fill="#60A5FA"/>
<path d="M39.136 26.688C39.2977 26.8714 39.414 27.0898 39.4757 27.326C39.981 29.2593 36.5528 30.3573 34.9828 33.6461C34.3188 35.0311 33.8362 37.0344 34.3395 39.9083C34.3422 39.9147 34.3434 39.9216 34.3432 39.9285C34.3429 39.9354 34.3412 39.9422 34.3381 39.9484C34.335 39.9546 34.3307 39.9601 34.3253 39.9645C34.3199 39.9689 34.3137 39.9721 34.3069 39.9739C33.8406 38.9021 33.532 37.7687 33.391 36.6091C33.2785 35.6472 32.9757 32.7943 34.5654 30.0404C35.0535 29.1562 35.7313 28.39 36.5505 27.7962C36.8393 27.5844 38.029 26.7617 39.136 26.688Z" fill="#93C5FD"/>
<path d="M23.979 46.4128C27.8753 49.0189 30.9839 52.6341 32.9701 56.869C32.9701 56.869 31.3552 55.8251 29.1156 54.4736C25.4185 52.2646 20.0448 49.1991 17.411 48.634C13.1779 47.7173 13.1815 48.4972 13.1815 48.4972C13.1815 48.4972 13.8857 49.4002 14.8715 50.5546C12.0956 50.1102 12.0951 50.6857 12.0951 50.6857C12.0951 50.6857 14.7546 54.1113 17.1327 56.2779C18.0794 57.1331 21.7705 60.4245 27.2062 61.6492C28.7867 61.9712 30.385 62.1994 31.9926 62.3326C26.7712 64.4853 24.061 64.3494 24.061 64.3494C20.6166 64.1794 17.2952 63.02 14.4979 61.0112C11.9113 59.1388 10.221 57.3496 8.93892 54.4075C7.32766 50.7276 6.0225 46.856 5.5416 44.7869C5.34356 43.9502 5.2847 43.4077 5.39225 43.2933C6.06093 42.5837 7.06556 42.3858 8.92635 42.407C12.4161 42.4442 18.0549 42.5044 23.979 46.4128Z" fill="#93C5FD"/>
<path d="M22.8934 48.6009C25.291 50.1879 27.3961 52.1744 29.1163 54.4732C25.4193 52.2642 20.0456 49.1987 17.4117 48.6336C13.1787 47.7169 13.1822 48.4968 13.1822 48.4968C13.1822 48.4968 13.8865 49.3998 14.8722 50.5542C12.0964 50.1098 12.0959 50.6853 12.0959 50.6853C12.0959 50.6853 14.7553 54.1109 17.1334 56.2775C18.0802 57.1327 21.7712 60.4241 27.207 61.6488C28.7875 61.9708 30.3858 62.199 31.9934 62.3322C26.772 64.4849 24.0618 64.349 24.0618 64.349C20.6173 64.179 17.2959 63.0196 14.4987 61.0108C11.9121 59.1384 10.2218 57.3492 8.93968 54.4071C7.32842 50.7272 6.02326 46.8556 5.54236 44.7865C6.2968 44.623 7.06952 44.5586 7.84074 44.5951C11.3305 44.6323 16.9693 44.6926 22.8934 48.6009Z" fill="#60A5FA"/>
<path d="M13.9265 23.8279C15.7501 24.9552 18.6951 26.7745 20.5581 30.7028C21.7721 33.3063 22.2505 36.1903 21.9416 39.0443C21.9084 38.9774 21.5827 38.3113 21.0913 37.3574C19.895 35.045 17.7482 31.0431 16.3971 29.7905C14.4623 27.9744 14.2198 28.3764 14.2198 28.3764C14.2198 28.3764 14.2556 28.6741 14.3219 29.1308C14.4893 30.4071 14.7431 31.6707 15.0816 32.9129C15.7438 35.1868 16.975 37.256 18.6598 38.9266C20.1684 40.3734 22.166 41.5279 22.0137 41.8031C21.9951 41.8406 21.9294 41.855 21.8197 41.8477C21.4735 41.8212 21.1444 41.7915 20.8325 41.7508C16.5593 41.2851 14.8766 40.1494 14.8766 40.1494C13.1194 38.969 11.7436 37.3065 10.9157 35.3634C10.1525 33.556 9.84033 32.0834 10.1024 30.131C10.4871 27.2703 11.1788 24.405 11.588 23.4704C11.6796 23.286 11.7432 23.1578 11.7934 23.1591C12.3644 23.0162 12.9543 23.2287 13.9265 23.8279Z" fill="#93C5FD"/>
<path d="M12.9864 24.1443C14.8099 25.2715 17.755 27.0909 19.6179 31.0192C20.5521 33.0049 21.0536 35.165 21.0894 37.3575C19.8932 35.0452 17.7464 31.0433 16.3953 29.7907C14.4605 27.9746 14.218 28.3765 14.218 28.3765C14.218 28.3765 14.2538 28.6743 14.3201 29.131C13.4165 28.4644 13.2797 28.6927 13.2797 28.6927C13.463 30.2249 13.7541 31.7423 14.1509 33.2339C14.8131 35.5078 16.0443 37.577 17.7291 39.2476C18.8601 40.3296 20.2693 41.2528 20.8355 41.765C16.5622 41.2992 14.8796 40.1636 14.8796 40.1636C13.1223 38.9831 11.7465 37.3207 10.9186 35.3775C10.1554 33.5702 9.84324 32.0976 10.1053 30.1452C10.49 27.2844 11.1817 24.4192 11.591 23.4846C12.089 23.6275 12.5603 23.8503 12.9864 24.1443Z" fill="#60A5FA"/>
<path d="M62.6936 51.8059C64.9669 53.6 68.2702 53.2192 70.0718 50.9554C71.8733 48.6915 71.491 45.4019 69.2177 43.6079C66.9444 41.8138 63.6411 42.1946 61.8395 44.4584C60.038 46.7222 60.4203 50.0118 62.6936 51.8059Z" fill="#60A5FA"/>
<path d="M70.0118 42.608C71.1761 43.5269 72.8681 43.3319 73.7908 42.1723C74.7136 41.0128 74.5177 39.3279 73.3534 38.409C72.189 37.4901 70.4971 37.6851 69.5743 38.8446C68.6516 40.0041 68.8474 41.6891 70.0118 42.608Z" fill="#60A5FA"/>
<path d="M62.9473 51.8109C64.1117 52.7298 65.8036 52.5347 66.7264 51.3752C67.6491 50.2157 67.4533 48.5308 66.2889 47.6119C65.1246 46.6929 63.4326 46.888 62.5099 48.0475C61.5871 49.207 61.783 50.8919 62.9473 51.8109Z" fill="#93C5FD"/>
<path d="M74.3663 36.9296C75.1425 37.5422 76.2705 37.4122 76.8856 36.6391C77.5008 35.8661 77.3702 34.7429 76.594 34.1302C75.8177 33.5176 74.6898 33.6476 74.0746 34.4207C73.4594 35.1937 73.59 36.317 74.3663 36.9296Z" fill="#60A5FA"/>
<path d="M74.5232 36.8559C75.0222 37.2497 75.7473 37.1661 76.1428 36.6692C76.5382 36.1723 76.4543 35.4502 75.9553 35.0563C75.4563 34.6625 74.7312 34.7461 74.3357 35.243C73.9402 35.74 74.0242 36.4621 74.5232 36.8559Z" fill="#93C5FD"/>
<path d="M70.1651 42.5338C70.9413 43.1464 72.0693 43.0164 72.6845 42.2434C73.2996 41.4704 73.169 40.3471 72.3928 39.7345C71.6166 39.1219 70.4886 39.2519 69.8734 40.0249C69.2583 40.7979 69.3888 41.9212 70.1651 42.5338Z" fill="#93C5FD"/>
<path d="M50.1561 34.4076C50.7305 34.0053 51.4152 33.7887 52.1174 33.7874C52.2235 33.799 52.329 33.8159 52.4334 33.8382C52.9452 33.936 53.4206 34.1706 53.8089 34.5168C54.2221 34.9059 54.5148 35.4047 54.6525 35.9541C55.1945 37.824 54.6212 39.6535 54.4423 42.1785C54.3064 44.1156 54.2158 45.4536 54.8248 47.0379C55.3833 48.5008 56.2765 49.4857 56.9843 50.2722C57.585 50.9353 58.2464 51.5412 58.96 52.0821C59.3616 52.399 59.7441 52.6455 60.0823 52.8571C60.0952 52.8658 60.1047 52.8785 60.1094 52.8933C60.1141 52.908 60.1136 52.9239 60.1082 52.9384C60.1027 52.9528 60.0925 52.9651 60.0792 52.973C60.0659 52.981 60.0503 52.9843 60.0349 52.9824C57.9136 52.6806 55.9039 51.8482 54.1933 50.563C52.8433 49.5105 51.7114 48.207 50.8603 46.7249C48.4958 42.6842 47.4803 36.3487 50.1561 34.4076Z" fill="#60A5FA"/>
<path d="M51.7693 34.1993C51.9734 34.0499 52.1966 33.9282 52.4331 33.8377C52.9449 33.9355 53.4203 34.1701 53.8086 34.5163C54.2218 34.9054 54.5145 35.4042 54.6522 35.9537C55.1942 37.8235 54.6209 39.653 54.4421 42.178C54.3061 44.1151 54.2155 45.4531 54.8245 47.0374C55.383 48.5003 56.2762 49.4852 56.984 50.2717C57.5847 50.9348 58.2462 51.5407 58.9597 52.0816C57.8351 51.6595 56.7778 51.0773 55.8209 50.3531C54.4691 49.3028 53.3364 47.9997 52.4863 46.5169C50.1254 42.4759 49.0995 36.1452 51.7693 34.1993Z" fill="#93C5FD"/>
<path d="M59.1201 33.7681C59.2219 33.6401 59.2953 33.5808 59.3594 33.5207C59.9998 32.8803 61.6243 31.4962 63.8595 31.4438C64.5072 31.4309 66.0903 31.4009 67.0026 32.5343C67.3819 33.0295 67.5891 33.6341 67.5931 34.2569C67.6046 34.7813 67.5298 35.304 67.3718 35.8043C67.0658 36.7803 66.4707 37.3719 65.3008 38.5093C64.6748 39.0899 64.0198 39.6388 63.3383 40.1539C61.9576 41.2974 60.136 42.8059 59.3204 45.2027C58.9199 46.4323 58.7997 47.7354 58.9687 49.0171C59.105 50.4066 59.5209 51.7545 60.1917 52.9804C60.1926 52.9854 60.1924 52.9906 60.1912 52.9955C60.1899 53.0004 60.1876 53.005 60.1845 53.009C60.1813 53.0129 60.1773 53.0162 60.1728 53.0185C60.1683 53.0208 60.1633 53.0222 60.1582 53.0224C60.154 53.0212 60.1501 53.0192 60.1466 53.0165C60.1432 53.0138 60.1403 53.0104 60.1382 53.0066C56.6391 50.4697 55.5998 46.5178 55.5998 46.5178C54.5377 42.4796 55.5877 38.7736 56.5169 37.1501C57.2573 35.931 58.1303 34.7968 59.1201 33.7681Z" fill="#FEF08A"/>
<path d="M61.4782 35.8731C62.9701 34.8408 64.7331 34.2663 66.5492 34.2207C66.8984 34.2141 67.2477 34.2278 67.5953 34.2617C67.6068 34.7861 67.532 35.3088 67.374 35.8091C67.068 36.7851 66.4729 37.3768 65.303 38.5141C64.677 39.0948 64.0219 39.6437 63.3405 40.1587C61.9597 41.3022 60.1382 42.8107 59.3226 45.2075C58.9221 46.4371 58.8019 47.7402 58.9708 49.0219C59.1072 50.4114 59.5231 51.7593 60.1939 52.9853C60.1948 52.9903 60.1946 52.9954 60.1933 53.0003C60.1921 53.0052 60.1898 53.0098 60.1867 53.0138C60.1835 53.0177 60.1795 53.021 60.175 53.0233C60.1705 53.0256 60.1655 53.027 60.1604 53.0273C59.9901 52.7854 59.8216 52.5288 59.6603 52.255C59.1532 51.3926 58.7529 50.4722 58.4682 49.5139C58.1879 48.5135 58.0195 47.4853 57.9659 46.4481C57.8311 45.2441 57.8121 44.0301 57.9092 42.8225C58.0209 41.8071 58.4271 38.0845 61.4782 35.8731Z" fill="#FFD500"/>
<path d="M60.077 28.3436C60.9529 27.5923 61.9633 27.0125 63.0552 26.6346C64.0275 26.3082 66.1161 25.6061 67.4172 26.633C67.6532 26.8099 67.851 27.0324 67.9987 27.2871C68.1465 27.5419 68.2411 27.8236 68.2771 28.1156C68.2877 28.2997 68.2679 28.4842 68.2184 28.6618C68.1413 28.9354 68.0134 29.1923 67.8413 29.419C66.7101 30.9514 63.8103 29.8673 61.2524 30.8305C60.2199 31.2201 58.8391 32.0967 57.5815 34.3301C57.4754 34.5155 57.3706 34.7128 57.2673 34.9221C57.2596 34.9367 57.2475 34.9485 57.2328 34.956C57.218 34.9634 57.2012 34.9661 57.1848 34.9636C57.1685 34.961 57.1533 34.9535 57.1414 34.942C57.1296 34.9304 57.1217 34.9155 57.1188 34.8993C56.9684 33.4758 57.2444 32.0399 57.912 30.7725C58.4621 29.826 59.1985 28.9998 60.077 28.3436Z" fill="#60A5FA"/>
<path d="M60.4456 29.9361C61.3214 29.1848 62.3319 28.6049 63.4237 28.227C64.3961 27.9007 66.4847 27.1986 67.7858 28.2254C67.9466 28.354 68.0922 28.5006 68.2195 28.6622C68.1425 28.9358 68.0146 29.1926 67.8425 29.4193C66.7112 30.9518 63.8114 29.8677 61.2535 30.8309C60.221 31.2205 58.8403 32.097 57.5826 34.3305C57.7111 33.6431 57.9466 32.98 58.2806 32.365C58.8307 31.4184 59.5671 30.5923 60.4456 29.9361Z" fill="#93C5FD"/>
<path d="M59.5668 22.7364C60.3834 22.1211 62.1655 20.8223 63.719 21.4006C63.9983 21.497 64.2551 21.6485 64.4742 21.846C64.6934 22.0436 64.8702 22.2831 64.9943 22.5503L65.0161 22.6131C65.1492 23.0418 65.1367 23.5021 64.9806 23.923C64.3767 25.7251 61.2816 25.5807 59.1448 27.2799C58.3036 27.9507 57.2901 29.1627 56.7678 31.5566C56.7011 31.8294 56.6599 32.1029 56.6037 32.4036C56.6008 32.4199 56.5928 32.4349 56.581 32.4464C56.5691 32.458 56.5539 32.4655 56.5374 32.468C56.521 32.4705 56.5042 32.4678 56.4894 32.4603C56.4746 32.4528 56.4626 32.4409 56.4549 32.4262C55.8731 31.1179 55.6943 29.6671 55.9412 28.2576C56.1703 27.188 56.6161 26.1763 57.2515 25.2843C57.8554 24.2975 58.6409 23.4331 59.5668 22.7364Z" fill="#FEF08A"/>
<path d="M60.4135 23.7284C61.2301 23.1131 63.0123 21.8144 64.5658 22.3926C64.7231 22.4519 64.8745 22.5256 65.0181 22.6129C65.1511 23.0415 65.1386 23.5019 64.9825 23.9227C64.3787 25.7249 61.2835 25.5805 59.1468 27.2796C58.3056 27.9505 57.2921 29.1624 56.7698 31.5563C56.6443 30.7883 56.6532 30.0046 56.7959 29.2396C57.025 28.1701 57.4708 27.1583 58.1062 26.2664C58.7088 25.2839 59.4915 24.4229 60.4135 23.7284Z" fill="#FFD500"/>
<path d="M54.9863 19.9338C55.2699 19.8523 55.5672 19.8285 55.8602 19.864C56.1532 19.8995 56.436 19.9935 56.6918 20.1403C56.9763 20.3325 57.2017 20.5995 57.3431 20.9116C57.3965 21.0271 57.4415 21.1463 57.4776 21.2683C58.0285 23.0899 55.4166 24.7495 54.6557 27.3652C54.4056 28.2258 54.2845 29.4747 54.8045 31.1709C55.0005 31.799 55.2496 32.4094 55.5491 32.9956C55.5581 33.0105 55.5618 33.028 55.5595 33.0452C55.5572 33.0625 55.549 33.0784 55.5364 33.0904C55.5238 33.1025 55.5074 33.1098 55.49 33.1114C55.4727 33.1129 55.4552 33.1085 55.4407 33.0989C54.2081 32.3646 53.2214 31.2834 52.6048 29.9916C52.174 28.9853 51.9526 27.9025 51.9539 26.8085C51.8759 25.6604 52.0167 24.5079 52.3688 23.4118C52.6916 22.4393 53.381 20.3531 54.9863 19.9338Z" fill="#60A5FA"/>
<path d="M57.1112 20.96C57.1695 20.9442 57.2479 20.9279 57.3426 20.9116C57.3961 21.0271 57.441 21.1463 57.4771 21.2684C58.0281 23.09 55.4162 24.7495 54.6552 27.3652C54.4051 28.2258 54.284 29.4747 54.804 31.1709L54.7297 31.0179C54.2989 30.0116 54.0775 28.9287 54.0788 27.8348C54.0008 26.6867 54.1416 25.5342 54.4937 24.4381C54.8165 23.4656 55.5059 21.3794 57.1112 20.96Z" fill="#93C5FD"/>
<path d="M82.7754 60.4763C83.0375 59.8276 83.0927 59.1142 82.9336 58.4332C82.8981 58.3329 82.8574 58.2346 82.8118 58.1385C82.5992 57.6646 82.2613 57.2572 81.8341 56.9599C81.3593 56.6482 80.8048 56.4783 80.2362 56.4704C78.2844 56.3721 76.6268 57.3459 74.1992 58.0961C72.3345 58.6689 71.0492 59.064 69.3612 58.8355C67.8034 58.6282 66.6345 57.9857 65.706 57.4807C64.9205 57.0498 64.177 56.547 63.4852 55.9787C63.0836 55.6618 62.7553 55.3473 62.4711 55.0677C62.4597 55.0572 62.4451 55.0509 62.4296 55.0497C62.4141 55.0486 62.3987 55.0526 62.3858 55.0612C62.3729 55.0698 62.3633 55.0825 62.3585 55.0972C62.3537 55.112 62.3541 55.1278 62.3594 55.1423C63.1384 57.1303 64.4115 58.8888 66.0592 60.2531C67.3966 61.3215 68.9295 62.1211 70.5729 62.6076C75.0553 63.9706 81.481 63.5077 82.7754 60.4763Z" fill="#60A5FA"/>
<path d="M82.6017 58.8582C82.7012 58.6262 82.7691 58.382 82.8036 58.1321C82.591 57.6583 82.2531 57.2509 81.8259 56.9536C81.3511 56.6419 80.7966 56.472 80.228 56.464C78.2762 56.3657 76.6186 57.3395 74.191 58.0898C72.3263 58.6625 71.041 59.0577 69.353 58.8291C67.7952 58.6218 66.6263 57.9793 65.6978 57.4743C64.9123 57.0435 64.1688 56.5406 63.477 55.9723C64.1466 56.9663 64.9573 57.8583 65.8839 58.6206C67.2196 59.691 68.7523 60.4915 70.396 60.9771C74.886 62.3428 81.3073 61.8895 82.6017 58.8582Z" fill="#93C5FD"/>
<path d="M81.3451 51.6353C81.4369 51.4994 81.4882 51.4227 81.5322 51.3467C82.012 50.5795 82.994 48.6884 82.5346 46.5094C82.3893 45.8705 82.0669 44.3368 80.7505 43.7112C80.1797 43.4566 79.5413 43.3938 78.9315 43.5323C78.4163 43.6409 77.9223 43.8328 77.4693 44.1004C76.5851 44.62 76.1426 45.3321 75.298 46.7261C74.8734 47.4657 74.4864 48.2262 74.1386 49.0046C73.3361 50.6044 72.2775 52.7151 70.1207 54.0534C69.0101 54.7226 67.7637 55.1368 66.4721 55.2658C65.0825 55.4511 63.6697 55.3558 62.318 54.9855C62.3129 54.9858 62.308 54.9871 62.3034 54.9895C62.2989 54.9918 62.2949 54.9951 62.2918 54.999C62.2886 55.003 62.2863 55.0076 62.2851 55.0125C62.2839 55.0174 62.2837 55.0225 62.2846 55.0275C62.2867 55.0314 62.2896 55.0347 62.293 55.0374C62.2965 55.0402 62.3004 55.0422 62.3047 55.0434C65.5841 57.8562 69.685 57.961 69.685 57.961C73.8755 58.0681 77.2586 56.2035 78.6335 54.9317C79.6562 53.9354 80.5655 52.8299 81.3451 51.6353Z" fill="#FEF08A"/>
<path d="M78.7473 49.8259C79.4157 48.1436 79.5746 46.3032 79.2042 44.532C79.1309 44.1919 79.0377 43.8564 78.9251 43.5272C78.4099 43.6358 77.9159 43.8277 77.4629 44.0953C76.5787 44.6149 76.1362 45.327 75.2916 46.721C74.867 47.4606 74.48 48.2211 74.1322 48.9995C73.3297 50.5993 72.2712 52.71 70.1143 54.0483C69.0037 54.7175 67.7573 55.1317 66.4657 55.2607C65.0761 55.446 63.6634 55.3507 62.3116 54.9804C62.3065 54.9807 62.3016 54.982 62.297 54.9844C62.2925 54.9867 62.2885 54.9899 62.2854 54.9939C62.2822 54.9979 62.2799 55.0025 62.2787 55.0074C62.2775 55.0123 62.2773 55.0174 62.2782 55.0224C62.5536 55.1323 62.8429 55.237 63.1475 55.3308C64.1065 55.6249 65.0977 55.8027 66.0995 55.8604C67.1415 55.9028 68.1851 55.8312 69.2114 55.647C70.4193 55.5027 71.6105 55.2437 72.7689 54.8737C73.736 54.5334 77.2804 53.2876 78.7473 49.8259Z" fill="#FFD500"/>
<path d="M86.4281 49.4656C86.9599 48.4417 87.2925 47.3269 87.4084 46.1799C87.5054 45.1626 87.7146 42.9773 86.4135 41.9505C86.1866 41.7621 85.9239 41.6212 85.6411 41.5361C85.3583 41.4511 85.0612 41.4237 84.7675 41.4556C84.5852 41.4873 84.4093 41.5487 84.247 41.6373C83.9971 41.7745 83.7752 41.9571 83.5929 42.1758C82.3673 43.6337 84.0856 46.1943 83.7343 48.899C83.5893 49.989 83.0478 51.5279 81.1517 53.2575C80.9934 53.4016 80.8244 53.5482 80.6447 53.6973C80.6322 53.7081 80.6234 53.7225 80.6195 53.7385C80.6156 53.7546 80.6169 53.7714 80.6231 53.7867C80.6293 53.802 80.6401 53.815 80.6541 53.8239C80.6681 53.8327 80.6845 53.837 80.701 53.8361C82.1269 53.6567 83.4676 53.0611 84.5542 52.1243C85.3522 51.3727 85.9896 50.4684 86.4281 49.4656Z" fill="#60A5FA"/>
<path d="M84.7859 49.4733C85.3177 48.4494 85.6504 47.3346 85.7662 46.1876C85.8632 45.1703 86.0724 42.985 84.7713 41.9582C84.6088 41.8316 84.4323 41.724 84.2453 41.6375C83.9953 41.7747 83.7735 41.9573 83.5912 42.176C82.3655 43.6339 84.0838 46.1945 83.7326 48.8992C83.5875 49.9892 83.0461 51.5281 81.1499 53.2577C81.7925 52.976 82.3871 52.5962 82.912 52.132C83.71 51.3804 84.3474 50.4761 84.7859 49.4733Z" fill="#93C5FD"/>
<path d="M92.0257 48.6784C92.4307 47.7382 93.3032 45.7216 92.383 44.3476C92.225 44.0989 92.0182 43.8844 91.775 43.7171C91.5318 43.5498 91.2573 43.4331 90.9677 43.3739L90.9013 43.367C90.4519 43.336 90.0047 43.4532 89.6289 43.7007C88.005 44.6979 88.8533 47.6657 87.6803 50.1255C87.2167 51.0942 86.2634 52.3537 84.0424 53.407C83.7909 53.5341 83.5329 53.6365 83.2518 53.7597C83.2366 53.7662 83.2237 53.7773 83.2151 53.7915C83.2066 53.8056 83.2027 53.8221 83.204 53.8386C83.2053 53.8551 83.2118 53.8708 83.2225 53.8834C83.2332 53.896 83.2476 53.905 83.2637 53.909C84.6756 54.1742 86.1348 54.0161 87.4564 53.4548C88.4497 52.9883 89.3369 52.3249 90.0638 51.5052C90.8905 50.6942 91.5561 49.7352 92.0257 48.6784Z" fill="#FEF08A"/>
<path d="M90.8645 48.086C91.2695 47.1458 92.142 45.1293 91.2218 43.7552C91.1279 43.6162 91.0212 43.4863 90.9032 43.367C90.4537 43.336 90.0065 43.4532 89.6307 43.7007C88.0069 44.6979 88.8552 47.6657 87.6822 50.1255C87.2185 51.0942 86.2652 52.3537 84.0443 53.407C84.8237 53.3532 85.5879 53.1656 86.3031 52.8524C87.2964 52.386 88.1836 51.7226 88.9105 50.9028C89.7333 50.0941 90.3962 49.1386 90.8645 48.086Z" fill="#FFD500"/>
<path d="M95.8149 52.4807C95.8298 52.1871 95.7851 51.8936 95.6834 51.6176C95.5818 51.3416 95.4253 51.0889 95.2233 50.8745C94.9704 50.6426 94.658 50.485 94.3206 50.4192C94.1954 50.3938 94.0686 50.3774 93.941 50.3703C92.0344 50.2523 91.0087 53.1637 88.6254 54.4991C87.8412 54.9381 86.6479 55.3408 84.8708 55.2243C84.2121 55.1776 83.5584 55.0756 82.9169 54.9192C82.9003 54.9139 82.8823 54.9143 82.866 54.9205C82.8497 54.9266 82.8359 54.9382 82.827 54.9531C82.8182 54.9681 82.8147 54.9857 82.8172 55.0029C82.8196 55.0201 82.8279 55.036 82.8407 55.0479C83.8401 56.0751 85.1225 56.7847 86.5263 57.0874C87.6085 57.2751 88.7176 57.2424 89.7868 56.9912C90.927 56.8046 92.0216 56.4048 93.0127 55.813C93.8896 55.2779 95.7717 54.1329 95.8149 52.4807Z" fill="#60A5FA"/>
<path d="M94.3233 50.655C94.3254 50.5948 94.3235 50.5151 94.3178 50.4195C94.1927 50.3941 94.0658 50.3778 93.9383 50.3707C92.0316 50.2527 91.006 53.164 88.6226 54.4994C87.8384 54.9385 86.6452 55.3412 84.8681 55.2246L85.0347 55.2617C86.1169 55.4494 87.2261 55.4167 88.2952 55.1655C89.4355 54.9788 90.53 54.5791 91.5211 53.9873C92.3981 53.4521 94.2801 52.3072 94.3233 50.655Z" fill="#93C5FD"/>
<path d="M252.928 3.14718C254.039 5.60008 254.984 8.12429 255.757 10.7029C256.02 11.5885 256.268 12.5208 256.519 13.4827C257.122 15.952 257.581 18.4538 257.894 20.9757C258.69 28.2211 255.53 46.8129 239.871 57.8597C226.01 67.6357 210.807 65.5532 206.977 64.8745L206.638 64.8121C209.084 65.639 226.375 71.164 242.989 60.9934C253.176 54.7569 262.937 42.7116 262.709 29.888C262.531 19.2264 255.29 7.85893 252.928 3.14718Z" fill="#60A5FA"/>
<path d="M261.312 29.4358C261.185 22.8844 258.432 16.0933 255.767 10.7251C256.031 11.6106 256.278 12.5429 256.529 13.5049C257.132 15.9742 257.591 18.4759 257.905 20.9978C258.7 28.2433 255.541 46.8351 239.881 57.8819C226.02 67.6579 210.817 65.5754 206.988 64.8967C212.309 66.3854 227.2 69.3415 241.592 60.5412C251.779 54.3047 261.54 42.2595 261.312 29.4358Z" fill="#93C5FD"/>
<path d="M213.205 68.6791C214.346 70.1143 215.593 71.4629 216.935 72.7139C222.5 77.8947 229.553 81.2121 237.107 82.2012C247.712 83.4893 249.776 78.5558 260.455 79.6555C267.062 80.3327 271.181 82.7284 273.233 83.1308C273.849 83.2474 274.28 83.187 274.534 82.8403C275.899 81.0013 270.225 73.6792 263.476 69.2205C261.038 67.6076 255.896 64.2917 248.731 63.8349C241.014 63.3539 238.299 66.6357 228.24 68.2809C223.268 69.0816 218.212 69.2156 213.205 68.6791Z" fill="#93C5FD"/>
<path d="M216.934 72.7135C222.5 77.8943 229.553 81.2117 237.107 82.2008C247.712 83.4889 249.775 78.5554 260.455 79.6551C267.062 80.3323 271.181 82.728 273.232 83.1304C271.433 80.0948 267.452 75.9154 262.992 72.9597C260.554 71.3468 255.412 68.0309 248.247 67.5742C240.53 67.0931 237.815 70.375 227.756 72.0201C224.179 72.5982 220.555 72.8304 216.934 72.7135Z" fill="#60A5FA"/>
<path d="M263.552 1.53593C260.963 3.13696 261.083 7.36127 261.166 10.2503C261.261 13.2209 261.918 16.147 263.103 18.875C263.111 18.8907 263.129 18.8892 263.128 18.8627C263.141 18.6849 263.194 18.1377 263.309 17.3459C263.618 15.1361 264.185 12.9699 265 10.8916C266.584 6.99939 269.258 4.51593 267.703 2.16928C267.409 1.68808 267.019 1.2722 266.557 0.947502C265.518 0.811961 264.462 1.0186 263.552 1.53593Z" fill="#93C5FD"/>
<path d="M264.489 1.85209C262.306 3.45964 262.111 6.40354 261.954 8.69409C261.769 11.6474 262.234 14.6053 263.315 17.3615C263.62 15.1467 264.185 12.9752 264.999 10.8915C266.583 6.99936 269.257 4.5159 267.701 2.16924C267.407 1.68804 267.017 1.27217 266.555 0.947464C265.81 1.099 265.105 1.40741 264.489 1.85209Z" fill="#60A5FA"/>
<path d="M268.774 7.47695C266.009 9.13801 265.314 12.6817 264.692 15.7812C264.329 17.7687 264.153 19.7856 264.167 21.8056C264.115 23.9738 264.195 26.143 264.407 28.3015C264.407 28.3199 264.415 28.3375 264.428 28.3509C264.44 28.3643 264.458 28.3727 264.476 28.3745C264.495 28.3763 264.513 28.3714 264.528 28.3607C264.543 28.35 264.554 28.3342 264.558 28.3162C264.876 27.3818 265.221 26.5037 265.57 25.6942C266.43 23.6842 267.485 21.7621 268.717 19.9546C271.813 15.4079 274.826 13.4111 274.401 10.154C274.299 9.42754 274.059 8.72686 273.696 8.08885C273.395 7.55598 272.935 7.12971 272.38 6.86939C270.881 6.21063 269.181 7.23391 268.774 7.47695Z" fill="#FFD500"/>
<path d="M270.178 8.73129C267.412 10.3924 266.718 13.9361 266.096 17.0356C265.733 19.0231 265.557 21.0399 265.571 23.06C265.548 23.9973 265.553 24.8817 265.576 25.7069C266.434 23.6929 267.486 21.7665 268.717 19.9548C271.813 15.4081 274.826 13.4113 274.401 10.1542C274.298 9.42773 274.059 8.72706 273.696 8.08904C272.222 7.5037 270.576 8.49289 270.178 8.73129Z" fill="#FEF08A"/>
<path d="M242.643 35.9014C239.097 37.6977 241.967 44.2133 239.129 50.8589C237.965 53.5174 236.183 55.8618 233.929 57.6982C232.891 58.5701 231.787 59.3619 230.627 60.0665C230.608 60.08 230.594 60.0995 230.588 60.1219C230.581 60.1443 230.582 60.1682 230.59 60.1899C230.599 60.2117 230.615 60.2299 230.635 60.2418C230.655 60.2537 230.679 60.2586 230.702 60.2556C233.086 59.8072 235.388 59.0031 237.531 57.8705C239.234 56.9736 244.252 54.2387 246.971 48.5549C247.87 46.7621 248.36 44.7937 248.407 42.7903C248.414 41.8452 248.456 37.1755 245.775 35.9156C245.413 35.7506 245.027 35.6425 244.632 35.5953C243.953 35.4971 243.26 35.6037 242.643 35.9014Z" fill="#FFD500"/>
<path d="M244.676 36.8466C241.13 38.6429 244.001 45.1585 241.162 51.8041C239.999 54.4626 238.216 56.807 235.962 58.6434C236.556 58.3825 237.077 58.1259 237.532 57.8706C239.236 56.9737 244.254 54.2388 246.972 48.555C247.871 46.7623 248.362 44.7939 248.408 42.7905C248.415 41.9623 248.449 38.2924 246.665 36.5405C245.986 36.4423 245.294 36.5489 244.676 36.8466Z" fill="#FEF08A"/>
<path d="M247.573 25.5583C247.298 25.6794 247.054 25.8619 246.861 26.0917C246.699 26.275 246.583 26.4935 246.521 26.7296C246.016 28.6629 249.444 29.761 251.014 33.0498C251.678 34.4347 252.161 36.438 251.657 39.3119C251.655 39.3183 251.654 39.3252 251.654 39.3321C251.654 39.3391 251.656 39.3459 251.659 39.3521C251.662 39.3583 251.666 39.3638 251.672 39.3682C251.677 39.3726 251.683 39.3758 251.69 39.3776C251.7 39.3796 251.71 39.3783 251.719 39.3738C251.729 39.3693 251.736 39.3619 251.74 39.3528C252.368 38.31 252.836 37.1791 253.126 35.9979C253.354 35.0568 254.003 32.2554 252.749 29.3361C252.371 28.3995 251.789 27.5579 251.046 26.8718C250.701 26.5474 248.94 24.975 247.573 25.5583Z" fill="#60A5FA"/>
<path d="M246.863 26.0911C246.701 26.2744 246.585 26.4929 246.523 26.7291C246.018 28.6624 249.446 29.7604 251.016 33.0492C251.68 34.4341 252.163 36.4375 251.66 39.3114C251.657 39.3178 251.656 39.3247 251.656 39.3316C251.656 39.3385 251.658 39.3453 251.661 39.3515C251.664 39.3577 251.668 39.3632 251.674 39.3676C251.679 39.372 251.685 39.3752 251.692 39.377C252.158 38.3051 252.467 37.1718 252.608 36.0121C252.721 35.0503 253.023 32.1973 251.434 29.4434C250.946 28.5592 250.268 27.793 249.448 27.1993C249.16 26.9874 247.97 26.1648 246.863 26.0911Z" fill="#93C5FD"/>
<path d="M262.02 45.8158C258.124 48.422 255.015 52.0372 253.029 56.2721C253.029 56.2721 254.644 55.2282 256.883 53.8767C260.58 51.6677 265.954 48.6022 268.588 48.0371C272.821 47.1204 272.818 47.9002 272.818 47.9002C272.818 47.9002 272.113 48.8033 271.128 49.9577C273.903 49.5133 273.904 50.0888 273.904 50.0888C273.904 50.0888 271.244 53.5144 268.866 55.681C267.92 56.5361 264.229 59.8276 258.793 61.0523C257.212 61.3743 255.614 61.6025 254.006 61.7356C259.228 63.8883 261.938 63.7524 261.938 63.7524C265.382 63.5825 268.704 62.4231 271.501 60.4143C274.088 58.5418 275.778 56.7527 277.06 53.8106C278.671 50.1307 279.977 46.2591 280.457 44.1899C280.655 43.3533 280.714 42.8107 280.607 42.6964C279.938 41.9868 278.933 41.7888 277.073 41.81C273.583 41.8473 267.944 41.9075 262.02 45.8158Z" fill="#93C5FD"/>
<path d="M263.107 48.004C260.709 49.591 258.604 51.5774 256.884 53.8763C260.581 51.6673 265.954 48.6018 268.588 48.0367C272.821 47.12 272.818 47.8998 272.818 47.8998C272.818 47.8998 272.114 48.8029 271.128 49.9573C273.904 49.5129 273.904 50.0884 273.904 50.0884C273.904 50.0884 271.245 53.514 268.867 55.6806C267.92 56.5357 264.229 59.8272 258.793 61.0519C257.213 61.3739 255.614 61.6021 254.007 61.7352C259.228 63.8879 261.938 63.752 261.938 63.752C265.383 63.5821 268.704 62.4227 271.501 60.4139C274.088 58.5414 275.778 56.7523 277.06 53.8102C278.672 50.1303 279.977 46.2587 280.458 44.1895C279.703 44.026 278.93 43.9617 278.159 43.9982C274.669 44.0354 269.031 44.0956 263.107 48.004Z" fill="#60A5FA"/>
<path d="M272.073 23.231C270.249 24.3582 267.304 26.1776 265.441 30.1059C264.227 32.7094 263.749 35.5933 264.057 38.4474C264.091 38.3804 264.416 37.7143 264.908 36.7605C266.104 34.4481 268.251 30.4462 269.602 29.1936C271.537 27.3775 271.779 27.7794 271.779 27.7794C271.779 27.7794 271.743 28.0772 271.677 28.5339C271.51 29.8102 271.256 31.0737 270.917 32.3159C270.255 34.5899 269.024 36.6591 267.339 38.3296C265.831 39.7765 263.833 40.931 263.985 41.2062C264.004 41.2437 264.07 41.2581 264.179 41.2508C264.526 41.2242 264.855 41.1945 265.166 41.1538C269.44 40.6881 271.122 39.5525 271.122 39.5525C272.88 38.3721 274.255 36.7096 275.083 34.7664C275.847 32.959 276.159 31.4865 275.897 29.5341C275.512 26.6733 274.82 23.8081 274.411 22.8735C274.319 22.689 274.256 22.5609 274.206 22.5622C273.635 22.4192 273.045 22.6318 272.073 23.231Z" fill="#93C5FD"/>
<path d="M273.013 23.5474C271.189 24.6746 268.244 26.4939 266.381 30.4223C265.447 32.408 264.945 34.5681 264.91 36.7606C266.106 34.4483 268.253 30.4464 269.604 29.1938C271.539 27.3776 271.781 27.7796 271.781 27.7796C271.781 27.7796 271.745 28.0774 271.679 28.5341C272.583 27.8675 272.719 28.0958 272.719 28.0958C272.536 29.628 272.245 31.1454 271.848 32.6369C271.186 34.9109 269.955 36.9801 268.27 38.6506C267.139 39.7327 265.73 40.6559 265.164 41.168C269.437 40.7023 271.119 39.5666 271.119 39.5666C272.877 38.3862 274.253 36.7238 275.08 34.7806C275.844 32.9732 276.156 31.5007 275.894 29.5483C275.509 26.6875 274.817 23.8223 274.408 22.8877C273.91 23.0306 273.439 23.2534 273.013 23.5474Z" fill="#60A5FA"/>
<path d="M223.305 51.2087C221.032 53.0028 217.729 52.622 215.927 50.3582C214.126 48.0944 214.508 44.8048 216.781 43.0107C219.055 41.2166 222.358 41.5974 224.159 43.8612C225.961 46.1251 225.579 49.4147 223.305 51.2087Z" fill="#60A5FA"/>
<path d="M215.986 42.0111C214.822 42.93 213.13 42.7349 212.207 41.5754C211.284 40.4159 211.48 38.731 212.645 37.8121C213.809 36.8931 215.501 37.0882 216.424 38.2477C217.346 39.4072 217.151 41.0921 215.986 42.0111Z" fill="#60A5FA"/>
<path d="M223.051 51.2139C221.886 52.1329 220.194 51.9378 219.272 50.7783C218.349 49.6188 218.545 47.9339 219.709 47.0149C220.873 46.096 222.565 46.2911 223.488 47.4506C224.411 48.6101 224.215 50.295 223.051 51.2139Z" fill="#93C5FD"/>
<path d="M211.631 36.3331C210.855 36.9457 209.727 36.8157 209.111 36.0427C208.496 35.2697 208.627 34.1464 209.403 33.5338C210.179 32.9212 211.307 33.0512 211.922 33.8242C212.538 34.5972 212.407 35.7205 211.631 36.3331Z" fill="#60A5FA"/>
<path d="M211.476 36.2595C210.977 36.6533 210.252 36.5697 209.856 36.0728C209.461 35.5758 209.545 34.8537 210.044 34.4599C210.543 34.0661 211.268 34.1497 211.663 34.6466C212.059 35.1435 211.975 35.8657 211.476 36.2595Z" fill="#93C5FD"/>
<path d="M215.833 41.9371C215.057 42.5498 213.929 42.4197 213.314 41.6467C212.698 40.8737 212.829 39.7504 213.605 39.1378C214.381 38.5252 215.509 38.6552 216.125 39.4282C216.74 40.2012 216.609 41.3245 215.833 41.9371Z" fill="#93C5FD"/>
<path d="M235.843 33.8109C235.269 33.4086 234.584 33.192 233.882 33.1907C233.775 33.2023 233.67 33.2192 233.566 33.2415C233.054 33.3393 232.578 33.5739 232.19 33.9201C231.777 34.3092 231.484 34.808 231.346 35.3575C230.805 37.2273 231.378 39.0568 231.557 41.5818C231.693 43.5189 231.783 44.8569 231.174 46.4412C230.616 47.9041 229.723 48.889 229.015 49.6755C228.414 50.3386 227.753 50.9445 227.039 51.4854C226.637 51.8023 226.255 52.0488 225.917 52.2604C225.904 52.2691 225.894 52.2819 225.89 52.2966C225.885 52.3113 225.885 52.3272 225.891 52.3417C225.896 52.3562 225.907 52.3684 225.92 52.3764C225.933 52.3844 225.949 52.3877 225.964 52.3858C228.085 52.0839 230.095 51.2515 231.806 49.9664C233.156 48.9138 234.288 47.6103 235.139 46.1282C237.503 42.0875 238.519 35.752 235.843 33.8109Z" fill="#60A5FA"/>
<path d="M234.229 33.6026C234.025 33.4532 233.801 33.3316 233.565 33.241C233.053 33.3389 232.578 33.5734 232.189 33.9196C231.776 34.3088 231.484 34.8075 231.346 35.357C230.804 37.2268 231.377 39.0563 231.556 41.5813C231.692 43.5184 231.783 44.8564 231.174 46.4407C230.615 47.9036 229.722 48.8885 229.014 49.675C228.413 50.3381 227.752 50.944 227.038 51.4849C228.163 51.0628 229.22 50.4806 230.177 49.7564C231.529 48.7061 232.662 47.403 233.512 45.9202C235.873 41.8792 236.899 35.5485 234.229 33.6026Z" fill="#93C5FD"/>
<path d="M226.878 33.1712C226.776 33.0432 226.703 32.9839 226.639 32.9238C225.998 32.2834 224.374 30.8993 222.139 30.8469C221.491 30.8339 219.908 30.804 218.995 31.9374C218.616 32.4326 218.409 33.0372 218.405 33.66C218.393 34.1844 218.468 34.7071 218.626 35.2074C218.932 36.1834 219.527 36.775 220.697 37.9124C221.323 38.493 221.978 39.0419 222.66 39.557C224.04 40.7005 225.862 42.209 226.678 44.6058C227.078 45.8354 227.198 47.1385 227.029 48.4202C226.893 49.8097 226.477 51.1576 225.806 52.3835C225.805 52.3885 225.806 52.3936 225.807 52.3986C225.808 52.4035 225.81 52.4081 225.814 52.412C225.817 52.416 225.821 52.4193 225.825 52.4216C225.83 52.4239 225.835 52.4252 225.84 52.4255C225.844 52.4243 225.848 52.4223 225.851 52.4196C225.855 52.4169 225.858 52.4135 225.86 52.4097C229.359 49.8728 230.398 45.9209 230.398 45.9209C231.46 41.8827 230.41 38.1767 229.481 36.5531C228.741 35.3341 227.868 34.1999 226.878 33.1712Z" fill="#FEF08A"/>
<path d="M224.519 35.2767C223.027 34.2443 221.264 33.6698 219.448 33.6243C219.099 33.6176 218.749 33.6313 218.402 33.6653C218.39 34.1897 218.465 34.7124 218.623 35.2127C218.929 36.1887 219.524 36.7803 220.694 37.9177C221.32 38.4983 221.975 39.0472 222.657 39.5623C224.037 40.7058 225.859 42.2143 226.674 44.6111C227.075 45.8407 227.195 47.1438 227.026 48.4255C226.89 49.815 226.474 51.1629 225.803 52.3888C225.802 52.3938 225.802 52.3989 225.804 52.4039C225.805 52.4088 225.807 52.4134 225.81 52.4173C225.814 52.4213 225.818 52.4246 225.822 52.4269C225.827 52.4292 225.832 52.4306 225.837 52.4308C226.007 52.1889 226.175 51.9323 226.337 51.6585C226.844 50.7962 227.244 49.8757 227.529 48.9175C227.809 47.9171 227.978 46.8889 228.031 45.8517C228.166 44.6477 228.185 43.4336 228.088 42.226C227.976 41.2107 227.57 37.4881 224.519 35.2767Z" fill="#FFD500"/>
<path d="M225.921 27.7469C225.045 26.9956 224.035 26.4158 222.943 26.0379C221.971 25.7115 219.882 25.0094 218.581 26.0363C218.345 26.2132 218.147 26.4357 217.999 26.6904C217.852 26.9452 217.757 27.227 217.721 27.519C217.71 27.703 217.73 27.8875 217.78 28.0651C217.857 28.3388 217.985 28.5956 218.157 28.8223C219.288 30.3547 222.188 29.2706 224.746 30.2338C225.778 30.6235 227.159 31.5 228.417 33.7335C228.523 33.9188 228.627 34.1161 228.731 34.3254C228.738 34.34 228.751 34.3519 228.765 34.3593C228.78 34.3667 228.797 34.3694 228.813 34.3669C228.83 34.3644 228.845 34.3568 228.857 34.3453C228.868 34.3337 228.876 34.3188 228.879 34.3026C229.03 32.8792 228.754 31.4433 228.086 30.1758C227.536 29.2293 226.8 28.4031 225.921 27.7469Z" fill="#60A5FA"/>
<path d="M225.552 29.3394C224.677 28.5881 223.666 28.0083 222.574 27.6304C221.602 27.304 219.513 26.6019 218.212 27.6288C218.051 27.7574 217.906 27.9039 217.779 28.0655C217.856 28.3391 217.983 28.596 218.156 28.8227C219.287 30.3551 222.187 29.271 224.745 30.2342C225.777 30.6238 227.158 31.5003 228.415 33.7338C228.287 33.0465 228.051 32.3833 227.717 31.7683C227.167 30.8218 226.431 29.9956 225.552 29.3394Z" fill="#93C5FD"/>
<path d="M226.431 22.14C225.615 21.5246 223.833 20.2259 222.279 20.8041C222 20.9005 221.743 21.0521 221.524 21.2496C221.305 21.4471 221.128 21.6866 221.004 21.9538L220.982 22.0167C220.849 22.4453 220.861 22.9057 221.017 23.3265C221.621 25.1287 224.716 24.9843 226.853 26.6835C227.694 27.3543 228.708 28.5662 229.23 30.9601C229.297 31.233 229.338 31.5065 229.394 31.8072C229.397 31.8235 229.405 31.8385 229.417 31.85C229.429 31.8616 229.444 31.8691 229.461 31.8716C229.477 31.8741 229.494 31.8714 229.509 31.8639C229.523 31.8564 229.535 31.8445 229.543 31.8298C230.125 30.5215 230.304 29.0707 230.057 27.6611C229.828 26.5916 229.382 25.5799 228.747 24.6879C228.143 23.7011 227.357 22.8367 226.431 22.14Z" fill="#FEF08A"/>
<path d="M225.584 23.1318C224.768 22.5164 222.986 21.2177 221.432 21.7959C221.275 21.8552 221.124 21.9289 220.98 22.0162C220.847 22.4448 220.859 22.9052 221.016 23.326C221.619 25.1282 224.715 24.9838 226.851 26.683C227.692 27.3538 228.706 28.5657 229.228 30.9596C229.354 30.1917 229.345 29.4079 229.202 28.6429C228.973 27.5734 228.527 26.5617 227.892 25.6697C227.289 24.6872 226.507 23.8262 225.584 23.1318Z" fill="#FFD500"/>
<path d="M231.014 19.3366C230.73 19.2551 230.433 19.2314 230.14 19.2669C229.847 19.3024 229.564 19.3963 229.308 19.5432C229.024 19.7354 228.798 20.0023 228.657 20.3144C228.603 20.4299 228.559 20.5492 228.522 20.6712C227.971 22.4928 230.583 24.1523 231.344 26.768C231.594 27.6286 231.716 28.8775 231.196 30.5737C230.999 31.2018 230.75 31.8122 230.451 32.3984C230.442 32.4133 230.438 32.4308 230.441 32.4481C230.443 32.4653 230.451 32.4812 230.464 32.4933C230.476 32.5053 230.493 32.5127 230.51 32.5142C230.527 32.5158 230.545 32.5113 230.559 32.5017C231.792 31.7674 232.779 30.6862 233.395 29.3944C233.826 28.3881 234.047 27.3053 234.046 26.2114C234.124 25.0632 233.983 23.9107 233.631 22.8147C233.308 21.8422 232.619 19.7559 231.014 19.3366Z" fill="#60A5FA"/>
<path d="M228.888 20.3629C228.829 20.3471 228.751 20.3308 228.656 20.3144C228.603 20.4299 228.558 20.5492 228.522 20.6712C227.971 22.4928 230.583 24.1523 231.344 26.768C231.594 27.6286 231.715 28.8775 231.195 30.5738L231.269 30.4207C231.7 29.4144 231.922 28.3316 231.92 27.2377C231.998 26.0895 231.857 24.937 231.505 23.841C231.183 22.8685 230.493 20.7822 228.888 20.3629Z" fill="#93C5FD"/>
<path d="M203.223 59.8794C202.961 59.2307 202.905 58.5173 203.064 57.8362C203.1 57.736 203.141 57.6376 203.186 57.5415C203.399 57.0677 203.737 56.6603 204.164 56.363C204.639 56.0513 205.193 55.8814 205.762 55.8734C207.714 55.7752 209.371 56.749 211.799 57.4992C213.664 58.0719 214.949 58.4671 216.637 58.2385C218.195 58.0313 219.364 57.3887 220.292 56.8838C221.078 56.4529 221.821 55.9501 222.513 55.3818C222.914 55.0649 223.243 54.7504 223.527 54.4708C223.538 54.4603 223.553 54.454 223.568 54.4528C223.584 54.4516 223.599 54.4557 223.612 54.4643C223.625 54.4729 223.635 54.4856 223.64 54.5003C223.644 54.515 223.644 54.5309 223.639 54.5454C222.86 56.5334 221.587 58.2919 219.939 59.6562C218.601 60.7245 217.069 61.5242 215.425 62.0107C210.943 63.3736 204.517 62.9108 203.223 59.8794Z" fill="#60A5FA"/>
<path d="M203.398 58.2615C203.299 58.0295 203.231 57.7853 203.196 57.5354C203.409 57.0616 203.747 56.6542 204.174 56.3569C204.649 56.0452 205.203 55.8753 205.772 55.8673C207.724 55.7691 209.381 56.7429 211.809 57.4931C213.674 58.0658 214.959 58.461 216.647 58.2324C218.205 58.0252 219.374 57.3826 220.302 56.8776C221.088 56.4468 221.831 55.9439 222.523 55.3757C221.853 56.3696 221.043 57.2616 220.116 58.0239C218.78 59.0944 217.248 59.8948 215.604 60.3805C211.114 61.7462 204.693 61.2929 203.398 58.2615Z" fill="#93C5FD"/>
<path d="M204.653 51.0384C204.561 50.9025 204.51 50.8257 204.466 50.7498C203.986 49.9826 203.004 48.0915 203.463 45.9124C203.609 45.2736 203.931 43.7398 205.248 43.1143C205.818 42.8597 206.457 42.7969 207.067 42.9353C207.582 43.044 208.076 43.2359 208.529 43.5034C209.413 44.0231 209.855 44.7351 210.7 46.1292C211.125 46.8688 211.512 47.6293 211.859 48.4077C212.662 50.0075 213.72 52.1182 215.877 53.4565C216.988 54.1257 218.234 54.5399 219.526 54.6689C220.916 54.8542 222.328 54.7588 223.68 54.3886C223.685 54.3889 223.69 54.3902 223.695 54.3925C223.699 54.3949 223.703 54.3981 223.706 54.4021C223.709 54.4061 223.712 54.4107 223.713 54.4156C223.714 54.4205 223.714 54.4256 223.713 54.4306C223.711 54.4344 223.708 54.4378 223.705 54.4405C223.702 54.4432 223.698 54.4453 223.693 54.4465C220.414 57.2593 216.313 57.3641 216.313 57.3641C212.123 57.4712 208.739 55.6065 207.364 54.3348C206.342 53.3384 205.433 52.233 204.653 51.0384Z" fill="#FEF08A"/>
<path d="M207.251 49.2292C206.582 47.5469 206.423 45.7065 206.794 43.9353C206.867 43.5952 206.96 43.2597 207.073 42.9305C207.588 43.0391 208.082 43.231 208.535 43.4986C209.419 44.0182 209.862 44.7303 210.706 46.1243C211.131 46.864 211.518 47.6244 211.866 48.4028C212.668 50.0027 213.727 52.1133 215.884 53.4516C216.994 54.1208 218.241 54.535 219.532 54.664C220.922 54.8493 222.335 54.754 223.686 54.3838C223.692 54.384 223.696 54.3854 223.701 54.3877C223.706 54.39 223.71 54.3933 223.713 54.3972C223.716 54.4012 223.718 54.4058 223.719 54.4107C223.721 54.4156 223.721 54.4208 223.72 54.4258C223.444 54.5357 223.155 54.6403 222.851 54.7342C221.892 55.0282 220.9 55.206 219.899 55.2638C218.857 55.3061 217.813 55.2345 216.787 55.0503C215.579 54.906 214.388 54.647 213.229 54.277C212.262 53.9367 208.718 52.6909 207.251 49.2292Z" fill="#FFD500"/>
<path d="M199.569 48.8687C199.037 47.8448 198.705 46.73 198.589 45.583C198.492 44.5657 198.283 42.3804 199.584 41.3536C199.81 41.1652 200.073 41.0243 200.356 40.9392C200.639 40.8542 200.936 40.8268 201.23 40.8587C201.412 40.8904 201.588 40.9518 201.75 41.0403C202 41.1775 202.222 41.3602 202.404 41.5788C203.63 43.0368 201.912 45.5974 202.263 48.302C202.408 49.3921 202.949 50.931 204.845 52.6605C205.004 52.8047 205.173 52.9513 205.352 53.1004C205.365 53.1111 205.374 53.1256 205.378 53.1416C205.381 53.1576 205.38 53.1745 205.374 53.1898C205.368 53.2051 205.357 53.2181 205.343 53.2269C205.329 53.2358 205.313 53.2401 205.296 53.2392C203.87 53.0598 202.529 52.4642 201.443 51.5273C200.645 50.7758 200.008 49.8715 199.569 48.8687Z" fill="#60A5FA"/>
<path d="M201.212 48.8764C200.68 47.8525 200.348 46.7376 200.232 45.5907C200.135 44.5734 199.926 42.3881 201.227 41.3613C201.389 41.2347 201.566 41.1271 201.753 41.0405C202.003 41.1777 202.225 41.3604 202.407 41.579C203.633 43.037 201.914 45.5976 202.265 48.3022C202.411 49.3923 202.952 50.9312 204.848 52.6607C204.206 52.3791 203.611 51.9993 203.086 51.535C202.288 50.7835 201.651 49.8792 201.212 48.8764Z" fill="#93C5FD"/>
<path d="M193.972 48.0815C193.567 47.1413 192.695 45.1247 193.615 43.7507C193.773 43.5019 193.98 43.2875 194.223 43.1202C194.466 42.9529 194.741 42.8361 195.03 42.7769L195.097 42.7701C195.546 42.739 195.993 42.8563 196.369 43.1038C197.993 44.101 197.145 47.0687 198.318 49.5286C198.781 50.4973 199.735 51.7568 201.956 52.8101C202.207 52.9371 202.465 53.0395 202.746 53.1627C202.761 53.1693 202.774 53.1804 202.783 53.1946C202.791 53.2087 202.795 53.2252 202.794 53.2417C202.793 53.2582 202.786 53.2738 202.776 53.2865C202.765 53.2991 202.75 53.3081 202.734 53.3121C201.322 53.5773 199.863 53.4192 198.542 52.8578C197.548 52.3914 196.661 51.728 195.934 50.9083C195.108 50.0973 194.442 49.1383 193.972 48.0815Z" fill="#FEF08A"/>
<path d="M195.134 47.4896C194.729 46.5494 193.856 44.5328 194.776 43.1588C194.87 43.0198 194.977 42.8898 195.095 42.7706C195.544 42.7395 195.992 42.8568 196.367 43.1043C197.991 44.1015 197.143 47.0692 198.316 49.5291C198.78 50.4978 199.733 51.7573 201.954 52.8106C201.174 52.7568 200.41 52.5691 199.695 52.256C198.702 51.7895 197.814 51.1262 197.088 50.3064C196.265 49.4977 195.602 48.5422 195.134 47.4896Z" fill="#FFD500"/>
<path d="M190.183 51.8838C190.168 51.5902 190.213 51.2967 190.315 51.0207C190.416 50.7447 190.573 50.4919 190.775 50.2776C191.028 50.0456 191.34 49.888 191.677 49.8223C191.803 49.7968 191.929 49.7805 192.057 49.7734C193.964 49.6554 194.989 52.5668 197.373 53.9021C198.157 54.3412 199.35 54.7439 201.127 54.6273C201.786 54.5807 202.44 54.4787 203.081 54.3223C203.098 54.3169 203.116 54.3174 203.132 54.3235C203.148 54.3297 203.162 54.3412 203.171 54.3562C203.18 54.3712 203.183 54.3887 203.181 54.4059C203.178 54.4232 203.17 54.439 203.157 54.4509C202.158 55.4781 200.876 56.1878 199.472 56.4905C198.39 56.6782 197.28 56.6455 196.211 56.3943C195.071 56.2076 193.976 55.8079 192.985 55.2161C192.108 54.681 190.226 53.536 190.183 51.8838Z" fill="#60A5FA"/>
<path d="M191.675 50.0585C191.673 49.9984 191.675 49.9187 191.68 49.8231C191.805 49.7977 191.932 49.7813 192.06 49.7742C193.966 49.6562 194.992 52.5676 197.375 53.903C198.16 54.342 199.353 54.7447 201.13 54.6282L200.963 54.6652C199.881 54.853 198.772 54.8202 197.703 54.5691C196.563 54.3824 195.468 53.9826 194.477 53.3909C193.6 52.8557 191.718 51.7107 191.675 50.0585Z" fill="#93C5FD"/>
<path d="M143.732 59.871C140.982 59.8611 138.761 57.6257 138.771 54.8781C138.781 52.1305 141.018 49.9112 143.768 49.9211C146.519 49.9309 148.74 52.1663 148.73 54.9139C148.72 57.6615 146.483 59.8809 143.732 59.871Z" fill="#60A5FA"/>
<path d="M143.774 48.7075C142.365 48.7024 141.227 47.5575 141.232 46.1502C141.237 44.7429 142.384 43.6061 143.792 43.6112C145.201 43.6163 146.339 44.7612 146.334 46.1685C146.329 47.5758 145.182 48.7126 143.774 48.7075Z" fill="#60A5FA"/>
<path d="M143.541 59.7248C142.133 59.7198 140.995 58.5748 141 57.1675C141.005 55.7602 142.151 54.6235 143.56 54.6285C144.968 54.6336 146.106 55.7785 146.101 57.1858C146.096 58.5932 144.95 59.7299 143.541 59.7248Z" fill="#93C5FD"/>
<path d="M143.919 41.9129C142.98 41.9095 142.222 41.1462 142.225 40.208C142.228 39.2698 142.992 38.512 143.931 38.5154C144.871 38.5187 145.629 39.282 145.626 40.2203C145.622 41.1585 144.858 41.9163 143.919 41.9129Z" fill="#60A5FA"/>
<path d="M143.85 41.7671C143.246 41.7649 142.759 41.2742 142.761 40.6711C142.763 40.068 143.254 39.5808 143.858 39.583C144.462 39.5852 144.949 40.0758 144.947 40.679C144.945 41.2821 144.454 41.7693 143.85 41.7671Z" fill="#93C5FD"/>
<path d="M143.702 48.5618C142.763 48.5585 142.005 47.7952 142.008 46.8569C142.012 45.9187 142.776 45.1609 143.715 45.1643C144.654 45.1677 145.412 45.931 145.409 46.8692C145.406 47.8074 144.642 48.5652 143.702 48.5618Z" fill="#93C5FD"/>
<path d="M163.358 54.3481C163.172 53.7096 162.793 53.1439 162.273 52.7279C162.188 52.6738 162.1 52.6241 162.009 52.5789C161.572 52.3492 161.08 52.2425 160.587 52.2704C160.049 52.3155 159.536 52.5132 159.108 52.8403C157.595 53.9099 156.933 55.6088 155.566 57.5914C154.516 59.1117 153.788 60.1599 152.396 60.9776C151.113 61.735 149.866 61.9393 148.874 62.1056C148.035 62.2435 147.185 62.303 146.335 62.2833C145.849 62.2816 145.42 62.2388 145.043 62.1961C145.028 62.195 145.014 62.1989 145.002 62.207C144.989 62.2152 144.98 62.2273 144.976 62.2413C144.971 62.2553 144.972 62.2704 144.977 62.2842C144.982 62.298 144.991 62.3097 145.004 62.3173C146.755 63.3467 148.739 63.9157 150.77 63.9714C152.395 63.9868 154.008 63.6868 155.519 63.0881C159.672 61.4819 164.188 57.3725 163.358 54.3481Z" fill="#60A5FA"/>
<path d="M162.287 53.24C162.224 53.0083 162.131 52.7859 162.01 52.5789C161.572 52.3491 161.081 52.2425 160.587 52.2704C160.05 52.3155 159.537 52.5132 159.108 52.8403C157.596 53.9099 156.934 55.6087 155.567 57.5914C154.517 59.1117 153.789 60.1599 152.396 60.9776C151.114 61.735 149.867 61.9392 148.875 62.1055C148.036 62.2435 147.186 62.303 146.336 62.2833C147.42 62.6342 148.549 62.8263 149.688 62.8535C151.314 62.8717 152.927 62.5725 154.438 61.9727C158.588 60.364 163.109 56.2644 162.287 53.24Z" fill="#93C5FD"/>
<path d="M157.098 48.5759C157.098 48.4206 157.079 48.3332 157.067 48.2506C156.973 47.396 156.592 45.4071 154.967 44.047C154.494 43.6546 153.339 42.6967 151.99 43.0001C151.415 43.144 150.902 43.471 150.529 43.9316C150.209 44.3146 149.954 44.7473 149.774 45.2127C149.421 46.119 149.51 46.9105 149.701 48.4474C149.82 49.249 149.98 50.0442 150.179 50.8298C150.522 52.4959 150.976 54.6938 150.156 56.9575C149.723 58.1083 149.038 59.148 148.151 60.0009C147.225 60.9532 146.116 61.7094 144.891 62.2243C144.887 62.2275 144.884 62.2314 144.882 62.2357C144.88 62.2401 144.879 62.2449 144.879 62.2497C144.879 62.2545 144.88 62.2593 144.882 62.2637C144.884 62.2681 144.887 62.272 144.89 62.2752C144.894 62.2769 144.898 62.2777 144.902 62.2777C144.907 62.2777 144.911 62.2769 144.915 62.2753C149.014 62.4575 152.132 60.1341 152.132 60.1341C155.318 57.76 156.741 54.3845 157.017 52.6285C157.193 51.2847 157.22 49.9256 157.098 48.5759Z" fill="#FEF08A"/>
<path d="M154.096 48.7448C153.604 47.0957 152.639 45.6267 151.32 44.5194C151.065 44.3081 150.798 44.1119 150.521 43.9317C150.201 44.3147 149.945 44.7474 149.765 45.2128C149.412 46.1191 149.502 46.9106 149.693 48.4475C149.812 49.2491 149.971 50.0443 150.17 50.8299C150.514 52.496 150.968 54.6939 150.148 56.9576C149.714 58.1084 149.029 59.1481 148.143 60.001C147.216 60.9533 146.107 61.7095 144.882 62.2244C144.879 62.2275 144.876 62.2315 144.874 62.2358C144.872 62.2402 144.871 62.245 144.871 62.2498C144.871 62.2546 144.872 62.2594 144.874 62.2638C144.876 62.2682 144.878 62.2721 144.882 62.2753C145.152 62.1962 145.429 62.105 145.711 61.9968C146.599 61.6555 147.443 61.2079 148.223 60.6638C149.025 60.0858 149.761 59.421 150.416 58.6817C151.232 57.8664 151.967 56.9751 152.612 56.02C153.133 55.1992 155.043 52.1919 154.096 48.7448Z" fill="#FFD500"/>
<path d="M159.609 43.9771C159.406 42.901 159.002 41.8728 158.417 40.9465C157.89 40.1292 156.76 38.373 155.186 38.3673C154.906 38.3593 154.627 38.4078 154.366 38.5099C154.105 38.6119 153.868 38.7654 153.668 38.9613C153.551 39.0918 153.456 39.2407 153.387 39.4019C153.281 39.6509 153.224 39.9174 153.216 40.1876C153.144 41.9954 155.937 42.9033 157.26 45.1311C157.794 46.0309 158.296 47.4986 157.901 49.9022C157.87 50.1027 157.83 50.3112 157.782 50.5278C157.779 50.5433 157.781 50.5592 157.788 50.5735C157.794 50.5877 157.805 50.5996 157.819 50.6074C157.833 50.6152 157.848 50.6186 157.864 50.617C157.88 50.6154 157.894 50.609 157.906 50.5987C158.863 49.6295 159.512 48.3989 159.77 47.0622C159.924 46.0334 159.87 44.9841 159.609 43.9771Z" fill="#60A5FA"/>
<path d="M158.391 44.943C158.188 43.8669 157.784 42.8387 157.199 41.9124C156.673 41.0951 155.542 39.3389 153.968 39.3332C153.772 39.3337 153.578 39.3566 153.387 39.4015C153.282 39.6504 153.224 39.9169 153.217 40.1872C153.145 41.9949 155.937 42.9029 157.261 45.1306C157.794 46.0305 158.297 47.4981 157.902 49.9017C158.215 49.3148 158.434 48.6826 158.552 48.0281C158.707 46.9994 158.652 45.95 158.391 44.943Z" fill="#93C5FD"/>
<path d="M163.318 40.1092C163.078 39.1692 162.529 37.1505 161.035 36.6622C160.771 36.5688 160.49 36.5296 160.211 36.5469C159.931 36.5643 159.658 36.6378 159.407 36.7631L159.353 36.7969C159 37.0369 158.736 37.3865 158.602 37.7916C157.978 39.4882 160.358 41.2101 160.932 43.7361C161.156 44.7319 161.187 46.2318 160.152 48.32C160.04 48.5623 159.908 48.7899 159.771 49.0467C159.763 49.0605 159.76 49.0763 159.762 49.0919C159.764 49.1075 159.771 49.1221 159.782 49.1337C159.792 49.1453 159.806 49.1532 159.822 49.1563C159.837 49.1595 159.853 49.1578 159.868 49.1514C161.076 48.5227 162.07 47.5499 162.725 46.3562C163.19 45.4258 163.461 44.4102 163.52 43.3716C163.659 42.2811 163.59 41.1743 163.318 40.1092Z" fill="#FEF08A"/>
<path d="M162.103 40.3471C161.864 39.407 161.315 37.3884 159.82 36.9C159.668 36.8511 159.512 36.8165 159.354 36.7964C159.001 37.0365 158.737 37.3861 158.602 37.7912C157.979 39.4877 160.358 41.2096 160.932 43.7356C161.157 44.7314 161.188 46.2313 160.153 48.3195C160.702 47.8228 161.161 47.235 161.51 46.582C161.975 45.6515 162.246 44.6359 162.305 43.5974C162.442 42.5109 162.374 41.4083 162.103 40.3471Z" fill="#FFD500"/>
<path d="M168.379 40.7341C168.217 40.5059 168.011 40.3126 167.773 40.1658C167.535 40.019 167.269 39.9217 166.993 39.8797C166.668 39.8545 166.342 39.9197 166.052 40.0681C165.944 40.1224 165.839 40.1845 165.74 40.2538C164.25 41.2823 165.199 44.0596 164.209 46.4538C163.883 47.2413 163.231 48.2413 161.838 49.1949C161.32 49.5458 160.773 49.8524 160.203 50.1112C160.187 50.1169 160.174 50.1278 160.165 50.1419C160.157 50.1561 160.153 50.1728 160.156 50.1892C160.158 50.2056 160.166 50.2207 160.178 50.2321C160.19 50.2436 160.205 50.2506 160.222 50.252C161.571 50.4346 162.945 50.2141 164.169 49.6182C165.086 49.1248 165.893 48.4507 166.542 47.6368C167.282 46.8294 167.862 45.8895 168.252 44.8666C168.591 43.9529 169.319 41.9946 168.379 40.7341Z" fill="#60A5FA"/>
<path d="M166.193 40.2409C166.159 40.1947 166.111 40.1363 166.05 40.0681C165.942 40.1224 165.838 40.1845 165.739 40.2539C164.248 41.2823 165.198 44.0596 164.208 46.4538C163.882 47.2413 163.23 48.2413 161.837 49.1949L161.983 49.125C162.9 48.6316 163.707 47.9575 164.356 47.1436C165.096 46.3362 165.676 45.3963 166.066 44.3734C166.405 43.4597 167.133 41.5014 166.193 40.2409Z" fill="#93C5FD"/>
<path d="M123.703 54.4477C123.894 53.8105 124.277 53.2476 124.8 52.8354C124.885 52.7819 124.974 52.7328 125.065 52.6883C125.504 52.4617 125.996 52.3586 126.489 52.3901C127.026 52.439 127.538 52.6404 127.964 52.9705C129.469 54.051 130.119 55.7546 131.472 57.747C132.513 59.2748 133.231 60.3282 134.617 61.1559C135.895 61.9226 137.143 62.1358 138.131 62.3092C138.969 62.4531 139.818 62.5188 140.668 62.5052C141.154 62.5069 141.584 62.4672 141.961 62.4273C141.976 62.4263 141.99 62.4302 142.002 62.4385C142.015 62.4468 142.024 62.4589 142.028 62.4729C142.033 62.487 142.032 62.5021 142.027 62.5158C142.022 62.5296 142.012 62.5412 141.999 62.5488C140.241 63.5662 138.253 64.121 136.222 64.1613C134.596 64.1651 132.985 63.8535 131.479 63.2439C127.348 61.6079 122.861 57.4661 123.703 54.4477Z" fill="#60A5FA"/>
<path d="M124.792 53.3476C124.856 53.1164 124.951 52.8947 125.074 52.6885C125.513 52.462 126.005 52.3589 126.499 52.3903C127.036 52.4392 127.547 52.6406 127.973 52.9708C129.478 54.0513 130.128 55.7548 131.481 57.7473C132.522 59.2751 133.24 60.3285 134.627 61.1562C135.904 61.9228 137.152 62.136 138.14 62.3094C138.978 62.4534 139.827 62.519 140.678 62.5054C139.591 62.8486 138.46 63.0325 137.321 63.0515C135.695 63.0578 134.084 62.747 132.578 62.1366C128.439 60.4981 123.951 56.366 124.792 53.3476Z" fill="#93C5FD"/>
<path d="M130.016 48.7212C130.028 48.5659 130.036 48.4786 130.048 48.3961C130.149 47.5422 130.544 45.556 132.179 44.2077C132.666 43.8188 133.816 42.8692 135.163 43.1822C135.738 43.3303 136.248 43.6609 136.618 44.1242C136.935 44.5095 137.187 44.9441 137.364 45.4107C137.71 46.3196 137.615 47.1104 137.413 48.6458C137.288 49.4466 137.123 50.2406 136.918 51.0248C136.562 52.6883 136.093 54.8829 136.896 57.1525C137.321 58.3064 137.999 59.3509 138.879 60.2102C139.799 61.1692 140.902 61.9333 142.124 62.457C142.128 62.4602 142.13 62.4641 142.132 62.4685C142.134 62.4729 142.135 62.4777 142.135 62.4825C142.135 62.4873 142.134 62.4921 142.132 62.4965C142.13 62.5009 142.127 62.5048 142.124 62.5079C142.12 62.5095 142.116 62.5103 142.112 62.5103C142.107 62.5103 142.103 62.5095 142.1 62.5079C137.999 62.6606 134.898 60.3148 134.898 60.3148C131.729 57.9178 130.33 54.5322 130.067 52.7742C129.901 51.4291 129.884 50.0699 130.016 48.7212Z" fill="#FEF08A"/>
<path d="M133.014 48.9113C133.518 47.2657 134.494 45.8037 135.82 44.7059C136.077 44.4965 136.345 44.3021 136.624 44.124C136.941 44.5093 137.193 44.9438 137.37 45.4104C137.717 46.3193 137.621 47.1101 137.419 48.6456C137.294 49.4464 137.129 50.2404 136.925 51.0246C136.569 52.6881 136.099 54.8827 136.903 57.1523C137.328 58.3061 138.006 59.3507 138.886 60.2099C139.806 61.1689 140.909 61.933 142.13 62.4567C142.134 62.4599 142.137 62.4639 142.139 62.4683C142.141 62.4727 142.142 62.4774 142.142 62.4823C142.142 62.4871 142.141 62.4918 142.139 62.4962C142.137 62.5006 142.134 62.5045 142.13 62.5077C141.861 62.4266 141.584 62.3334 141.303 62.2232C140.418 61.875 139.578 61.4214 138.801 60.8722C138.004 60.2878 137.273 59.6178 136.622 58.8743C135.813 58.0532 135.084 57.1566 134.445 56.197C133.931 55.3724 132.045 52.3515 133.014 48.9113Z" fill="#FFD500"/>
<path d="M127.537 44.1033C127.751 43.0279 128.167 42.0026 128.763 41.0815C129.295 40.268 130.438 38.5199 132.012 38.5256C132.292 38.5196 132.571 38.5701 132.831 38.674C133.091 38.7779 133.327 38.9332 133.526 39.1304C133.642 39.2618 133.736 39.4113 133.804 39.5731C133.907 39.8228 133.963 40.0897 133.968 40.36C134.01 42.1682 131.216 43.056 129.87 45.2742C129.33 46.1702 128.817 47.6342 129.194 50.0405C129.226 50.2412 129.264 50.4501 129.309 50.6671C129.311 50.6825 129.309 50.6984 129.303 50.7126C129.296 50.7269 129.285 50.7387 129.271 50.7464C129.258 50.7541 129.242 50.7573 129.226 50.7556C129.211 50.7539 129.196 50.7474 129.184 50.737C128.234 49.7609 127.595 48.5258 127.346 47.1872C127.201 46.1569 127.266 45.108 127.537 44.1033Z" fill="#60A5FA"/>
<path d="M128.747 45.0787C128.961 44.0033 129.377 42.978 129.972 42.0569C130.505 41.2434 131.648 39.4953 133.222 39.501C133.417 39.5029 133.612 39.5272 133.802 39.5734C133.906 39.8231 133.962 40.09 133.967 40.3603C134.009 42.1685 131.215 43.0564 129.868 45.2745C129.328 46.1705 128.815 47.6345 129.193 50.0408C128.884 49.4517 128.669 48.818 128.556 48.1626C128.411 47.1323 128.476 46.0834 128.747 45.0787Z" fill="#93C5FD"/>
<path d="M123.855 40.2098C124.113 39.2716 124.665 37.2568 126.163 36.7793C126.428 36.6878 126.708 36.6506 126.988 36.67C127.267 36.6893 127.54 36.7648 127.79 36.8919L127.843 36.9261C128.195 37.1686 128.456 37.5201 128.588 37.9262C129.199 39.6272 126.807 41.3319 126.215 43.8537C125.983 44.8479 125.941 46.3475 126.961 48.4431C127.072 48.6862 127.202 48.9148 127.338 49.1725C127.345 49.1864 127.348 49.2023 127.346 49.2179C127.344 49.2335 127.337 49.248 127.326 49.2595C127.315 49.271 127.301 49.2788 127.286 49.2819C127.27 49.2849 127.254 49.2831 127.24 49.2765C126.036 48.6392 125.049 47.6593 124.403 46.4609C123.944 45.5272 123.681 44.5096 123.629 43.4707C123.498 42.3792 123.575 41.2729 123.855 40.2098Z" fill="#FEF08A"/>
<path d="M125.069 40.4567C125.328 39.5184 125.879 37.5037 127.377 37.0262C127.529 36.9783 127.686 36.9448 127.844 36.9259C128.196 37.1685 128.457 37.5199 128.589 37.926C129.2 39.627 126.808 41.3318 126.216 43.8535C125.984 44.8477 125.942 46.3474 126.962 48.443C126.417 47.9423 125.962 47.3512 125.618 46.6957C125.159 45.7619 124.896 44.7444 124.844 43.7054C124.715 42.618 124.791 41.5159 125.069 40.4567Z" fill="#FFD500"/>
<path d="M118.791 40.7984C118.954 40.5714 119.161 40.3796 119.401 40.2345C119.64 40.0894 119.906 39.994 120.183 39.954C120.508 39.9311 120.833 39.9986 121.122 40.1491C121.23 40.2042 121.334 40.267 121.433 40.3371C122.916 41.3763 121.946 44.1467 122.919 46.5479C123.239 47.3378 123.884 48.3424 125.27 49.306C125.786 49.6606 126.331 49.9711 126.899 50.234C126.915 50.2399 126.928 50.2508 126.936 50.265C126.944 50.2793 126.948 50.296 126.945 50.3123C126.943 50.3287 126.935 50.3438 126.923 50.3552C126.911 50.3665 126.896 50.3734 126.879 50.3747C125.528 50.5476 124.157 50.3172 122.937 49.7126C122.023 49.2125 121.221 48.5326 120.578 47.7141C119.844 46.9014 119.27 45.9573 118.887 44.9317C118.555 44.0156 117.841 42.0521 118.791 40.7984Z" fill="#60A5FA"/>
<path d="M120.98 40.3206C121.014 40.2746 121.063 40.2165 121.124 40.1488C121.232 40.2039 121.336 40.2667 121.434 40.3368C122.917 41.3759 121.948 44.1463 122.921 46.5476C123.241 47.3374 123.886 48.342 125.272 49.3056L125.126 49.2347C124.213 48.7347 123.41 48.0548 122.767 47.2362C122.033 46.4235 121.46 45.4795 121.077 44.4538C120.745 43.5377 120.031 41.5743 120.98 40.3206Z" fill="#93C5FD"/>
<path d="M106.213 46.3353C106.261 47.6945 106.4 49.0489 106.629 50.3895C106.708 50.8495 106.805 51.3272 106.908 51.819C107.189 53.0722 107.543 54.3081 107.966 55.5206C109.231 58.9808 114.826 66.6995 124.375 68.2119C132.826 69.5498 139.225 65.2153 140.803 64.0537L140.942 63.9497C140.023 64.8699 133.452 71.2296 123.669 70.3271C117.67 69.7736 110.562 66.4933 107.79 60.6324C105.48 55.7621 106.202 48.997 106.213 46.3353Z" fill="#60A5FA"/>
<path d="M106.201 45.8381C106.208 45.9827 106.212 46.1484 106.212 46.3352L106.201 46.0144V45.8381Z" fill="#60A5FA"/>
<path d="M108.319 60.1154C106.908 57.1189 106.629 53.4278 106.629 50.4013C106.708 50.8614 106.805 51.339 106.908 51.8308C107.189 53.084 107.543 54.3199 107.966 55.5324C109.231 58.9926 114.826 66.7113 124.375 68.2237C132.826 69.5616 139.225 65.2272 140.803 64.0656C138.733 65.9269 132.671 70.5874 124.198 69.8101C118.2 69.2566 111.091 65.9763 108.319 60.1154Z" fill="#93C5FD"/>
<path d="M138.842 67.1661C138.648 68.0708 138.388 68.9599 138.062 69.826C136.71 73.4145 134.268 76.4907 131.079 78.6235C126.578 81.5724 124.54 79.7974 119.963 82.6776C117.131 84.4579 115.808 86.4621 114.972 87.1019C114.72 87.2923 114.511 87.361 114.319 87.2606C113.29 86.7318 114.211 82.1488 116.26 78.6235C116.999 77.3491 118.578 74.6998 121.712 72.8948C125.089 70.9558 127.051 71.8372 131.963 70.3389C134.387 69.5929 136.701 68.5259 138.842 67.1661Z" fill="#93C5FD"/>
<path d="M138.061 69.8268C136.709 73.4154 134.267 76.4915 131.077 78.6243C126.577 81.5733 124.539 79.7983 119.962 82.6785C117.13 84.4588 115.807 86.4629 114.971 87.1028C115.103 85.326 115.964 82.5445 117.316 80.2107C118.055 78.9363 119.634 76.287 122.767 74.482C126.144 72.5431 128.106 73.4244 133.018 71.9262C134.763 71.3904 136.452 70.6874 138.061 69.8268Z" fill="#60A5FA"/>
<path d="M103.516 44.78C104.061 44.9563 104.48 45.6754 104.788 46.5761C105.318 48.1291 105.092 50.2443 105.116 50.9493C105.126 51.0096 105.116 51.0713 105.088 51.1256C104.94 51.3407 104.259 50.2443 104.259 50.2443L103.444 49.0227C102.952 48.2966 102.604 47.4837 102.417 46.6273C102.219 45.7089 102.297 45.1096 102.848 44.847C103.053 44.7388 103.293 44.7148 103.516 44.78Z" fill="#60A5FA"/>
<path d="M103.517 44.7805C104.062 44.9568 104.481 45.6759 104.789 46.5767C105.319 48.1296 105.093 50.2448 105.118 50.9499C105.127 51.0101 105.117 51.0719 105.089 51.1261C104.913 51.3147 104.412 50.1302 104.412 50.1302L103.805 48.7941C103.437 47.9982 103.224 47.1399 103.177 46.2647C103.143 45.5579 103.23 45.059 103.517 44.7805Z" fill="#93C5FD"/>
<path d="M101.052 47.9745C102.58 48.1226 103.473 50.0633 104.084 51.3906C104.706 52.7578 105.066 54.2301 105.142 55.7303C105.142 55.7391 105.133 55.7426 105.128 55.7303C105.082 55.6527 104.936 55.4165 104.706 55.0834C104.071 54.1511 103.33 53.2963 102.496 52.5363C100.908 51.1262 99.1434 50.5974 99.3199 49.1873C99.3446 48.9037 99.4275 48.6283 99.5633 48.3782C100.002 48.085 100.525 47.9432 101.052 47.9745Z" fill="#93C5FD"/>
<path d="M100.7 48.3274C102.046 48.5689 102.794 49.8592 103.378 50.8621C104.124 52.1589 104.577 53.6026 104.706 55.0925C104.072 54.1572 103.33 53.2994 102.496 52.5367C100.908 51.1265 99.1434 50.5977 99.3199 49.1876C99.3446 48.9041 99.4275 48.6287 99.5633 48.3785C99.9341 48.2808 100.322 48.2634 100.7 48.3274Z" fill="#60A5FA"/>
<path d="M100.026 51.8309C101.647 51.9667 102.755 53.4173 103.731 54.6829C104.34 55.5025 104.872 56.377 105.319 57.2952C105.828 58.2659 106.279 59.2666 106.667 60.2918C106.671 60.3003 106.671 60.3099 106.668 60.3188C106.666 60.3278 106.66 60.3354 106.652 60.3403C106.644 60.3453 106.634 60.3472 106.625 60.3457C106.616 60.3442 106.608 60.3395 106.602 60.3323C106.249 59.9798 105.896 59.659 105.557 59.3699C104.718 58.6512 103.811 58.0154 102.849 57.4715C100.432 56.1019 98.6231 55.8692 98.085 54.2987C97.9683 53.9467 97.9192 53.576 97.9403 53.2058C97.9567 52.8973 98.069 52.6015 98.2614 52.3597C98.7907 51.7269 99.7876 51.8115 100.026 51.8309Z" fill="#FFD500"/>
<path d="M99.6739 52.7125C101.295 52.8482 102.403 54.2989 103.379 55.5645C103.989 56.384 104.52 57.2586 104.967 58.1768C105.188 58.5963 105.383 58.9982 105.558 59.3772C104.719 58.6561 103.812 58.0179 102.85 57.4717C100.433 56.1021 98.6241 55.8695 98.086 54.2989C97.9693 53.947 97.9202 53.5762 97.9413 53.2061C98.4759 52.6121 99.441 52.6931 99.6739 52.7125Z" fill="#FEF08A"/>
<path d="M118.199 58.8823C120.204 58.9052 120.368 62.4975 123.14 64.8754C124.261 65.8203 125.592 66.4849 127.021 66.8143C127.686 66.9778 128.362 67.0903 129.043 67.151C129.055 67.1528 129.065 67.1585 129.074 67.1672C129.082 67.1758 129.086 67.1869 129.087 67.1986C129.088 67.2104 129.086 67.2221 129.079 67.232C129.073 67.2419 129.063 67.2494 129.052 67.2532C127.875 67.5817 126.655 67.7309 125.433 67.6956C124.463 67.6692 121.583 67.5493 119.082 65.5804C118.274 64.9688 117.611 64.1863 117.141 63.2889C116.926 62.8624 115.86 60.756 116.788 59.5873C116.915 59.4318 117.064 59.2968 117.233 59.1872C117.517 58.9913 117.854 58.8851 118.199 58.8823Z" fill="#FFD500"/>
<path d="M117.493 59.7627C119.497 59.7856 119.661 63.378 122.433 65.7558C123.555 66.7008 124.885 67.3654 126.315 67.6947C125.988 67.7088 125.695 67.7088 125.432 67.6947C124.462 67.6683 121.583 67.5484 119.081 65.5795C118.273 64.9679 117.61 64.1854 117.14 63.2881C116.951 62.9144 116.113 61.2592 116.526 60.0677C116.811 59.8718 117.147 59.7656 117.493 59.7627Z" fill="#FEF08A"/>
<path d="M113.654 55.296C113.806 55.2895 113.957 55.3178 114.095 55.3789C114.21 55.4259 114.311 55.4989 114.392 55.5921C115.054 56.3554 113.751 57.6175 113.78 59.4577C113.79 60.2333 114.021 61.2486 114.893 62.4384C114.896 62.4407 114.898 62.4435 114.899 62.4467C114.901 62.4499 114.901 62.4534 114.901 62.4569C114.901 62.4604 114.901 62.4638 114.899 62.467C114.898 62.4702 114.896 62.4731 114.893 62.4754C114.889 62.4785 114.884 62.4802 114.879 62.4802C114.874 62.4802 114.869 62.4785 114.865 62.4754C114.347 62.143 113.883 61.7348 113.487 61.2644C113.173 60.889 112.252 59.7644 112.164 58.1621C112.124 57.6534 112.198 57.1423 112.381 56.6656C112.463 56.4418 112.906 55.3366 113.654 55.296Z" fill="#60A5FA"/>
<path d="M114.095 55.3781C114.209 55.4251 114.311 55.4981 114.391 55.5914C115.053 56.3546 113.751 57.6167 113.779 59.4569C113.79 60.2325 114.021 61.2478 114.893 62.4376C114.895 62.4399 114.897 62.4428 114.899 62.4459C114.9 62.4491 114.901 62.4526 114.901 62.4561C114.901 62.4596 114.9 62.4631 114.899 62.4663C114.897 62.4695 114.895 62.4723 114.893 62.4746C114.442 62.093 114.048 61.6483 113.725 61.1544C113.458 60.7437 112.682 59.5186 112.782 57.9163C112.805 57.4069 112.939 56.9086 113.176 56.4568C113.259 56.2964 113.612 55.6583 114.095 55.3781Z" fill="#93C5FD"/>
<path d="M111.67 67.6955C114.014 68.0073 116.228 68.9519 118.075 70.4277C118.075 70.4277 117.111 70.3148 115.797 70.202C113.632 70.0258 110.518 69.8354 109.202 70.1668C107.084 70.6956 107.261 71.0481 107.261 71.0481C107.261 71.0481 107.781 71.3002 108.485 71.6034C107.132 72.0211 107.261 72.282 107.261 72.282C107.261 72.282 109.23 73.2409 110.79 73.6921C111.409 73.8684 113.814 74.5364 116.543 73.879C117.329 73.6723 118.102 73.4193 118.858 73.121C116.982 75.2609 115.728 75.8038 115.728 75.8038C114.134 76.495 112.374 76.7105 110.661 76.4243C109.073 76.1528 107.908 75.7192 106.67 74.6722C105.117 73.3643 103.66 71.9013 102.979 71.071C102.702 70.7361 102.554 70.5034 102.577 70.4277C102.719 69.957 103.129 69.6433 103.974 69.2378C105.558 68.4764 108.118 67.246 111.67 67.6955Z" fill="#93C5FD"/>
<path d="M111.671 68.9294C113.109 69.1136 114.505 69.5442 115.798 70.202C113.633 70.0258 110.519 69.8354 109.202 70.1668C107.085 70.6956 107.262 71.0481 107.262 71.0481C107.262 71.0481 107.782 71.3002 108.486 71.6034C107.133 72.0211 107.262 72.282 107.262 72.282C107.262 72.282 109.231 73.2409 110.79 73.6921C111.41 73.8684 113.814 74.5364 116.544 73.879C117.33 73.6723 118.103 73.4193 118.859 73.121C116.983 75.2609 115.729 75.8038 115.729 75.8038C114.135 76.495 112.375 76.7105 110.661 76.4243C109.074 76.1528 107.909 75.7192 106.671 74.6722C105.118 73.3643 103.661 71.9013 102.979 71.071C103.284 70.8287 103.618 70.6272 103.975 70.4717C105.559 69.7102 108.119 68.4799 111.671 68.9294Z" fill="#60A5FA"/>
<path d="M102.067 59.7047C103.143 59.8087 104.881 59.9761 106.603 61.3404C107.735 62.2492 108.598 63.4492 109.098 64.8111C109.068 64.7882 108.771 64.5591 108.336 64.2365C107.277 63.4556 105.41 62.1213 104.519 61.8551C103.238 61.4638 103.219 61.7 103.219 61.7C103.219 61.7 103.302 61.8269 103.434 62.0191C103.796 62.56 104.194 63.0759 104.625 63.5632C105.434 64.4457 106.454 65.1087 107.589 65.4898C108.595 65.8088 109.756 65.8864 109.749 66.045C109.749 66.0662 109.722 66.0873 109.671 66.1085C109.509 66.1737 109.354 66.2336 109.204 66.2847C107.169 67.0268 106.155 66.8876 106.155 66.8876C105.097 66.7447 104.103 66.2983 103.293 65.6026C102.543 64.9539 102.072 64.3564 101.753 63.4133C101.285 62.0314 100.955 60.579 100.931 60.0643C100.931 59.9603 100.931 59.888 100.954 59.8774C101.179 59.6853 101.493 59.65 102.067 59.7047Z" fill="#93C5FD"/>
<path d="M101.715 60.0578C102.791 60.1618 104.529 60.3292 106.251 61.6935C107.118 62.3849 107.829 63.2517 108.336 64.2371C107.278 63.4562 105.411 62.1219 104.52 61.8557C103.239 61.4644 103.22 61.7006 103.22 61.7006C103.22 61.7006 103.303 61.8275 103.435 62.0197C102.877 61.9192 102.867 62.0531 102.867 62.0531C103.293 62.7064 103.765 63.329 104.278 63.9163C105.087 64.7989 106.107 65.4618 107.242 65.8429C107.996 66.0809 108.839 66.1849 109.21 66.2906C107.175 67.0327 106.161 66.8934 106.161 66.8934C105.103 66.7505 104.109 66.3042 103.299 65.6085C102.549 64.9598 102.078 64.3622 101.759 63.4192C101.291 62.0373 100.961 60.5848 100.937 60.0701C101.193 60.0238 101.456 60.0196 101.715 60.0578Z" fill="#60A5FA"/>
<path d="M179.839 46.3353C179.791 47.6945 179.652 49.0489 179.423 50.3895C179.343 50.8495 179.246 51.3272 179.144 51.819C178.863 53.0722 178.509 54.3081 178.085 55.5206C176.82 58.9808 171.226 66.6995 161.677 68.2119C153.226 69.5498 146.826 65.2153 145.249 64.0537L145.11 63.9497C146.029 64.8699 152.599 71.2296 162.383 70.3271C168.382 69.7736 175.49 66.4933 178.262 60.6324C180.571 55.7621 179.85 48.997 179.839 46.3353Z" fill="#60A5FA"/>
<path d="M179.851 45.8384C179.844 45.9829 179.84 46.1486 179.84 46.3354L179.851 46.0147V45.8384Z" fill="#60A5FA"/>
<path d="M177.733 60.1156C179.144 57.1191 179.423 53.4281 179.423 50.4016C179.343 50.8616 179.246 51.3393 179.144 51.8311C178.863 53.0842 178.509 54.3201 178.085 55.5327C176.82 58.9928 171.226 66.7116 161.677 68.2239C153.226 69.5618 146.826 65.2274 145.249 64.0658C147.319 65.9272 153.381 70.5877 161.853 69.8104C167.852 69.2569 174.961 65.9765 177.733 60.1156Z" fill="#93C5FD"/>
<path d="M147.21 67.1663C147.404 68.071 147.664 68.9601 147.99 69.8262C149.342 73.4148 151.784 76.4909 154.973 78.6237C159.474 81.5727 161.512 79.7977 166.089 82.6779C168.92 84.4582 170.244 86.4623 171.08 87.1022C171.332 87.2925 171.54 87.3613 171.733 87.2608C172.761 86.732 171.84 82.1491 169.792 78.6237C169.053 77.3493 167.474 74.7 164.34 72.895C160.963 70.9561 159.001 71.8374 154.089 70.3391C151.665 69.5932 149.351 68.5261 147.21 67.1663Z" fill="#93C5FD"/>
<path d="M147.99 69.8268C149.342 73.4154 151.784 76.4915 154.973 78.6243C159.474 81.5733 161.512 79.7983 166.089 82.6785C168.921 84.4588 170.244 86.4629 171.08 87.1028C170.948 85.326 170.087 82.5445 168.735 80.2107C167.996 78.9363 166.417 76.287 163.283 74.482C159.906 72.5431 157.944 73.4244 153.032 71.9262C151.288 71.3904 149.599 70.6874 147.99 69.8268Z" fill="#60A5FA"/>
<path d="M182.536 44.78C181.99 44.9563 181.572 45.6754 181.263 46.5761C180.734 48.1291 180.96 50.2443 180.935 50.9493C180.926 51.0096 180.936 51.0713 180.963 51.1256C181.112 51.3407 181.793 50.2443 181.793 50.2443L182.608 49.0227C183.099 48.2966 183.448 47.4837 183.635 46.6273C183.832 45.7089 183.755 45.1096 183.204 44.847C182.998 44.7388 182.759 44.7148 182.536 44.78Z" fill="#60A5FA"/>
<path d="M182.534 44.7805C181.989 44.9568 181.571 45.6759 181.262 46.5767C180.733 48.1296 180.959 50.2448 180.934 50.9499C180.925 51.0101 180.935 51.0719 180.962 51.1261C181.139 51.3147 181.64 50.1302 181.64 50.1302L182.247 48.7941C182.614 47.9982 182.828 47.1399 182.875 46.2647C182.909 45.5579 182.822 45.059 182.534 44.7805Z" fill="#93C5FD"/>
<path d="M184.999 47.9745C183.471 48.1226 182.579 50.0633 181.968 51.3906C181.345 52.7578 180.986 54.2301 180.91 55.7303C180.91 55.7391 180.918 55.7426 180.924 55.7303C180.97 55.6527 181.116 55.4165 181.345 55.0834C181.98 54.1511 182.722 53.2963 183.556 52.5363C185.144 51.1262 186.908 50.5974 186.732 49.1873C186.707 48.9037 186.624 48.6283 186.488 48.3782C186.049 48.085 185.526 47.9432 184.999 47.9745Z" fill="#93C5FD"/>
<path d="M185.352 48.3276C184.006 48.5691 183.258 49.8594 182.674 50.8624C181.928 52.1591 181.475 53.6029 181.345 55.0928C181.98 54.1574 182.722 53.2996 183.556 52.5369C185.144 51.1268 186.908 50.598 186.732 49.1878C186.707 48.9043 186.624 48.6289 186.488 48.3788C186.118 48.2811 185.73 48.2636 185.352 48.3276Z" fill="#60A5FA"/>
<path d="M186.026 51.8309C184.405 51.9667 183.297 53.4173 182.321 54.6829C181.711 55.5025 181.18 56.377 180.733 57.2952C180.223 58.2659 179.773 59.2666 179.385 60.2918C179.381 60.3003 179.381 60.3099 179.383 60.3188C179.386 60.3278 179.392 60.3354 179.4 60.3403C179.408 60.3453 179.417 60.3472 179.427 60.3457C179.436 60.3442 179.444 60.3395 179.45 60.3323C179.803 59.9798 180.156 59.659 180.495 59.3699C181.334 58.6512 182.241 58.0154 183.203 57.4715C185.62 56.1019 187.429 55.8692 187.967 54.2987C188.083 53.9467 188.133 53.576 188.111 53.2058C188.095 52.8973 187.983 52.6015 187.79 52.3597C187.261 51.7269 186.264 51.8115 186.026 51.8309Z" fill="#FFD500"/>
<path d="M186.378 52.7128C184.756 52.8485 183.648 54.2992 182.673 55.5648C182.063 56.3843 181.532 57.2588 181.085 58.1771C180.864 58.5966 180.668 58.9985 180.494 59.3774C181.333 58.6563 182.24 58.0181 183.202 57.472C185.619 56.1024 187.428 55.8697 187.966 54.2992C188.082 53.9472 188.132 53.5765 188.11 53.2063C187.576 52.6123 186.611 52.6934 186.378 52.7128Z" fill="#FEF08A"/>
<path d="M167.853 58.8823C165.849 58.9052 165.685 62.4975 162.913 64.8754C161.792 65.8203 160.461 66.4849 159.032 66.8143C158.367 66.9778 157.691 67.0903 157.01 67.151C156.998 67.1528 156.987 67.1585 156.979 67.1672C156.971 67.1758 156.966 67.1869 156.965 67.1986C156.964 67.2104 156.967 67.2221 156.974 67.232C156.98 67.2419 156.99 67.2494 157.001 67.2532C158.178 67.5817 159.398 67.7309 160.62 67.6956C161.59 67.6692 164.469 67.5493 166.971 65.5804C167.779 64.9688 168.442 64.1863 168.912 63.2889C169.127 62.8624 170.193 60.756 169.265 59.5873C169.138 59.4318 168.988 59.2968 168.82 59.1872C168.536 58.9913 168.199 58.8851 167.853 58.8823Z" fill="#FFD500"/>
<path d="M168.56 59.763C166.556 59.7859 166.391 63.3782 163.62 65.756C162.498 66.701 161.168 67.3656 159.738 67.695C160.064 67.7091 160.357 67.7091 160.62 67.695C161.591 67.6686 164.47 67.5487 166.972 65.5798C167.78 64.9681 168.443 64.1856 168.913 63.2883C169.102 62.9146 169.94 61.2595 169.527 60.0679C169.242 59.872 168.905 59.7658 168.56 59.763Z" fill="#FEF08A"/>
<path d="M172.397 55.296C172.246 55.2895 172.095 55.3178 171.956 55.3789C171.842 55.4259 171.741 55.4989 171.66 55.5921C170.998 56.3554 172.3 57.6175 172.272 59.4577C172.262 60.2333 172.03 61.2486 171.159 62.4384C171.156 62.4407 171.154 62.4435 171.153 62.4467C171.151 62.4499 171.15 62.4534 171.15 62.4569C171.15 62.4604 171.151 62.4638 171.153 62.467C171.154 62.4702 171.156 62.4731 171.159 62.4754C171.163 62.4785 171.168 62.4802 171.173 62.4802C171.178 62.4802 171.183 62.4785 171.187 62.4754C171.705 62.143 172.169 61.7348 172.565 61.2644C172.879 60.889 173.8 59.7644 173.888 58.1621C173.927 57.6534 173.853 57.1423 173.671 56.6656C173.588 56.4418 173.145 55.3366 172.397 55.296Z" fill="#60A5FA"/>
<path d="M171.957 55.3781C171.843 55.4251 171.741 55.4981 171.66 55.5914C170.999 56.3546 172.301 57.6167 172.273 59.4569C172.262 60.2325 172.031 61.2478 171.159 62.4376C171.157 62.4399 171.154 62.4428 171.153 62.4459C171.152 62.4491 171.151 62.4526 171.151 62.4561C171.151 62.4596 171.152 62.4631 171.153 62.4663C171.154 62.4695 171.157 62.4723 171.159 62.4746C171.61 62.093 172.004 61.6483 172.327 61.1544C172.594 60.7437 173.37 59.5186 173.269 57.9163C173.247 57.4069 173.113 56.9086 172.876 56.4568C172.793 56.2964 172.44 55.6583 171.957 55.3781Z" fill="#93C5FD"/>
<path d="M174.382 67.6955C172.038 68.0073 169.824 68.9519 167.977 70.4277C167.977 70.4277 168.94 70.3148 170.255 70.202C172.42 70.0258 175.534 69.8354 176.85 70.1668C178.967 70.6956 178.791 71.0481 178.791 71.0481C178.791 71.0481 178.27 71.3002 177.566 71.6034C178.92 72.0211 178.791 72.282 178.791 72.282C178.791 72.282 176.822 73.2409 175.262 73.6921C174.643 73.8684 172.238 74.5364 169.509 73.879C168.723 73.6723 167.95 73.4193 167.194 73.121C169.069 75.2609 170.324 75.8038 170.324 75.8038C171.917 76.495 173.677 76.7105 175.391 76.4243C176.979 76.1528 178.143 75.7192 179.382 74.6722C180.935 73.3643 182.392 71.9013 183.073 71.071C183.35 70.7361 183.498 70.5034 183.475 70.4277C183.332 69.957 182.923 69.6433 182.078 69.2378C180.493 68.4764 177.933 67.246 174.382 67.6955Z" fill="#93C5FD"/>
<path d="M174.381 68.9294C172.942 69.1136 171.546 69.5442 170.254 70.202C172.419 70.0258 175.533 69.8354 176.849 70.1668C178.967 70.6956 178.79 71.0481 178.79 71.0481C178.79 71.0481 178.27 71.3002 177.566 71.6034C178.919 72.0211 178.79 72.282 178.79 72.282C178.79 72.282 176.821 73.2409 175.261 73.6921C174.642 73.8684 172.237 74.5364 169.508 73.879C168.722 73.6723 167.949 73.4193 167.193 73.121C169.069 75.2609 170.323 75.8038 170.323 75.8038C171.917 76.495 173.677 76.7105 175.39 76.4243C176.978 76.1528 178.143 75.7192 179.381 74.6722C180.934 73.3643 182.391 71.9013 183.072 71.071C182.768 70.8287 182.434 70.6272 182.077 70.4717C180.493 69.7102 177.933 68.4799 174.381 68.9294Z" fill="#60A5FA"/>
<path d="M183.985 59.7049C182.909 59.8089 181.171 59.9764 179.449 61.3407C178.317 62.2495 177.454 63.4494 176.954 64.8114C176.984 64.7885 177.28 64.5593 177.716 64.2368C178.775 63.4559 180.641 62.1215 181.532 61.8554C182.813 61.4641 182.833 61.7003 182.833 61.7003C182.833 61.7003 182.75 61.8272 182.617 62.0193C182.256 62.5602 181.858 63.0761 181.427 63.5634C180.618 64.446 179.598 65.1089 178.462 65.49C177.457 65.8091 176.296 65.8866 176.303 66.0453C176.303 66.0664 176.329 66.0876 176.38 66.1087C176.543 66.1739 176.698 66.2339 176.848 66.285C178.882 67.0271 179.897 66.8878 179.897 66.8878C180.955 66.7449 181.949 66.2986 182.759 65.6028C183.508 64.9542 183.98 64.3566 184.299 63.4136C184.766 62.0316 185.096 60.5792 185.121 60.0645C185.121 59.9605 185.121 59.8882 185.098 59.8777C184.872 59.6855 184.558 59.6503 183.985 59.7049Z" fill="#93C5FD"/>
<path d="M184.336 60.058C183.26 60.162 181.522 60.3295 179.8 61.6938C178.933 62.3851 178.222 63.252 177.715 64.2373C178.773 63.4565 180.64 62.1221 181.531 61.856C182.812 61.4647 182.831 61.7009 182.831 61.7009C182.831 61.7009 182.748 61.8278 182.616 62.0199C183.173 61.9194 183.184 62.0534 183.184 62.0534C182.758 62.7067 182.286 63.3293 181.773 63.9165C180.964 64.7991 179.944 65.462 178.808 65.8431C178.055 66.0811 177.212 66.1851 176.841 66.2909C178.876 67.0329 179.89 66.8937 179.89 66.8937C180.948 66.7508 181.942 66.3044 182.752 65.6087C183.502 64.96 183.973 64.3625 184.292 63.4195C184.76 62.0375 185.09 60.5851 185.114 60.0704C184.857 60.024 184.594 60.0199 184.336 60.058Z" fill="#60A5FA"/>
</svg>
