<svg width="250" height="452" viewBox="0 0 250 452" fill="none" xmlns="http://www.w3.org/2000/svg">
<path d="M121.661 81.8762C121.941 81.8762 122.287 81.8214 122.679 81.7849C125.428 81.4835 130.653 80.5427 132.877 76.3959C135.28 71.902 132.522 66.7048 131.681 65.3073L131.475 64.9785C128.671 60.7312 124.287 59.3885 115.585 56.758C110.252 55.1739 104.773 54.1031 99.2269 53.5611C95.036 53.1289 90.82 52.9763 86.6079 53.1044C87.0857 54.9755 87.7108 56.8077 88.4774 58.5847C94.2634 71.9385 106.387 77.7659 109.509 79.136C113.098 80.7253 116.772 82.3329 121.661 81.8762Z" fill="#8FC3FC"/>
<path d="M70.247 58.126C55.2071 55.3219 45.1867 58.126 40.3354 59.9528C32.2686 63.0126 30.9881 66.2826 30.7076 67.4974C30.3784 68.8987 30.402 70.3571 30.7765 71.7476C31.151 73.138 31.8651 74.4189 32.8575 75.4804C35.8954 78.7229 40.5504 78.4032 43.1396 78.2206C44.7474 78.111 49.2435 77.6086 56.2259 72.7402C61.8292 68.8078 66.5922 63.8434 70.247 58.126Z" fill="#8FC3FC"/>
<path d="M74.2186 101.229C74.6551 100.889 75.0616 100.513 75.4338 100.106C75.9487 99.5443 76.4029 98.9321 76.7891 98.2792C81.3787 90.8077 81.4628 79.098 81.4628 79.098C81.429 72.2377 80.1635 65.4363 77.7239 59.0034C73.0335 63.6698 68.952 68.8853 65.5723 74.5311C62.4129 79.8196 58.945 85.6288 58.0944 90.9721C57.6134 93.4433 57.9404 95.9997 59.0291 98.2792C59.3656 98.946 61.4408 102.846 65.5723 103.76C69.7038 104.673 73.3773 101.887 74.2186 101.229Z" fill="#8FC3FC"/>
<path d="M84.2725 48.0808C84.2725 51.1077 81.7616 53.5615 78.6643 53.5615C75.567 53.5615 73.0562 51.1077 73.0562 48.0808C73.0562 45.0539 75.567 42.6001 78.6643 42.6001C81.7616 42.6001 84.2725 45.0539 84.2725 48.0808Z" fill="#FFD500"/>
<path d="M68.9145 48.5532C65.0073 50.0968 57.1648 52.6086 48.3503 51.2934C44.331 50.6319 40.5235 49.0686 37.2269 46.7264C35.9083 45.8197 34.8988 44.5468 34.3292 43.0728C33.8299 41.5896 33.8299 39.9891 34.3292 38.5059C34.9438 36.8252 36.1321 35.4026 37.6943 34.4778C39.77 33.2543 42.2045 32.7432 44.6113 33.0255C49.285 33.3178 52.7622 35.7657 56.7629 38.5059C58.0435 39.4193 59.1745 40.3327 61.4366 42.1594C64.6334 44.7535 67.1759 46.9913 68.9145 48.5532Z" fill="#8FC3FC"/>
<path d="M72.1163 39.8589C65.2634 38.7401 58.8232 35.9082 53.4215 31.6383C50.0845 28.8982 44.4574 24.3952 45.0089 18.8509C45.2297 16.7514 46.2268 14.8028 47.8131 13.3705C50.7762 10.8313 54.646 11.4433 55.291 11.5438C58.6934 12.0827 60.7686 14.2839 62.8811 16.54C66.4891 20.431 67.9941 24.3952 69.3121 27.9848C70.7174 31.8224 71.6586 35.8075 72.1163 39.8589Z" fill="#8FC3FC"/>
<path d="M88.9214 43.667C90.1459 43.055 92.1275 42.0411 94.5298 40.7715C109.486 32.9255 111.355 30.7242 117.898 28.8974C121.469 27.9292 130.648 25.4265 134.723 29.8108C136.038 31.3383 136.707 33.2984 136.593 35.2912C135.985 42.2786 124.226 46.0326 120.702 47.1652C115.457 48.8356 109.906 49.3877 104.424 48.7842C98.9414 48.1807 93.6551 46.4358 88.9214 43.667Z" fill="#8FC3FC"/>
<path d="M80.5352 32.5513C76.2765 28.4536 72.6269 23.7925 69.6928 18.7043C66.7672 13.5893 66.1222 10.6847 66.5148 7.88976C66.683 6.69321 67.1598 3.32277 69.9732 1.5782C71.1777 0.853592 72.5801 0.506229 73.9924 0.582631C76.145 0.784147 78.144 1.76086 79.6005 3.3228C84.7975 8.39212 83.3393 18.2202 82.4046 24.3308C81.986 27.1116 81.3612 29.859 80.5352 32.5513Z" fill="#8FC3FC"/>
<path d="M90.3783 32.4122C89.7894 28.6765 88.3873 16.7202 95.9867 7.3397C97.8562 5.01055 101.408 0.617145 107.204 0.0325752C107.69 0.0325752 114.326 -0.597664 117.486 3.68614C120.86 8.25309 117.645 14.8751 116.551 17.1129C112.943 24.5114 105.792 27.6718 102.53 29.2611C98.7909 31.0879 90.3783 32.4122 90.3783 32.4122Z" fill="#8FC3FC"/>
<path d="M84.2739 64.743C84.2739 69.31 84.3674 91.9895 92.6866 100.146C94.1728 101.607 97.2855 104.658 100.538 103.964C103.137 103.416 104.502 100.749 104.754 100.31C106.399 97.3511 105.782 93.4783 103.903 89.1945C101.099 82.8008 94.556 73.6669 91.7518 70.0133C89.4593 67.2082 86.96 64.5706 84.2739 62.1216V64.743Z" fill="#8FC3FC"/>
<path d="M80.9441 237.464C81.623 228.21 80.1812 215.997 72.0113 206.558C63.3836 196.544 49.9349 192.749 41.4979 193.137C38.4011 193.315 35.3324 193.815 32.3439 194.628C31.4209 194.896 30.597 195.142 29.8571 195.373C36.0101 195.115 42.1581 195.988 47.982 197.946C54.1707 200.073 59.8725 203.366 64.7643 207.639C77.0689 218.443 80.1126 232.46 80.9441 237.464Z" fill="#8FC3FC"/>
<path d="M81.8049 238.506C85.6191 230.013 88.4034 218.017 83.9637 206.445C79.257 194.216 67.8832 186.231 59.7971 183.837C56.8121 182.992 53.7435 182.46 50.6431 182.249C49.6819 182.205 48.82 182.167 48.0419 182.152C53.9305 183.924 59.4247 186.765 64.2368 190.526C69.3379 194.556 73.5828 199.523 76.732 205.147C84.6503 219.351 82.7203 233.555 81.8049 238.506Z" fill="#60A5FA"/>
<path d="M78.1379 231.221C74.0643 222.848 66.6266 212.924 54.7798 208.637C42.2312 204.074 28.6146 207.25 21.4669 211.657C18.861 213.302 16.4419 215.214 14.2505 217.36C13.5868 218.039 12.9918 218.65 12.4655 219.217C17.697 216.034 23.4931 213.839 29.553 212.745C36.0111 211.62 42.6319 211.739 49.0434 213.096C65.2002 216.585 74.9111 227.3 78.1379 231.221Z" fill="#8FC3FC"/>
<path d="M79.0182 381.548C79.4759 380.981 71.573 376.948 66.1568 368.239C65.2345 366.775 64.4335 365.242 63.7615 363.653C62.4571 360.566 61.351 356.13 59.1845 347.25C58.0174 342.463 56.6748 336.356 52.319 333.083C51.4799 332.449 49.6644 331.122 47.742 331.592C47.3756 331.68 47.0272 331.829 46.7122 332.032C45.91 332.569 45.2614 333.298 44.828 334.149C42.8675 337.661 44.5305 342.045 46.2164 346.504C46.9459 348.394 47.8179 350.228 48.8253 351.992C49.6486 353.446 50.5605 354.85 51.5562 356.197C57.102 363.691 60.0618 367.695 64.5244 371.855C71.2831 378.193 78.5758 382.1 79.0182 381.548Z" fill="#8FC3FC"/>
<path d="M66.1514 368.239C65.2291 366.775 64.4282 365.242 63.7562 363.653C62.4518 360.566 61.3458 356.13 59.1794 347.25C58.0123 342.463 56.6698 336.356 52.3142 333.083C51.4751 332.449 49.6597 331.122 47.7374 331.592C47.371 331.68 47.0227 331.829 46.7076 332.032C45.4185 335.387 46.9517 339.421 48.5002 343.522C49.2297 345.411 50.1017 347.246 51.109 349.009C51.9323 350.463 52.8442 351.868 53.8398 353.215C59.1108 360.335 62.0399 364.302 66.1514 368.239Z" fill="#60A5FA"/>
<path d="M91.9882 385.289C92.4154 384.768 84.2912 380.696 79.8744 371.727C79.6379 371.264 79.4243 370.795 79.2184 370.31C78.1199 367.723 77.1968 364.01 75.4042 356.568C74.4278 352.564 73.3064 347.449 69.66 344.713C69.0295 344.207 68.3148 343.811 67.547 343.542C66.9908 343.362 66.3946 343.333 65.823 343.46C65.2897 343.64 64.7988 343.923 64.3795 344.292C63.9601 344.661 63.6209 345.108 63.3819 345.608C61.7418 348.545 63.1378 352.214 64.5491 355.949C65.6636 358.822 67.1587 361.539 68.9964 364.032C73.6344 370.31 76.1212 373.658 79.8591 377.147C85.5041 382.449 91.6068 385.752 91.9882 385.289Z" fill="#FEF08A"/>
<path d="M79.871 371.723C79.6346 371.261 79.421 370.791 79.215 370.307C78.1166 367.719 77.1936 364.006 75.401 356.565C74.4246 352.561 73.3033 347.446 69.6571 344.71C69.0266 344.204 68.3119 343.808 67.5442 343.539C67.4157 343.723 67.2985 343.915 67.1933 344.113C65.5533 347.051 66.9492 350.719 68.3604 354.455C69.4749 357.328 70.97 360.045 72.8075 362.537C75.7366 366.526 77.8038 369.323 79.871 371.723Z" fill="#FFD500"/>
<path d="M104.819 385.027C105.101 384.602 98.3348 381.978 94.6274 375.103L94.4214 374.715C93.0932 371.714 91.932 368.646 90.9429 365.522C89.9665 362.704 88.8069 359.11 86.0073 357.38C85.602 357.112 85.1604 356.902 84.6953 356.754C84.2006 356.589 83.6643 356.589 83.1696 356.754C82.7989 356.918 82.4655 357.153 82.1891 357.445C81.9126 357.737 81.6988 358.08 81.56 358.454C80.5836 360.69 81.8347 363.211 83.0857 365.798C83.6356 366.894 84.2653 367.951 84.9699 368.959C85.5495 369.786 86.176 370.58 86.8465 371.338C90.6073 375.536 92.6211 377.787 95.5352 380.039C99.9977 383.417 104.575 385.385 104.819 385.027Z" fill="#8FC3FC"/>
<path d="M94.4164 374.712C93.0882 371.711 91.9271 368.642 90.938 365.519C89.9616 362.701 88.8022 359.107 86.0027 357.377C85.5973 357.109 85.1557 356.898 84.6907 356.75L84.6068 356.937C83.6304 359.174 84.8814 361.694 86.1324 364.281C86.6823 365.378 87.3119 366.434 88.0165 367.443C88.5961 368.269 89.2226 369.063 89.893 369.821C91.7161 371.804 93.1273 373.385 94.4164 374.712Z" fill="#60A5FA"/>
<path d="M117.803 385.005C117.665 385.281 114.156 384.259 110.663 382.119C108.374 380.725 106.711 379.263 103.622 376.527C103.081 376.036 102.571 375.514 102.096 374.961C101.497 374.293 100.951 373.58 100.464 372.829C99.3198 371.062 98.1756 369.324 98.7172 367.609C98.7855 367.327 98.9111 367.06 99.0867 366.826C99.2623 366.592 99.4842 366.394 99.7394 366.245C100.087 366.131 100.455 366.094 100.819 366.135C101.183 366.176 101.533 366.295 101.845 366.484C104.026 367.505 105.171 370.01 106.116 371.971C107.127 374.265 108.294 376.489 109.61 378.63C112.852 383.335 117.97 384.677 117.803 385.005Z" fill="#FFD500"/>
<path d="M89.6952 280.786C91.3548 280.786 92.9771 280.305 94.3569 279.404C95.7368 278.503 96.8122 277.222 97.4473 275.723C98.0824 274.225 98.2486 272.576 97.9248 270.985C97.6011 269.394 96.8019 267.932 95.6285 266.785C94.455 265.638 92.9599 264.857 91.3322 264.54C89.7046 264.224 88.0174 264.386 86.4842 265.007C84.951 265.628 83.6405 266.679 82.7185 268.028C81.7965 269.377 81.3044 270.962 81.3044 272.585C81.3044 274.76 82.1885 276.846 83.762 278.384C85.3356 279.922 87.4699 280.786 89.6952 280.786Z" fill="#FEF08A"/>
<path d="M92.3634 278.927C94.023 278.927 95.6453 278.446 97.0251 277.545C98.405 276.644 99.4804 275.363 100.116 273.864C100.751 272.365 100.917 270.716 100.593 269.125C100.269 267.534 99.4701 266.073 98.2967 264.926C97.1232 263.779 95.6281 262.998 94.0004 262.681C92.3728 262.365 90.6856 262.527 89.1524 263.148C87.6192 263.769 86.3087 264.82 85.3867 266.169C84.4647 267.517 83.9726 269.103 83.9726 270.725C83.9645 271.805 84.176 272.875 84.5948 273.873C85.0136 274.872 85.6314 275.779 86.4122 276.542C87.1929 277.306 88.1211 277.909 89.1428 278.319C90.1645 278.728 91.2593 278.935 92.3634 278.927Z" fill="#FFD500"/>
<path d="M84.2907 333.781C85.9503 333.781 87.5725 333.3 88.9524 332.398C90.3322 331.497 91.4077 330.216 92.0428 328.717C92.6779 327.219 92.844 325.57 92.5203 323.979C92.1965 322.388 91.3974 320.926 90.2239 319.779C89.0504 318.632 87.5553 317.851 85.9277 317.535C84.3 317.218 82.6129 317.38 81.0797 318.001C79.5465 318.622 78.236 319.673 77.314 321.022C76.392 322.371 75.8999 323.957 75.8999 325.579C75.8999 327.754 76.7839 329.84 78.3575 331.378C79.9311 332.916 82.0653 333.781 84.2907 333.781Z" fill="#FEF08A"/>
<path d="M86.9591 331.921C88.6187 331.921 90.241 331.44 91.6208 330.539C93.0007 329.638 94.0761 328.357 94.7112 326.858C95.3463 325.359 95.5125 323.71 95.1887 322.119C94.865 320.528 94.0658 319.067 92.8924 317.92C91.7189 316.773 90.2238 315.992 88.5961 315.675C86.9685 315.359 85.2813 315.521 83.7481 316.142C82.2149 316.763 80.9044 317.814 79.9824 319.163C79.0604 320.511 78.5683 322.097 78.5683 323.719C78.5602 324.799 78.7717 325.869 79.1905 326.867C79.6093 327.866 80.2271 328.773 81.0079 329.537C81.7886 330.3 82.7168 330.904 83.7385 331.313C84.7602 331.722 85.855 331.929 86.9591 331.921Z" fill="#FFD500"/>
<path d="M75.3024 306.822C76.962 306.822 78.5842 306.341 79.9641 305.439C81.344 304.538 82.4194 303.257 83.0545 301.758C83.6896 300.26 83.8558 298.611 83.532 297.02C83.2082 295.429 82.4091 293.967 81.2356 292.82C80.0622 291.673 78.567 290.892 76.9394 290.576C75.3117 290.259 73.6246 290.422 72.0914 291.042C70.5582 291.663 69.2477 292.714 68.3257 294.063C67.4037 295.412 66.9116 296.998 66.9116 298.62C66.9116 300.795 67.7956 302.881 69.3692 304.419C70.9428 305.957 73.077 306.822 75.3024 306.822Z" fill="#FEF08A"/>
<path d="M77.9706 304.962C79.6302 304.962 81.2524 304.481 82.6323 303.58C84.0122 302.679 85.0876 301.398 85.7227 299.899C86.3578 298.4 86.524 296.751 86.2002 295.16C85.8764 293.569 85.0773 292.108 83.9038 290.961C82.7304 289.814 81.2352 289.033 79.6076 288.716C77.9799 288.4 76.2928 288.562 74.7596 289.183C73.2264 289.804 71.9159 290.855 70.9939 292.204C70.0719 293.552 69.5798 295.138 69.5798 296.76C69.5717 297.84 69.7832 298.91 70.202 299.908C70.6208 300.907 71.2386 301.814 72.0193 302.578C72.8001 303.341 73.7283 303.945 74.75 304.354C75.7717 304.763 76.8665 304.97 77.9706 304.962Z" fill="#FFD500"/>
<path d="M136.084 267.658C136.084 265.838 136.084 263.721 136.191 261.342C136.617 252.796 138.382 244.364 141.424 236.342C149.815 214.473 162.318 210.827 165.834 190.859C166.544 186.613 166.861 182.313 166.78 178.012C166.674 167.991 164.82 159.431 163.554 159.372C163.203 159.372 162.92 159.99 162.791 160.281C161.7 162.622 158.214 165.821 151.348 172.211C145.017 178.079 140.562 180.219 133.803 185.632C125.412 192.343 117.921 198.345 113.504 208.045C108.065 219.975 110.018 231.532 110.918 235.589C115.472 256.235 133.185 266.099 136.084 267.658Z" fill="#8FC3FC"/>
<path d="M136.193 261.322C136.619 252.776 138.384 244.344 141.426 236.321C149.818 214.452 162.32 210.806 165.837 190.839C166.547 186.593 166.863 182.293 166.783 177.992L166.6 178.163C160.268 184.031 155.813 186.171 149.055 191.584C140.664 198.295 133.173 204.297 128.756 213.998C123.317 225.927 125.27 237.484 126.17 241.541C127.81 248.835 131.251 255.626 136.193 261.322Z" fill="#60A5FA"/>
<path d="M104.049 228.144C103.738 223.768 103.971 219.372 104.743 215.051C105.458 211.049 106.766 207.171 108.626 203.538C113.203 194.643 121.35 187.098 126.934 181.915C132.518 176.733 140.947 169.784 141.428 163.275C141.483 162.613 141.483 161.947 141.428 161.284C141.354 159.837 140.821 158.448 139.902 157.31C138.89 156.207 137.56 155.427 136.088 155.073C130.382 153.381 124.645 156.736 122.357 158.056C120.721 159.023 119.188 160.147 117.78 161.411C113.203 165.296 106.772 173.035 102.523 190.117C96.4205 214.723 104.049 228.144 104.049 228.144Z" fill="#FFD500"/>
<path d="M104.746 215.051C105.461 211.05 106.769 207.171 108.628 203.539C113.205 194.644 121.352 187.098 126.936 181.916C132.52 176.734 140.95 169.785 141.43 163.275C141.486 162.613 141.486 161.947 141.43 161.285C141.148 161.188 140.889 161.106 140.667 161.039C134.961 159.346 129.225 162.701 126.936 164.021C125.301 164.988 123.768 166.112 122.359 167.376C117.782 171.261 111.352 179.001 107.103 196.083C105.511 202.285 104.719 208.657 104.746 215.051Z" fill="#FEF08A"/>
<path d="M87.7066 184.383C92.1616 171.447 92.6116 169.985 92.6116 169.985C95.8384 159.487 97.448 154.245 97.1886 147.095C97.1276 145.455 97.0589 143.844 96.8835 142.248C96.5887 138.588 95.3785 135.055 93.3592 131.959C88.5915 124.794 80.4521 121.886 77.3397 120.775C74.5906 119.867 71.7886 119.12 68.9485 118.538C67.194 118.135 64.7224 117.792 59.7945 117.129C59.7258 117.129 59.6572 117.129 59.5886 117.129C57.9561 116.912 57.7349 116.89 57.4755 117.076C54.8742 118.911 61.0913 131.989 65.8667 140.191C68.4908 144.701 68.5824 144.135 70.4437 147.647C73.5181 153.556 75.8245 159.818 77.3092 166.287C79.0027 173.467 78.7433 176.48 79.3841 176.495C80.536 176.495 82.588 166.608 81.6726 155.438C81.5429 153.85 81.3598 152.24 81.1005 150.629C79.7655 142.278 77.2329 138.282 76.5235 137.208C74.2883 133.838 71.6489 131.549 71.9464 131.243C72.244 130.937 75.4097 133.003 78.0491 135.791C79.2552 137.088 80.3071 138.513 81.1844 140.041L81.0929 139.445C79.7579 131.094 77.2253 127.097 76.5159 126.024C74.2808 122.654 71.6414 120.365 71.9389 120.059C72.2364 119.753 75.4021 121.819 78.0415 124.607C80.4902 127.187 81.5735 129.737 82.6185 131.243C85.5173 135.441 85.975 140.079 86.4327 144.664C86.4327 145.059 86.4861 146.543 86.5929 148.705C86.6692 150.338 86.6463 158.242 86.5929 159.89C86.5242 162.127 86.1733 163.834 85.9292 166.295C85.7995 167.532 85.7004 168.964 85.6699 170.768C85.5996 175.337 86.0214 179.901 86.9285 184.383C86.9285 184.484 86.9695 184.581 87.0425 184.652C87.1155 184.723 87.2144 184.763 87.3176 184.763C87.4208 184.763 87.5197 184.723 87.5927 184.652C87.6657 184.581 87.7066 184.484 87.7066 184.383Z" fill="#60A5FA"/>
<path d="M87.7041 173.201C92.159 160.264 92.6091 158.803 92.6091 158.803C94.829 151.57 96.286 146.836 96.8962 142.25C96.6014 138.59 95.3912 135.057 93.3719 131.961C88.6042 124.795 80.4648 121.887 77.3524 120.776C74.6034 119.868 71.8013 119.121 68.9613 118.54C67.2067 118.137 64.7352 117.794 59.8073 117.13C61.6261 121.182 63.6632 125.137 65.9099 128.978C68.5341 133.489 68.6256 132.923 70.4869 136.434C73.5613 142.344 75.8677 148.606 77.3524 155.075C79.0459 162.255 78.7865 165.267 79.4273 165.282C80.0681 165.297 81.2657 161.256 81.7158 155.41C81.5861 153.822 81.4031 152.212 81.1437 150.601C79.8087 142.25 77.2761 138.254 76.5667 137.18C74.3316 133.81 71.6922 131.521 71.9897 131.215C72.2872 130.909 75.453 132.975 78.0924 135.763C79.2985 137.06 80.3503 138.485 81.2276 140.013L81.1361 139.417C79.8011 131.066 77.2685 127.069 76.5591 125.996C74.324 122.626 71.6846 120.337 71.9821 120.031C72.2796 119.725 75.4454 121.79 78.0848 124.579C80.5335 127.159 81.6167 129.709 82.6618 131.215C85.5605 135.413 86.0182 140.051 86.4759 144.636C86.8574 148.506 86.3462 162.531 85.9724 166.259C86.1787 168.569 86.5123 170.866 86.9718 173.141C86.9637 173.236 86.9945 173.33 87.0574 173.403C87.1204 173.476 87.2103 173.521 87.3074 173.529C87.4045 173.537 87.5009 173.507 87.5753 173.445C87.6497 173.384 87.696 173.296 87.7041 173.201Z" fill="#8FC3FC"/>
<path d="M127.155 273.768C127.216 273.857 127.109 273.976 127.017 273.902C119.79 267.903 113.356 261.048 107.863 253.494C103.711 247.844 100.134 241.811 97.1829 235.48C91.3684 222.612 88.5044 208.656 88.7918 194.591C88.8833 191.892 90.0199 167.003 105.574 144.634C108.625 140.287 111.745 136.649 117.779 127.485C125.98 115.041 129.146 108.144 130.748 104.371C131.152 103.424 134.974 94.3052 136.087 86.4762C136.487 83.7134 136.719 80.9298 136.782 78.1402C136.782 76.649 136.782 73.6665 136.782 73.6665C136.782 73.6665 142.953 81.2569 138.376 99.1517C133.799 117.046 110.609 145.194 105.803 154.603C104.14 157.862 91.7439 183.802 94.8944 210.994C95.6843 218.963 97.7433 226.761 100.997 234.108C102.424 237.285 104.171 240.543 112.44 252.749C116.025 258.043 120.999 265.245 127.155 273.768Z" fill="#8FC3FC"/>
<path d="M141.671 83.8665C141.653 83.8966 141.627 83.9205 141.595 83.935C141.563 83.9495 141.527 83.9537 141.492 83.9471C141.458 83.9405 141.426 83.9234 141.402 83.8982C141.378 83.873 141.362 83.8411 141.358 83.8069C141.03 81.5699 140.282 75.2168 142.189 71.5929C142.394 71.0865 142.702 70.6266 143.096 70.2418C143.49 69.8569 143.96 69.5554 144.478 69.3559C145.009 69.2095 145.57 69.2013 146.105 69.3321C146.641 69.4629 147.132 69.7282 147.53 70.1016C148.964 71.5929 147.896 74.3668 147.53 75.3212C146.904 76.9393 146.149 77.5582 144.478 79.7952C143.448 81.1225 142.518 82.487 141.671 83.8665Z" fill="#60A5FA"/>
<path d="M100.295 184.086C102.789 174.304 106.29 167.989 109.914 163.836C111.91 161.511 114.315 159.554 117.016 158.057C120.693 156.051 123.881 155.544 130.747 151.346C130.747 151.346 143.433 143.607 143.715 137.18C143.734 136.733 143.708 136.287 143.639 135.845C143.536 135.058 143.277 134.298 142.876 133.608C142.167 132.657 141.203 131.914 140.092 131.461C137.803 130.529 131.7 130.506 123.904 135.681C113.644 142.466 109.128 152.457 106.359 158.795C102.877 166.823 100.814 175.369 100.256 184.072C100.188 184.131 100.279 184.146 100.295 184.086Z" fill="#8FC3FC"/>
<path d="M109.912 163.834C111.908 161.51 114.313 159.553 117.014 158.056C120.691 156.05 123.879 155.543 130.745 151.345C130.745 151.345 143.431 143.605 143.713 137.178C143.732 136.732 143.706 136.285 143.637 135.844C141.211 135.016 135.246 135.165 127.694 140.161C117.433 146.946 112.917 156.937 110.148 163.275L109.912 163.834Z" fill="#60A5FA"/>
<path d="M124.02 133.337C127.351 130.669 131.195 128.679 135.325 127.483C137.987 126.738 139.444 126.738 143.289 125.612C145.196 125.053 149.391 123.83 152.107 122.264C160.025 117.716 162.871 106.099 162.024 97.6588C161.429 91.7311 158.927 86.4373 158.416 86.5491C158.286 86.5491 158.286 86.8324 158.309 87.2947C158.414 88.5174 158.38 89.7476 158.21 90.9632C157.333 96.4584 152.87 100.268 149.819 102.893C148.079 104.384 148.026 104.138 145.074 106.561C145.074 106.561 142.023 109.343 139.139 111.84C136.492 114.159 132.952 118.141 128.459 125.485C127.056 127.722 125.568 130.347 123.989 133.307L124.02 133.337Z" fill="#60A5FA"/>
<path d="M128.434 125.468C129.905 124.766 131.437 124.192 133.011 123.753C135.673 123.008 137.131 123.008 140.975 121.882C142.882 121.323 147.078 120.1 149.794 118.534C157.712 113.986 160.557 102.369 159.71 93.9287C159.473 91.6694 158.994 89.4404 158.284 87.2778C158.388 88.5005 158.355 89.7307 158.185 90.9463C157.307 96.4415 152.845 100.252 149.794 102.876C148.054 104.367 148.001 104.121 145.049 106.545C145.049 106.545 141.997 109.326 139.114 111.824C136.467 114.142 132.95 118.161 128.434 125.468Z" fill="#8FC3FC"/>
<path d="M138.097 107.86C138.063 107.874 138.026 107.877 137.99 107.87C137.954 107.862 137.921 107.845 137.896 107.819C137.87 107.793 137.854 107.761 137.847 107.726C137.841 107.69 137.845 107.654 137.86 107.621C140.351 102.776 142.315 97.6874 143.719 92.4407C145.244 86.5951 145.847 81.4876 149.058 80.5108C149.708 80.3256 150.395 80.2966 151.059 80.4265C151.723 80.5563 152.345 80.841 152.872 81.2565C156.328 84.142 152.491 93.0521 152.109 93.932C148.929 101.314 142.521 105.593 138.097 107.86Z" fill="#8FC3FC"/>
<path d="M139.077 297.857C138.329 297.834 137.584 297.754 136.849 297.619C134.981 297.171 133.282 296.211 131.952 294.852C131.349 294.293 130.8 293.697 130.266 293.13C123.576 285.927 122.539 285.07 121.211 284.212C117.229 281.61 115.109 281.886 114.17 282.117C113.821 282.205 113.481 282.325 113.156 282.475C112.411 282.831 111.741 283.319 111.18 283.914C110.584 284.546 110.125 285.289 109.83 286.099C109.535 286.909 109.41 287.769 109.464 288.627C109.583 289.663 109.975 290.652 110.6 291.497C113.11 295.069 119.083 296.344 121.28 296.776C130.777 298.603 139.069 297.991 139.077 297.857Z" fill="#8FC3FC"/>
<path d="M131.954 294.831C131.351 294.272 130.802 293.675 130.268 293.108C123.578 285.928 122.541 285.07 121.213 284.213C117.232 281.61 115.111 281.886 114.173 282.117C113.824 282.205 113.484 282.325 113.158 282.475C112.646 283.452 112.424 284.55 112.517 285.644C112.637 286.681 113.029 287.67 113.654 288.515C116.164 292.087 122.136 293.362 124.333 293.794C126.852 294.277 129.396 294.623 131.954 294.831Z" fill="#60A5FA"/>
<path d="M129.361 310.806C128.766 311.253 128.136 311.652 127.476 311.999C125.737 312.802 123.801 313.104 121.893 312.872C121.069 312.805 120.252 312.685 119.474 312.573C109.657 311.127 108.291 311.082 106.712 311.246C101.944 311.679 100.472 313.207 99.9 313.96C99.6852 314.243 99.4987 314.545 99.3432 314.863C98.9933 315.597 98.7864 316.388 98.7329 317.196C98.681 318.055 98.8055 318.915 99.099 319.725C99.3925 320.536 99.849 321.281 100.442 321.917C101.209 322.634 102.152 323.147 103.18 323.408C107.429 324.638 112.891 321.917 114.882 320.917C123.418 316.496 129.46 310.933 129.361 310.806Z" fill="#8FC3FC"/>
<path d="M121.889 312.877C121.065 312.81 120.249 312.691 119.471 312.579C109.653 311.132 108.288 311.088 106.708 311.252C101.941 311.684 100.468 313.213 99.8963 313.966C99.6815 314.248 99.495 314.551 99.3395 314.868C99.5667 315.94 100.095 316.929 100.865 317.724C101.626 318.455 102.566 318.981 103.596 319.253C107.845 320.475 113.307 317.761 115.298 316.762C117.566 315.586 119.766 314.289 121.889 312.877Z" fill="#60A5FA"/>
<path d="M134.329 303.204C134.343 303.198 134.356 303.187 134.364 303.174C134.373 303.161 134.378 303.145 134.378 303.13C134.378 303.114 134.373 303.099 134.364 303.085C134.356 303.072 134.343 303.062 134.329 303.055C133.566 302.995 131.277 302.809 129.141 302.518C128.188 302.377 127.265 302.22 126.532 302.041C123.802 301.385 121.742 300.923 121.299 300.796C118.802 300.089 116.394 299.108 114.121 297.873C112.446 296.904 110.593 296.266 108.667 295.994C106.691 295.673 103.846 295.211 101.42 296.367C100.795 296.647 100.22 297.025 99.7189 297.485C99.3786 297.809 99.0859 298.178 98.8493 298.581C98.2161 299.721 98.0445 301.052 98.3687 302.309C98.5404 302.843 98.7979 303.346 99.1315 303.801C101.969 307.566 108.667 308.648 108.667 308.648C120.453 310.579 132.185 304.368 134.329 303.204Z" fill="#8FC3FC"/>
<path d="M129.102 302.518C128.148 302.377 127.225 302.22 126.493 302.041C123.762 301.385 121.702 300.923 121.26 300.796C118.762 300.089 116.354 299.108 114.082 297.873C112.407 296.904 110.553 296.266 108.627 295.994C106.651 295.673 103.806 295.211 101.38 296.367C100.755 296.647 100.181 297.025 99.6792 297.485C99.6881 297.864 99.7471 298.24 99.8546 298.604C100.026 299.137 100.284 299.64 100.617 300.095C103.455 303.86 110.153 304.942 110.153 304.942C117.148 306.06 124.128 304.353 129.102 302.518Z" fill="#60A5FA"/>
<path d="M162.366 255.566C164.375 261.918 165.958 268.398 167.103 274.961C167.493 277.215 167.83 279.579 168.166 282.016C168.928 288.262 169.33 294.546 169.37 300.838C169.228 318.883 156.157 363.687 114.713 386.331C78.0309 406.37 41.4808 396.863 32.3188 394.089L31.5069 393.838C37.2453 396.576 77.9059 415.151 121.43 394.936C148.118 382.541 175.436 355.739 178.57 324.141C181.202 297.874 166.782 267.834 162.366 255.566Z" fill="#8FC3FC"/>
<path d="M161.599 253.251C161.804 253.93 162.06 254.701 162.367 255.564L161.889 254.065L161.599 253.251Z" fill="#8FC3FC"/>
<path d="M175.283 322.623C176.859 306.478 172.085 288.984 167.119 275.016C167.509 277.269 167.846 279.633 168.182 282.071C168.944 288.316 169.346 294.601 169.386 300.892C169.244 318.938 156.173 363.741 114.729 386.386C78.0469 406.425 41.4969 396.917 32.3349 394.143C44.9096 399.339 80.4445 410.905 118.144 393.418C144.831 381.023 172.149 354.221 175.283 322.623Z" fill="#60A5FA"/>
<path d="M172.207 243.969C169.988 245.677 169.245 249.683 169.302 254.346C169.416 262.382 173.925 271.774 174.969 275.069C175.023 275.363 175.17 275.631 175.388 275.836C176.422 276.586 177.756 270.408 177.756 270.408L179.501 263.433C180.571 259.276 180.84 254.952 180.294 250.692C179.696 246.13 178.356 243.491 175.393 243.182C174.269 243.02 173.126 243.303 172.207 243.969Z" fill="#8FC3FC"/>
<path d="M172.205 243.97C169.987 245.678 169.243 249.683 169.301 254.347C169.414 262.382 173.924 271.774 174.967 275.069C175.022 275.363 175.169 275.632 175.386 275.836C176.507 276.417 176.869 270.128 176.869 270.128L177.468 262.966C177.853 258.69 177.425 254.379 176.207 250.261C175.202 246.944 173.985 244.783 172.205 243.97Z" fill="#60A5FA"/>
<path d="M188.788 254.667C182.002 257.857 181.08 268.278 180.449 275.406C179.827 282.738 180.591 290.123 182.7 297.172C182.715 297.213 182.761 297.215 182.765 297.149C182.849 296.716 183.135 295.385 183.643 293.472C185.035 288.127 187.045 282.965 189.634 278.089C194.625 268.976 201.873 263.641 198.748 257.422C198.169 256.154 197.336 255.019 196.3 254.087C193.8 253.454 191.161 253.657 188.788 254.667Z" fill="#60A5FA"/>
<path d="M190.986 255.718C185.19 259.041 183.865 266.223 182.825 271.81C181.522 279.019 181.806 286.426 183.655 293.515C185.038 288.157 187.044 282.981 189.63 278.092C194.621 268.979 201.87 263.644 198.745 257.425C198.165 256.157 197.332 255.022 196.297 254.09C194.431 254.247 192.62 254.802 190.986 255.718Z" fill="#8FC3FC"/>
<path d="M199.836 270.781C192.6 274.068 189.883 282.581 187.471 290.023C186.012 294.805 185.002 299.714 184.453 304.685C183.702 310.001 183.273 315.358 183.169 320.726C183.166 320.772 183.179 320.817 183.206 320.854C183.233 320.891 183.273 320.916 183.318 320.926C183.362 320.936 183.409 320.929 183.449 320.907C183.489 320.885 183.52 320.849 183.536 320.806C184.581 318.6 185.677 316.541 186.761 314.651C189.443 309.957 192.572 305.535 196.105 301.446C204.977 291.16 212.915 287.119 212.813 278.987C212.772 277.172 212.39 275.38 211.685 273.706C211.104 272.309 210.102 271.128 208.82 270.328C205.347 268.275 200.9 270.301 199.836 270.781Z" fill="#FEF08A"/>
<path d="M202.903 274.271C195.667 277.557 192.95 286.071 190.538 293.513C189.079 298.295 188.069 303.203 187.52 308.174C187.194 310.473 186.952 312.649 186.771 314.684C189.447 309.98 192.572 305.546 196.103 301.447C204.975 291.16 212.912 287.12 212.811 278.988C212.77 277.172 212.387 275.381 211.683 273.707C208.249 271.842 203.942 273.8 202.903 274.271Z" fill="#FFD500"/>
<path d="M127.811 333.138C118.629 336.532 123.769 353.381 114.919 368.903C111.311 375.105 106.281 380.355 100.245 384.22C97.4568 386.065 94.532 387.693 91.4962 389.091C91.4456 389.119 91.4057 389.163 91.3829 389.216C91.3601 389.269 91.3556 389.328 91.3702 389.384C91.3849 389.44 91.4177 389.489 91.4636 389.524C91.5094 389.559 91.5657 389.578 91.6233 389.577C97.5771 389.162 103.434 387.85 108.996 385.683C113.416 383.969 126.466 378.692 134.744 365.501C137.457 361.352 139.222 356.653 139.912 351.741C140.202 349.419 141.648 337.948 135.461 334.077C134.624 333.567 133.712 333.19 132.76 332.96C131.129 332.522 129.406 332.584 127.811 333.138Z" fill="#FEF08A"/>
<path d="M132.502 336.048C123.319 339.442 128.459 356.291 119.61 371.813C116.001 378.014 110.971 383.265 104.935 387.13C106.46 386.66 107.807 386.179 108.994 385.683C113.414 383.969 126.463 378.692 134.742 365.5C137.455 361.352 139.22 356.653 139.91 351.74C140.165 349.706 141.304 340.692 137.45 335.869C135.82 335.432 134.096 335.494 132.502 336.048Z" fill="#FFD500"/>
<path d="M142.834 309.13C142.127 309.348 141.479 309.727 140.941 310.236C140.493 310.64 140.146 311.144 139.927 311.707C138.136 316.315 146.197 320.004 149.086 328.544C150.31 332.141 150.913 337.206 148.856 344.127C148.848 344.142 148.843 344.159 148.841 344.176C148.84 344.193 148.842 344.21 148.848 344.226C148.854 344.242 148.863 344.257 148.875 344.27C148.887 344.282 148.901 344.292 148.917 344.298C148.941 344.306 148.966 344.306 148.99 344.297C149.013 344.289 149.033 344.273 149.047 344.252C150.882 341.869 152.349 339.223 153.398 336.402C154.227 334.154 156.618 327.453 154.395 319.913C153.74 317.501 152.561 315.263 150.941 313.362C150.192 312.465 146.342 308.09 142.834 309.13Z" fill="#8FC3FC"/>
<path d="M140.937 310.232C140.489 310.636 140.142 311.14 139.924 311.703C138.132 316.311 146.193 320 149.083 328.54C150.307 332.137 150.909 337.202 148.852 344.123C148.844 344.138 148.839 344.155 148.838 344.172C148.836 344.189 148.838 344.206 148.844 344.222C148.85 344.239 148.859 344.253 148.871 344.266C148.883 344.278 148.897 344.288 148.913 344.294C150.361 341.793 151.441 339.095 152.12 336.285C152.671 333.952 154.232 327.024 151.14 319.794C150.202 317.479 148.767 315.4 146.936 313.703C146.291 313.099 143.621 310.733 140.937 310.232Z" fill="#60A5FA"/>
<path d="M172.3 363.105C162.029 368.389 153.393 376.381 147.321 386.222C147.321 386.222 151.567 384.121 157.429 381.444C167.098 377.079 181.111 371.092 187.71 370.462C198.317 369.429 198.084 371.346 198.084 371.346C198.084 371.346 196.103 373.363 193.362 375.917C200.273 375.625 200.108 377.041 200.108 377.041C200.108 377.041 192.624 384.697 186.19 389.338C183.63 391.167 173.664 398.196 160.029 399.639C156.074 399.974 152.103 400.074 148.136 399.938C160.275 406.738 166.937 407.186 166.937 407.186C175.402 407.761 183.852 405.869 191.265 401.737C198.124 397.879 202.77 393.967 206.749 387.103C211.746 378.519 216.049 369.376 217.82 364.427C218.544 362.427 218.844 361.11 218.615 360.798C217.185 358.86 214.787 358.083 210.234 357.598C201.696 356.683 187.901 355.204 172.3 363.105Z" fill="#60A5FA"/>
<path d="M174.323 368.802C168.008 372.012 162.292 376.289 157.427 381.445C167.097 377.08 181.11 371.093 187.708 370.464C198.315 369.431 198.082 371.348 198.082 371.348C198.082 371.348 196.101 373.365 193.36 375.919C200.271 375.627 200.107 377.043 200.107 377.043C200.107 377.043 192.622 384.698 186.188 389.34C183.628 391.169 173.662 398.198 160.027 399.641C156.073 399.976 152.101 400.076 148.135 399.94C160.274 406.74 166.935 407.187 166.935 407.187C175.401 407.763 183.85 405.871 191.263 401.739C198.123 397.881 202.768 393.969 206.748 387.105C211.744 378.521 216.047 369.378 217.818 364.429C216.022 363.809 214.152 363.428 212.257 363.295C203.719 362.38 189.924 360.901 174.323 368.802Z" fill="#8FC3FC"/>
<path d="M203.37 310.472C198.59 312.718 190.87 316.342 185.187 325.463C181.471 331.515 179.472 338.468 179.406 345.575C179.506 345.42 180.493 343.876 181.969 341.672C185.557 336.332 191.955 327.111 195.617 324.421C200.867 320.513 201.344 321.572 201.344 321.572C201.344 321.572 201.171 322.294 200.878 323.397C200.101 326.487 199.117 329.521 197.933 332.478C195.66 337.878 192.056 342.611 187.459 346.233C183.356 349.355 178.142 351.617 178.435 352.338C178.47 352.436 178.626 352.49 178.896 352.503C179.75 352.538 180.563 352.56 181.336 352.55C191.912 352.638 196.351 350.331 196.351 350.331C200.984 347.935 204.825 344.245 207.407 339.705C209.792 335.481 210.979 331.951 210.9 327.074C210.783 319.929 209.918 312.684 209.187 310.268C209.016 309.788 208.898 309.454 208.775 309.443C207.421 308.927 205.918 309.279 203.37 310.472Z" fill="#60A5FA"/>
<path d="M205.566 311.524C200.786 313.769 193.066 317.393 187.383 326.515C184.529 331.128 182.682 336.295 181.963 341.676C185.552 336.335 191.949 327.114 195.611 324.424C200.862 320.516 201.338 321.575 201.338 321.575C201.338 321.575 201.165 322.297 200.872 323.401C203.272 322.022 203.54 322.623 203.54 322.623C202.651 326.338 201.503 329.985 200.104 333.538C197.832 338.938 194.228 343.671 189.63 347.293C186.555 349.627 182.846 351.49 181.315 352.586C191.891 352.674 196.329 350.367 196.329 350.367C200.963 347.972 204.803 344.281 207.385 339.742C209.771 335.518 210.957 331.987 210.879 327.11C210.762 319.965 209.897 312.72 209.166 310.304C207.907 310.512 206.692 310.924 205.566 311.524Z" fill="#8FC3FC"/>
</svg>
