<svg width="502" height="172" viewBox="0 0 502 172" fill="none" xmlns="http://www.w3.org/2000/svg">
<path d="M317.531 142.826C317.531 143.098 317.584 143.432 317.619 143.812C317.909 146.47 318.814 151.523 322.804 153.675C327.129 155.999 332.13 153.332 333.474 152.518L333.791 152.319C337.878 149.607 339.17 145.367 341.701 136.95C343.225 131.792 344.256 126.493 344.777 121.129C345.193 117.075 345.34 112.998 345.217 108.924C343.416 109.386 341.653 109.99 339.943 110.732C327.093 116.328 321.486 128.054 320.168 131.073C318.638 134.545 317.091 138.098 317.531 142.826Z" fill="#60A5FA"/>
<path d="M340.382 93.1007C343.08 78.5543 340.382 68.8627 338.624 64.1706C335.68 56.3685 332.533 55.13 331.364 54.8588C330.016 54.5404 328.612 54.5632 327.274 54.9254C325.936 55.2875 324.704 55.9782 323.682 56.9381C320.562 59.8763 320.87 64.3786 321.046 66.8828C321.151 68.4378 321.635 72.7864 326.319 79.5397C330.103 84.9592 334.88 89.5658 340.382 93.1007Z" fill="#60A5FA"/>
<path d="M298.908 96.9427C299.236 97.3649 299.597 97.758 299.989 98.118C300.53 98.616 301.119 99.0553 301.747 99.4289C308.936 103.868 320.204 103.949 320.204 103.949C326.805 103.917 333.35 102.693 339.54 100.333C335.05 95.7965 330.031 91.8489 324.599 88.5801C319.51 85.5243 313.92 82.1703 308.778 81.3476C306.4 80.8824 303.94 81.1987 301.747 82.2516C301.105 82.5771 297.352 84.5841 296.473 88.5801C295.595 92.5761 298.275 96.129 298.908 96.9427Z" fill="#60A5FA"/>
<path d="M350.05 106.664C347.137 106.664 344.776 104.235 344.776 101.239C344.776 98.2435 347.137 95.8149 350.05 95.8149C352.962 95.8149 355.323 98.2435 355.323 101.239C355.323 104.235 352.962 106.664 350.05 106.664Z" fill="#FEF08A"/>
<path d="M417.341 54.4523C415.856 50.6733 413.439 43.0882 414.704 34.5629C415.341 30.6755 416.845 26.9929 419.099 23.8045C419.971 22.5291 421.196 21.5527 422.614 21.0019C424.042 20.5189 425.582 20.5189 427.009 21.0019C428.626 21.5962 429.995 22.7456 430.885 24.2565C432.062 26.2641 432.554 28.6187 432.282 30.9466C432.001 35.4669 429.646 38.83 427.009 42.6994C426.13 43.938 425.251 45.0319 423.493 47.2198C420.997 50.3117 418.844 52.7707 417.341 54.4523Z" fill="#60A5FA"/>
<path d="M357.961 94.9092C359.038 88.2812 361.763 82.0523 365.871 76.8278C368.508 73.6003 372.841 68.1579 378.176 68.6913C380.196 68.9048 382.071 69.8692 383.45 71.4035C385.893 74.2693 385.304 78.0122 385.207 78.636C384.689 81.9268 382.571 83.9338 380.4 85.977C376.656 89.4667 372.841 90.9222 369.387 92.197C365.694 93.5562 361.86 94.4665 357.961 94.9092Z" fill="#60A5FA"/>
<path d="M354.295 111.164C354.884 112.348 355.86 114.265 357.082 116.588C364.631 131.053 366.75 132.861 368.507 139.19C369.439 142.643 371.847 151.521 367.628 155.463C366.159 156.734 364.273 157.381 362.355 157.271C355.631 156.683 352.019 145.31 350.929 141.902C349.322 136.828 348.791 131.46 349.371 126.157C349.952 120.855 351.631 115.742 354.295 111.164Z" fill="#60A5FA"/>
<path d="M364.991 103.048C368.934 98.9293 373.419 95.3992 378.315 92.5613C383.237 89.7316 386.032 89.1078 388.721 89.4875C389.873 89.6502 393.116 90.1113 394.795 92.8325C395.492 93.9975 395.826 95.354 395.753 96.72C395.559 98.8021 394.619 100.736 393.116 102.144C388.238 107.171 378.781 105.761 372.901 104.857C370.225 104.452 367.582 103.847 364.991 103.048Z" fill="#60A5FA"/>
<path d="M470.811 114.612C474.406 114.043 485.911 112.687 494.937 120.037C497.179 121.845 501.406 125.28 501.969 130.886C501.969 131.356 502.575 137.775 498.453 140.83C494.058 144.094 487.686 140.984 485.533 139.926C478.414 136.437 475.373 129.521 473.844 126.365C472.086 122.749 470.811 114.612 470.811 114.612Z" fill="#60A5FA"/>
<path d="M334.016 106.666C329.621 106.666 307.798 106.756 299.949 114.802C298.543 116.24 295.607 119.25 296.275 122.396C296.803 124.91 299.369 126.229 299.791 126.474C302.638 128.065 306.365 127.468 310.487 125.651C316.64 122.939 325.429 116.61 328.944 113.898C331.644 111.681 334.182 109.263 336.538 106.666H334.016Z" fill="#60A5FA"/>
<path d="M111.126 88.963C120.03 89.6196 131.782 88.2251 140.865 80.3233C150.501 71.9787 154.153 58.9712 153.78 50.8111C153.609 47.8159 153.128 44.848 152.345 41.9575C152.087 41.0648 151.85 40.2679 151.628 39.5522C151.876 45.5034 151.036 51.4497 149.152 57.0825C147.105 63.0681 143.936 68.5828 139.825 73.3141C129.429 85.2149 115.941 88.1588 111.126 88.963Z" fill="#60A5FA"/>
<path d="M110.121 89.7953C118.293 93.4843 129.837 96.1773 140.973 91.8833C152.739 87.331 160.423 76.3304 162.726 68.5097C163.54 65.6226 164.052 62.6547 164.254 59.656C164.297 58.7264 164.333 57.8927 164.348 57.1401C162.643 62.8356 159.909 68.1495 156.29 72.8037C152.412 77.7374 147.633 81.843 142.221 84.8889C128.553 92.5473 114.885 90.6807 110.121 89.7953Z" fill="#93C5FD"/>
<path d="M117.132 86.2465C125.189 82.3067 134.739 75.113 138.864 63.6549C143.255 51.5181 140.199 38.3483 135.959 31.4351C134.375 28.9147 132.535 26.575 130.47 24.4555C129.817 23.8136 129.229 23.2381 128.683 22.729C131.746 27.7889 133.859 33.3948 134.911 39.2558C135.994 45.502 135.879 51.9057 134.574 58.1067C131.216 73.7334 120.906 83.1256 117.132 86.2465Z" fill="#60A5FA"/>
<path d="M33.9361 140.778H33.9791C34.137 140.682 22.7148 126.45 15.3249 100.936C11.2927 87.0215 8.53764 77.5038 9.94389 65.8908C13.0577 40.1488 35.7226 11.2933 62.3192 11.2933C63.1371 11.2933 80.7007 11.5737 92.2161 24.168C94.0642 25.9358 95.7084 27.9163 97.1164 30.0704C102.053 37.6698 106.106 50.4264 101.421 60.3204C98.6375 66.2228 93.3856 69.779 90.6592 71.8227C92.9391 70.9719 95.108 69.8345 97.1164 68.4362C97.5899 68.1042 103.853 63.6257 106.96 56.1739C112.7 42.3918 104.851 25.1862 96.0833 15.3586L95.5021 14.7241C90.2641 9.16761 83.816 4.97209 76.6901 2.48395C55.7041 -4.73915 32.2859 4.69738 18.245 19.1067C4.96465 32.7265 1.74321 49.1058 1.02574 53.0456C-6.75163 97.1146 32.207 139.413 33.9361 140.778Z" fill="#93C5FD"/>
<path d="M33.9361 140.78H33.9791C34.1369 140.684 22.7148 126.452 15.3249 100.938C11.2927 87.0234 8.53764 77.5057 9.94387 65.8927C13.0577 40.1508 35.7226 11.2953 62.3191 11.2953C63.1371 11.2953 80.7007 11.5756 92.2161 24.1699C94.0642 25.9378 95.7084 27.9182 97.1164 30.0724C102.053 37.6717 106.106 50.4284 101.421 60.3223C98.6375 66.2247 93.3856 69.7809 90.6592 71.8246C92.9391 70.9739 95.108 69.8364 97.1164 68.4381C97.5899 68.1061 103.853 63.6277 106.96 56.1759C112.7 42.3937 104.851 25.1881 96.0833 15.3606L95.5021 14.726C90.5305 9.89375 84.6032 6.22195 78.125 3.96149C57.139 -3.26161 33.7208 6.17492 19.6799 20.5842C6.39959 34.2041 3.17815 50.5833 2.46067 54.5232C-4.58488 94.4531 26.7685 132.937 33.9361 140.78Z" fill="#60A5FA"/>
<path d="M17.4978 47.1205C18.043 47.5632 21.9246 39.9196 30.3046 34.6812C31.713 33.7891 33.1885 33.0144 34.717 32.3645C37.6874 31.1028 41.9563 30.033 50.5014 27.9376C55.1075 26.8088 60.9836 25.5103 64.1333 21.2974C64.7431 20.4858 66.0202 18.7299 65.5682 16.8706C65.4835 16.5162 65.3403 16.1793 65.1449 15.8746C64.6276 15.0987 63.9263 14.4714 63.1073 14.0522C59.728 12.156 55.5093 13.7644 51.2188 15.395C49.4004 16.1006 47.6353 16.944 45.9383 17.9183C44.5392 18.7146 43.1879 19.5966 41.8917 20.5596C34.6812 25.9234 30.8284 28.7861 26.8249 33.1023C20.7264 39.6392 16.9668 46.6926 17.4978 47.1205Z" fill="#60A5FA"/>
<path d="M30.3046 34.6815C31.7129 33.7895 33.1885 33.0148 34.717 32.3648C37.6874 31.1032 41.9563 30.0334 50.5014 27.938C55.1075 26.8092 60.9836 25.5106 64.1333 21.2978C64.7431 20.4862 66.0202 18.7302 65.5682 16.871C65.4835 16.5165 65.3403 16.1796 65.1449 15.8749C61.9163 14.628 58.0348 16.111 54.0887 17.6088C52.2702 18.3144 50.5052 19.1578 48.8081 20.132C47.4091 20.9283 46.0578 21.8104 44.7616 22.7734C37.9098 27.8716 34.0928 30.7048 30.3046 34.6815Z" fill="#93C5FD"/>
<path d="M13.9005 59.6644C14.4027 60.0776 18.3201 52.22 26.9512 47.9481C27.3961 47.7194 27.8481 47.5128 28.3144 47.3136C30.804 46.2511 34.3771 45.3584 41.5374 43.6246C45.3902 42.6802 50.312 41.5956 52.9452 38.0689C53.4317 37.459 53.8128 36.7678 54.0716 36.0252C54.2454 35.4872 54.2726 34.9106 54.1505 34.3577C53.9774 33.8419 53.7054 33.3672 53.3504 32.9616C52.9954 32.556 52.5648 32.2279 52.0842 31.9968C49.2574 30.4105 45.7274 31.7607 42.1329 33.1256C39.3687 34.2036 36.7539 35.6497 34.3555 37.427C28.3144 41.9128 25.093 44.3181 21.7352 47.9333C16.634 53.393 13.4556 59.2955 13.9005 59.6644Z" fill="#FFD500"/>
<path d="M26.9529 47.95C27.3977 47.7213 27.8497 47.5147 28.3161 47.3155C30.8057 46.253 34.3787 45.3603 41.5391 43.6265C45.3919 42.6821 50.3137 41.5975 52.9468 38.0708C53.4334 37.4609 53.8144 36.7697 54.0732 36.0271C53.8958 35.9028 53.7113 35.7894 53.5208 35.6877C50.6939 34.1014 47.164 35.4516 43.5695 36.8165C40.8053 37.8945 38.1905 39.3406 35.7921 41.1179C31.9537 43.9511 29.2631 45.9505 26.9529 47.95Z" fill="#FEF08A"/>
<path d="M14.1516 72.0734C14.5606 72.3464 17.0861 65.8021 23.7011 62.2163L24.0742 62.0171C26.9619 60.7324 29.915 59.6093 32.9206 58.6527C35.6327 57.7083 39.0909 56.5869 40.7554 53.8791C41.0128 53.4871 41.2157 53.0599 41.3581 52.6101C41.5161 52.1317 41.5161 51.613 41.3581 51.1345C41.2001 50.776 40.974 50.4535 40.6931 50.1861C40.4122 49.9188 40.0821 49.7119 39.7222 49.5778C37.5698 48.6334 35.1448 49.8434 32.6552 51.0534C31.6001 51.5852 30.5834 52.1942 29.6131 52.8757C28.8178 53.4363 28.0537 54.0423 27.3244 54.6907C23.285 58.3281 21.1182 60.2759 18.9515 63.0943C15.7014 67.4105 13.8072 71.8373 14.1516 72.0734Z" fill="#60A5FA"/>
<path d="M24.0765 62.018C26.9642 60.7334 29.9173 59.6103 32.9229 58.6537C35.6349 57.7093 39.0932 56.5878 40.7577 53.8801C41.0151 53.488 41.2179 53.0609 41.3604 52.6111L41.181 52.5299C39.0286 51.5855 36.6035 52.7955 34.1139 54.0055C33.0588 54.5374 32.0422 55.1464 31.0718 55.8279C30.2766 56.3885 29.5125 56.9944 28.7831 57.6429C26.8746 59.4062 25.3536 60.7712 24.0765 62.018Z" fill="#93C5FD"/>
<path d="M14.1736 84.6329C13.9081 84.5001 14.891 81.1061 16.9502 77.727C18.2918 75.5136 19.6981 73.9052 22.3312 70.9171C22.8033 70.3937 23.3065 69.9008 23.8379 69.4415C24.481 68.8613 25.1671 68.3334 25.8898 67.8626C27.5902 66.7559 29.262 65.6492 30.9121 66.173C31.1842 66.239 31.4406 66.3606 31.6661 66.5304C31.8917 66.7002 32.0817 66.9149 32.2251 67.1616C32.3346 67.4976 32.3707 67.8542 32.3311 68.2062C32.2914 68.5581 32.1768 68.8967 31.9955 69.198C31.0126 71.3081 28.6019 72.4148 26.7149 73.3297C24.5081 74.3074 22.3677 75.4363 20.3079 76.7088C15.7807 79.8445 14.4892 84.7952 14.1736 84.6329Z" fill="#FEF08A"/>
<path d="M59.8299 78.1095C59.8299 79.7147 60.2928 81.2838 61.16 82.6184C62.0272 83.953 63.2598 84.9933 64.7019 85.6075C66.144 86.2218 67.7308 86.3825 69.2618 86.0694C70.7927 85.7562 72.1989 84.9833 73.3027 83.8483C74.4064 82.7133 75.1581 81.2671 75.4626 79.6928C75.7671 78.1185 75.6108 76.4867 75.0135 75.0037C74.4162 73.5207 73.4046 72.2532 72.1067 71.3614C70.8089 70.4696 69.283 69.9937 67.7221 69.9937C65.629 69.9937 63.6216 70.8487 62.1415 72.3707C60.6614 73.8927 59.8299 75.957 59.8299 78.1095Z" fill="#FFD500"/>
<path d="M61.6209 80.6922C61.6209 82.2974 62.0838 83.8665 62.951 85.2011C63.8182 86.5358 65.0508 87.576 66.4929 88.1903C67.935 88.8045 69.5219 88.9653 71.0528 88.6521C72.5837 88.339 73.99 87.566 75.0937 86.431C76.1974 85.296 76.9491 83.8499 77.2536 82.2756C77.5581 80.7012 77.4019 79.0694 76.8045 77.5864C76.2072 76.1034 75.1956 74.8359 73.8978 73.9441C72.5999 73.0524 71.074 72.5764 69.5131 72.5764C68.4746 72.5685 67.4449 72.7731 66.4839 73.1782C65.5229 73.5833 64.6499 74.1808 63.9155 74.936C63.1811 75.6912 62.6001 76.5889 62.2061 77.5771C61.8122 78.5653 61.6133 79.6242 61.6209 80.6922Z" fill="#FEF08A"/>
<path d="M82.0724 142.298C83.823 142.298 85.8607 142.298 88.1494 142.401C96.3728 142.813 104.486 144.52 112.206 147.463C133.25 155.578 136.758 167.671 155.972 171.072C160.057 171.759 164.195 172.065 168.334 171.987C177.977 171.884 186.213 170.091 186.271 168.866C186.271 168.527 185.675 168.254 185.395 168.128C183.142 167.073 180.064 163.702 173.916 157.061C168.269 150.938 166.21 146.629 161.001 140.092C154.544 131.976 148.768 124.731 139.434 120.459C127.955 115.198 116.834 117.087 112.931 117.958C93.0641 122.362 83.5719 139.494 82.0724 142.298Z" fill="#60A5FA"/>
<path d="M88.1701 142.403C96.3935 142.815 104.507 144.521 112.227 147.464C133.27 155.58 136.779 167.672 155.992 171.074C160.078 171.76 164.215 172.066 168.354 171.988L168.189 171.811C162.543 165.688 160.484 161.379 155.275 154.842C148.818 146.726 143.042 139.481 133.708 135.209C122.228 129.948 111.108 131.837 107.205 132.708C100.186 134.294 93.6507 137.622 88.1701 142.403Z" fill="#93C5FD"/>
<path d="M120.094 111.309C124.305 111.008 128.535 111.234 132.693 111.98C136.543 112.672 140.275 113.937 143.771 115.736C152.33 120.162 159.591 128.042 164.577 133.443C169.564 138.844 176.251 146.996 182.514 147.461C183.152 147.515 183.792 147.515 184.43 147.461C185.823 147.39 187.159 146.874 188.254 145.985C189.316 145.006 190.066 143.721 190.406 142.296C192.035 136.778 188.806 131.229 187.536 129.016C186.605 127.434 185.524 125.951 184.308 124.589C180.57 120.162 173.122 113.943 156.685 109.833C133.009 103.931 120.094 111.309 120.094 111.309Z" fill="#FEF08A"/>
<path d="M132.694 111.981C136.545 112.673 140.277 113.938 143.772 115.737C152.332 120.163 159.592 128.043 164.579 133.444C169.565 138.845 176.252 146.997 182.516 147.462C183.153 147.516 183.794 147.516 184.431 147.462C184.524 147.189 184.603 146.938 184.668 146.724C186.297 141.206 183.068 135.657 181.798 133.444C180.867 131.862 179.786 130.379 178.569 129.017C174.831 124.59 167.384 118.37 150.947 114.261C144.979 112.721 138.847 111.955 132.694 111.981Z" fill="#FFD500"/>
<path d="M162.204 95.4996C174.653 99.8084 176.059 100.244 176.059 100.244C186.161 103.365 191.205 104.921 198.085 104.67C199.663 104.611 201.213 104.545 202.749 104.375C206.271 104.09 209.671 102.92 212.65 100.967C219.545 96.3554 222.343 88.4831 223.412 85.4728C224.285 82.8139 225.004 80.1039 225.564 77.357C225.952 75.66 226.282 73.2695 226.92 68.5033C226.92 68.4369 226.92 68.3706 226.92 68.3042C227.128 66.7253 227.15 66.5113 226.97 66.2604C225.205 63.7445 212.621 69.7576 204.729 74.3763C200.388 76.9143 200.933 77.0028 197.554 78.8031C191.868 81.7766 185.842 84.0073 179.617 85.4433C172.708 87.0812 169.81 86.8304 169.795 87.4501C169.795 88.5642 179.309 90.5489 190.057 89.6635C191.585 89.5381 193.135 89.361 194.684 89.1102C202.72 87.819 206.566 85.3695 207.599 84.6834C210.842 82.5216 213.044 79.9688 213.338 80.2565C213.633 80.5443 211.645 83.6062 208.962 86.159C207.715 87.3255 206.343 88.3428 204.872 89.1914L205.446 89.1028C213.482 87.8117 217.328 85.3622 218.361 84.676C221.604 82.5143 223.806 79.9615 224.101 80.2492C224.395 80.5369 222.407 83.5988 219.724 86.1516C217.241 88.52 214.788 89.5677 213.338 90.5784C209.299 93.3821 204.836 93.8248 200.424 94.2675C200.044 94.2675 198.616 94.3191 196.535 94.4224C194.964 94.4962 187.359 94.474 185.773 94.4224C183.621 94.356 181.978 94.0166 179.61 93.7805C178.419 93.6551 177.042 93.5592 175.305 93.5297C170.909 93.4617 166.518 93.8697 162.204 94.747C162.107 94.747 162.014 94.7867 161.946 94.8573C161.877 94.9278 161.838 95.0235 161.838 95.1233C161.838 95.2231 161.877 95.3188 161.946 95.3894C162.014 95.46 162.107 95.4996 162.204 95.4996Z" fill="#93C5FD"/>
<path d="M172.964 95.4981C185.412 99.8068 186.819 100.242 186.819 100.242C193.778 102.389 198.334 103.798 202.746 104.389C206.268 104.103 209.668 102.933 212.648 100.98C219.542 96.3687 222.341 88.4963 223.41 85.4861C224.283 82.8272 225.002 80.1171 225.562 77.3702C225.949 75.6733 226.279 73.2828 226.918 68.5166C223.019 70.2758 219.214 72.246 215.517 74.419C211.177 76.9571 211.722 77.0456 208.343 78.8458C202.656 81.8194 196.631 84.0501 190.406 85.4861C183.497 87.124 180.598 86.8731 180.584 87.4929C180.569 88.1126 184.458 89.271 190.083 89.7063C191.611 89.5809 193.161 89.4038 194.711 89.1529C202.746 87.8618 206.592 85.4123 207.625 84.7261C210.868 82.5644 213.071 80.0116 213.365 80.2993C213.659 80.587 211.672 83.6489 208.988 86.2017C207.741 87.3683 206.369 88.3856 204.899 89.2341L205.473 89.1456C213.508 87.8544 217.354 85.4049 218.387 84.7188C221.63 82.557 223.833 80.0042 224.127 80.292C224.421 80.5797 222.434 83.6416 219.75 86.1944C217.268 88.5627 214.814 89.6104 213.365 90.6212C209.326 93.4249 204.863 93.8675 200.451 94.3102C196.727 94.6791 183.231 94.1848 179.644 93.8232C177.421 94.0228 175.211 94.3454 173.022 94.7898C172.93 94.7819 172.84 94.8117 172.77 94.8726C172.7 94.9335 172.656 95.0205 172.649 95.1144C172.641 95.2083 172.67 95.3015 172.729 95.3735C172.788 95.4454 172.873 95.4902 172.964 95.4981Z" fill="#60A5FA"/>
<path d="M76.194 133.658C76.1079 133.717 75.9931 133.614 76.0648 133.526C81.8372 126.536 88.4337 120.312 95.702 114.999C101.139 110.984 106.945 107.525 113.036 104.67C125.419 99.0463 138.848 96.2762 152.382 96.5542C154.979 96.6427 178.928 97.7421 200.452 112.786C204.635 115.737 208.137 118.755 216.954 124.591C228.929 132.522 235.565 135.584 239.196 137.133C240.107 137.524 248.882 141.221 256.415 142.298C259.074 142.685 261.752 142.909 264.436 142.969C265.871 142.969 268.741 142.969 268.741 142.969C268.741 142.969 261.437 148.938 244.218 144.511C226.999 140.085 199.914 117.655 190.86 113.007C187.725 111.399 162.764 99.4095 136.598 102.457C128.93 103.221 121.426 105.212 114.356 108.359C111.3 109.739 108.164 111.428 96.4194 119.426C91.3254 122.894 84.3946 127.704 76.194 133.658Z" fill="#60A5FA"/>
<path d="M258.926 147.699C258.897 147.682 258.874 147.656 258.86 147.625C258.846 147.594 258.842 147.56 258.849 147.526C258.855 147.493 258.872 147.462 258.896 147.439C258.92 147.415 258.951 147.4 258.984 147.396C261.136 147.079 267.249 146.356 270.736 148.2C271.223 148.398 271.666 148.696 272.036 149.077C272.406 149.458 272.696 149.913 272.888 150.414C273.029 150.927 273.037 151.47 272.911 151.988C272.785 152.505 272.53 152.98 272.171 153.365C270.736 154.752 268.067 153.719 267.148 153.365C265.592 152.76 264.996 152.03 262.844 150.414C261.567 149.418 260.254 148.518 258.926 147.699Z" fill="#93C5FD"/>
<path d="M162.489 107.68C171.903 110.093 177.98 113.479 181.976 116.984C184.213 118.914 186.096 121.24 187.536 123.853C189.466 127.409 189.954 130.493 193.994 137.133C193.994 137.133 201.441 149.403 207.625 149.676C208.055 149.694 208.485 149.669 208.91 149.602C209.667 149.502 210.398 149.252 211.062 148.864C211.978 148.178 212.693 147.246 213.128 146.171C214.025 143.958 214.047 138.055 209.068 130.515C202.539 120.592 192.925 116.224 186.826 113.545C179.101 110.178 170.877 108.182 162.504 107.643C162.446 107.577 162.432 107.665 162.489 107.68Z" fill="#60A5FA"/>
<path d="M181.976 116.984C184.213 118.914 186.096 121.241 187.537 123.853C189.467 127.409 189.954 130.493 193.994 137.133C193.994 137.133 201.441 149.403 207.626 149.676C208.055 149.694 208.485 149.67 208.91 149.602C209.706 147.256 209.563 141.486 204.756 134.182C198.227 124.259 188.613 119.891 182.514 117.213L181.976 116.984Z" fill="#93C5FD"/>
<path d="M211.324 130.625C213.891 133.848 215.806 137.565 216.956 141.559C217.673 144.134 217.673 145.544 218.757 149.262C219.295 151.107 220.472 155.165 221.978 157.791C226.355 165.45 237.533 168.202 245.655 167.383C251.359 166.807 256.453 164.387 256.345 163.893C256.345 163.767 256.072 163.767 255.628 163.789C254.451 163.891 253.267 163.858 252.098 163.694C246.81 162.845 243.144 158.529 240.618 155.578C239.183 153.896 239.42 153.844 237.088 150.989C237.088 150.989 234.412 148.037 232.008 145.248C229.777 142.688 225.946 139.265 218.879 134.919C216.726 133.562 214.201 132.123 211.353 130.596L211.324 130.625Z" fill="#93C5FD"/>
<path d="M218.895 134.898C219.57 136.321 220.123 137.803 220.545 139.325C221.262 141.9 221.262 143.309 222.346 147.028C222.884 148.872 224.061 152.93 225.567 155.557C229.944 163.215 241.122 165.967 249.244 165.148C251.418 164.918 253.563 164.456 255.644 163.769C254.467 163.87 253.283 163.838 252.114 163.673C246.826 162.824 243.16 158.508 240.634 155.557C239.199 153.875 239.436 153.823 237.104 150.968C237.104 150.968 234.428 148.017 232.024 145.228C229.793 142.668 225.926 139.266 218.895 134.898Z" fill="#60A5FA"/>
<path d="M235.838 144.239C235.825 144.206 235.822 144.17 235.829 144.136C235.836 144.101 235.853 144.07 235.877 144.045C235.902 144.02 235.933 144.004 235.967 143.998C236.001 143.992 236.036 143.996 236.067 144.011C240.73 146.42 245.626 148.319 250.675 149.677C256.3 151.152 261.215 151.735 262.155 154.841C262.333 155.47 262.361 156.134 262.236 156.776C262.111 157.419 261.837 158.021 261.437 158.53C258.66 161.873 250.087 158.162 249.24 157.793C242.137 154.716 238.019 148.518 235.838 144.239Z" fill="#60A5FA"/>
<path d="M53.0142 145.189C53.0366 144.466 53.1134 143.746 53.2438 143.035C53.6747 141.228 54.5981 139.584 55.9056 138.298C56.4438 137.715 57.0177 137.184 57.563 136.668C64.4938 130.197 65.3188 129.194 66.1439 127.91C68.6479 124.059 68.3824 122.008 68.16 121.1C68.0757 120.762 67.9604 120.434 67.8156 120.119C67.4734 119.399 67.0038 118.751 66.4309 118.208C65.8228 117.631 65.1076 117.187 64.3284 116.902C63.5493 116.617 62.7221 116.496 61.8965 116.548C60.8991 116.664 59.9477 117.042 59.1343 117.647C55.6976 120.074 54.4707 125.851 54.0546 127.976C52.2968 137.162 52.8851 145.182 53.0142 145.189Z" fill="#60A5FA"/>
<path d="M55.9272 138.298C56.4653 137.715 57.0392 137.184 57.5845 136.667C64.4938 130.197 65.3188 129.193 66.1439 127.91C68.6479 124.058 68.3824 122.007 68.16 121.1C68.0757 120.762 67.9604 120.433 67.8156 120.118C66.8754 119.623 65.8191 119.409 64.7664 119.499C63.769 119.614 62.8176 119.993 62.0041 120.598C58.5675 123.025 57.3406 128.802 56.9245 130.927C56.4598 133.363 56.1268 135.824 55.9272 138.298Z" fill="#93C5FD"/>
<path d="M40.5537 135.79C40.1242 135.215 39.7403 134.605 39.4058 133.967C38.6335 132.285 38.3423 130.412 38.5663 128.567C38.6309 127.77 38.7457 126.98 38.8533 126.228C40.2452 116.732 40.2882 115.411 40.1304 113.884C39.7143 109.273 38.2435 107.849 37.5188 107.296C37.2469 107.088 36.9562 106.908 36.6507 106.757C35.9442 106.419 35.1827 106.219 34.405 106.167C33.579 106.117 32.7517 106.237 31.9717 106.521C31.1917 106.805 30.4749 107.246 29.8634 107.82C29.1732 108.562 28.6792 109.474 28.4285 110.468C27.2447 114.578 29.8634 119.86 30.8248 121.786C35.0794 130.042 40.4317 135.886 40.5537 135.79Z" fill="#60A5FA"/>
<path d="M38.5603 128.568C38.6249 127.771 38.7397 126.982 38.8473 126.229C40.2392 116.734 40.2822 115.413 40.1244 113.886C39.7083 109.275 38.2374 107.851 37.5128 107.297C37.2409 107.09 36.9502 106.909 36.6447 106.759C35.6132 106.979 34.6616 107.489 33.8967 108.234C33.1938 108.97 32.6872 109.88 32.4259 110.876C31.2493 114.985 33.8609 120.268 34.8223 122.194C35.9543 124.387 37.2022 126.515 38.5603 128.568Z" fill="#93C5FD"/>
<path d="M47.8684 140.592C47.8747 140.606 47.8848 140.618 47.8975 140.627C47.9102 140.635 47.925 140.64 47.9401 140.64C47.9552 140.64 47.97 140.635 47.9828 140.627C47.9955 140.618 48.0056 140.606 48.0119 140.592C48.0693 139.854 48.2486 137.641 48.5285 135.575C48.6648 134.653 48.8155 133.76 48.9877 133.052C49.619 130.411 50.0638 128.418 50.1858 127.991C50.8663 125.575 51.8098 123.246 52.9983 121.048C53.9304 119.428 54.5447 117.636 54.8063 115.773C55.1148 113.862 55.5597 111.11 54.4476 108.763C54.1777 108.159 53.8143 107.603 53.3714 107.118C53.0593 106.789 52.7044 106.506 52.3167 106.277C51.22 105.665 49.9395 105.499 48.7294 105.812C48.216 105.978 47.7316 106.227 47.2944 106.55C43.6712 109.295 42.6309 115.773 42.6309 115.773C40.7726 127.172 46.7491 138.519 47.8684 140.592Z" fill="#60A5FA"/>
<path d="M48.5285 135.54C48.6648 134.617 48.8155 133.725 48.9877 133.016C49.619 130.375 50.0638 128.383 50.1858 127.955C50.8663 125.539 51.8098 123.21 52.9983 121.012C53.9304 119.392 54.5447 117.6 54.8063 115.737C55.1148 113.826 55.5597 111.074 54.4476 108.728C54.1777 108.123 53.8143 107.568 53.3714 107.083C53.007 107.091 52.6453 107.148 52.2952 107.252C51.7818 107.418 51.2975 107.667 50.8602 107.99C47.237 110.735 46.1967 117.213 46.1967 117.213C45.1205 123.978 46.7635 130.729 48.5285 135.54Z" fill="#93C5FD"/>
</svg>
