<svg width="215" height="612" viewBox="0 0 215 612" fill="none" xmlns="http://www.w3.org/2000/svg">
<path d="M152.459 151.329C152.684 151.329 152.963 151.286 153.279 151.257C155.491 151.019 159.696 150.277 161.487 147.003C163.421 143.456 161.201 139.353 160.524 138.25L160.359 137.991C158.101 134.638 154.573 133.578 147.568 131.502C143.276 130.251 138.866 129.406 134.402 128.978C131.028 128.637 127.635 128.517 124.244 128.618C124.629 130.095 125.132 131.541 125.749 132.944C130.406 143.485 140.165 148.085 142.678 149.166C145.567 150.421 148.524 151.69 152.459 151.329Z" fill="#8FC3FC"/>
<path d="M111.076 132.581C98.9706 130.367 90.9051 132.581 87.0003 134.023C80.5072 136.438 79.4765 139.02 79.2508 139.978C78.9858 141.085 79.0048 142.236 79.3062 143.333C79.6076 144.431 80.1824 145.442 80.9812 146.28C83.4265 148.84 87.1733 148.587 89.2574 148.443C90.5515 148.357 94.1705 147.96 99.7907 144.117C104.301 141.013 108.135 137.094 111.076 132.581Z" fill="#8FC3FC"/>
<path d="M114.272 166.607C114.624 166.338 114.951 166.041 115.25 165.72C115.665 165.276 116.03 164.793 116.341 164.278C120.035 158.38 120.103 149.137 120.103 149.137C120.076 143.721 119.057 138.352 117.094 133.274C113.318 136.958 110.033 141.075 107.313 145.532C104.77 149.706 101.978 154.292 101.294 158.51C100.907 160.46 101.17 162.478 102.046 164.278C102.317 164.804 103.987 167.883 107.313 168.604C110.638 169.325 113.595 167.126 114.272 166.607Z" fill="#8FC3FC"/>
<path d="M122.366 124.651C122.366 127.041 120.345 128.978 117.852 128.978C115.359 128.978 113.338 127.041 113.338 124.651C113.338 122.262 115.359 120.325 117.852 120.325C120.345 120.325 122.366 122.262 122.366 124.651Z" fill="#FFD500"/>
<path d="M78.9122 69.4498C75.7672 70.6683 69.4548 72.6511 62.3598 71.6128C59.1247 71.0906 56.06 69.8566 53.4065 68.0078C52.3451 67.292 51.5326 66.2873 51.0742 65.1237C50.6722 63.9529 50.6722 62.6895 51.0742 61.5187C51.5688 60.192 52.5253 59.0691 53.7827 58.3391C55.4535 57.3732 57.413 56.9698 59.3503 57.1927C63.1122 57.4234 65.9111 59.3557 69.1313 61.5187C70.162 62.2397 71.0724 62.9607 72.8932 64.4027C75.4663 66.4504 77.5128 68.2169 78.9122 69.4498Z" fill="#8FC3FC"/>
<path d="M112.58 118.162C107.064 117.279 101.88 115.044 97.5325 111.673C94.8465 109.51 90.3172 105.955 90.7611 101.579C90.9388 99.9217 91.7413 98.3835 93.0182 97.2529C95.4032 95.2485 98.5181 95.7316 99.0372 95.8109C101.776 96.2363 103.446 97.9739 105.147 99.7548C108.051 102.826 109.262 105.955 110.323 108.789C111.454 111.818 112.212 114.964 112.58 118.162Z" fill="#8FC3FC"/>
<path d="M126.107 121.168C127.093 120.685 128.688 119.885 130.621 118.883C142.66 112.689 144.164 110.951 149.431 109.509C152.305 108.745 159.693 106.77 162.974 110.23C164.032 111.436 164.57 112.983 164.479 114.556C163.989 120.072 154.525 123.036 151.688 123.93C147.466 125.248 142.998 125.684 138.585 125.208C134.172 124.731 129.917 123.354 126.107 121.168Z" fill="#8FC3FC"/>
<path d="M119.359 112.394C115.931 109.159 112.993 105.48 110.631 101.463C108.276 97.4257 107.757 95.1329 108.073 92.9266C108.209 91.9821 108.592 89.3216 110.857 87.9444C111.827 87.3725 112.955 87.0983 114.092 87.1586C115.825 87.3176 117.434 88.0886 118.606 89.3216C122.789 93.3232 121.616 101.081 120.863 105.905C120.526 108.1 120.023 110.269 119.359 112.394Z" fill="#8FC3FC"/>
<path d="M128.976 25.5854C128.502 22.6364 127.373 13.1985 133.49 5.79377C134.995 3.9552 137.854 0.487158 142.519 0.025714C142.91 0.025714 148.252 -0.471781 150.795 2.90974C153.511 6.51477 150.923 11.742 150.042 13.5085C147.138 19.3487 141.382 21.8434 138.757 23.0979C135.747 24.5399 128.976 25.5854 128.976 25.5854Z" fill="#8FC3FC"/>
<path d="M122.366 137.805C122.366 141.41 122.441 159.312 129.138 165.751C130.334 166.904 132.839 169.313 135.458 168.765C137.549 168.332 138.648 166.227 138.851 165.881C140.175 163.545 139.678 160.488 138.166 157.106C135.909 152.059 130.642 144.849 128.385 141.965C126.54 139.751 124.528 137.669 122.366 135.735V137.805Z" fill="#8FC3FC"/>
<path d="M107.628 320.648C108.174 313.344 107.014 303.703 100.438 296.252C93.4932 288.348 82.6682 285.352 75.8772 285.658C73.3845 285.798 70.9145 286.193 68.509 286.835C67.7661 287.047 67.1029 287.241 66.5073 287.424C71.46 287.22 76.4086 287.909 81.0963 289.454C86.0777 291.133 90.6671 293.733 94.6046 297.106C104.509 305.634 106.959 316.699 107.628 320.648Z" fill="#8FC3FC"/>
<path d="M108.321 321.471C111.391 314.768 113.632 305.298 110.058 296.163C106.27 286.51 97.1147 280.207 90.6062 278.317C88.2035 277.65 85.7336 277.23 83.2381 277.064C82.4644 277.029 81.7706 276.999 81.1443 276.987C85.8841 278.386 90.3065 280.628 94.1798 283.597C98.2857 286.778 101.702 290.699 104.237 295.139C110.611 306.351 109.057 317.563 108.321 321.471Z" fill="#60A5FA"/>
<path d="M105.37 315.72C102.091 309.111 96.1042 301.277 86.5686 297.892C76.468 294.29 65.5079 296.798 59.7546 300.276C57.6571 301.575 55.71 303.084 53.9461 304.779C53.4119 305.314 52.9329 305.797 52.5093 306.244C56.7202 303.732 61.3856 301.999 66.2632 301.135C71.4614 300.247 76.7906 300.341 81.9512 301.412C94.956 304.167 102.772 312.624 105.37 315.72Z" fill="#8FC3FC"/>
<path d="M150.749 383.971V383.936C150.669 383.807 138.825 393.177 117.592 399.239C106.012 402.547 98.0913 404.807 88.4268 403.653C67.0039 401.099 42.9898 382.506 42.9898 360.688C42.9898 360.017 43.2231 345.608 53.7043 336.162C55.1756 334.646 56.8237 333.297 58.6164 332.142C64.9408 328.093 75.5571 324.767 83.791 328.61C88.7031 330.894 91.6626 335.202 93.3634 337.439C92.6554 335.569 91.7088 333.789 90.5451 332.142C90.2688 331.753 86.5418 326.615 80.3402 324.067C68.8705 319.358 54.5517 325.797 46.373 332.989L45.845 333.466C41.2208 337.763 37.7292 343.053 35.6585 348.899C29.6473 366.114 37.5006 385.325 49.4922 396.843C60.8269 407.738 74.458 410.381 77.7368 410.969C114.412 417.349 149.613 385.39 150.749 383.971Z" fill="#60A5FA"/>
<path d="M150.75 383.971V383.936C150.67 383.807 138.826 393.177 117.593 399.239C106.013 402.547 98.0923 404.807 88.4277 403.653C67.0048 401.099 42.9908 382.506 42.9908 360.688C42.9908 360.017 43.2241 345.608 53.7053 336.162C55.1765 334.646 56.8247 333.297 58.6174 332.142C64.9418 328.093 75.558 324.767 83.792 328.61C88.7041 330.894 91.6636 335.202 93.3644 337.439C92.6564 335.569 91.7098 333.789 90.5461 332.142C90.2698 331.753 86.5427 326.615 80.3412 324.067C68.8714 319.358 54.5527 325.797 46.374 332.989L45.8459 333.466C41.8244 337.545 38.7687 342.407 36.8875 347.721C30.8763 364.937 38.7296 384.148 50.7212 395.666C62.0559 406.561 75.687 409.203 78.9658 409.792C112.196 415.572 144.223 389.851 150.75 383.971Z" fill="#8FC3FC"/>
<path d="M72.8077 397.455C73.1761 397.008 66.815 393.824 62.4555 386.949C61.7131 385.794 61.0683 384.584 60.5275 383.33C59.4775 380.893 58.5872 377.391 56.8434 370.381C55.9039 366.603 54.8233 361.782 51.3173 359.198C50.6418 358.698 49.1805 357.65 47.6332 358.021C47.3382 358.091 47.0578 358.208 46.8043 358.368C46.1585 358.793 45.6365 359.368 45.2876 360.04C43.7096 362.812 45.0482 366.273 46.4052 369.793C46.9924 371.284 47.6943 372.732 48.5051 374.124C49.1678 375.272 49.9018 376.381 50.7032 377.444C55.1671 383.359 57.5495 386.52 61.1415 389.804C66.5816 394.807 72.4516 397.891 72.8077 397.455Z" fill="#8FC3FC"/>
<path d="M62.4508 386.949C61.7084 385.794 61.0637 384.584 60.5229 383.33C59.4729 380.893 58.5827 377.391 56.8389 370.381C55.8995 366.603 54.8189 361.782 51.3131 359.198C50.6377 358.698 49.1764 357.65 47.6291 358.021C47.3342 358.091 47.0538 358.208 46.8003 358.368C45.7626 361.017 46.9967 364.201 48.2431 367.438C48.8303 368.93 49.5322 370.378 50.343 371.77C51.0056 372.918 51.7396 374.026 52.541 375.09C56.7837 380.711 59.1414 383.842 62.4508 386.949Z" fill="#60A5FA"/>
<path d="M83.2468 400.408C83.5906 399.996 77.0514 396.782 73.4962 389.701C73.3059 389.337 73.134 388.966 72.9682 388.583C72.084 386.541 71.3411 383.61 69.8981 377.736C69.1122 374.575 68.2096 370.538 65.2746 368.378C64.7671 367.978 64.1918 367.666 63.5738 367.453C63.1261 367.311 62.6462 367.289 62.1861 367.389C61.7569 367.531 61.3617 367.754 61.0242 368.045C60.6867 368.336 60.4136 368.69 60.2213 369.084C58.9012 371.403 60.0248 374.299 61.1607 377.247C62.0578 379.515 63.2613 381.66 64.7404 383.627C68.4736 388.583 70.4753 391.226 73.4839 393.98C78.0276 398.165 82.9398 400.772 83.2468 400.408Z" fill="#FEF08A"/>
<path d="M73.4941 389.7C73.3037 389.335 73.1318 388.964 72.966 388.582C72.0819 386.539 71.339 383.608 69.8961 377.734C69.1102 374.574 68.2076 370.536 65.2728 368.376C64.7653 367.977 64.19 367.664 63.5721 367.452C63.4686 367.598 63.3743 367.749 63.2896 367.905C61.9695 370.224 63.0932 373.12 64.229 376.069C65.1261 378.336 66.3295 380.481 67.8085 382.449C70.1662 385.598 71.8302 387.805 73.4941 389.7Z" fill="#FFD500"/>
<path d="M93.5753 400.201C93.8025 399.865 88.3562 397.794 85.3721 392.367L85.2063 392.061C84.1372 389.692 83.2025 387.27 82.4064 384.804C81.6205 382.579 80.6871 379.742 78.4337 378.377C78.1074 378.166 77.752 377.999 77.3776 377.882C76.9795 377.753 76.5478 377.753 76.1496 377.882C75.8512 378.012 75.5829 378.197 75.3604 378.428C75.1379 378.658 74.9657 378.929 74.854 379.224C74.0681 380.99 75.0751 382.979 76.0821 385.022C76.5247 385.887 77.0315 386.721 77.5987 387.517C78.0652 388.17 78.5695 388.796 79.1092 389.395C82.1362 392.708 83.7572 394.486 86.1028 396.263C89.6947 398.93 93.3788 400.483 93.5753 400.201Z" fill="#8FC3FC"/>
<path d="M85.202 392.059C84.133 389.69 83.1983 387.267 82.4023 384.801C81.6164 382.577 80.6831 379.74 78.4298 378.374C78.1035 378.163 77.748 377.997 77.3737 377.88L77.3062 378.027C76.5203 379.793 77.5272 381.782 78.5342 383.824C78.9768 384.69 79.4836 385.524 80.0507 386.32C80.5172 386.972 81.0215 387.599 81.5611 388.198C83.0285 389.763 84.1644 391.011 85.202 392.059Z" fill="#60A5FA"/>
<path d="M104.025 400.184C103.915 400.401 101.09 399.595 98.2782 397.906C96.4363 396.805 95.0978 395.652 92.6112 393.492C92.1756 393.104 91.7655 392.691 91.3832 392.256C90.9004 391.728 90.461 391.165 90.0692 390.572C89.1483 389.177 88.2273 387.806 88.6632 386.452C88.7182 386.229 88.8193 386.019 88.9606 385.834C89.102 385.649 89.2806 385.493 89.486 385.375C89.7655 385.285 90.0623 385.256 90.3552 385.288C90.6481 385.321 90.9299 385.415 91.1806 385.563C92.9366 386.37 93.8576 388.347 94.6189 389.895C95.4325 391.706 96.3719 393.462 97.4309 395.151C100.04 398.865 104.16 399.925 104.025 400.184Z" fill="#FFD500"/>
<path d="M98.5937 362.728C99.9295 362.728 101.235 362.348 102.346 361.637C103.457 360.925 104.322 359.914 104.833 358.731C105.345 357.548 105.478 356.246 105.218 354.991C104.957 353.735 104.314 352.581 103.369 351.676C102.425 350.77 101.221 350.154 99.9113 349.904C98.6012 349.654 97.2432 349.782 96.0091 350.272C94.775 350.762 93.7202 351.592 92.9781 352.657C92.2359 353.721 91.8398 354.973 91.8398 356.254C91.8398 357.971 92.5514 359.617 93.818 360.832C95.0846 362.046 96.8025 362.728 98.5937 362.728Z" fill="#FEF08A"/>
<path d="M100.743 361.26C102.079 361.26 103.384 360.88 104.495 360.169C105.606 359.458 106.471 358.446 106.983 357.263C107.494 356.08 107.627 354.779 107.367 353.523C107.106 352.267 106.463 351.113 105.519 350.208C104.574 349.302 103.371 348.686 102.06 348.436C100.75 348.186 99.3923 348.314 98.1582 348.804C96.9241 349.294 95.8693 350.124 95.1272 351.189C94.385 352.254 93.989 353.505 93.989 354.786C93.9824 355.638 94.1527 356.482 94.4898 357.271C94.8269 358.059 95.3241 358.775 95.9526 359.378C96.581 359.98 97.3281 360.457 98.1505 360.78C98.9728 361.103 99.854 361.266 100.743 361.26Z" fill="#FFD500"/>
<path d="M152.01 344.483C152.01 343.047 152.01 341.375 152.096 339.498C152.438 332.752 153.859 326.096 156.308 319.763C163.062 302.5 173.125 299.622 175.956 283.86C176.527 280.509 176.782 277.115 176.717 273.719C176.631 265.809 175.139 259.052 174.12 259.005C173.838 259.005 173.611 259.493 173.506 259.723C172.628 261.571 169.822 264.096 164.296 269.14C159.2 273.772 155.614 275.461 150.174 279.734C143.42 285.031 137.39 289.769 133.835 297.427C129.457 306.844 131.029 315.967 131.753 319.169C135.419 335.466 149.676 343.253 152.01 344.483Z" fill="#8FC3FC"/>
<path d="M152.099 339.481C152.442 332.735 153.862 326.079 156.311 319.746C163.065 302.483 173.129 299.605 175.96 283.843C176.531 280.492 176.786 277.098 176.721 273.702L176.574 273.838C171.477 278.47 167.891 280.159 162.451 284.432C155.697 289.729 149.668 294.467 146.112 302.124C141.734 311.541 143.306 320.664 144.031 323.866C145.351 329.624 148.121 334.985 152.099 339.481Z" fill="#60A5FA"/>
<path d="M126.224 313.291C125.974 309.837 126.162 306.366 126.783 302.955C127.358 299.797 128.411 296.735 129.908 293.868C133.592 286.846 140.15 280.89 144.644 276.799C149.139 272.709 155.924 267.223 156.311 262.085C156.355 261.562 156.355 261.036 156.311 260.513C156.251 259.371 155.822 258.274 155.083 257.376C154.268 256.505 153.198 255.89 152.013 255.611C147.42 254.275 142.802 256.923 140.96 257.965C139.644 258.729 138.41 259.616 137.276 260.614C133.592 263.68 128.416 269.789 124.996 283.274C120.084 302.696 126.224 313.291 126.224 313.291Z" fill="#FFD500"/>
<path d="M126.785 302.956C127.361 299.797 128.413 296.736 129.91 293.868C133.594 286.847 140.152 280.89 144.647 276.8C149.141 272.709 155.926 267.224 156.313 262.085C156.358 261.562 156.358 261.037 156.313 260.514C156.086 260.437 155.877 260.373 155.699 260.32C151.106 258.984 146.489 261.632 144.647 262.674C143.33 263.438 142.096 264.325 140.963 265.323C137.278 268.389 132.102 274.498 128.682 287.982C127.401 292.878 126.764 297.908 126.785 302.956Z" fill="#FEF08A"/>
<path d="M113.073 278.747C116.659 268.536 117.021 267.382 117.021 267.382C119.618 259.095 120.914 254.957 120.705 249.313C120.656 248.018 120.601 246.747 120.459 245.487C120.222 242.598 119.248 239.809 117.623 237.365C113.785 231.709 107.234 229.413 104.728 228.536C102.516 227.82 100.26 227.23 97.9742 226.771C96.562 226.453 94.5726 226.182 90.6061 225.658C90.5508 225.658 90.4956 225.658 90.4403 225.658C89.1263 225.488 88.9482 225.47 88.7395 225.617C86.6457 227.065 91.6499 237.389 95.4936 243.863C97.6058 247.424 97.6795 246.976 99.1777 249.749C101.652 254.413 103.509 259.356 104.704 264.463C106.067 270.131 105.858 272.509 106.374 272.52C107.301 272.52 108.953 264.716 108.216 255.899C108.112 254.645 107.964 253.374 107.755 252.103C106.681 245.511 104.642 242.356 104.071 241.509C102.272 238.848 100.148 237.041 100.387 236.8C100.627 236.559 103.175 238.189 105.299 240.39C106.27 241.414 107.117 242.539 107.823 243.745L107.749 243.274C106.675 236.682 104.636 233.528 104.065 232.68C102.266 230.02 100.142 228.213 100.381 227.971C100.621 227.73 103.169 229.36 105.293 231.562C107.264 233.598 108.136 235.611 108.977 236.8C111.311 240.114 111.679 243.775 112.047 247.394C112.047 247.706 112.09 248.877 112.176 250.584C112.238 251.873 112.219 258.112 112.176 259.413C112.121 261.179 111.839 262.526 111.642 264.469C111.538 265.446 111.458 266.576 111.433 268C111.377 271.607 111.716 275.209 112.447 278.747C112.447 278.827 112.48 278.903 112.538 278.96C112.597 279.016 112.677 279.048 112.76 279.048C112.843 279.048 112.922 279.016 112.981 278.96C113.04 278.903 113.073 278.827 113.073 278.747Z" fill="#60A5FA"/>
<path d="M113.068 269.921C116.654 259.709 117.016 258.555 117.016 258.555C118.803 252.846 119.976 249.109 120.467 245.489C120.23 242.6 119.256 239.811 117.63 237.367C113.793 231.711 107.241 229.415 104.736 228.538C102.523 227.822 100.268 227.232 97.9819 226.773C96.5697 226.455 94.5803 226.184 90.6138 225.66C92.0778 228.859 93.7175 231.98 95.5259 235.013C97.6381 238.573 97.7118 238.126 99.21 240.898C101.685 245.563 103.541 250.506 104.736 255.613C106.099 261.28 105.89 263.658 106.406 263.67C106.922 263.682 107.886 260.492 108.248 255.877C108.144 254.624 107.996 253.352 107.788 252.081C106.713 245.489 104.675 242.334 104.104 241.487C102.305 238.826 100.18 237.02 100.42 236.778C100.659 236.537 103.207 238.167 105.332 240.369C106.302 241.392 107.149 242.517 107.855 243.723L107.782 243.253C106.707 236.661 104.669 233.506 104.098 232.658C102.298 229.998 100.174 228.191 100.413 227.95C100.653 227.708 103.201 229.339 105.326 231.54C107.297 233.576 108.168 235.589 109.01 236.778C111.343 240.092 111.711 243.753 112.08 247.373C112.387 250.427 111.975 261.498 111.674 264.441C111.84 266.264 112.109 268.078 112.479 269.874C112.472 269.948 112.497 270.023 112.548 270.08C112.598 270.138 112.671 270.173 112.749 270.18C112.827 270.186 112.905 270.162 112.965 270.114C113.024 270.065 113.062 269.996 113.068 269.921Z" fill="#8FC3FC"/>
<path d="M144.824 349.306C144.873 349.377 144.787 349.471 144.714 349.412C138.897 344.677 133.718 339.265 129.296 333.303C125.954 328.843 123.075 324.08 120.7 319.083C116.019 308.925 113.714 297.908 113.946 286.806C114.019 284.675 114.934 265.029 127.454 247.372C129.91 243.94 132.421 241.068 137.278 233.835C143.879 224.011 146.427 218.567 147.716 215.589C148.042 214.841 151.118 207.643 152.014 201.463C152.336 199.282 152.523 197.085 152.573 194.883C152.573 193.706 152.573 191.352 152.573 191.352C152.573 191.352 157.54 197.343 153.856 211.469C150.172 225.595 131.506 247.813 127.638 255.241C126.299 257.813 116.322 278.289 118.858 299.754C119.493 306.045 121.151 312.201 123.77 318C124.918 320.507 126.324 323.08 132.98 332.714C135.866 336.893 139.869 342.579 144.824 349.306Z" fill="#8FC3FC"/>
<path d="M156.507 199.402C156.493 199.426 156.471 199.445 156.446 199.457C156.42 199.468 156.391 199.471 156.363 199.466C156.335 199.461 156.31 199.447 156.29 199.427C156.271 199.408 156.258 199.382 156.255 199.355C155.991 197.59 155.389 192.575 156.924 189.714C157.089 189.314 157.337 188.951 157.654 188.647C157.971 188.344 158.35 188.106 158.767 187.948C159.194 187.833 159.646 187.826 160.077 187.929C160.508 188.033 160.903 188.242 161.223 188.537C162.378 189.714 161.518 191.904 161.223 192.657C160.72 193.934 160.112 194.423 158.767 196.189C157.938 197.236 157.188 198.314 156.507 199.402Z" fill="#60A5FA"/>
<path d="M123.203 278.513C125.211 270.791 128.029 265.806 130.946 262.527C132.552 260.692 134.488 259.148 136.662 257.966C139.622 256.383 142.188 255.982 147.714 252.669C147.714 252.669 157.925 246.559 158.152 241.486C158.168 241.134 158.147 240.781 158.091 240.432C158.008 239.811 157.8 239.211 157.477 238.667C156.906 237.916 156.131 237.329 155.236 236.972C153.394 236.236 148.482 236.218 142.207 240.303C133.948 245.659 130.313 253.546 128.084 258.549C125.282 264.885 123.621 271.632 123.172 278.501C123.117 278.548 123.191 278.56 123.203 278.513Z" fill="#8FC3FC"/>
<path d="M130.943 262.527C132.55 260.692 134.486 259.148 136.66 257.966C139.619 256.383 142.186 255.982 147.712 252.669C147.712 252.669 157.923 246.559 158.15 241.486C158.165 241.134 158.145 240.781 158.089 240.432C156.136 239.779 151.334 239.897 145.256 243.84C136.997 249.196 133.362 257.083 131.133 262.086L130.943 262.527Z" fill="#60A5FA"/>
<path d="M142.3 238.453C144.982 236.347 148.076 234.776 151.4 233.832C153.543 233.244 154.716 233.244 157.81 232.355C159.345 231.914 162.723 230.948 164.908 229.712C171.282 226.122 173.572 216.952 172.891 210.29C172.412 205.61 170.398 201.432 169.986 201.52C169.882 201.52 169.882 201.744 169.9 202.108C169.985 203.074 169.958 204.045 169.82 205.004C169.114 209.342 165.522 212.35 163.066 214.421C161.666 215.599 161.623 215.404 159.247 217.317C159.247 217.317 156.791 219.513 154.47 221.484C152.34 223.315 149.491 226.458 145.874 232.255C144.744 234.021 143.547 236.093 142.276 238.429L142.3 238.453Z" fill="#60A5FA"/>
<path d="M145.854 232.242C147.038 231.688 148.271 231.235 149.538 230.889C151.681 230.3 152.854 230.3 155.948 229.411C157.483 228.97 160.86 228.005 163.046 226.769C169.42 223.178 171.71 214.008 171.028 207.346C170.837 205.562 170.452 203.803 169.88 202.096C169.964 203.061 169.938 204.032 169.8 204.991C169.094 209.329 165.502 212.337 163.046 214.409C161.646 215.586 161.603 215.392 159.227 217.304C159.227 217.304 156.771 219.5 154.45 221.471C152.319 223.302 149.489 226.474 145.854 232.242Z" fill="#8FC3FC"/>
<path d="M153.629 218.342C153.602 218.353 153.572 218.356 153.543 218.35C153.515 218.344 153.488 218.33 153.468 218.31C153.447 218.29 153.434 218.264 153.429 218.236C153.423 218.208 153.427 218.18 153.439 218.154C155.444 214.329 157.024 210.312 158.154 206.171C159.382 201.556 159.868 197.525 162.452 196.754C162.976 196.607 163.528 196.585 164.063 196.687C164.597 196.789 165.098 197.014 165.522 197.342C168.304 199.62 165.215 206.653 164.908 207.348C162.348 213.175 157.191 216.553 153.629 218.342Z" fill="#8FC3FC"/>
<path d="M154.42 368.321C153.818 368.303 153.218 368.24 152.627 368.133C151.123 367.78 149.755 367.022 148.685 365.949C148.2 365.508 147.758 365.037 147.328 364.59C141.943 358.904 141.108 358.227 140.039 357.551C136.834 355.496 135.127 355.714 134.372 355.897C134.091 355.966 133.818 356.06 133.555 356.179C132.956 356.46 132.417 356.845 131.965 357.315C131.485 357.814 131.116 358.401 130.878 359.04C130.641 359.679 130.541 360.358 130.584 361.035C130.68 361.853 130.995 362.634 131.499 363.301C133.519 366.12 138.326 367.127 140.095 367.468C147.739 368.91 154.413 368.427 154.42 368.321Z" fill="#8FC3FC"/>
<path d="M148.686 365.932C148.201 365.491 147.759 365.02 147.33 364.573C141.945 358.904 141.11 358.228 140.042 357.551C136.837 355.496 135.13 355.714 134.374 355.897C134.094 355.966 133.82 356.06 133.558 356.179C133.146 356.951 132.967 357.817 133.042 358.681C133.139 359.499 133.454 360.28 133.957 360.947C135.977 363.766 140.784 364.773 142.553 365.114C144.58 365.495 146.628 365.769 148.686 365.932Z" fill="#60A5FA"/>
<path d="M146.599 378.543C146.121 378.895 145.614 379.21 145.083 379.485C143.683 380.118 142.124 380.357 140.588 380.173C139.925 380.12 139.268 380.026 138.642 379.938C130.739 378.796 129.64 378.761 128.369 378.89C124.532 379.232 123.347 380.438 122.886 381.033C122.713 381.256 122.563 381.494 122.438 381.745C122.156 382.325 121.99 382.949 121.947 383.587C121.905 384.265 122.005 384.944 122.241 385.584C122.478 386.223 122.845 386.812 123.322 387.313C123.94 387.879 124.699 388.285 125.526 388.49C128.946 389.462 133.343 387.313 134.945 386.524C141.816 383.034 146.679 378.643 146.599 378.543Z" fill="#8FC3FC"/>
<path d="M140.584 380.178C139.92 380.125 139.263 380.031 138.637 379.942C130.735 378.8 129.636 378.765 128.365 378.895C124.527 379.236 123.342 380.443 122.882 381.037C122.709 381.26 122.559 381.499 122.433 381.749C122.616 382.596 123.041 383.376 123.661 384.004C124.274 384.58 125.031 384.996 125.86 385.21C129.28 386.176 133.676 384.033 135.278 383.244C137.104 382.316 138.875 381.292 140.584 380.178Z" fill="#60A5FA"/>
<path d="M150.597 372.542C150.609 372.537 150.619 372.528 150.626 372.518C150.633 372.507 150.637 372.495 150.637 372.483C150.637 372.47 150.633 372.458 150.626 372.448C150.619 372.437 150.609 372.429 150.597 372.424C149.983 372.377 148.141 372.23 146.422 372C145.654 371.888 144.911 371.765 144.322 371.623C142.124 371.105 140.466 370.741 140.11 370.64C138.099 370.082 136.161 369.308 134.332 368.333C132.984 367.568 131.492 367.065 129.942 366.85C128.351 366.597 126.061 366.232 124.109 367.144C123.605 367.366 123.143 367.664 122.739 368.027C122.466 368.283 122.23 368.574 122.039 368.892C121.53 369.792 121.392 370.843 121.653 371.835C121.791 372.256 121.998 372.654 122.267 373.013C124.551 375.985 129.942 376.839 129.942 376.839C139.428 378.363 148.872 373.46 150.597 372.542Z" fill="#8FC3FC"/>
<path d="M146.39 372C145.623 371.888 144.88 371.765 144.29 371.623C142.092 371.105 140.434 370.741 140.078 370.64C138.068 370.082 136.13 369.308 134.3 368.333C132.952 367.568 131.461 367.065 129.91 366.85C128.32 366.597 126.03 366.232 124.077 367.144C123.574 367.366 123.111 367.664 122.708 368.027C122.715 368.326 122.762 368.623 122.849 368.91C122.987 369.331 123.194 369.728 123.463 370.087C125.747 373.06 131.138 373.913 131.138 373.913C136.769 374.796 142.387 373.448 146.39 372Z" fill="#60A5FA"/>
<path d="M130.557 417.36C132.174 422.374 133.448 427.488 134.37 432.669C134.684 434.448 134.955 436.315 135.226 438.239C135.839 443.169 136.162 448.129 136.195 453.096C136.081 467.34 125.56 502.707 92.2008 520.582C62.6751 536.4 33.2556 528.895 25.881 526.706L25.2275 526.507C29.8464 528.669 62.5745 543.332 97.6076 527.375C119.089 517.59 141.077 496.434 143.6 471.491C145.719 450.756 134.112 427.043 130.557 417.36Z" fill="#8FC3FC"/>
<path d="M129.941 415.533C130.106 416.069 130.312 416.678 130.559 417.359L130.174 416.176L129.941 415.533Z" fill="#8FC3FC"/>
<path d="M140.954 470.294C142.223 457.549 138.38 443.741 134.383 432.714C134.697 434.493 134.968 436.359 135.239 438.283C135.852 443.213 136.176 448.174 136.208 453.14C136.094 467.385 125.573 502.752 92.2139 520.627C62.6882 536.445 33.2687 528.94 25.8941 526.75C36.0156 530.852 64.618 539.981 94.9624 526.178C116.443 516.393 138.432 495.237 140.954 470.294Z" fill="#60A5FA"/>
<path d="M37.2512 535.508C39.1629 538.554 41.3023 541.455 43.6518 544.189C53.3975 555.513 66.5016 563.558 81.1283 567.198C101.689 572.114 106.89 563.008 127.64 567.575C140.477 570.394 148.023 575.983 151.965 577.231C153.151 577.598 154.012 577.579 154.592 576.964C157.702 573.705 148.239 558.2 135.998 548.009C131.578 544.323 122.232 536.716 108.245 534.197C93.1806 531.506 87.08 537.258 66.9135 538.16C56.9507 538.582 46.9745 537.69 37.2512 535.508Z" fill="#60A5FA"/>
<path d="M43.6473 544.191C53.3931 555.514 66.4972 563.56 81.1238 567.2C101.684 572.116 106.885 563.01 127.636 567.577C140.472 570.396 148.019 575.984 151.961 577.232C149.124 570.93 142.262 561.911 134.176 555.159C129.755 551.473 120.409 543.866 106.423 541.347C91.3582 538.656 85.2576 544.408 65.0911 545.31C57.9236 545.617 50.7422 545.242 43.6473 544.191Z" fill="#8FC3FC"/>
<path d="M138.48 408.206C136.694 409.554 136.096 412.716 136.142 416.397C136.233 422.74 139.863 430.154 140.703 432.755C140.747 432.987 140.865 433.199 141.04 433.361C141.873 433.952 142.947 429.076 142.947 429.076L144.351 423.57C145.212 420.288 145.429 416.875 144.99 413.513C144.508 409.911 143.429 407.828 141.044 407.584C140.14 407.457 139.22 407.68 138.48 408.206Z" fill="#8FC3FC"/>
<path d="M138.478 408.205C136.692 409.554 136.093 412.715 136.14 416.397C136.231 422.74 139.861 430.154 140.7 432.755C140.745 432.987 140.863 433.199 141.038 433.361C141.94 433.819 142.231 428.855 142.231 428.855L142.714 423.201C143.024 419.825 142.68 416.422 141.699 413.172C140.89 410.553 139.911 408.848 138.478 408.205Z" fill="#60A5FA"/>
<path d="M151.825 416.65C146.363 419.168 145.621 427.395 145.113 433.021C144.613 438.809 145.227 444.638 146.925 450.203C146.937 450.235 146.974 450.237 146.978 450.185C147.045 449.843 147.275 448.793 147.685 447.282C148.804 443.063 150.423 438.988 152.506 435.139C156.523 427.945 162.358 423.734 159.842 418.825C159.376 417.824 158.706 416.928 157.872 416.193C155.859 415.693 153.736 415.854 151.825 416.65Z" fill="#60A5FA"/>
<path d="M153.597 417.479C148.931 420.102 147.865 425.772 147.027 430.182C145.979 435.872 146.207 441.719 147.695 447.315C148.809 443.086 150.423 439 152.505 435.141C156.523 427.947 162.357 423.735 159.841 418.826C159.375 417.825 158.705 416.929 157.871 416.194C156.369 416.318 154.912 416.756 153.597 417.479Z" fill="#8FC3FC"/>
<path d="M160.718 429.369C154.893 431.964 152.707 438.684 150.765 444.558C149.591 448.333 148.778 452.208 148.336 456.132C147.731 460.328 147.386 464.557 147.302 468.795C147.3 468.831 147.31 468.866 147.332 468.895C147.354 468.924 147.386 468.945 147.422 468.952C147.458 468.96 147.496 468.955 147.528 468.937C147.56 468.92 147.585 468.892 147.598 468.858C148.439 467.117 149.322 465.491 150.194 463.999C152.353 460.294 154.871 456.803 157.715 453.575C164.856 445.455 171.245 442.266 171.163 435.847C171.131 434.414 170.823 432.999 170.256 431.678C169.787 430.575 168.981 429.643 167.949 429.011C165.153 427.391 161.574 428.99 160.718 429.369Z" fill="#FEF08A"/>
<path d="M163.187 432.125C157.362 434.72 155.176 441.44 153.234 447.314C152.06 451.089 151.247 454.964 150.805 458.888C150.542 460.702 150.348 462.42 150.202 464.027C152.356 460.313 154.871 456.813 157.713 453.577C164.854 445.457 171.243 442.268 171.162 435.849C171.129 434.416 170.821 433.001 170.254 431.68C167.49 430.208 164.024 431.753 163.187 432.125Z" fill="#FFD500"/>
<path d="M102.746 478.593C95.3547 481.272 99.4916 494.572 92.3689 506.825C89.4645 511.72 85.4157 515.864 80.5574 518.915C78.3131 520.371 75.9589 521.657 73.5153 522.76C73.4746 522.782 73.4425 522.817 73.4241 522.859C73.4057 522.901 73.4022 522.947 73.4139 522.991C73.4257 523.035 73.4521 523.075 73.4891 523.102C73.526 523.13 73.5712 523.145 73.6176 523.144C78.4099 522.817 83.1241 521.78 87.601 520.07C91.1592 518.717 101.663 514.552 108.326 504.139C110.51 500.864 111.93 497.155 112.486 493.277C112.719 491.444 113.883 482.39 108.903 479.334C108.229 478.931 107.496 478.633 106.729 478.452C105.416 478.106 104.029 478.156 102.746 478.593Z" fill="#FEF08A"/>
<path d="M106.522 480.89C99.1306 483.569 103.268 496.87 96.1449 509.122C93.2404 514.017 89.1916 518.162 84.3333 521.213C85.5605 520.842 86.645 520.463 87.5998 520.071C91.1579 518.718 101.661 514.552 108.325 504.139C110.509 500.864 111.929 497.155 112.484 493.277C112.69 491.672 113.607 484.556 110.505 480.749C109.192 480.404 107.805 480.453 106.522 480.89Z" fill="#FFD500"/>
<path d="M114.837 459.641C114.267 459.814 113.746 460.112 113.313 460.514C112.952 460.833 112.673 461.231 112.497 461.675C111.055 465.313 117.543 468.225 119.869 474.966C120.854 477.805 121.34 481.804 119.684 487.267C119.677 487.279 119.673 487.292 119.672 487.306C119.671 487.319 119.673 487.333 119.677 487.345C119.682 487.358 119.689 487.37 119.699 487.38C119.708 487.389 119.72 487.397 119.733 487.402C119.752 487.408 119.772 487.408 119.791 487.401C119.81 487.395 119.826 487.382 119.837 487.365C121.314 485.484 122.495 483.396 123.34 481.169C124.007 479.395 125.932 474.105 124.142 468.153C123.615 466.249 122.666 464.483 121.362 462.982C120.759 462.274 117.66 458.82 114.837 459.641Z" fill="#8FC3FC"/>
<path d="M113.309 460.511C112.949 460.83 112.669 461.227 112.493 461.672C111.051 465.309 117.54 468.221 119.866 474.962C120.851 477.802 121.336 481.8 119.68 487.264C119.673 487.276 119.669 487.289 119.668 487.302C119.667 487.316 119.669 487.329 119.673 487.342C119.678 487.355 119.685 487.366 119.695 487.376C119.704 487.386 119.716 487.394 119.729 487.399C120.894 485.424 121.764 483.295 122.31 481.076C122.754 479.235 124.011 473.766 121.522 468.058C120.767 466.231 119.611 464.589 118.138 463.25C117.619 462.773 115.469 460.906 113.309 460.511Z" fill="#60A5FA"/>
<path d="M138.554 502.248C130.287 506.419 123.335 512.728 118.448 520.496C118.448 520.496 121.865 518.837 126.584 516.724C134.367 513.279 145.646 508.552 150.957 508.055C159.495 507.24 159.307 508.753 159.307 508.753C159.307 508.753 157.713 510.345 155.507 512.362C161.069 512.131 160.937 513.249 160.937 513.249C160.937 513.249 154.913 519.292 149.733 522.956C147.673 524.4 139.651 529.948 128.676 531.087C125.493 531.352 122.297 531.431 119.104 531.323C128.875 536.691 134.237 537.044 134.237 537.044C141.051 537.499 147.852 536.005 153.819 532.743C159.34 529.698 163.079 526.61 166.282 521.191C170.304 514.416 173.768 507.198 175.193 503.292C175.776 501.713 176.018 500.673 175.833 500.427C174.682 498.897 172.752 498.284 169.087 497.901C162.215 497.179 151.111 496.011 138.554 502.248Z" fill="#60A5FA"/>
<path d="M140.184 506.746C135.101 509.28 130.5 512.656 126.584 516.727C134.367 513.281 145.647 508.555 150.958 508.058C159.496 507.243 159.308 508.756 159.308 508.756C159.308 508.756 157.714 510.348 155.508 512.364C161.07 512.134 160.938 513.251 160.938 513.251C160.938 513.251 154.913 519.294 149.734 522.958C147.674 524.402 139.652 529.95 128.677 531.089C125.494 531.354 122.298 531.433 119.105 531.325C128.876 536.693 134.238 537.047 134.238 537.047C141.052 537.501 147.853 536.007 153.82 532.745C159.341 529.7 163.08 526.612 166.283 521.194C170.305 514.418 173.769 507.201 175.194 503.294C173.748 502.805 172.243 502.504 170.718 502.399C163.845 501.676 152.741 500.509 140.184 506.746Z" fill="#8FC3FC"/>
<path d="M163.562 460.701C159.715 462.474 153.501 465.335 148.927 472.535C145.936 477.312 144.327 482.801 144.273 488.411C144.354 488.288 145.149 487.07 146.336 485.33C149.225 481.114 154.374 473.836 157.322 471.712C161.548 468.628 161.932 469.463 161.932 469.463C161.932 469.463 161.792 470.033 161.556 470.904C160.931 473.343 160.139 475.738 159.186 478.072C157.357 482.335 154.456 486.071 150.755 488.93C147.453 491.394 143.256 493.18 143.492 493.749C143.52 493.826 143.646 493.869 143.863 493.88C144.55 493.907 145.204 493.924 145.827 493.916C154.34 493.986 157.912 492.165 157.912 492.165C161.642 490.274 164.733 487.36 166.812 483.777C168.731 480.443 169.686 477.656 169.623 473.807C169.529 468.166 168.833 462.447 168.244 460.54C168.107 460.161 168.012 459.898 167.913 459.889C166.823 459.482 165.613 459.76 163.562 460.701Z" fill="#60A5FA"/>
<path d="M165.33 461.53C161.482 463.303 155.268 466.163 150.694 473.364C148.397 477.005 146.91 481.084 146.331 485.331C149.22 481.116 154.369 473.837 157.317 471.713C161.543 468.629 161.927 469.464 161.927 469.464C161.927 469.464 161.787 470.034 161.551 470.905C163.483 469.817 163.699 470.292 163.699 470.292C162.983 473.224 162.059 476.103 160.933 478.908C159.104 483.171 156.203 486.906 152.503 489.765C150.027 491.608 147.042 493.079 145.81 493.944C154.322 494.013 157.895 492.192 157.895 492.192C161.624 490.301 164.716 487.388 166.794 483.805C168.714 480.47 169.669 477.683 169.606 473.834C169.512 468.194 168.815 462.475 168.227 460.568C167.214 460.731 166.236 461.057 165.33 461.53Z" fill="#8FC3FC"/>
</svg>
