<svg width="426" height="154" viewBox="0 0 426 154" fill="none" xmlns="http://www.w3.org/2000/svg">
<path d="M241.513 124.317C241.513 124.593 241.565 124.934 241.6 125.32C241.891 128.024 242.796 133.166 246.787 135.355C251.111 137.719 256.113 135.006 257.458 134.178L257.774 133.976C261.861 131.216 263.153 126.902 265.685 118.338C267.209 113.091 268.24 107.699 268.761 102.241C269.177 98.1175 269.324 93.9686 269.201 89.8237C267.4 90.2939 265.637 90.909 263.927 91.6634C251.076 97.3571 245.468 109.287 244.15 112.36C242.62 115.892 241.073 119.507 241.513 124.317Z" fill="#60A5FA"/>
<path d="M264.366 73.7246C267.065 58.9245 264.366 49.0639 262.608 44.29C259.663 36.3519 256.517 35.0917 255.347 34.8158C253.999 34.4918 252.595 34.5151 251.257 34.8835C249.919 35.252 248.687 35.9547 247.665 36.9314C244.545 39.9208 244.852 44.5016 245.028 47.0495C245.134 48.6316 245.617 53.056 250.302 59.9271C254.086 65.4411 258.864 70.128 264.366 73.7246Z" fill="#60A5FA"/>
<path d="M222.888 77.6338C223.216 78.0634 223.578 78.4633 223.97 78.8296C224.51 79.3363 225.099 79.7832 225.728 80.1633C232.918 84.6797 244.186 84.7625 244.186 84.7625C250.789 84.7292 257.334 83.4839 263.524 81.0832C259.034 76.4676 254.015 72.4512 248.581 69.1254C243.492 66.0163 237.902 62.6038 232.76 61.7667C230.381 61.2934 227.921 61.6152 225.728 62.6866C225.086 63.0177 221.333 65.0597 220.454 69.1254C219.575 73.191 222.256 76.806 222.888 77.6338Z" fill="#60A5FA"/>
<path d="M274.035 87.5243C271.122 87.5243 268.761 85.0534 268.761 82.0053C268.761 78.9573 271.122 76.4863 274.035 76.4863C276.947 76.4863 279.309 78.9573 279.309 82.0053C279.309 85.0534 276.947 87.5243 274.035 87.5243Z" fill="#FEF08A"/>
<path d="M341.333 34.4023C339.847 30.5574 337.43 22.84 338.696 14.166C339.332 10.2108 340.837 6.46401 343.091 3.21999C343.963 1.92239 345.188 0.929004 346.607 0.368537C348.034 -0.122846 349.574 -0.122846 351.002 0.368537C352.619 0.973266 353.988 2.14266 354.878 3.6799C356.056 5.72254 356.547 8.11818 356.276 10.4867C355.994 15.0858 353.639 18.5076 351.002 22.4445C350.123 23.7046 349.244 24.8176 347.486 27.0436C344.989 30.1894 342.836 32.6914 341.333 34.4023Z" fill="#60A5FA"/>
<path d="M281.947 75.5642C283.023 68.8207 285.749 62.4832 289.858 57.1676C292.495 53.8838 296.828 48.3465 302.164 48.8892C304.184 49.1064 306.059 50.0876 307.438 51.6486C309.881 54.5645 309.292 58.3726 309.196 59.0073C308.677 62.3555 306.559 64.3975 304.388 66.4763C300.643 70.0269 296.828 71.5078 293.374 72.8047C289.681 74.1877 285.846 75.1138 281.947 75.5642Z" fill="#60A5FA"/>
<path d="M278.281 92.1021C278.87 93.307 279.846 95.2571 281.068 97.621C288.618 112.338 290.737 114.178 292.495 120.617C293.426 124.131 295.835 133.163 291.616 137.174C290.146 138.467 288.259 139.125 286.342 139.013C279.617 138.416 276.005 126.844 274.915 123.376C273.307 118.214 272.776 112.752 273.357 107.357C273.937 101.962 275.617 96.7603 278.281 92.1021Z" fill="#60A5FA"/>
<path d="M288.977 83.8462C292.921 79.6553 297.406 76.0636 302.303 73.1762C307.225 70.2972 310.02 69.6625 312.71 70.0488C313.861 70.2144 317.105 70.6835 318.784 73.4522C319.481 74.6375 319.816 76.0176 319.742 77.4074C319.548 79.5258 318.608 81.493 317.105 82.9264C312.227 88.0407 302.769 86.6057 296.888 85.6859C294.212 85.2739 291.568 84.6591 288.977 83.8462Z" fill="#60A5FA"/>
<path d="M394.808 95.6116C398.403 95.0321 409.909 93.6523 418.937 101.131C421.178 102.97 425.406 106.466 425.969 112.169C425.969 112.647 426.575 119.178 422.453 122.287C418.058 125.607 411.685 122.443 409.531 121.367C402.412 117.816 399.37 110.78 397.841 107.569C396.083 103.89 394.808 95.6116 394.808 95.6116Z" fill="#60A5FA"/>
<path d="M257.999 87.5259C253.604 87.5259 231.778 87.6179 223.929 95.8044C222.522 97.2669 219.587 100.33 220.255 103.531C220.782 106.088 223.349 107.431 223.771 107.679C226.619 109.298 230.346 108.691 234.468 106.842C240.621 104.083 249.411 97.644 252.927 94.8845C255.626 92.6286 258.165 90.1692 260.521 87.5259H257.999Z" fill="#60A5FA"/>
<path d="M35.088 69.515C43.9926 70.1831 55.746 68.7643 64.83 60.7246C74.4666 52.2346 78.1189 39.0003 77.7457 30.6979C77.5744 27.6504 77.0933 24.6307 76.3107 21.6899C76.0523 20.7816 75.8156 19.9708 75.5931 19.2427C75.8415 25.2976 75.0018 31.3476 73.1176 37.0786C71.0704 43.1686 67.9012 48.7794 63.7896 53.5933C53.3924 65.7016 39.9027 68.6968 35.088 69.515Z" fill="#60A5FA"/>
<path d="M34.0828 70.3613C42.2556 74.1147 53.8008 76.8546 64.937 72.4857C76.7047 67.8541 84.3895 56.6616 86.6928 48.7045C87.5065 45.7671 88.0188 42.7474 88.2212 39.6965C88.2642 38.7506 88.3001 37.9024 88.3145 37.1367C86.6095 42.9315 83.8758 48.3381 80.2565 53.0734C76.3779 58.0932 71.5977 62.2703 66.1855 65.3694C52.5164 73.1613 38.8472 71.2621 34.0828 70.3613Z" fill="#93C5FD"/>
<path d="M41.0936 66.7511C49.1516 62.7425 58.7021 55.4234 62.828 43.7656C67.2193 31.4171 64.1626 18.0176 59.9219 10.9839C58.3384 8.41953 56.4983 6.03902 54.4327 3.88256C53.7798 3.22948 53.1914 2.64394 52.6461 2.12598C55.7091 7.27412 57.8217 12.9778 58.8743 18.941C59.9573 25.2961 59.8428 31.8114 58.5371 38.1206C55.179 54.0197 44.8679 63.5758 41.0936 66.7511Z" fill="#60A5FA"/>
<path d="M6.03088 123.78C7.78168 123.78 9.8195 123.78 12.1084 123.885C20.3327 124.304 28.4468 126.041 36.1676 129.034C57.213 137.292 60.7218 149.595 79.9375 153.056C84.0235 153.754 88.1613 154.066 92.3008 153.987C101.945 153.882 110.182 152.058 110.239 150.811C110.239 150.466 109.644 150.188 109.364 150.061C107.111 148.987 104.033 145.557 97.8832 138.801C92.2362 132.57 90.1768 128.186 84.9675 121.535C78.5096 113.278 72.7334 105.906 63.3982 101.56C51.9176 96.2077 40.7957 98.1294 36.8923 99.0152C17.0236 103.497 7.53054 120.927 6.03088 123.78Z" fill="#60A5FA"/>
<path d="M12.129 123.886C20.3532 124.306 28.4673 126.042 36.1881 129.036C57.2336 137.293 60.7423 149.597 79.9581 153.057C84.044 153.756 88.1819 154.067 92.3213 153.988L92.1562 153.808C86.5092 147.577 84.4499 143.194 79.2405 136.543C72.7827 128.285 67.0065 120.914 57.6713 116.567C46.1906 111.215 35.0687 113.137 31.1653 114.023C24.1456 115.636 17.6101 119.023 12.129 123.886Z" fill="#93C5FD"/>
<path d="M44.057 92.2504C48.2679 91.9449 52.4988 92.1742 56.657 92.9334C60.5078 93.6371 64.24 94.9243 67.7358 96.7544C76.2961 101.258 83.5576 109.276 88.5445 114.77C93.5314 120.265 100.219 128.56 106.483 129.033C107.121 129.088 107.761 129.088 108.399 129.033C109.792 128.961 111.129 128.436 112.223 127.532C113.285 126.535 114.035 125.227 114.376 123.778C116.005 118.163 112.776 112.518 111.506 110.266C110.575 108.657 109.493 107.148 108.277 105.762C104.538 101.258 97.0904 94.9302 80.6515 90.749C56.9727 84.7437 44.057 92.2504 44.057 92.2504Z" fill="#FEF08A"/>
<path d="M56.6581 92.9347C60.5088 93.6384 64.241 94.9256 67.7369 96.7556C76.2971 101.26 83.5586 109.277 88.5455 114.772C93.5325 120.267 100.22 128.561 106.484 129.034C107.122 129.089 107.762 129.089 108.4 129.034C108.493 128.757 108.572 128.501 108.637 128.284C110.265 122.669 107.037 117.024 105.767 114.772C104.836 113.162 103.754 111.653 102.538 110.268C98.7992 105.764 91.3511 99.4355 74.9123 95.2543C68.9438 93.6879 62.8114 92.9086 56.6581 92.9347Z" fill="#FFD500"/>
<path d="M86.1707 76.1658C98.62 80.5497 100.026 80.9926 100.026 80.9926C110.129 84.1679 115.174 85.7518 122.055 85.4966C123.633 85.4366 125.183 85.369 126.719 85.1963C130.241 84.9062 133.642 83.7153 136.621 81.7282C143.516 77.0365 146.315 69.0269 147.384 65.9642C148.258 63.2589 148.977 60.5016 149.537 57.7068C149.924 55.9803 150.254 53.5481 150.893 48.6988C150.893 48.6312 150.893 48.5637 150.893 48.4961C151.101 46.8897 151.122 46.672 150.943 46.4168C149.178 43.857 136.592 49.9749 128.699 54.6741C124.358 57.2564 124.903 57.3465 121.524 59.1781C115.837 62.2035 109.811 64.4731 103.585 65.9342C96.6755 67.6007 93.7766 67.3454 93.7622 67.976C93.7622 69.1095 103.277 71.1288 114.026 70.228C115.554 70.1004 117.104 69.9202 118.654 69.665C126.69 68.3513 130.536 65.8591 131.569 65.161C134.813 62.9615 137.016 60.3642 137.31 60.6569C137.604 60.9497 135.616 64.065 132.933 66.6623C131.685 67.8492 130.313 68.8842 128.843 69.7476L129.417 69.6575C137.453 68.3438 141.299 65.8516 142.333 65.1535C145.576 62.954 147.779 60.3567 148.073 60.6495C148.367 60.9422 146.379 64.0575 143.696 66.6548C141.213 69.0645 138.759 70.1304 137.31 71.1588C133.27 74.0114 128.807 74.4618 124.394 74.9122C124.014 74.9122 122.586 74.9647 120.505 75.0698C118.934 75.1449 111.328 75.1223 109.742 75.0698C107.589 75.0022 105.946 74.6569 103.578 74.4167C102.387 74.2891 101.009 74.1915 99.2729 74.1615C94.8761 74.0923 90.4845 74.5075 86.1707 75.4001C86.0736 75.4001 85.9805 75.4405 85.9119 75.5123C85.8433 75.5841 85.8047 75.6814 85.8047 75.7829C85.8047 75.8845 85.8433 75.9819 85.9119 76.0537C85.9805 76.1255 86.0736 76.1658 86.1707 76.1658Z" fill="#93C5FD"/>
<path d="M96.9316 76.1644C109.381 80.5483 110.787 80.9912 110.787 80.9912C117.747 83.1756 122.304 84.6094 126.717 85.2099C130.239 84.9198 133.639 83.7289 136.619 81.7418C143.514 77.0501 146.313 69.0405 147.382 65.9778C148.256 63.2726 148.974 60.5152 149.534 57.7204C149.922 55.9939 150.252 53.5617 150.891 48.7124C146.991 50.5023 143.186 52.5069 139.489 54.7178C135.148 57.3001 135.693 57.3901 132.314 59.2218C126.627 62.2471 120.6 64.5167 114.375 65.9778C107.465 67.6443 104.566 67.389 104.552 68.0196C104.538 68.6501 108.427 69.8287 114.052 70.2716C115.58 70.144 117.13 69.9638 118.68 69.7086C126.717 68.3949 130.563 65.9027 131.596 65.2046C134.839 63.0051 137.042 60.4078 137.336 60.7006C137.63 60.9933 135.643 64.1086 132.959 66.7059C131.712 67.8928 130.34 68.9278 128.869 69.7912L129.443 69.7011C137.48 68.3874 141.326 65.8952 142.359 65.1971C145.602 62.9976 147.805 60.4003 148.099 60.6931C148.394 60.9859 146.406 64.1011 143.722 66.6984C141.24 69.1081 138.786 70.174 137.336 71.2025C133.297 74.055 128.833 74.5054 124.421 74.9558C120.697 75.3311 107.2 74.8282 103.612 74.4603C101.389 74.6633 99.1781 74.9916 96.989 75.4437C96.8977 75.4357 96.807 75.4661 96.737 75.528C96.6671 75.59 96.6235 75.6784 96.6159 75.774C96.6083 75.8696 96.6372 75.9644 96.6965 76.0376C96.7557 76.1108 96.8402 76.1564 96.9316 76.1644Z" fill="#60A5FA"/>
<path d="M0.151489 114.989C0.0653839 115.049 -0.049408 114.944 0.0223389 114.854C5.79535 107.742 12.3925 101.411 19.6614 96.0048C25.0992 91.9196 30.9053 88.3998 36.9972 85.4955C49.3812 79.7736 62.8118 76.9553 76.3471 77.2381C78.9446 77.3282 102.896 78.4467 124.422 93.7528C128.606 96.7555 132.107 99.8257 140.926 105.764C152.901 113.833 159.539 116.948 163.169 118.525C164.081 118.923 172.856 122.684 180.39 123.78C183.049 124.173 185.728 124.401 188.413 124.463C189.848 124.463 192.718 124.463 192.718 124.463C192.718 124.463 185.413 130.536 168.192 126.032C150.971 121.528 123.884 98.7072 114.829 93.978C111.693 92.3416 86.7299 80.1432 60.5612 83.2435C52.8929 84.0207 45.3877 86.0469 38.3175 89.2488C35.2607 90.6526 32.1251 92.3716 20.379 100.509C15.2844 104.037 8.35298 108.931 0.151489 114.989Z" fill="#60A5FA"/>
<path d="M182.902 129.275C182.873 129.258 182.85 129.231 182.836 129.2C182.823 129.168 182.818 129.133 182.825 129.099C182.831 129.065 182.848 129.034 182.872 129.01C182.896 128.986 182.927 128.971 182.96 128.967C185.112 128.644 191.226 127.908 194.713 129.785C195.2 129.986 195.643 130.289 196.013 130.677C196.384 131.064 196.674 131.527 196.866 132.037C197.007 132.56 197.014 133.111 196.889 133.638C196.763 134.165 196.508 134.648 196.148 135.04C194.713 136.451 192.044 135.4 191.125 135.04C189.568 134.424 188.973 133.681 186.82 132.037C185.543 131.024 184.23 130.108 182.902 129.275Z" fill="#93C5FD"/>
<path d="M86.4561 88.558C95.8702 91.0126 101.948 94.4582 105.945 98.0239C108.181 99.9882 110.065 102.355 111.505 105.013C113.436 108.631 113.924 111.769 117.963 118.525C117.963 118.525 125.411 131.008 131.597 131.286C132.026 131.305 132.456 131.279 132.881 131.211C133.638 131.11 134.37 130.855 135.034 130.46C135.949 129.762 136.664 128.814 137.1 127.72C137.997 125.468 138.019 119.463 133.039 111.791C126.509 101.695 116.894 97.2507 110.795 94.5258C103.07 91.0996 94.8449 89.069 86.4705 88.5204C86.413 88.4529 86.3987 88.5429 86.4561 88.558Z" fill="#60A5FA"/>
<path d="M105.944 98.0244C108.181 99.9887 110.064 102.355 111.505 105.013C113.435 108.631 113.923 111.769 117.963 118.525C117.963 118.525 125.411 131.009 131.596 131.287C132.026 131.305 132.456 131.28 132.881 131.212C133.677 128.824 133.534 122.954 128.726 115.523C122.197 105.426 112.581 100.982 106.482 98.2571L105.944 98.0244Z" fill="#93C5FD"/>
<path d="M135.295 111.904C137.862 115.182 139.777 118.965 140.928 123.028C141.645 125.648 141.645 127.082 142.729 130.865C143.267 132.742 144.444 136.871 145.95 139.543C150.327 147.335 161.507 150.135 169.629 149.302C175.334 148.716 180.428 146.254 180.321 145.751C180.321 145.624 180.048 145.624 179.603 145.646C178.426 145.749 177.243 145.716 176.073 145.549C170.784 144.685 167.118 140.294 164.592 137.291C163.157 135.58 163.394 135.527 161.062 132.622C161.062 132.622 158.385 129.619 155.982 126.782C153.75 124.177 149.918 120.694 142.851 116.272C140.698 114.891 138.172 113.427 135.324 111.874L135.295 111.904Z" fill="#93C5FD"/>
<path d="M142.867 116.251C143.542 117.699 144.095 119.206 144.517 120.755C145.235 123.375 145.235 124.809 146.318 128.592C146.856 130.469 148.033 134.598 149.54 137.27C153.917 145.062 165.096 147.862 173.219 147.029C175.393 146.795 177.538 146.324 179.619 145.625C178.443 145.728 177.259 145.695 176.089 145.528C170.801 144.664 167.134 140.273 164.608 137.27C163.173 135.559 163.41 135.506 161.078 132.601C161.078 132.601 158.401 129.598 155.998 126.761C153.766 124.156 149.899 120.695 142.867 116.251Z" fill="#60A5FA"/>
<path d="M159.812 125.755C159.799 125.722 159.795 125.685 159.803 125.65C159.81 125.615 159.827 125.583 159.851 125.558C159.876 125.533 159.907 125.516 159.941 125.51C159.975 125.503 160.01 125.508 160.041 125.522C164.705 127.974 169.601 129.906 174.65 131.288C180.276 132.789 185.191 133.382 186.131 136.542C186.309 137.182 186.337 137.858 186.212 138.511C186.087 139.165 185.813 139.777 185.414 140.296C182.637 143.696 174.062 139.92 173.215 139.545C166.112 136.415 161.993 130.109 159.812 125.755Z" fill="#60A5FA"/>
</svg>
