<svg width="175" height="113" viewBox="0 0 175 113" fill="none" xmlns="http://www.w3.org/2000/svg">
<path d="M156.275 100.632C156.275 100.855 156.231 101.131 156.201 101.443C155.955 103.633 155.188 107.795 151.808 109.567C148.144 111.48 143.908 109.284 142.769 108.614L142.5 108.45C139.038 106.216 137.944 102.724 135.799 95.792C134.508 91.544 133.635 87.1798 133.193 82.7618C132.841 79.4236 132.716 76.0652 132.821 72.71C134.346 73.0906 135.84 73.5884 137.288 74.1991C148.174 78.8081 152.925 88.4653 154.042 90.9522C155.337 93.8114 156.648 96.7376 156.275 100.632Z" fill="#60A5FA"/>
<path d="M136.917 59.6795C134.631 47.6992 136.917 39.7173 138.406 35.8529C140.901 29.4271 143.566 28.4071 144.557 28.1837C145.699 27.9214 146.888 27.9402 148.021 28.2385C149.155 28.5368 150.199 29.1056 151.064 29.8962C153.708 32.3161 153.447 36.0241 153.298 38.0866C153.209 39.3673 152.799 42.9487 148.831 48.5108C145.625 52.9742 141.578 56.7682 136.917 59.6795Z" fill="#60A5FA"/>
<path d="M172.055 62.8437C171.777 63.1914 171.471 63.5152 171.139 63.8117C170.681 64.2218 170.182 64.5836 169.65 64.8913C163.559 68.5472 154.014 68.6142 154.014 68.6142C148.421 68.5873 142.877 67.5793 137.633 65.6359C141.437 61.8997 145.688 58.6485 150.291 55.9563C154.602 53.4396 159.337 50.6772 163.693 49.9997C165.708 49.6165 167.792 49.877 169.65 50.7443C170.193 51.0123 173.373 52.6653 174.117 55.9563C174.862 59.2474 172.591 62.1736 172.055 62.8437Z" fill="#60A5FA"/>
<path d="M128.727 70.8486C131.195 70.8486 133.195 68.8484 133.195 66.3811C133.195 63.9137 131.195 61.9136 128.727 61.9136C126.26 61.9136 124.26 63.9137 124.26 66.3811C124.26 68.8484 126.26 70.8486 128.727 70.8486Z" fill="#FEF08A"/>
<path d="M71.7197 27.8479C72.9781 24.7355 75.0257 18.4885 73.9535 11.4671C73.4142 8.26544 72.1399 5.23247 70.2306 2.60651C69.4914 1.55613 68.4538 0.752008 67.2522 0.298323C66.0431 -0.099441 64.7384 -0.099441 63.5293 0.298323C62.1592 0.787838 60.9996 1.73444 60.2457 2.9788C59.2483 4.63227 58.8316 6.57149 59.0618 8.48873C59.3001 12.2116 61.2956 14.9815 63.5293 18.1683C64.2739 19.1884 65.0185 20.0893 66.5076 21.8912C68.6223 24.4377 70.4465 26.463 71.7197 27.8479Z" fill="#60A5FA"/>
<path d="M122.025 61.1683C121.113 55.7096 118.805 50.5795 115.324 46.2767C113.09 43.6185 109.42 39.1361 104.9 39.5754C103.189 39.7513 101.6 40.5456 100.432 41.8092C98.3626 44.1695 98.8614 47.2521 98.9433 47.7659C99.3826 50.4761 101.177 52.1291 103.016 53.8119C106.188 56.686 109.42 57.8847 112.346 58.9346C115.474 60.0541 118.723 60.8038 122.025 61.1683Z" fill="#60A5FA"/>
<path d="M125.13 74.5562C124.632 75.5316 123.805 77.1101 122.77 79.0236C116.374 90.937 114.58 92.4261 113.091 97.6382C112.301 100.483 110.261 107.794 113.835 111.041C115.08 112.088 116.678 112.62 118.303 112.53C123.999 112.046 127.059 102.679 127.982 99.872C129.344 95.6936 129.794 91.2718 129.302 86.9048C128.81 82.5378 127.388 78.3269 125.13 74.5562Z" fill="#60A5FA"/>
<path d="M116.069 67.8694C112.728 64.4769 108.929 61.5695 104.781 59.2322C100.611 56.9017 98.2435 56.3879 95.9651 56.7006C94.9897 56.8347 92.2422 57.2144 90.82 59.4556C90.2293 60.4151 89.9462 61.5323 90.0084 62.6573C90.1727 64.3721 90.9689 65.9645 92.2422 67.1248C96.3746 71.2647 104.386 70.1031 109.368 69.3586C111.634 69.025 113.874 68.5273 116.069 67.8694Z" fill="#60A5FA"/>
<path d="M26.422 77.3959C23.3766 76.9268 13.6301 75.8099 5.98322 81.8633C4.08453 83.3525 0.503088 86.1819 0.0265548 90.7983C0.0265548 91.1855 -0.487207 96.4721 3.00489 98.9887C6.7278 101.677 12.126 99.1153 13.9502 98.2442C19.9813 95.3701 22.5576 89.674 23.8532 87.0754C25.3424 84.0971 26.422 77.3959 26.422 77.3959Z" fill="#60A5FA"/>
<path d="M142.309 70.8486C146.032 70.8486 164.52 70.9231 171.169 77.5499C172.36 78.7338 174.847 81.2132 174.281 83.8044C173.835 85.8743 171.66 86.9614 171.303 87.1624C168.89 88.4729 165.733 87.9815 162.241 86.4849C157.029 84.2511 149.583 79.039 146.605 76.8053C144.318 74.9792 142.168 72.9883 140.172 70.8486H142.309Z" fill="#60A5FA"/>
</svg>
