<svg width="413" height="141" viewBox="0 0 413 141" fill="none" xmlns="http://www.w3.org/2000/svg">
<path d="M151.765 117.085C151.765 117.308 151.722 117.582 151.693 117.893C151.454 120.072 150.709 124.215 147.427 125.979C143.869 127.884 139.755 125.697 138.648 125.03L138.388 124.867C135.026 122.644 133.963 119.168 131.88 112.268C130.626 108.04 129.779 103.696 129.349 99.2982C129.007 95.9754 128.886 92.6326 128.988 89.293C130.469 89.6718 131.92 90.1674 133.326 90.7752C143.898 95.3628 148.511 104.975 149.596 107.451C150.854 110.297 152.127 113.209 151.765 117.085Z" fill="#60A5FA"/>
<path d="M132.965 76.3217C130.746 64.3969 132.965 56.452 134.412 52.6055C136.834 46.2096 139.423 45.1942 140.384 44.9719C141.494 44.7109 142.648 44.7296 143.749 45.0265C144.85 45.3234 145.864 45.8896 146.704 46.6765C149.271 49.0851 149.018 52.776 148.873 54.8289C148.787 56.1036 148.389 59.6685 144.535 65.2047C141.422 69.6474 137.492 73.4238 132.965 76.3217Z" fill="#60A5FA"/>
<path d="M167.087 79.4714C166.817 79.8174 166.519 80.1397 166.197 80.4348C165.752 80.8431 165.268 81.2032 164.751 81.5095C158.836 85.1484 149.566 85.2151 149.566 85.2151C144.135 85.1883 138.751 84.1849 133.658 82.2506C137.352 78.5317 141.481 75.2956 145.951 72.6159C150.137 70.1109 154.736 67.3613 158.966 66.6869C160.923 66.3055 162.946 66.5648 164.751 67.428C165.279 67.6948 168.366 69.3401 169.09 72.6159C169.813 75.8917 167.607 78.8043 167.087 79.4714Z" fill="#60A5FA"/>
<path d="M125.01 87.4404C127.407 87.4404 129.349 85.4495 129.349 82.9937C129.349 80.5378 127.407 78.5469 125.01 78.5469C122.614 78.5469 120.672 80.5378 120.672 82.9937C120.672 85.4495 122.614 87.4404 125.01 87.4404Z" fill="#FEF08A"/>
<path d="M69.6494 44.6387C70.8714 41.5407 72.8599 35.3227 71.8187 28.3338C71.295 25.147 70.0574 22.1281 68.2032 19.5143C67.4854 18.4688 66.4778 17.6684 65.3109 17.2169C64.1367 16.8209 62.8696 16.8209 61.6954 17.2169C60.3649 17.7041 59.2387 18.6463 58.5066 19.8849C57.538 21.5307 57.1334 23.4609 57.3569 25.3693C57.5883 29.0749 59.5262 31.8319 61.6954 35.004C62.4185 36.0193 63.1416 36.9161 64.5878 38.7096C66.6414 41.2443 68.4129 43.2602 69.6494 44.6387Z" fill="#60A5FA"/>
<path d="M118.502 77.8039C117.617 72.3704 115.375 67.2642 111.995 62.9813C109.825 60.3355 106.26 55.8739 101.871 56.3111C100.209 56.4862 98.6666 57.2768 97.5328 58.5345C95.5226 60.8839 96.0071 63.9522 96.0866 64.4636C96.5132 67.1613 98.2558 68.8066 100.042 70.4815C103.122 73.3423 106.26 74.5355 109.102 75.5805C112.14 76.6948 115.295 77.441 118.502 77.8039Z" fill="#60A5FA"/>
<path d="M121.519 91.1289C121.034 92.0998 120.232 93.671 119.227 95.5757C113.015 107.434 111.273 108.916 109.827 114.104C109.06 116.935 107.079 124.213 110.55 127.444C111.759 128.487 113.311 129.017 114.888 128.927C120.42 128.445 123.392 119.121 124.288 116.327C125.611 112.168 126.048 107.767 125.57 103.42C125.092 99.0735 123.711 94.8822 121.519 91.1289Z" fill="#60A5FA"/>
<path d="M112.719 84.4769C109.475 81.1001 105.785 78.2062 101.757 75.8798C97.7073 73.5601 95.4079 73.0487 93.1953 73.3599C92.248 73.4933 89.5798 73.8713 88.1987 76.1021C87.6251 77.0572 87.3501 78.1692 87.4105 79.289C87.5701 80.9958 88.3433 82.5808 89.5798 83.7357C93.593 87.8564 101.373 86.7003 106.211 85.9591C108.412 85.6272 110.587 85.1318 112.719 84.4769Z" fill="#60A5FA"/>
<path d="M25.6592 93.9565C22.7018 93.4896 13.2366 92.3779 5.81049 98.4033C3.96662 99.8856 0.488565 102.702 0.0257882 107.297C0.0257882 107.682 -0.473143 112.944 2.91814 115.449C6.53358 118.125 11.7759 115.575 13.5475 114.708C19.4045 111.847 21.9064 106.178 23.1646 103.591C24.6108 100.627 25.6592 93.9565 25.6592 93.9565Z" fill="#60A5FA"/>
<path d="M138.202 87.4414C141.818 87.4414 159.772 87.5155 166.229 94.1116C167.386 95.29 169.801 97.7579 169.252 100.337C168.818 102.397 166.706 103.479 166.359 103.68C164.017 104.984 160.951 104.495 157.559 103.005C152.498 100.782 145.267 95.5938 142.374 93.3704C140.154 91.5528 138.066 89.5712 136.127 87.4414H138.202Z" fill="#60A5FA"/>
<path d="M321.576 72.9295C314.25 73.4678 304.582 72.3246 297.109 65.8469C289.182 59.0062 286.177 48.343 286.484 41.6536C286.625 39.1982 287.021 36.7651 287.665 34.3956C287.877 33.6637 288.072 33.0105 288.255 32.4238C288.051 37.3024 288.741 42.1771 290.291 46.7946C291.975 51.7015 294.582 56.2223 297.965 60.1009C306.518 69.8569 317.615 72.2702 321.576 72.9295Z" fill="#60A5FA"/>
<path d="M322.402 73.6117C315.678 76.6358 306.181 78.8434 297.02 75.3233C287.34 71.5915 281.018 62.5735 279.123 56.1622C278.454 53.7955 278.032 51.3625 277.866 48.9043C277.83 48.1422 277.801 47.4587 277.789 46.8418C279.192 51.5108 281.44 55.867 284.418 59.6824C287.608 63.7269 291.541 67.0926 295.993 69.5895C307.238 75.8677 318.482 74.3375 322.402 73.6117Z" fill="#93C5FD"/>
<path d="M316.634 70.7028C310.005 67.473 302.149 61.5759 298.755 52.1828C295.142 42.2333 297.657 31.4371 301.145 25.7698C302.448 23.7037 303.962 21.7856 305.661 20.0481C306.198 19.5219 306.682 19.0501 307.131 18.6328C304.611 22.7808 302.873 27.3764 302.007 32.1811C301.116 37.3015 301.211 42.5511 302.285 47.6345C305.047 60.4449 313.529 68.1444 316.634 70.7028Z" fill="#60A5FA"/>
<path d="M385.081 115.406H385.045C384.915 115.327 394.312 103.66 400.392 82.7451C403.71 71.3379 405.976 63.5356 404.819 54.0155C402.258 32.913 383.611 9.25797 361.73 9.25797C361.057 9.25797 346.607 9.48782 337.133 19.8123C335.613 21.2615 334.26 22.8851 333.101 24.651C329.04 30.8807 325.705 41.3383 329.56 49.4491C331.85 54.2877 336.171 57.203 338.414 58.8784C336.538 58.1809 334.754 57.2485 333.101 56.1022C332.712 55.83 327.559 52.1587 325.003 46.0499C320.281 34.7517 326.738 20.647 333.951 12.5906L334.43 12.0704C338.739 7.51537 344.044 4.07599 349.906 2.03628C367.172 -3.88503 386.438 3.85079 397.99 15.6632C408.916 26.8284 411.566 40.2556 412.156 43.4854C418.555 79.612 386.503 114.287 385.081 115.406Z" fill="#93C5FD"/>
<path d="M385.081 115.407H385.045C384.915 115.329 394.312 103.661 400.392 82.7463C403.71 71.3392 405.976 63.5369 404.819 54.0168C402.258 32.9142 383.611 9.25925 361.73 9.25925C361.057 9.25925 346.607 9.48909 337.133 19.8136C335.613 21.2628 334.26 22.8863 333.101 24.6522C329.04 30.882 325.705 41.3395 329.56 49.4503C331.85 54.289 336.171 57.2043 338.414 58.8797C336.538 58.1822 334.754 57.2498 333.101 56.1035C332.712 55.8313 327.559 52.16 325.003 46.0512C320.281 34.7529 326.738 20.6482 333.951 12.5919L334.43 12.0717C338.52 8.11033 343.396 5.10028 348.726 3.24721C365.991 -2.67409 385.258 5.06173 396.809 16.8741C407.735 28.0393 410.386 41.4666 410.976 44.6964C416.772 77.4299 390.977 108.978 385.081 115.407Z" fill="#60A5FA"/>
<path d="M398.605 38.6282C398.156 38.9911 394.963 32.7251 388.068 28.4308C386.91 27.6995 385.696 27.0644 384.438 26.5316C381.994 25.4973 378.482 24.6203 371.452 22.9026C367.663 21.9772 362.828 20.9127 360.237 17.4591C359.735 16.7938 358.685 15.3543 359.057 13.8301C359.126 13.5395 359.244 13.2634 359.405 13.0136C359.83 12.3775 360.407 11.8633 361.081 11.5196C363.861 9.96523 367.332 11.2838 370.862 12.6204C372.358 13.1989 373.81 13.8903 375.206 14.689C376.357 15.3418 377.469 16.0648 378.535 16.8543C384.468 21.2514 387.637 23.5981 390.931 27.1364C395.948 32.4952 399.041 38.2774 398.605 38.6282Z" fill="#60A5FA"/>
<path d="M388.068 28.4306C386.91 27.6993 385.696 27.0643 384.438 26.5315C381.994 25.4972 378.482 24.6202 371.452 22.9025C367.663 21.9771 362.828 20.9126 360.237 17.459C359.735 16.7937 358.685 15.3542 359.057 13.83C359.126 13.5394 359.244 13.2633 359.405 13.0135C362.061 11.9913 365.254 13.207 368.501 14.4348C369.997 15.0133 371.449 15.7047 372.845 16.5033C373.996 17.1561 375.108 17.8792 376.174 18.6686C381.811 22.848 384.952 25.1706 388.068 28.4306Z" fill="#93C5FD"/>
<path d="M401.565 48.9111C401.151 49.2498 397.929 42.8084 390.828 39.3064C390.462 39.1189 390.09 38.9496 389.706 38.7863C387.658 37.9153 384.718 37.1835 378.827 35.7621C375.658 34.9879 371.608 34.0988 369.442 31.2077C369.042 30.7078 368.728 30.1411 368.515 29.5323C368.372 29.0913 368.35 28.6186 368.45 28.1654C368.593 27.7426 368.817 27.3533 369.109 27.0209C369.401 26.6884 369.755 26.4194 370.15 26.2299C372.476 24.9296 375.38 26.0364 378.337 27.1554C380.612 28.039 382.763 29.2245 384.736 30.6815C389.706 34.3589 392.356 36.3306 395.119 39.2943C399.316 43.7701 401.931 48.6087 401.565 48.9111Z" fill="#FFD500"/>
<path d="M390.826 39.3076C390.46 39.1201 390.088 38.9508 389.704 38.7875C387.656 37.9165 384.717 37.1847 378.826 35.7633C375.656 34.9891 371.607 34.1 369.44 31.2089C369.04 30.709 368.727 30.1423 368.514 29.5336C368.66 29.4317 368.811 29.3387 368.968 29.2553C371.294 27.9549 374.198 29.0618 377.155 30.1807C379.429 31.0644 381.581 32.2499 383.554 33.7069C386.712 36.0294 388.925 37.6685 390.826 39.3076Z" fill="#FEF08A"/>
<path d="M401.357 59.0836C401.021 59.3074 398.943 53.9426 393.501 51.0031L393.194 50.8398C390.818 49.7867 388.389 48.866 385.916 48.0818C383.685 47.3076 380.84 46.3882 379.47 44.1685C379.258 43.8471 379.092 43.4969 378.974 43.1282C378.844 42.736 378.844 42.3107 378.974 41.9185C379.104 41.6246 379.29 41.3602 379.522 41.1411C379.753 40.9219 380.024 40.7523 380.32 40.6423C382.091 39.8681 384.086 40.8601 386.134 41.852C387.002 42.288 387.839 42.7873 388.637 43.3459C389.291 43.8055 389.92 44.3022 390.52 44.8338C393.843 47.8156 395.626 49.4124 397.409 51.7229C400.082 55.2611 401.641 58.8901 401.357 59.0836Z" fill="#60A5FA"/>
<path d="M393.192 50.8404C390.817 49.7872 388.387 48.8666 385.914 48.0823C383.683 47.3082 380.838 46.3888 379.468 44.1691C379.257 43.8477 379.09 43.4975 378.973 43.1288L379.12 43.0622C380.891 42.2881 382.886 43.28 384.934 44.2719C385.802 44.7079 386.639 45.2072 387.437 45.7658C388.091 46.2254 388.72 46.7221 389.32 47.2537C390.89 48.6993 392.142 49.8182 393.192 50.8404Z" fill="#93C5FD"/>
<path d="M401.34 69.3794C401.558 69.2706 400.75 66.4883 399.056 63.7182C397.952 61.9037 396.795 60.5852 394.629 58.1356C394.24 57.7065 393.826 57.3025 393.389 56.9259C392.86 56.4503 392.295 56.0175 391.701 55.6316C390.302 54.7243 388.927 53.8171 387.569 54.2465C387.345 54.3006 387.134 54.4003 386.949 54.5395C386.763 54.6787 386.607 54.8547 386.489 55.057C386.399 55.3324 386.369 55.6247 386.402 55.9133C386.434 56.2018 386.528 56.4794 386.678 56.7263C387.486 58.4561 389.47 59.3634 391.022 60.1134C392.838 60.9149 394.599 61.8403 396.293 62.8835C400.018 65.454 401.08 69.5125 401.34 69.3794Z" fill="#FEF08A"/>
<path d="M363.777 64.0321C363.777 65.3479 363.396 66.6342 362.683 67.7283C361.969 68.8225 360.955 69.6752 359.769 70.1788C358.582 70.6823 357.277 70.8141 356.017 70.5574C354.758 70.3007 353.601 69.667 352.693 68.7366C351.785 67.8061 351.166 66.6206 350.916 65.33C350.665 64.0394 350.794 62.7017 351.285 61.486C351.777 60.2703 352.609 59.2312 353.677 58.5002C354.744 57.7691 356 57.3789 357.284 57.3789C359.006 57.3789 360.658 58.0798 361.875 59.3276C363.093 60.5753 363.777 62.2675 363.777 64.0321Z" fill="#FFD500"/>
<path d="M362.304 66.1494C362.304 67.4653 361.924 68.7516 361.21 69.8457C360.497 70.9398 359.483 71.7926 358.296 72.2961C357.11 72.7997 355.804 72.9315 354.545 72.6747C353.285 72.418 352.128 71.7844 351.22 70.8539C350.312 69.9235 349.694 68.738 349.443 67.4474C349.193 66.1568 349.321 64.8191 349.813 63.6034C350.304 62.3877 351.136 61.3486 352.204 60.6175C353.272 59.8865 354.527 59.4963 355.811 59.4963C356.666 59.4898 357.513 59.6575 358.303 59.9896C359.094 60.3217 359.812 60.8115 360.417 61.4306C361.021 62.0497 361.499 62.7857 361.823 63.5958C362.147 64.4059 362.311 65.2739 362.304 66.1494Z" fill="#FEF08A"/>
<path d="M345.479 116.652C344.039 116.652 342.362 116.652 340.479 116.736C333.714 117.074 327.039 118.474 320.687 120.886C303.375 127.539 300.488 137.452 284.681 140.24C281.32 140.803 277.916 141.054 274.511 140.99C266.577 140.906 259.801 139.436 259.754 138.432C259.754 138.154 260.244 137.93 260.474 137.827C262.327 136.962 264.86 134.198 269.918 128.755C274.564 123.734 276.258 120.202 280.543 114.843C285.856 108.19 290.607 102.251 298.287 98.7488C307.731 94.4363 316.88 95.9847 320.091 96.6984C336.436 100.309 344.245 114.353 345.479 116.652Z" fill="#60A5FA"/>
<path d="M340.463 116.738C333.697 117.075 327.022 118.475 320.671 120.887C303.358 127.54 300.472 137.453 284.664 140.241C281.303 140.804 277.899 141.055 274.494 140.991L274.63 140.846C279.275 135.826 280.969 132.294 285.255 126.935C290.567 120.282 295.319 114.343 302.998 110.841C312.443 106.528 321.592 108.077 324.803 108.79C330.577 110.09 335.954 112.819 340.463 116.738Z" fill="#93C5FD"/>
<path d="M314.196 91.248C310.732 91.0018 307.252 91.1866 303.831 91.7984C300.664 92.3654 297.593 93.4025 294.718 94.877C287.676 98.506 281.702 104.966 277.6 109.393C273.497 113.82 267.996 120.504 262.843 120.885C262.319 120.929 261.791 120.929 261.267 120.885C260.121 120.826 259.021 120.404 258.121 119.675C257.247 118.872 256.63 117.818 256.35 116.651C255.01 112.127 257.666 107.578 258.711 105.764C259.477 104.467 260.367 103.251 261.367 102.135C264.443 98.506 270.57 93.4072 284.093 90.0383C303.572 85.1997 314.196 91.248 314.196 91.248Z" fill="#FEF08A"/>
<path d="M303.832 91.7993C300.664 92.3663 297.594 93.4034 294.718 94.8779C287.676 98.5069 281.703 104.967 277.6 109.394C273.498 113.821 267.997 120.505 262.844 120.886C262.319 120.93 261.792 120.93 261.267 120.886C261.191 120.662 261.126 120.456 261.073 120.281C259.733 115.757 262.389 111.208 263.434 109.394C264.2 108.097 265.089 106.881 266.09 105.765C269.165 102.136 275.292 97.0372 288.815 93.6683C293.725 92.4062 298.77 91.7783 303.832 91.7993Z" fill="#FFD500"/>
<path d="M279.553 78.288C269.312 81.8202 268.155 82.1771 268.155 82.1771C259.844 84.7355 255.695 86.0117 250.034 85.8061C248.735 85.7577 247.461 85.7032 246.197 85.5641C243.3 85.3304 240.503 84.3708 238.052 82.7698C232.379 78.9896 230.077 72.536 229.198 70.0683C228.479 67.8887 227.887 65.667 227.427 63.4152C227.108 62.0241 226.836 60.0644 226.311 56.1572C226.311 56.1028 226.311 56.0483 226.311 55.9939C226.14 54.6996 226.122 54.5242 226.27 54.3185C227.722 52.256 238.075 57.1854 244.568 60.9717C248.139 63.0523 247.691 63.1249 250.471 64.6007C255.149 67.0383 260.107 68.8669 265.228 70.0441C270.912 71.3869 273.297 71.1812 273.308 71.6893C273.308 72.6026 265.481 74.2296 256.639 73.5038C255.382 73.4009 254.107 73.2558 252.832 73.0501C246.221 71.9917 243.057 69.9836 242.207 69.4212C239.539 67.649 237.727 65.5563 237.485 65.7922C237.243 66.028 238.878 68.5381 241.086 70.6308C242.112 71.5871 243.241 72.4211 244.45 73.1167L243.978 73.0441C237.367 71.9857 234.203 69.9776 233.353 69.4151C230.685 67.643 228.873 65.5503 228.631 65.7861C228.389 66.022 230.024 68.5321 232.232 70.6248C234.274 72.5663 236.293 73.4252 237.485 74.2538C240.808 76.5522 244.48 76.9151 248.11 77.278C248.423 77.278 249.597 77.3203 251.309 77.4049C252.602 77.4654 258.859 77.4473 260.163 77.4049C261.934 77.3505 263.286 77.0723 265.234 76.8787C266.213 76.7759 267.347 76.6973 268.775 76.6731C272.392 76.6174 276.005 76.9519 279.553 77.6711C279.633 77.6711 279.71 77.7036 279.766 77.7614C279.823 77.8193 279.855 77.8977 279.855 77.9795C279.855 78.0614 279.823 78.1398 279.766 78.1977C279.71 78.2555 279.633 78.288 279.553 78.288Z" fill="#93C5FD"/>
<path d="M270.701 78.2867C260.46 81.8189 259.303 82.1757 259.303 82.1757C253.577 83.9358 249.829 85.091 246.199 85.5749C243.301 85.3412 240.504 84.3816 238.053 82.7806C232.38 79.0004 230.078 72.5468 229.199 70.0791C228.48 67.8994 227.889 65.6778 227.428 63.426C227.109 62.0348 226.838 60.0752 226.312 56.168C229.52 57.6101 232.651 59.2253 235.692 61.0066C239.263 63.0872 238.814 63.1598 241.595 64.6356C246.273 67.0732 251.23 68.9019 256.351 70.0791C262.036 71.4218 264.42 71.2162 264.432 71.7242C264.444 72.2323 261.245 73.1819 256.617 73.5387C255.36 73.4359 254.085 73.2907 252.81 73.0851C246.199 72.0266 243.035 70.0186 242.185 69.4561C239.517 67.684 237.705 65.5912 237.463 65.8271C237.221 66.063 238.856 68.5731 241.063 70.6658C242.09 71.6221 243.218 72.456 244.428 73.1517L243.956 73.0791C237.345 72.0206 234.181 70.0126 233.331 69.4501C230.663 67.6779 228.851 65.5852 228.609 65.8211C228.367 66.057 230.002 68.567 232.209 70.6598C234.252 72.6013 236.27 73.4601 237.463 74.2887C240.786 76.5871 244.457 76.95 248.088 77.3129C251.151 77.6153 262.254 77.2101 265.205 76.9137C267.034 77.0773 268.853 77.3417 270.654 77.706C270.729 77.6996 270.803 77.724 270.861 77.774C270.918 77.8239 270.954 77.8952 270.961 77.9722C270.967 78.0492 270.943 78.1255 270.894 78.1845C270.846 78.2435 270.776 78.2803 270.701 78.2867Z" fill="#60A5FA"/>
<path d="M350.315 109.569C350.386 109.618 350.48 109.533 350.421 109.46C345.672 103.73 340.245 98.6287 334.266 94.2731C329.792 90.9816 325.016 88.1456 320.005 85.8055C309.817 81.1952 298.769 78.9245 287.634 79.1523C285.497 79.2249 265.794 80.1261 248.086 92.4586C244.645 94.878 241.764 97.3517 234.51 102.136C224.658 108.638 219.198 111.148 216.212 112.418C215.462 112.739 208.243 115.769 202.045 116.652C199.858 116.969 197.654 117.153 195.446 117.202C194.265 117.202 191.904 117.202 191.904 117.202C191.904 117.202 197.913 122.095 212.08 118.466C226.246 114.837 248.529 96.4505 255.978 92.6401C258.558 91.3215 279.093 81.493 300.62 83.991C306.928 84.6172 313.102 86.2498 318.919 88.8296C321.433 89.9607 324.013 91.3457 333.675 97.9021C337.866 100.745 343.568 104.688 350.315 109.569Z" fill="#60A5FA"/>
<path d="M199.979 121.079C200.003 121.066 200.022 121.044 200.033 121.019C200.045 120.994 200.048 120.965 200.043 120.938C200.038 120.91 200.024 120.885 200.004 120.866C199.984 120.847 199.959 120.835 199.932 120.831C198.161 120.571 193.132 119.978 190.263 121.491C189.862 121.652 189.498 121.897 189.194 122.209C188.889 122.521 188.65 122.894 188.492 123.305C188.376 123.726 188.37 124.171 188.474 124.595C188.577 125.019 188.787 125.409 189.083 125.724C190.263 126.861 192.459 126.015 193.215 125.724C194.495 125.228 194.985 124.63 196.756 123.305C197.807 122.489 198.887 121.751 199.979 121.079Z" fill="#93C5FD"/>
<path d="M279.319 88.2729C271.574 90.2507 266.575 93.0269 263.287 95.8998C261.447 97.4825 259.897 99.3895 258.712 101.531C257.124 104.446 256.723 106.974 253.4 112.418C253.4 112.418 247.273 122.476 242.185 122.7C241.831 122.715 241.478 122.695 241.128 122.639C240.505 122.558 239.904 122.352 239.357 122.035C238.604 121.472 238.016 120.709 237.657 119.827C236.919 118.012 236.902 113.174 240.998 106.992C246.37 98.8575 254.279 95.2769 259.297 93.0813C265.652 90.3207 272.418 88.6846 279.307 88.2427C279.354 88.1882 279.366 88.2608 279.319 88.2729Z" fill="#60A5FA"/>
<path d="M263.286 95.9004C261.446 97.4831 259.897 99.39 258.712 101.531C257.124 104.447 256.722 106.975 253.399 112.418C253.399 112.418 247.272 122.477 242.184 122.7C241.831 122.715 241.477 122.695 241.128 122.64C240.472 120.717 240.59 115.987 244.545 109.999C249.917 101.864 257.826 98.2834 262.844 96.0879L263.286 95.9004Z" fill="#93C5FD"/>
<path d="M239.142 107.083C237.03 109.724 235.455 112.772 234.509 116.046C233.918 118.157 233.918 119.312 233.027 122.361C232.584 123.873 231.616 127.199 230.377 129.353C226.776 135.631 217.58 137.887 210.898 137.216C206.205 136.744 202.014 134.76 202.103 134.355C202.103 134.252 202.327 134.252 202.693 134.27C203.661 134.353 204.635 134.327 205.597 134.191C209.948 133.496 212.964 129.958 215.042 127.538C216.222 126.159 216.027 126.117 217.946 123.776C217.946 123.776 220.147 121.357 222.125 119.071C223.961 116.972 227.113 114.165 232.927 110.603C234.698 109.49 236.775 108.311 239.119 107.059L239.142 107.083Z" fill="#93C5FD"/>
<path d="M232.913 110.586C232.357 111.752 231.903 112.967 231.556 114.215C230.965 116.326 230.965 117.481 230.074 120.529C229.631 122.041 228.663 125.368 227.424 127.521C223.823 133.799 214.627 136.055 207.945 135.384C206.156 135.195 204.392 134.816 202.68 134.253C203.648 134.336 204.622 134.31 205.584 134.174C209.934 133.479 212.95 129.941 215.028 127.521C216.209 126.142 216.014 126.1 217.932 123.759C217.932 123.759 220.134 121.34 222.111 119.054C223.947 116.955 227.129 114.167 232.913 110.586Z" fill="#60A5FA"/>
<path d="M218.974 118.243C218.985 118.216 218.988 118.187 218.982 118.158C218.976 118.13 218.962 118.104 218.942 118.084C218.922 118.064 218.896 118.05 218.868 118.045C218.84 118.04 218.811 118.044 218.786 118.056C214.949 120.031 210.921 121.587 206.768 122.701C202.14 123.91 198.097 124.388 197.323 126.935C197.177 127.45 197.154 127.994 197.257 128.521C197.359 129.047 197.585 129.541 197.914 129.959C200.198 132.699 207.252 129.656 207.948 129.354C213.792 126.832 217.18 121.751 218.974 118.243Z" fill="#60A5FA"/>
<path d="M369.385 119.022C369.366 118.429 369.303 117.839 369.196 117.256C368.842 115.775 368.082 114.428 367.006 113.373C366.563 112.895 366.091 112.46 365.643 112.036C359.941 106.732 359.262 105.91 358.583 104.857C356.523 101.7 356.741 100.018 356.924 99.2746C356.994 98.9978 357.088 98.7284 357.208 98.4701C357.489 97.88 357.876 97.3488 358.347 96.9036C358.847 96.431 359.436 96.0669 360.077 95.8331C360.718 95.5992 361.398 95.5005 362.077 95.5427C362.898 95.6378 363.681 95.9482 364.35 96.4439C367.177 98.4338 368.187 103.17 368.529 104.912C369.975 112.442 369.491 119.016 369.385 119.022Z" fill="#60A5FA"/>
<path d="M366.988 113.373C366.546 112.895 366.073 112.46 365.625 112.036C359.941 106.732 359.262 105.909 358.583 104.857C356.523 101.7 356.741 100.018 356.924 99.2742C356.994 98.9975 357.088 98.7281 357.208 98.4698C357.981 98.0639 358.85 97.8879 359.716 97.9617C360.537 98.0568 361.32 98.3672 361.989 98.863C364.816 100.853 365.826 105.589 366.168 107.331C366.55 109.328 366.824 111.345 366.988 113.373Z" fill="#93C5FD"/>
<path d="M379.637 111.317C379.99 110.845 380.306 110.346 380.581 109.823C381.217 108.444 381.456 106.908 381.272 105.395C381.219 104.742 381.124 104.095 381.036 103.478C379.891 95.6937 379.855 94.611 379.985 93.359C380.327 89.5788 381.537 88.4115 382.134 87.9579C382.357 87.7876 382.596 87.6397 382.848 87.5164C383.429 87.239 384.056 87.0749 384.695 87.0325C385.375 86.9914 386.056 87.0901 386.697 87.3228C387.339 87.5555 387.929 87.9174 388.432 88.3873C389 88.9961 389.406 89.7435 389.612 90.5587C390.586 93.9276 388.432 98.2582 387.641 99.8368C384.14 106.605 379.737 111.395 379.637 111.317Z" fill="#60A5FA"/>
<path d="M381.276 105.396C381.223 104.743 381.129 104.096 381.04 103.479C379.895 95.6949 379.86 94.6122 379.989 93.3602C380.332 89.58 381.542 88.4127 382.138 87.9591C382.362 87.7888 382.601 87.6409 382.852 87.5176C383.701 87.6977 384.484 88.1166 385.113 88.7272C385.691 89.3304 386.108 90.0761 386.323 90.8925C387.291 94.2614 385.142 98.592 384.352 100.171C383.42 101.969 382.394 103.713 381.276 105.396Z" fill="#93C5FD"/>
<path d="M373.618 115.254C373.613 115.266 373.605 115.275 373.594 115.282C373.584 115.289 373.572 115.293 373.559 115.293C373.547 115.293 373.535 115.289 373.524 115.282C373.514 115.275 373.505 115.266 373.5 115.254C373.453 114.649 373.305 112.835 373.075 111.141C372.963 110.385 372.839 109.653 372.697 109.073C372.178 106.907 371.812 105.274 371.712 104.923C371.152 102.943 370.376 101.034 369.398 99.232C368.631 97.904 368.125 96.4347 367.91 94.9075C367.656 93.341 367.29 91.0849 368.205 89.1616C368.427 88.6659 368.726 88.2104 369.091 87.8128C369.348 87.543 369.64 87.3109 369.958 87.1233C370.861 86.6213 371.914 86.4852 372.91 86.7422C373.332 86.8784 373.731 87.0826 374.09 87.3471C377.071 89.597 377.927 94.9075 377.927 94.9075C379.456 104.252 374.539 113.554 373.618 115.254Z" fill="#60A5FA"/>
<path d="M373.075 111.112C372.963 110.356 372.839 109.624 372.697 109.043C372.178 106.878 371.812 105.245 371.712 104.894C371.152 102.914 370.376 101.004 369.398 99.2024C368.631 97.8744 368.125 96.4051 367.91 94.8779C367.656 93.3114 367.29 91.0553 368.205 89.132C368.427 88.6363 368.726 88.1808 369.091 87.7832C369.391 87.7903 369.688 87.837 369.976 87.9223C370.399 88.0585 370.797 88.2626 371.157 88.5271C374.138 90.7771 374.993 96.0875 374.993 96.0875C375.879 101.634 374.527 107.168 373.075 111.112Z" fill="#93C5FD"/>
</svg>
