<svg width="64" height="44" viewBox="0 0 64 44" fill="none" xmlns="http://www.w3.org/2000/svg">
<g clip-path="url(#clip0_270_3411)">
<path d="M22.3988 14.8822C24.7894 14.8822 26.7274 12.844 26.7274 10.3298C26.7274 7.81553 24.7894 5.77734 22.3988 5.77734C20.0083 5.77734 18.0703 7.81553 18.0703 10.3298C18.0703 12.844 20.0083 14.8822 22.3988 14.8822Z" fill="url(#paint0_linear_270_3411)"/>
<path d="M32.5716 18.7933C29.4917 17.13 22.5373 13.8032 17.5429 13.3947C15.2399 13.2196 13.4086 13.3655 11.605 14.2701C10.8559 14.6495 9.05233 15.5833 7.91471 17.7136C7.19328 19.0268 7.05455 20.2816 7.0268 20.7194C6.97131 21.3322 6.86032 22.9956 7.74822 24.6298C8.71937 26.4099 10.6617 27.6355 10.6894 27.6939C10.6062 27.5772 8.49739 24.8049 9.57952 21.9742C10.3564 19.9314 12.2987 19.1435 13.1589 18.7933C14.5462 18.2097 15.8503 18.2097 17.1544 18.3264C19.0967 18.5015 25.5747 19.9606 29.709 21.9742L32.5716 18.7933Z" fill="url(#paint1_linear_270_3411)"/>
<path d="M36.4391 20.8649C36.4391 20.8649 40.7399 23.3454 43.792 23.4913C46.8442 23.6372 50.2571 23.6372 51.7831 21.7404C52.6988 20.6023 53.2537 19.2599 53.2537 19.2599C53.337 19.0556 53.5312 18.472 53.9474 17.3047C54.0861 18.0926 54.5578 21.0108 52.8653 23.7247C51.6999 25.6216 50.0628 26.4679 49.2582 26.8764C47.3714 27.8102 45.7343 27.8394 44.0972 27.8686C44.0972 27.8686 40.2404 27.927 36.883 26.3803C36.7443 26.322 36.0506 25.9718 35.135 25.534C34.691 25.3298 32.9707 24.4251 32.9707 24.4251L36.4391 20.8649Z" fill="#FCFEFB"/>
<path d="M55.3343 20.2823C55.7505 19.757 56.8604 18.152 56.9991 15.7883C57.0269 15.5256 57.1378 13.1327 55.917 11.2359C53.7527 7.85075 48.3143 7.32547 45.2899 8.37602C42.2377 9.48494 37.715 12.1113 33.3587 16.7805C27.7816 22.7628 26.2277 25.2141 21.5108 27.0817C17.2932 28.7451 15.018 27.8113 14.2688 27.4611C12.271 26.4981 11.1889 24.718 10.6895 23.7258C10.8837 24.718 11.4109 26.6148 12.8815 28.4533C13.1867 28.8035 14.1856 30.0291 15.6007 30.8171C18.958 32.6847 22.8426 31.3131 24.4797 30.7295C27.6706 29.5622 30.0291 27.2568 34.6628 22.7044C38.7971 18.6189 39.574 17.2766 42.6817 15.2922C46.7327 12.7242 49.008 12.695 50.3121 12.8701C51.2555 13.016 53.9747 13.3953 55.1678 15.7883C56.139 17.6851 55.5008 19.757 55.3343 20.2823Z" fill="url(#paint2_linear_270_3411)"/>
<path d="M47.0942 9.10481C49.4847 9.10481 51.4227 7.06663 51.4227 4.55241C51.4227 2.03818 49.4847 0 47.0942 0C44.7036 0 42.7656 2.03818 42.7656 4.55241C42.7656 7.06663 44.7036 9.10481 47.0942 9.10481Z" fill="#005BBB"/>
</g>
<path d="M1.11327 37.8554V39.9105H3.45701V40.8474H1.11327V42.9933H3.74998V43.9302H0V36.9185H3.74998V37.8554H1.11327Z" fill="white"/>
<path d="M9.25203 39.7997V40.7668H5.23839V39.7997H9.25203Z" fill="white"/>
<path d="M16.6832 36.9286L14.1344 43.9302H12.8454L10.2868 36.9286H11.4782L13.4899 42.7515L15.5114 36.9286H16.6832Z" fill="white"/>
<path d="M20.7099 44.0007C20.0784 44.0007 19.4958 43.8496 18.9619 43.5473C18.4346 43.2384 18.0146 42.8119 17.7021 42.2679C17.3962 41.7172 17.2432 41.0993 17.2432 40.4142C17.2432 39.7292 17.3962 39.1147 17.7021 38.5707C18.0146 38.0267 18.4346 37.6035 18.9619 37.3013C19.4958 36.9924 20.0784 36.8379 20.7099 36.8379C21.348 36.8379 21.9306 36.9924 22.458 37.3013C22.9918 37.6035 23.4117 38.0267 23.7177 38.5707C24.0237 39.1147 24.1767 39.7292 24.1767 40.4142C24.1767 41.0993 24.0237 41.7172 23.7177 42.2679C23.4117 42.8119 22.9918 43.2384 22.458 43.5473C21.9306 43.8496 21.348 44.0007 20.7099 44.0007ZM20.7099 43.0033C21.1592 43.0033 21.5595 42.8992 21.9111 42.691C22.2627 42.4761 22.5361 42.1739 22.7314 41.7843C22.9332 41.3881 23.0341 40.9314 23.0341 40.4142C23.0341 39.8971 22.9332 39.4438 22.7314 39.0542C22.5361 38.6647 22.2627 38.3658 21.9111 38.1576C21.5595 37.9494 21.1592 37.8453 20.7099 37.8453C20.2607 37.8453 19.8603 37.9494 19.5088 38.1576C19.1572 38.3658 18.8805 38.6647 18.6787 39.0542C18.4834 39.4438 18.3857 39.8971 18.3857 40.4142C18.3857 40.9314 18.4834 41.3881 18.6787 41.7843C18.8805 42.1739 19.1572 42.4761 19.5088 42.691C19.8603 42.8992 20.2607 43.0033 20.7099 43.0033Z" fill="white"/>
<path d="M26.3855 43.0033H28.6804V43.9302H25.2722V36.9286H26.3855V43.0033Z" fill="white"/>
<path d="M30.7149 36.9286V41.3915C30.7149 41.922 30.8484 42.3216 31.1153 42.5903C31.3887 42.8589 31.7663 42.9933 32.2481 42.9933C32.7364 42.9933 33.114 42.8589 33.3809 42.5903C33.6544 42.3216 33.7911 41.922 33.7911 41.3915V36.9286H34.9043V41.3713C34.9043 41.9422 34.7839 42.4257 34.543 42.822C34.3021 43.2182 33.9799 43.5138 33.5762 43.7085C33.1726 43.9033 32.7266 44.0007 32.2383 44.0007C31.7501 44.0007 31.3041 43.9033 30.9005 43.7085C30.5033 43.5138 30.1876 43.2182 29.9532 42.822C29.7188 42.4257 29.6016 41.9422 29.6016 41.3713V36.9286H30.7149Z" fill="white"/>
<path d="M41.93 43.9302H40.8167L37.4671 38.7016V43.9302H36.3538V36.9185H37.4671L40.8167 42.1369V36.9185H41.93V43.9302Z" fill="white"/>
<path d="M47.7767 36.9286V37.8655H45.97V43.9302H44.8567V37.8655H43.0404V36.9286H47.7767Z" fill="white"/>
<path d="M50.0174 37.8554V39.9105H52.3611V40.8474H50.0174V42.9933H52.6541V43.9302H48.9041V36.9185H52.6541V37.8554H50.0174Z" fill="white"/>
<path d="M55.1386 37.8554V39.9105H57.4823V40.8474H55.1386V42.9933H57.7753V43.9302H54.0253V36.9185H57.7753V37.8554H55.1386Z" fill="white"/>
<path d="M62.6719 43.9302L61.1094 41.1295H60.2598V43.9302H59.1465V36.9286H61.4902C62.0111 36.9286 62.4505 37.0226 62.8086 37.2106C63.1732 37.3987 63.4434 37.6505 63.6191 37.9662C63.8014 38.2819 63.8926 38.6345 63.8926 39.024C63.8926 39.4807 63.7624 39.8971 63.502 40.2732C63.2481 40.6426 62.8542 40.8945 62.3203 41.0288L64 43.9302H62.6719ZM60.2598 40.2128H61.4902C61.9069 40.2128 62.2194 40.1053 62.4277 39.8904C62.6426 39.6755 62.75 39.3867 62.75 39.024C62.75 38.6613 62.6458 38.3793 62.4375 38.1778C62.2292 37.9696 61.9134 37.8655 61.4902 37.8655H60.2598V40.2128Z" fill="white"/>
<defs>
<linearGradient id="paint0_linear_270_3411" x1="19.6901" y1="5.82146" x2="25.5311" y2="14.588" gradientUnits="userSpaceOnUse">
<stop stop-color="#3D76C5"/>
<stop offset="1" stop-color="#040205"/>
</linearGradient>
<linearGradient id="paint1_linear_270_3411" x1="15.0144" y1="11.9456" x2="24.351" y2="19.31" gradientUnits="userSpaceOnUse">
<stop offset="0.00520833" stop-color="#3D76C5"/>
<stop offset="0.989583" stop-color="#040205"/>
</linearGradient>
<linearGradient id="paint2_linear_270_3411" x1="21.8846" y1="31.7217" x2="29.8444" y2="16.6874" gradientUnits="userSpaceOnUse">
<stop stop-color="#FFD500"/>
<stop offset="0.730403" stop-color="#F7ED4E"/>
<stop offset="1" stop-color="#005BBB"/>
</linearGradient>
<clipPath id="clip0_270_3411">
<rect width="50" height="31.7209" fill="white" transform="translate(7)"/>
</clipPath>
</defs>
</svg>
