<svg width="64" height="44" viewBox="0 0 64 44" fill="none" xmlns="http://www.w3.org/2000/svg">
<g clip-path="url(#clip0_263_3109)">
<path d="M22.3988 14.8831C24.7894 14.8831 26.7274 12.845 26.7274 10.3307C26.7274 7.8165 24.7894 5.77832 22.3988 5.77832C20.0083 5.77832 18.0703 7.8165 18.0703 10.3307C18.0703 12.845 20.0083 14.8831 22.3988 14.8831Z" fill="url(#paint0_linear_263_3109)"/>
<path d="M32.5716 18.7933C29.4917 17.13 22.5373 13.8032 17.5429 13.3947C15.2399 13.2196 13.4086 13.3655 11.605 14.2701C10.8559 14.6495 9.05233 15.5833 7.91471 17.7136C7.19328 19.0268 7.05455 20.2816 7.0268 20.7194C6.97131 21.3322 6.86032 22.9956 7.74822 24.6298C8.71937 26.4099 10.6617 27.6355 10.6894 27.6939C10.6062 27.5772 8.49739 24.8049 9.57952 21.9742C10.3564 19.9314 12.2987 19.1435 13.1589 18.7933C14.5462 18.2097 15.8503 18.2097 17.1544 18.3264C19.0967 18.5015 25.5747 19.9606 29.709 21.9742L32.5716 18.7933Z" fill="url(#paint1_linear_263_3109)"/>
<path d="M36.4391 20.8649C36.4391 20.8649 40.7399 23.3454 43.792 23.4913C46.8442 23.6372 50.2571 23.6372 51.7831 21.7404C52.6988 20.6023 53.2537 19.2599 53.2537 19.2599C53.337 19.0556 53.5312 18.472 53.9474 17.3047C54.0861 18.0926 54.5578 21.0108 52.8653 23.7247C51.6999 25.6216 50.0628 26.4679 49.2582 26.8764C47.3714 27.8102 45.7343 27.8394 44.0972 27.8686C44.0972 27.8686 40.2404 27.927 36.883 26.3803C36.7443 26.322 36.0506 25.9718 35.135 25.534C34.691 25.3298 32.9707 24.4251 32.9707 24.4251L36.4391 20.8649Z" fill="#FCFEFB"/>
<path d="M55.3343 20.2813C55.7505 19.7561 56.8604 18.151 56.9991 15.7873C57.0269 15.5247 57.1378 13.1317 55.917 11.2349C53.7527 7.84977 48.3143 7.32449 45.2899 8.37505C42.2377 9.48397 37.715 12.1104 33.3587 16.7795C27.7816 22.7618 26.2277 25.2131 21.5108 27.0808C17.2932 28.7441 15.018 27.8103 14.2688 27.4601C12.271 26.4971 11.1889 24.717 10.6895 23.7248C10.8837 24.717 11.4109 26.6139 12.8815 28.4523C13.1867 28.8025 14.1856 30.0282 15.6007 30.8161C18.958 32.6837 22.8426 31.3122 24.4797 30.7285C27.6706 29.5612 30.0291 27.2559 34.6628 22.7035C38.7971 18.618 39.574 17.2756 42.6817 15.2912C46.7327 12.7232 49.008 12.694 50.3121 12.8691C51.2555 13.015 53.9747 13.3944 55.1678 15.7873C56.139 17.6841 55.5008 19.7561 55.3343 20.2813Z" fill="url(#paint2_linear_263_3109)"/>
<path d="M47.0942 9.10481C49.4847 9.10481 51.4227 7.06663 51.4227 4.55241C51.4227 2.03818 49.4847 0 47.0942 0C44.7036 0 42.7656 2.03818 42.7656 4.55241C42.7656 7.06663 44.7036 9.10481 47.0942 9.10481Z" fill="#005BBB"/>
</g>
<path d="M1.11327 37.8549V39.91H3.45701V40.847H1.11327V42.9928H3.74998V43.9297H0V36.918H3.74998V37.8549H1.11327Z" fill="white"/>
<path d="M9.25203 39.7992V40.7664H5.23839V39.7992H9.25203Z" fill="white"/>
<path d="M16.6832 36.9281L14.1344 43.9297H12.8454L10.2868 36.9281H11.4782L13.4899 42.751L15.5114 36.9281H16.6832Z" fill="white"/>
<path d="M20.7099 44.0002C20.0784 44.0002 19.4958 43.8491 18.9619 43.5469C18.4346 43.2379 18.0146 42.8114 17.7021 42.2674C17.3962 41.7167 17.2432 41.0988 17.2432 40.4138C17.2432 39.7287 17.3962 39.1142 17.7021 38.5702C18.0146 38.0262 18.4346 37.603 18.9619 37.3008C19.4958 36.9919 20.0784 36.8374 20.7099 36.8374C21.348 36.8374 21.9306 36.9919 22.458 37.3008C22.9918 37.603 23.4117 38.0262 23.7177 38.5702C24.0237 39.1142 24.1767 39.7287 24.1767 40.4138C24.1767 41.0988 24.0237 41.7167 23.7177 42.2674C23.4117 42.8114 22.9918 43.2379 22.458 43.5469C21.9306 43.8491 21.348 44.0002 20.7099 44.0002ZM20.7099 43.0028C21.1592 43.0028 21.5595 42.8987 21.9111 42.6905C22.2627 42.4756 22.5361 42.1734 22.7314 41.7839C22.9332 41.3876 23.0341 40.9309 23.0341 40.4138C23.0341 39.8966 22.9332 39.4433 22.7314 39.0537C22.5361 38.6642 22.2627 38.3653 21.9111 38.1571C21.5595 37.9489 21.1592 37.8448 20.7099 37.8448C20.2607 37.8448 19.8603 37.9489 19.5088 38.1571C19.1572 38.3653 18.8805 38.6642 18.6787 39.0537C18.4834 39.4433 18.3857 39.8966 18.3857 40.4138C18.3857 40.9309 18.4834 41.3876 18.6787 41.7839C18.8805 42.1734 19.1572 42.4756 19.5088 42.6905C19.8603 42.8987 20.2607 43.0028 20.7099 43.0028Z" fill="white"/>
<path d="M26.3855 43.0028H28.6804V43.9297H25.2722V36.9281H26.3855V43.0028Z" fill="white"/>
<path d="M30.7149 36.9281V41.391C30.7149 41.9215 30.8484 42.3212 31.1153 42.5898C31.3887 42.8584 31.7663 42.9928 32.2481 42.9928C32.7364 42.9928 33.114 42.8584 33.3809 42.5898C33.6544 42.3212 33.7911 41.9215 33.7911 41.391V36.9281H34.9043V41.3708C34.9043 41.9417 34.7839 42.4253 34.543 42.8215C34.3021 43.2178 33.9799 43.5133 33.5762 43.708C33.1726 43.9028 32.7266 44.0002 32.2383 44.0002C31.7501 44.0002 31.3041 43.9028 30.9005 43.708C30.5033 43.5133 30.1876 43.2178 29.9532 42.8215C29.7188 42.4253 29.6016 41.9417 29.6016 41.3708V36.9281H30.7149Z" fill="white"/>
<path d="M41.93 43.9297H40.8167L37.4671 38.7011V43.9297H36.3538V36.918H37.4671L40.8167 42.1365V36.918H41.93V43.9297Z" fill="white"/>
<path d="M47.7767 36.9281V37.865H45.97V43.9297H44.8567V37.865H43.0404V36.9281H47.7767Z" fill="white"/>
<path d="M50.0174 37.8549V39.91H52.3611V40.847H50.0174V42.9928H52.6541V43.9297H48.9041V36.918H52.6541V37.8549H50.0174Z" fill="white"/>
<path d="M55.1386 37.8549V39.91H57.4823V40.847H55.1386V42.9928H57.7753V43.9297H54.0253V36.918H57.7753V37.8549H55.1386Z" fill="white"/>
<path d="M62.6719 43.9297L61.1094 41.129H60.2598V43.9297H59.1465V36.9281H61.4902C62.0111 36.9281 62.4505 37.0221 62.8086 37.2101C63.1732 37.3982 63.4434 37.6501 63.6191 37.9657C63.8014 38.2814 63.8926 38.634 63.8926 39.0235C63.8926 39.4802 63.7624 39.8966 63.502 40.2727C63.2481 40.6421 62.8542 40.894 62.3203 41.0283L64 43.9297H62.6719ZM60.2598 40.2123H61.4902C61.9069 40.2123 62.2194 40.1048 62.4277 39.8899C62.6426 39.675 62.75 39.3862 62.75 39.0235C62.75 38.6608 62.6458 38.3788 62.4375 38.1773C62.2292 37.9691 61.9134 37.865 61.4902 37.865H60.2598V40.2123Z" fill="white"/>
<defs>
<linearGradient id="paint0_linear_263_3109" x1="19.6901" y1="5.82243" x2="25.5311" y2="14.589" gradientUnits="userSpaceOnUse">
<stop stop-color="#3D76C5"/>
<stop offset="1" stop-color="#040205"/>
</linearGradient>
<linearGradient id="paint1_linear_263_3109" x1="15.0144" y1="11.9456" x2="24.351" y2="19.31" gradientUnits="userSpaceOnUse">
<stop offset="0.00520833" stop-color="#3D76C5"/>
<stop offset="0.989583" stop-color="#040205"/>
</linearGradient>
<linearGradient id="paint2_linear_263_3109" x1="21.8846" y1="31.7207" x2="29.8444" y2="16.6865" gradientUnits="userSpaceOnUse">
<stop stop-color="#FFD500"/>
<stop offset="0.730403" stop-color="#F7ED4E"/>
<stop offset="1" stop-color="#005BBB"/>
</linearGradient>
<clipPath id="clip0_263_3109">
<rect width="50" height="31.7209" fill="white" transform="translate(7)"/>
</clipPath>
</defs>
</svg>
